<svg xmlns="http://www.w3.org/2000/svg" width="152" height="128" viewBox="0 0 152 128"><defs><style>.a{fill:#fff;opacity:0;}.b{fill:#f4f7f8;}</style></defs><rect class="a" width="152" height="128"/><path class="b" d="M160.494-60.075V-16.6c0,3.5-.934,6.3-3.268,7.469A10.793,10.793,0,0,1,153-8.351l.338,7.463c8.8.144,14.689-4.889,15.778-11.205a100.831,100.831,0,0,0,.331-10.114V-60.075Z" transform="translate(-152 128)"/><path class="b" d="M190.077-21.8V-60.075h-8.636V-15.03h30.808V-21.8Z" transform="translate(-152 128)"/><path class="b" d="M264.561-15.03,242.882-38.661,260.06-60.075H249.986L233.021-39.05V-60.075h-8.752V-15.03h8.752V-36.684L253.064-15.03Z" transform="translate(-152 128)"/><path class="b" d="M186.634-71.92a10.62,10.62,0,0,0,3.851,7.469c3.734,2.917,9.453,1.167,12.137-.584s5.484-3.034,9.1-1.984a7.5,7.5,0,0,1,4.787,4.128,8.735,8.735,0,0,0-4.262-5.835c-3.676-2.027-8.108-.35-10.676,1.321s-6.07,3.187-9.688,1.437S187.684-69.352,186.634-71.92Z" transform="translate(-152 128)"/><path class="b" d="M217.485-62.891a9.944,9.944,0,0,1,2.175-5.761,11.731,11.731,0,0,1,8.32-3.544c3.233-.191,4.983-.307,6.967-1.124a8.068,8.068,0,0,0,4.435-4.085,10.444,10.444,0,0,1,5.033-5.69c3.019-1.545,7.22-1.078,9.67-.378,0,0-5.484,0-7.468,1.284s-3.384,2.45-4.2,4.2-1.517,4.551-3.968,6.3-6.068,2.1-8.4,2.1-5.252,0-7.586,1.284A12.161,12.161,0,0,0,217.485-62.891Z" transform="translate(-152 128)"/><path class="b" d="M250-84.99s1.984-13.887,18.322-16.805c0,0-.117-4.667,6.068-6.185,0,0-3.5,2.568-.817,6.886a7.412,7.412,0,0,1-2.567-3.385,5.8,5.8,0,0,0-.234,4.552S257.47-99.227,250-84.99Z" transform="translate(-152 128)"/><path class="b" d="M269.373-92.459a11.4,11.4,0,0,0,1.167,4.2c.933,1.518,3.267,2.1,5.135,1.518a5.874,5.874,0,0,1,4.2-.234,4.168,4.168,0,0,0-3.268-1.4c-2.217,0-3.384.35-4.9-.817A5.754,5.754,0,0,1,269.373-92.459Z" transform="translate(-152 128)"/><path class="b" d="M269.956-86.974a8.1,8.1,0,0,0-3.034,3.734,5.2,5.2,0,0,0,1.051,5.6c1.79,2.066,4.9,3.5,2.917,6.885,0,0,3.255-3.313.752-6.208S266.455-80.672,269.956-86.974Z" transform="translate(-152 128)"/><path class="b" d="M261.321-68.886s4.462,2.88,7,4.785c2.8,2.1,4.718,2.537,6.852,1.21s6.334-6.345,8.265-7.862c0,0,.591-.817,1.781,0a19.07,19.07,0,0,1,4.807,4.668,20.788,20.788,0,0,0-3.3-5.031c-2.184-2.438-3.818-1.737-4.985-.687s-4.435,4.668-6.652,6.3-3.151,1.75-5.135.7A54.418,54.418,0,0,0,261.321-68.886Z" transform="translate(-152 128)"/><path class="b" d="M271.007-69.936a15.485,15.485,0,0,0,5.66-3.572c2.158-2.38,4.842-4.6,6.71-5.064s3.5.117,5.134,2.1,2.684,4.318,4.785,6.3,3.384,3.5,2.917,5.951-1.517,3.851-1.867,5.835-1.283,1.751-1.75,1.4a7.661,7.661,0,0,1-2.568-6.827s.467,2.625,1.4,3.559c0,0,.583.467,1.05.233s.584-.7.584-1.283,0-2.451.816-3.385c0,0,.351-.35-.233-1.167s-4.318-4.784-6.418-7.818-2.8-3.268-3.735-2.8a31.053,31.053,0,0,0-5.018,3.5A16.378,16.378,0,0,1,271.007-69.936Z" transform="translate(-152 128)"/><path class="b" d="M200.288-88.374a12.765,12.765,0,0,0,6.885,7.7c5.718,2.8,11.2,1.75,15.521.583s5.718-2.334,10.269-1.867c0,0-3.968-2.334-9.919-.7a26.8,26.8,0,0,1-14.938,0A14.134,14.134,0,0,1,200.288-88.374Z" transform="translate(-152 128)"/><path class="b" d="M215.342-89.425s-9.336,1.518-16.1-2.8-11.086-9.686-15.52-19.139c0,0,3.15,2.918,9.8,5.6s12.954,2.917,18.439,2.8,9.685-.584,14.12,1.166,6.885,5.135,9.219,8.169a38.949,38.949,0,0,0,9.039,8.636,38.1,38.1,0,0,1-12.657-9.453c-5.834-6.651-12.6-6.418-16.921-5.834s-16.688.933-24.156-4.085C190.6-104.362,198.654-88.258,215.342-89.425Z" transform="translate(-152 128)"/><path class="b" d="M277.075-102.961,303-127.115l-20.557,26.838a15.207,15.207,0,0,1,2.1,3.967,9.364,9.364,0,0,0,3.734,4.318c1.05.817,2.217,1.4,2.8,2.8s-.234,2.567-.817,3.5a14.611,14.611,0,0,1-2.1,2.217c-.933.7-1.75.233-2.917-.467s-1.284-1.4-2.217-1.517a3.222,3.222,0,0,1,2.194.467c1.19.7,2.123.583,2.59-.233s1.634-2.334.934-3.268-4.318-3.267-6.069-5.368-1.517-4.2-4.784-6.068l10.736-12.02Z" transform="translate(-152 128)"/></svg>