<svg xmlns="http://www.w3.org/2000/svg" width="240" height="80" viewBox="0 0 240 80"><defs><style>.a,.b,.c{fill:#fff;}.a{opacity:0;}.b{opacity:0.7;}</style></defs><rect class="a" width="240" height="80"/><rect class="b" width="6.675" height="6.675" transform="translate(76.332 20.12)"/><rect class="c" width="6.58" height="36.332" transform="translate(157.341 19.5)"/><rect class="c" width="6.675" height="24.746" transform="translate(76.332 31.086)"/><path class="c" d="M3155.509,615.968" transform="translate(-3043.941 -559.468)"/><path class="c" d="M3148.358,599a5.515,5.515,0,0,1,.453,2.227V615.3h6.565V599.78a9.848,9.848,0,0,0-8.219-9.665,9.952,9.952,0,0,0-9.91,3.966v-3.527h-6.484V615.3h6.484V602.508c.2-3.056,1.113-5.133,3.6-6.312A5.582,5.582,0,0,1,3148.358,599Z" transform="translate(-3043.941 -559.468)"/><path class="c" d="M3170.29,609.578c-3.338.1-4.2-.953-4.482-1.907a15.9,15.9,0,0,1-.286-3.147v-8.392h4.768V590.6h-4.768v-9.823h-6.485V602.14c0,1.24,0,3.529.095,4.959s.382,3.91,1.335,5.245a7.2,7.2,0,0,0,4.1,2.765,25.781,25.781,0,0,0,5.817.477Z" transform="translate(-3043.941 -559.468)"/><path class="c" d="M3185.023,590.125a12.922,12.922,0,1,0,0,25.843c4.379,0,8.725-1.717,11.3-4.959l-4.67-3.57a9.325,9.325,0,0,1-6.63,2.807c-3.386,0-6.186-2.158-6.653-5.054h19.479v-2.146C3197.849,595.751,3192.6,590.125,3185.023,590.125Zm-6.653,10.489c.467-2.9,3.267-5.054,6.653-5.054s6.186,2.158,6.653,5.054Z" transform="translate(-3043.941 -559.468)"/><path class="c" d="M3214.2,612.535a.891.891,0,0,0-.953-.811h-1.121v2.718h.5v-1.1h.355l.67,1.1h.5l-.689-1.119A.851.851,0,0,0,3214.2,612.535Zm-1.573-.382h.677a.382.382,0,1,1,0,.763h-.677Z" transform="translate(-3043.941 -559.468)"/><path class="c" d="M3213.107,611.08a2.026,2.026,0,1,1-2.027,2.027,2.029,2.029,0,0,1,2.027-2.027m0-.357a2.384,2.384,0,1,0,2.384,2.384,2.384,2.384,0,0,0-2.384-2.384Z" transform="translate(-3043.941 -559.468)"/></svg>