<svg xmlns="http://www.w3.org/2000/svg" width="240" height="80" viewBox="0 0 240 80"><defs><style>.a,.b,.c{fill:#fff;}.a{opacity:0;}.c{opacity:0.7;}</style></defs><rect class="a" width="240" height="80"/><path class="b" d="M3157.131,325.527a6.846,6.846,0,0,0,.636-3.277v-6.3H3149.9v1.089h5.982v4.435a10.605,10.605,0,0,1-.459,4.057h-.322v-5.109h-2.043l.044.049a1.315,1.315,0,0,1,.221.914v4.146h-.889v-5.109H3150.4l.039.059a1.577,1.577,0,0,1,.214.9v4.146h-1.525v1.078h9.652v-1.078Z" transform="translate(-2992.62 -293.577)"/><path class="b" d="M3136.1,315.392h-1.742l.074.051a1.007,1.007,0,0,1,.355.91v2.093h-.841v-2.675c0-.26-.13-.379-.411-.379h-1.779l.081.054a1,1,0,0,1,.372.907V321.3a3.222,3.222,0,0,1-1.252.223h-2.24v-4.6h2.689v-1.09h-5.038l.061.054a1.343,1.343,0,0,1,.354,1.034V321.4a1.115,1.115,0,0,0,1.2,1.2h2.916a2.259,2.259,0,0,0,1.313-.364v4.359h1.737v-7.081h.841v7.081h1.726V315.771C3136.51,315.511,3136.378,315.392,3136.1,315.392Z" transform="translate(-2992.62 -293.577)"/><path class="b" d="M3146.947,317.69v-1.932c0-.258-.13-.378-.412-.378h-1.98l.084.057a1,1,0,0,1,.41.9V322.6h-5.943v1.077h5.787c.1,0,.143.063.143.229v2.7h1.911v-7.826h1.711V317.69Zm-2.876,1.608a2.344,2.344,0,0,0-.816-1.744h.941V316.5h-2.1V315.29h-2.127l-.012.05s.242.141.242.7v.463h-2.1v1.05h.953a2.34,2.34,0,0,0-.815,1.744,2.946,2.946,0,0,0,5.828,0Zm-4.128,0a1.242,1.242,0,1,1,1.212,1.508A1.386,1.386,0,0,1,3139.943,319.3Z" transform="translate(-2992.62 -293.577)"/><path class="b" d="M3110.829,320.573v-.742h2.9v-1.053h-5.755v-.6h5.755v-1.074h-5.755v-.626h5.755v-1.053h-8.111l.066.049a1.225,1.225,0,0,1,.381,1.028v2.134a1.243,1.243,0,0,0,1.353,1.193h1.5v.742H3104.9v1.051h10.006v-1.051Zm-2.632,4.33h4.661c.59,0,.879-.329.879-1v-1.314c0-.257-.133-.377-.413-.377h-7.144v1.078h5.646v.6h-5.9l-.01.052c.006,0,.374.139.374.883v.551a1.288,1.288,0,0,0,1.364,1.229h6.11v-1.064H3108.2Z" transform="translate(-2992.62 -293.577)"/><path class="b" d="M3124.39,315.392h-2.014l.09.056a1,1,0,0,1,.423.9v3.868a4.914,4.914,0,0,1-1.746.287h-3.275v-1.331h2.775c.59,0,.877-.325.877-1v-2.138c0-.257-.129-.375-.41-.375l-5.263,0v1.063h3.907v1.381h-4.187l.054.052a1.326,1.326,0,0,1,.335,1.013v1.189a1.121,1.121,0,0,0,1.208,1.207h3.883a3.771,3.771,0,0,0,1.842-.446V322.6h-6.079v1.077h5.936c.1,0,.143.063.143.229v2.7h1.911V315.771C3124.8,315.514,3124.671,315.392,3124.39,315.392Z" transform="translate(-2992.62 -293.577)"/><path class="b" d="M3102.679,317.959v-2.126c0-.362-.223-.441-.411-.441h-1.951l.08.054a1,1,0,0,1,.373.907v10.252h1.909v-7.569h1.711v-1.077Zm-8.749-1.1h3.281v.2c0,2.589-1.19,4.339-3.262,4.805l-.019.006v1.069l.028,0a5.7,5.7,0,0,0,5.366-6.019v-1.139h-5.394Z" transform="translate(-2992.62 -293.577)"/><path class="b" d="M3106.4,332.186h-3.3l.148.094a1.631,1.631,0,0,1,.691,1.481v3.445h-3.421v1.76h3.421v11.826h3.128V332.8C3107.075,332.385,3106.863,332.186,3106.4,332.186Zm-8.38,3.451v-3.026h-4.094l.153.1a1.506,1.506,0,0,1,.749,1.363v1.566c0,2.827-1.793,6.2-3.96,7.291l-.073.022,1.817,1.455.024-.005a10.722,10.722,0,0,0,3.778-4.353,11.588,11.588,0,0,0,3.807,4.353l.022.005,1.746-1.477C3099.782,341.733,3098.024,338.464,3098.024,335.637Zm11,6.638h6.845v.871h-4.632v1.779h9.541v1h-9.964l-.013.088s.617.228.617,1.463v.909a2.133,2.133,0,0,0,2.261,2.036h10.6v-1.759h-9.7V347.6h7.907c.979,0,1.452-.545,1.452-1.659v-2.168c0-.428-.214-.626-.679-.626h-4.226v-.871h6.842v-1.74h-16.849Zm8.438-2.327c3.3,0,5.892-1.788,5.892-4.077,0-2.249-2.644-4.079-5.892-4.079s-5.918,1.83-5.918,4.079C3111.546,338.16,3114.147,339.948,3117.464,339.948Zm0-6.353a2.276,2.276,0,1,1,0,4.547,2.277,2.277,0,1,1,0-4.547Zm68.266,5.983c2.651,0,4.729-1.668,4.729-3.8,0-2.1-2.122-3.8-4.729-3.8s-4.745,1.7-4.745,3.8C3180.985,337.91,3183.069,339.578,3185.73,339.578Zm0-5.913a2.141,2.141,0,0,1,0,4.235,2.142,2.142,0,0,1,0-4.235Zm-8.8-1.232h-3.294l.146.091a1.637,1.637,0,0,1,.695,1.486v.9h-2.309v-1.887h-3.934l.132.075.059.032a1.308,1.308,0,0,1,.722,1.322v1.3h-3.136v-2.729h-3.7v.092c.245.093.654.4.654,1.337v5.618a1.879,1.879,0,0,0,2.012,2h7.188V340.6h2.309v2.428a7.344,7.344,0,0,0-2.779-.534c-3.235,0-5.858,2.028-5.858,4.517s2.623,4.515,5.858,4.515c3.255,0,5.9-2.029,5.9-4.515,0-.051,0-.1,0-.151h0V333.051C3177.6,332.629,3177.386,332.433,3176.925,332.433Zm-7.783,7.872h-3.136v-2.764h3.136Zm2.515,9.49a2.762,2.762,0,1,1,2.79-2.761A2.757,2.757,0,0,1,3171.657,349.8Zm2.815-10.934h-2.309v-2.2h2.309Zm20.372-6.476h-3.138l.11.079a2.021,2.021,0,0,1,.573,1.546V343.1h-3.77v1.554h3.77v4.353h-5.945v-3.293h-3.458l.05.081a3.219,3.219,0,0,1,.282,1.491v1.491a1.9,1.9,0,0,0,1.995,2.014h10.2v-1.048h.006V333C3195.515,332.582,3195.3,332.385,3194.844,332.385Zm-7.131,9.414h3.843V340.12h-11.219V341.8h3.833c-.034.62-.8,1.352-2.448,1.533h-.039v1.69h.045C3184.6,345.023,3187.058,343.7,3187.713,341.8Zm-55.14-2.973a8.784,8.784,0,0,0,4.444,3.222l.024.005,1.572-1.466-.062-.026a7,7,0,0,1-4.394-5.965v-1.88h-4.046l.151.089a1.478,1.478,0,0,1,.73,1.336v.455a7.185,7.185,0,0,1-4.407,6.04l-.071.019,1.577,1.47.023-.006A8.811,8.811,0,0,0,3132.573,338.826Zm9.332-6.393h-3.3l.148.091a1.633,1.633,0,0,1,.7,1.486v1.652h-3.423v1.767h3.423v5.6a7.344,7.344,0,0,0-2.781-.534c-3.23,0-5.857,2.028-5.857,4.517s2.627,4.515,5.857,4.515c3.253,0,5.9-2.029,5.9-4.515,0-.045,0-.086,0-.126h0V333.051C3142.573,332.629,3142.361,332.433,3141.905,332.433Zm-5.27,17.362a2.763,2.763,0,0,1,.031-5.524,2.729,2.729,0,0,1,2.758,2.763A2.777,2.777,0,0,1,3136.635,349.8Zm18.111-6.758h4.741v-9.815h-13.423l-.024.079.041.019a1.58,1.58,0,0,1,.8,1.54v6.164a1.9,1.9,0,0,0,2.038,2.013h2.7v5.236h-6.284v1.766h15.693v-1.766h-6.283Zm-4.736-1.741v-6.288h6.351V341.3Z" transform="translate(-2992.62 -293.577)"/><path class="c" d="M3079.367,318.872a66.569,66.569,0,0,0-49.355,0c-.489.242-.725.458-.725,1.012v25.393c0,.554.236.769.725,1.012a66.556,66.556,0,0,0,49.355,0c.489-.243.725-.458.725-1.012V319.884C3080.092,319.33,3079.856,319.114,3079.367,318.872Zm-7.4.4a1.472,1.472,0,0,1,1.851-1.139,1.4,1.4,0,0,1,.57.3l.01.009-.16.446-.023-.025a1,1,0,0,0-.493-.311.969.969,0,0,0-.754.084,1.362,1.362,0,0,0-.476,1.728.954.954,0,0,0,.582.454,1.212,1.212,0,0,0,.606.017l.034-.011-.1.465-.013,0a1.52,1.52,0,0,1-.643-.063A1.453,1.453,0,0,1,3071.964,319.277Zm-3.588-2.372.005-.02.427.087-.612,3.043-.428-.085Zm-5.042-.808,0-.02.432.057s-.346,2.616-.351,2.656c.038,0,1.144.151,1.144.151l-.056.422-1.575-.208Zm-6.418,1.03a1.745,1.745,0,0,1,.509-1.225,1.252,1.252,0,0,1,.919-.309,1.415,1.415,0,0,1,1.264,1.673,1.746,1.746,0,0,1-.5,1.226,1.342,1.342,0,0,1-1.816-.093A1.748,1.748,0,0,1,3056.916,317.127Zm-5.347-1.516s.04,1.243.042,1.281l1.278-.042c0-.039-.042-1.282-.042-1.282l.416-.014h.019l.1,3.1-.435.015s-.045-1.357-.046-1.4l-1.279.042c0,.04.046,1.4.046,1.4l-.435.015-.1-3.1Zm-.83,4.29c1.393-.082,2.731-.123,3.961-.123,5.883,0,14.246.945,19.408,2.771h-23.369Zm0,4.066h24.578c0,.058.006.116.008.167v.7h-21.9v5.987h10.078v.868h-12.767Zm4.1,5.439v-.869h20.482v.869Zm20.482,1.416v.868h-10.4v-.868Zm-20.482-3.7v-.869h20.482v.869Zm8.663,5.987v5.438h-17.45v-.869h14.422v-3.7h-14.422V322.538h-10.732a59.625,59.625,0,0,1,14-2.541v13.111Zm-15.9-17.225.02,0,.048.423-.852.1c0,.038.3,2.661.3,2.661l-.432.049s-.3-2.623-.3-2.662l-.854.1-.048-.424Zm-6.568.964.422-.08.013,0,1.745,2.828-.466.089s-.407-.683-.42-.706l-1.3.248c0,.027-.13.812-.13.812l-.45.086Zm-5.872,1.786a1.422,1.422,0,0,1,.881-.673,1.4,1.4,0,0,1,.642-.042l.014,0,.094.466-.033-.011a1,1,0,0,0-.583-.01.974.974,0,0,0-.6.462,1.253,1.253,0,0,0-.079.955,1.072,1.072,0,0,0,1.3.858,1.237,1.237,0,0,0,.528-.3l.023-.026.153.449-.011.009a1.516,1.516,0,0,1-.582.28,1.419,1.419,0,0,1-1.1-.1,1.685,1.685,0,0,1-.758-1.054A1.645,1.645,0,0,1,3035.165,318.633Zm-1.089,5.5c0-.055,0-.116.008-.18h10.555v10.022h-10.563Zm0,11.258h24.985v.87h-14.422v3.7h20.283v-6.855h10.4v7.241a1.841,1.841,0,0,1-.243,1,1.518,1.518,0,0,1-.547.427,47.243,47.243,0,0,1-9.613,2.192v-3.136h-30.8a3.179,3.179,0,0,1-.044-.482Zm29.43,6.856v1.9a76.912,76.912,0,0,1-8.806.556,70.421,70.421,0,0,1-18.444-2.455Zm-29.61,4.024a1.011,1.011,0,0,1-.615-.506,1.454,1.454,0,0,1,.018-1.118l.584-1.7.007-.019.411.14-.572,1.664a1.132,1.132,0,0,0-.048.846.664.664,0,0,0,.808.277,1.129,1.129,0,0,0,.482-.7l.571-1.663.41.141-.588,1.718C3035.083,346.175,3034.561,346.5,3033.9,346.272Zm3.449,1.022-.487-2.715c-.035.124-.689,2.375-.689,2.375l-.419-.122.861-2.963.006-.019.547.159s.448,2.526.471,2.654c.038-.127.676-2.321.676-2.321l.417.122-.866,2.981Zm1.8.477-.422-.107.757-2.99.005-.02.421.107Zm1.547.365-.363-3.231,0-.027.475.1s.245,2.67.254,2.764l1.407-2.4.448.1-1.708,2.8Zm4.125-1.928-1.132-.2c-.006.036-.143.806-.149.843l1.031.18-.073.421-1.031-.182c-.007.037-.162.918-.169.956l1.133.2-.074.42-1.561-.275.535-3.038,0-.02,1.561.275Zm2.333.759a.705.705,0,0,1-.641.623.538.538,0,0,1,.205.333l.361,1.309-.49-.066-.279-1.123c-.078-.3-.193-.316-.4-.344l-.215-.029-.184,1.348-.431-.058.417-3.057,0-.02.69.094a1.244,1.244,0,0,1,.844.363.72.72,0,0,1,.135.448A1.253,1.253,0,0,1,3047.153,346.967Zm1.435.558a1.042,1.042,0,0,1,.622,1.038.9.9,0,0,1-1.115.826,1.691,1.691,0,0,1-.557-.184l-.013-.007.088-.445.024.014a1.549,1.549,0,0,0,.548.2.58.58,0,0,0,.406-.116.441.441,0,0,0,.16-.311c.03-.3-.192-.447-.451-.616-.3-.2-.637-.418-.585-.943a.825.825,0,0,1,.985-.761,1.733,1.733,0,0,1,.582.169l.014.008-.1.438-.023-.013a1.1,1.1,0,0,0-.495-.176.526.526,0,0,0-.375.086.357.357,0,0,0-.124.255C3048.151,347.231,3048.353,347.367,3048.588,347.525Zm1.628,1.995-.434-.032.226-3.077v-.02l.434.032Zm2.841-2.535-.856-.037c0,.039-.121,2.675-.121,2.675l-.433-.019s.117-2.636.118-2.675c-.038,0-.856-.039-.856-.039l.019-.406v-.02l2.147.1Zm2.927-.378-1.075,1.771,0,1.3h-.435s0-1.286,0-1.3-1.073-1.779-1.073-1.779l-.018-.031h.509l.808,1.357c.033-.055.793-1.353.793-1.353H3056Zm3.624,2.6a1.248,1.248,0,0,1-.886.409c-.818.049-1.383-.549-1.441-1.522a1.414,1.414,0,0,1,1.25-1.683c.8-.048,1.385.564,1.442,1.523A1.741,1.741,0,0,1,3059.608,349.207Zm1.551.165-.433.045-.313-3.09,1.48-.15.019,0,.043.424s-1.027.1-1.066.109c0,.036.083.814.086.851l1.018-.1.044.422-1.019.1Zm4.915-.658s-.57.09-.587.085l-1.4-1.258c.016.1.225,1.449.225,1.449l-.43.066-.477-3.068.429-.067s.187,1.2.2,1.3c.138-.219.929-1.469.942-1.477l.521-.081.044-.007-1.074,1.654,1.651,1.4Zm1.5-.239c-.8.161-1.445-.354-1.637-1.31a1.412,1.412,0,0,1,1.007-1.838c.789-.159,1.447.368,1.635,1.309A1.4,1.4,0,0,1,3067.571,348.475Zm3.445-.841-.674-.941a.372.372,0,0,0-.5-.17l-.21.052c.01.038.329,1.321.329,1.321l-.423.106-.748-3.015.675-.168a1.241,1.241,0,0,1,.917.026.939.939,0,0,1,.371.727.7.7,0,0,1-.387.627.53.53,0,0,1,.312.232l.819,1.083Zm1.079-.289-.866-2.982,1.5-.436.02-.006.118.41-1.105.321c.011.035.229.786.239.822l1.006-.293.119.41-1.006.292c.011.036.261.9.271.932l1.1-.321.119.409Zm4.136-1.3s-.495-.623-.512-.643l-1.255.422c0,.027-.019.823-.019.823l-.434.146.14-3.324.405-.137.014,0,2.11,2.566Zm-18.03-27.672a.771.771,0,0,0,.576-.194,1.556,1.556,0,0,0,.089-1.909.8.8,0,0,0-1.109-.058,1.346,1.346,0,0,0-.384.938C3057.346,317.694,3057.546,318.34,3058.2,318.373ZM3074.47,345.4c.05-.017.937-.316.987-.334l-.954-1.2C3074.5,343.97,3074.471,345.348,3074.47,345.4Zm6.87-27.049a2.051,2.051,0,0,0-.78-.678,68.185,68.185,0,0,0-51.734,0,2.058,2.058,0,0,0-.78.678,3.162,3.162,0,0,0-.321,1.522v25.409a3.17,3.17,0,0,0,.321,1.523,2.065,2.065,0,0,0,.724.65,68.173,68.173,0,0,0,51.846,0,2.073,2.073,0,0,0,.724-.65,3.158,3.158,0,0,0,.32-1.523V319.874A3.149,3.149,0,0,0,3081.34,318.352Zm-.711,26.942a1.769,1.769,0,0,1-.143.869,1.1,1.1,0,0,1-.443.448,67.172,67.172,0,0,1-50.7,0,1.1,1.1,0,0,1-.444-.448,1.781,1.781,0,0,1-.143-.869v-25.4a1.784,1.784,0,0,1,.143-.869,1.089,1.089,0,0,1,.444-.447,67.172,67.172,0,0,1,50.7,0,1.09,1.09,0,0,1,.443.447,1.772,1.772,0,0,1,.143.869Zm-21.5,1.731a.759.759,0,0,0-.569-.188.749.749,0,0,0-.541.254,1.554,1.554,0,0,0,.105,1.91.822.822,0,0,0,1.127-.068,1.556,1.556,0,0,0-.122-1.908Zm-12.9-.612-.356-.049-.12.884.313.042a.634.634,0,0,0,.475-.09.416.416,0,0,0,.158-.286.606.606,0,0,0,0-.071C3046.7,346.61,3046.532,346.454,3046.227,346.413Zm21.386-.56a.809.809,0,0,0-1.09.217,1.351,1.351,0,0,0-.139,1.006c.107.532.46,1.109,1.1.981a.774.774,0,0,0,.509-.331,1.557,1.557,0,0,0-.384-1.873Zm2.05-.643-.349.086c.009.037.205.829.215.865l.306-.076c.3-.074.465-.243.465-.465a.5.5,0,0,0-.015-.119C3070.219,345.235,3069.991,345.128,3069.663,345.21Zm-28.329-27.919c-.016.1-.232,1.46-.24,1.513l1.023-.2C3042.089,318.563,3041.386,317.378,3041.334,317.291Z" transform="translate(-2992.62 -293.577)"/></svg>