<svg xmlns="http://www.w3.org/2000/svg" width="240" height="80" viewBox="0 0 240 80"><defs><style>.cls-1,.cls-2,.cls-3{fill:#fff;}.cls-1{opacity:0;}.cls-3{isolation:isolate;opacity:0.7;}</style></defs><g id="레이어_2" data-name="레이어 2"><g id="레이어_1-2" data-name="레이어 1"><rect id="사각형_168" data-name="사각형 168" class="cls-1" width="240" height="80"/><path class="cls-2" d="M154.94,31.14a.87.87,0,0,0-.34,1,.27.27,0,0,1,0,.24,1.1,1.1,0,0,0-.14,1.24,1.47,1.47,0,0,0,.36.49,1.17,1.17,0,0,1,.38.71A1.11,1.11,0,0,1,156,35a1.27,1.27,0,0,0,.58.19,1.1,1.1,0,0,0,1.12-.52.31.31,0,0,1,.25-.14.83.83,0,0,0,.85-.63A4.46,4.46,0,0,1,154.94,31.14Z"/><path class="cls-2" d="M159.06,25.06a4.33,4.33,0,0,1,2.37.69.84.84,0,0,0-.33-1.06.27.27,0,0,1-.08-.25,1.14,1.14,0,0,0-.6-1.07,1.7,1.7,0,0,0-.58-.19,1.16,1.16,0,0,1-.77-.36,1.06,1.06,0,0,1-.74.36,1.35,1.35,0,0,0-.57.19,1.08,1.08,0,0,0-.61,1.07.26.26,0,0,1-.11.25.88.88,0,0,0-.33,1A4.39,4.39,0,0,1,159.06,25.06Z"/><path class="cls-2" d="M154.63,29.53v0h0a4.24,4.24,0,0,1,.18-1.25,4.39,4.39,0,0,1,1.43-2.16.87.87,0,0,0-1.09,0,.35.35,0,0,1-.27,0,1.17,1.17,0,0,0-1.21.24,1.75,1.75,0,0,0-.36.49,1.1,1.1,0,0,1-.57.61,1.17,1.17,0,0,1,.11.82,1.37,1.37,0,0,0,0,.61,1.1,1.1,0,0,0,.85.9.29.29,0,0,1,.19.2.84.84,0,0,0,.87.6A4.4,4.4,0,0,1,154.63,29.53Z"/><path class="cls-2" d="M164.86,26.82a2,2,0,0,0-.36-.52,1.1,1.1,0,0,0-1.23-.21.32.32,0,0,1-.25,0,.89.89,0,0,0-1.12,0,4.45,4.45,0,0,1,1.6,3.42,4.16,4.16,0,0,1-.13,1.06.86.86,0,0,0,.91-.63.31.31,0,0,1,.2-.17,1.16,1.16,0,0,0,.85-.9,1.12,1.12,0,0,0,0-.61,1.23,1.23,0,0,1,.11-.82A1.21,1.21,0,0,1,164.86,26.82Z"/><path class="cls-2" d="M164.62,20h-11.1a3.93,3.93,0,0,0-3.93,3.92V35A3.93,3.93,0,0,0,153.51,39h11.14A3.92,3.92,0,0,0,168.54,35V23.92A3.93,3.93,0,0,0,164.62,20Zm1.48,7.33a0,0,0,0,1,0,0h0a.39.39,0,0,1,0,.09,2,2,0,0,0-.21.4.76.76,0,0,0,0,.3,2.38,2.38,0,0,1,0,.8,1.67,1.67,0,0,1-1.13,1.32,1.47,1.47,0,0,1-.85.79,1.34,1.34,0,0,1,.22,1.13,1.62,1.62,0,0,1,.14,1.73,3.05,3.05,0,0,1-.47.63l-.08.08a.82.82,0,0,0-.18.62.27.27,0,0,1-.11.21l-.1,0h0l-.1,0c-.42-.1-.54-.09-.74,0h0a3,3,0,0,1-.73.27,1.72,1.72,0,0,1-1.62-.68,1.33,1.33,0,0,1-1-.55,1.43,1.43,0,0,1-1,.57,1.74,1.74,0,0,1-1.62.66,2,2,0,0,1-.74-.24c-.19-.11-.3-.17-.74-.06a.26.26,0,0,1-.23,0,.17.17,0,0,1-.07-.08h0v0h0a.41.41,0,0,1,0-.1c0-.44-.11-.52-.28-.68a1.68,1.68,0,0,1-.47-.63,1.63,1.63,0,0,1,.14-1.73,1.36,1.36,0,0,1,.22-1.13,1.4,1.4,0,0,1-.85-.79,1.67,1.67,0,0,1-1.12-1.32,2.33,2.33,0,0,1,0-.8s0-.06,0-.09a.83.83,0,0,0-.2-.61.3.3,0,0,1,0-.2h0a0,0,0,0,1,0,0,.31.31,0,0,1,0-.1h0a.2.2,0,0,1,.08,0,2,2,0,0,0,.29-.14h0a.79.79,0,0,0,.26-.32,1.71,1.71,0,0,1,.47-.63,1.58,1.58,0,0,1,1.67-.41,1.35,1.35,0,0,1,1.15-.14,1.36,1.36,0,0,1,.47-1,1.71,1.71,0,0,1,.9-1.48,1.89,1.89,0,0,1,.77-.24.67.67,0,0,0,.31-.1,1.19,1.19,0,0,0,.29-.3.26.26,0,0,1,.21-.12l.11,0h0l.06.06,0,0,.08.09a1,1,0,0,0,.19.18.66.66,0,0,0,.34.12,1.81,1.81,0,0,1,.76.24,1.62,1.62,0,0,1,.91,1.48,1.38,1.38,0,0,1,.49,1,1.62,1.62,0,0,1,1.15.14,1.66,1.66,0,0,1,1.68.41,2.14,2.14,0,0,1,.46.66,1,1,0,0,0,.1.18,1,1,0,0,0,.47.29.27.27,0,0,1,.17.16.45.45,0,0,1,0,.11Z"/><path class="cls-2" d="M163.54,32.15a.86.86,0,0,0-.34-1,4.44,4.44,0,0,1-3.79,2.81.81.81,0,0,0,.84.64.23.23,0,0,1,.22.14,1.26,1.26,0,0,0,1.13.52,2.66,2.66,0,0,0,.6-.19,1.06,1.06,0,0,1,.79-.17,1.28,1.28,0,0,1,.42-.74,1.62,1.62,0,0,0,.35-.46,1.21,1.21,0,0,0-.14-1.24A.27.27,0,0,1,163.54,32.15Z"/><polygon class="cls-3" points="73.53 61.93 72.65 60.31 72.09 60.99 72.09 61.93 71.66 61.93 71.66 58.56 72.09 58.56 72.09 60.25 73.4 58.56 73.96 58.56 72.96 59.87 74.09 61.93 73.53 61.93"/><polygon class="cls-3" points="75.64 60.56 75.64 61.93 75.21 61.93 75.21 60.56 74.21 58.56 74.77 58.56 75.39 60.06 76.08 58.56 76.58 58.56 75.64 60.56"/><path class="cls-3" d="M78.2,62a1.13,1.13,0,0,1-1.12-1.18V58.56h.49v2.25a.61.61,0,0,0,.63.68.65.65,0,0,0,.68-.68V58.56h.44v2.25A1.13,1.13,0,0,1,78.2,62"/><polygon class="cls-3" points="82.12 61.93 80.69 59.56 80.69 61.93 80.19 61.93 80.19 58.56 80.63 58.56 82.12 60.93 82.12 58.56 82.56 58.56 82.56 61.93 82.12 61.93"/><path class="cls-3" d="M85.36,61.62a1.13,1.13,0,0,1-.87.37,1,1,0,0,1-.81-.37c-.31-.31-.31-.69-.31-1.37a1.92,1.92,0,0,1,.31-1.38,1.23,1.23,0,0,1,.81-.31,1.15,1.15,0,0,1,1.18,1h-.49a.69.69,0,0,0-.69-.56.56.56,0,0,0-.44.19c-.18.18-.18.37-.18,1.06s0,.87.18,1.06a.59.59,0,0,0,.44.18.64.64,0,0,0,.5-.18.93.93,0,0,0,.19-.57v-.18h-.69v-.44h1.18v.5a1.57,1.57,0,0,1-.31,1"/><polygon class="cls-3" points="97.14 61.93 96.2 60.31 95.71 60.99 95.71 61.93 95.21 61.93 95.21 58.56 95.71 58.56 95.71 60.25 97.01 58.56 97.58 58.56 96.52 59.87 97.7 61.93 97.14 61.93"/><polygon class="cls-3" points="101.31 61.93 99.88 59.56 99.88 61.93 99.38 61.93 99.38 58.56 99.82 58.56 101.25 60.93 101.25 58.56 101.75 58.56 101.75 61.93 101.31 61.93"/><path class="cls-3" d="M103.62,59.31l-.5,1.5h1Zm.87,2.62-.25-.69H103l-.19.69h-.5l1.12-3.37h.37L105,61.93Z"/><polygon class="cls-3" points="106.61 59 106.61 61.93 106.11 61.93 106.11 59 105.24 59 105.24 58.56 107.42 58.56 107.42 59 106.61 59"/><polygon class="cls-3" points="114.33 61.93 112.9 59.56 112.9 61.93 112.4 61.93 112.4 58.56 112.84 58.56 114.33 60.93 114.33 58.56 114.77 58.56 114.77 61.93 114.33 61.93"/><path class="cls-3" d="M116.7,59.31l-.5,1.5h.94Zm.81,2.62-.18-.69h-1.25l-.25.69h-.5l1.12-3.37h.44L118,61.93Z"/><path class="cls-3" d="M123.43,62a1.09,1.09,0,0,1-1.12-1.18V58.56h.43v2.25a.62.62,0,0,0,.69.68.61.61,0,0,0,.62-.68V58.56h.5v2.25A1.13,1.13,0,0,1,123.43,62"/><polygon class="cls-3" points="127.36 61.93 125.92 59.56 125.92 61.93 125.42 61.93 125.42 58.56 125.86 58.56 127.29 60.93 127.29 58.56 127.79 58.56 127.79 61.93 127.36 61.93"/><polygon class="cls-3" points="131.09 61.93 130.72 61.93 129.72 58.56 130.22 58.56 130.91 61.06 131.66 58.56 132.16 58.56 131.09 61.93"/><polygon class="cls-3" points="132.65 61.93 132.65 58.56 134.71 58.56 134.71 59 133.15 59 133.15 59.99 134.46 59.99 134.46 60.5 133.15 60.5 133.15 61.49 134.71 61.49 134.71 61.93 132.65 61.93"/><path class="cls-3" d="M136.64,59h-.75v1.06h.75a.46.46,0,0,0,.5-.5.51.51,0,0,0-.5-.56m.56,2.93-.68-1.43h-.63v1.43h-.43V58.56h1.18a1,1,0,0,1,1,1,.78.78,0,0,1-.63.87l.75,1.5Z"/><polygon class="cls-3" points="143.55 59 143.55 61.93 143.12 61.93 143.12 59 142.25 59 142.25 58.56 144.43 58.56 144.43 59 143.55 59"/><polygon class="cls-3" points="146.11 60.56 146.11 61.93 145.61 61.93 145.61 60.56 144.68 58.56 145.24 58.56 145.86 60.06 146.55 58.56 147.04 58.56 146.11 60.56"/><polygon class="cls-3" points="150.45 61.93 150.45 60.46 149.18 60.46 149.18 61.93 148.7 61.93 148.7 58.56 149.18 58.56 149.18 60 150.45 60 150.45 58.56 150.92 58.56 150.92 61.93 150.45 61.93"/><path class="cls-3" d="M153.57,61.6a1.12,1.12,0,0,1-.83.36,1.07,1.07,0,0,1-.82-.36c-.31-.33-.31-.7-.31-1.35s0-1,.31-1.36a1.07,1.07,0,0,1,.82-.36,1.12,1.12,0,0,1,.83.36c.31.33.3.71.3,1.36s0,1-.3,1.35m-.37-2.4a.59.59,0,0,0-.46-.21.63.63,0,0,0-.47.21c-.15.18-.19.37-.19,1s0,.86.19,1a.63.63,0,0,0,.47.21.59.59,0,0,0,.46-.21c.16-.18.19-.37.19-1s0-.87-.19-1"/><path class="cls-3" d="M111.31,61.6a1.13,1.13,0,0,1-1.65,0c-.31-.33-.3-.7-.3-1.35s0-1,.3-1.36a1.13,1.13,0,0,1,1.65,0c.31.33.3.71.3,1.36s0,1-.3,1.35M111,59.2a.62.62,0,0,0-.93,0c-.16.18-.19.37-.19,1s0,.86.19,1a.62.62,0,0,0,.93,0c.15-.18.19-.37.19-1s0-.87-.19-1"/><path class="cls-3" d="M91.17,61.6a1.08,1.08,0,0,1-.82.36,1.1,1.1,0,0,1-.83-.36c-.3-.33-.3-.7-.3-1.35s0-1,.3-1.36a1.1,1.1,0,0,1,.83-.36,1.08,1.08,0,0,1,.82.36c.31.33.3.71.3,1.36s0,1-.3,1.35m-.36-2.4a.62.62,0,0,0-.93,0c-.15.18-.19.37-.19,1s0,.86.19,1a.62.62,0,0,0,.93,0c.16-.18.19-.37.19-1s0-.87-.19-1"/><path class="cls-3" d="M94.1,61.6a1.08,1.08,0,0,1-.82.36,1.07,1.07,0,0,1-.82-.36c-.31-.33-.31-.7-.31-1.35s0-1,.31-1.36a1.07,1.07,0,0,1,.82-.36,1.08,1.08,0,0,1,.82.36c.31.33.3.71.3,1.36s0,1-.3,1.35m-.36-2.4a.62.62,0,0,0-.93,0c-.15.18-.19.37-.19,1s0,.86.19,1a.62.62,0,0,0,.93,0c.16-.18.19-.37.19-1s0-.87-.19-1"/><path class="cls-3" d="M155.38,62a1.36,1.36,0,0,1-1.11-.45l.32-.33a1,1,0,0,0,.8.32c.41,0,.65-.19.65-.52a.47.47,0,0,0-.12-.34.5.5,0,0,0-.35-.15l-.37-.05a1.12,1.12,0,0,1-.59-.27.86.86,0,0,1-.23-.65,1,1,0,0,1,1.05-1,1.26,1.26,0,0,1,1,.39l-.3.32a.9.9,0,0,0-.69-.26.51.51,0,0,0-.57.52.44.44,0,0,0,.12.32.7.7,0,0,0,.35.15l.36.06a1,1,0,0,1,.59.25.91.91,0,0,1,.25.69,1,1,0,0,1-1.13,1"/><path class="cls-3" d="M139.25,62a1.37,1.37,0,0,1-1.12-.45l.32-.34a1,1,0,0,0,.81.33c.41,0,.65-.19.65-.52a.45.45,0,0,0-.13-.35.45.45,0,0,0-.34-.14l-.37-.06a1.12,1.12,0,0,1-.6-.27.88.88,0,0,1-.23-.65,1,1,0,0,1,1-1,1.27,1.27,0,0,1,1,.39l-.31.32a.87.87,0,0,0-.68-.26.52.52,0,0,0-.58.53.43.43,0,0,0,.12.31.63.63,0,0,0,.36.16l.36.06a1,1,0,0,1,.58.25.9.9,0,0,1,.26.69,1,1,0,0,1-1.13,1"/><path class="cls-3" d="M158.32,60.6h-.72v1.33h-.47V58.56h1.19a1,1,0,0,1,0,2m0-1.58h-.69v1.12h.69a.56.56,0,1,0,0-1.12"/><path class="cls-3" d="M87.64,60.6h-.72v1.33h-.47V58.56h1.19a1,1,0,0,1,0,2m0-1.58h-.69v1.12h.69a.56.56,0,1,0,0-1.12"/><polygon class="cls-3" points="162.22 59.02 162.22 61.93 161.74 61.93 161.74 59.02 160.88 59.02 160.88 58.56 163.08 58.56 163.08 59.02 162.22 59.02"/><path class="cls-3" d="M165.4,61.93l-.21-.68H164l-.22.68h-.5l1.15-3.37h.38l1.15,3.37Zm-.82-2.61-.49,1.5h1Z"/><polygon class="cls-3" points="166.34 61.93 166.34 58.56 166.81 58.56 166.81 61.47 168.32 61.47 168.32 61.93 166.34 61.93"/><polygon class="cls-3" points="118.57 61.93 118.57 58.56 119.04 58.56 119.04 61.47 120.55 61.47 120.55 61.93 118.57 61.93"/><rect class="cls-3" x="159.88" y="58.56" width="0.48" height="3.38"/><rect class="cls-3" x="141.11" y="58.56" width="0.48" height="3.38"/><rect class="cls-3" x="128.67" y="58.56" width="0.48" height="3.37"/><rect class="cls-3" x="108.08" y="58.56" width="0.48" height="3.37"/><path class="cls-3" d="M97.34,51.84v4.62h-2V52.55h-9.3V50.91h4.56V49.55H85.31V48H98.1v1.57H92.6v1.36h3.87a.87.87,0,0,1,.87.93"/><path class="cls-3" d="M95.38,45.25H88v-1h7.4Zm-8.6,1.64H97.34V41.6h-2v1.09H88V41.6H86.07v4.47a.76.76,0,0,0,.71.82"/><path class="cls-3" d="M101.05,52.66h4.46V51H101.7V43.4h3.59V41.71H99.74V51.4a1.2,1.2,0,0,0,1.31,1.26"/><polygon class="cls-3" points="110.13 45.52 108.28 45.52 108.28 41.55 106.38 41.55 106.38 53.04 108.28 53.04 108.28 47.21 110.13 47.21 110.13 53.04 112.04 53.04 112.04 41.55 110.13 41.55 110.13 45.52"/><polygon class="cls-3" points="136.54 51.19 136.54 46.23 134.58 46.23 134.58 51.19 132.46 51.19 132.46 46.23 130.5 46.23 130.5 51.19 127.89 51.19 127.89 52.88 141.28 52.88 141.28 51.19 136.54 51.19"/><path class="cls-3" d="M140.24,42.91v6h-2V43.45H128.6V41.82h10.5a1,1,0,0,1,1.14,1.09"/><path class="cls-3" d="M117.93,45.58a1.59,1.59,0,1,1,0,3.16,1.59,1.59,0,1,1,0-3.16m-1-1.47a3.4,3.4,0,0,0-2.62,3,3.68,3.68,0,0,0,7.3,0,3.44,3.44,0,0,0-2.83-3.11v-.43h3.1V42h-3V41h-1.9v1h-2.78v1.64H117v.43Zm8.92.87V41.55h-2v8.6h2V46.67h1.74V45ZM125,51.13H114.83v1.69h9.09v3.65h1.9V51.9a.74.74,0,0,0-.87-.77"/><path class="cls-3" d="M78.86,55.26c-1.58,0-2.94-.87-2.94-2s1.36-2,2.94-2c1.36,0,3,.76,3,2s-1.63,2-3,2m4.9-2h0c0-2-2.18-3.54-4.9-3.54S74,51.28,74,53.24s2.17,3.54,4.9,3.54,4.9-1.58,4.9-3.54"/><path class="cls-3" d="M81.69,41.5V43h-3v1.69h3V46.1H78.58v1.63h3.11v1.86h2V41.5Zm-4,.21h-6v1.53h4.41a3.12,3.12,0,0,1-.21,1.19,6.3,6.3,0,0,1-4.41,3.75v1.47a7.21,7.21,0,0,0,6.69-7.39.56.56,0,0,0-.49-.55"/><path class="cls-3" d="M149.59,55.17c-1.61,0-2.91-.84-2.91-1.94s1.3-2,2.91-2c1.33,0,2.95.72,2.95,2s-1.62,1.94-2.95,1.94m4.9-1.94h0c0-2-2.2-3.57-4.9-3.57s-4.9,1.61-4.9,3.57,2.19,3.53,4.9,3.53,4.9-1.57,4.9-3.53"/><path class="cls-3" d="M152.64,41.57v1.52H150V41.77h-2v2.57h-3.68V41.77h-2V48.3a.82.82,0,0,0,.85.83H150V48.06h2.69v2h2V41.57Zm-4.65,6h-3.68V45.86H148Zm4.65-1.11H150V44.78h2.69Z"/><path class="cls-3" d="M160.87,41.29c-2.15,0-3.93,1.46-3.93,3.26s1.78,3.18,3.93,3.18,4-1.39,4-3.18-1.79-3.26-4-3.26m0,4.81a1.84,1.84,0,0,1-2-1.57,2,2,0,0,1,4,0,1.85,1.85,0,0,1-2,1.57"/><polygon class="cls-3" points="159.91 52.41 159.91 50.01 156.11 50.01 156.11 48.46 165.78 48.46 165.78 50.01 161.87 50.01 161.87 52.41 159.91 52.41"/><polygon class="cls-3" points="166.41 52.34 166.41 53.4 168.33 53.4 168.33 41.56 166.41 41.56 166.41 50.76 162.6 50.76 162.6 52.34 166.41 52.34"/><path class="cls-3" d="M158.17,56.46h10.17V54.8h-9.15V51.49h-1.93v4.23c0,.81.91.74.91.74"/><path class="cls-2" d="M141,21v6.58h-5.14a1.43,1.43,0,0,1-1.43-1.32V21H129a1.92,1.92,0,0,1,1.09,1.9v15h4.37V30.65H141V37.9h4.42V21Z"/><path class="cls-2" d="M102.81,37.9h4.41V26.23c0-5.46-4.19-5.23-4.64-5.23H90.77a1.85,1.85,0,0,1,1,1.86v15h4.41V23.76h5.08a1.59,1.59,0,0,1,1.5,1.8Z"/><path class="cls-2" d="M126.21,37.9V21H121.8V35.13h-5.16a1.57,1.57,0,0,1-1.42-1.79V21h-5.46s1.12.22,1.12,1.86v9.8c0,5.54,4.64,5.24,4.64,5.24Z"/><polygon class="cls-2" points="77.35 27.92 84.79 37.9 89.94 37.9 82.02 27.88 89.57 21 85.08 20.99 77.35 27.92"/><path class="cls-2" d="M77.16,21H71.63s1.12.22,1.12,1.86v15h4.41V21Z"/><path class="cls-2" d="M159.07,25.56A3.94,3.94,0,1,0,163,29.49,3.92,3.92,0,0,0,159.07,25.56Zm.67,1.07.11-.33.21.3h.36l-.22.28.11.32-.36-.11-.27.22V27l-.27-.22Zm-1.49,3.45h1.65a.12.12,0,0,1,.11.11v.13a.12.12,0,0,1-.11.11h-1.65a.1.1,0,0,1-.11-.11v-.13A.1.1,0,0,1,158.25,30.08Zm0-.38v-.11a.13.13,0,0,1,.11-.11h1.46a.12.12,0,0,1,.11.11v.11a.11.11,0,0,1-.11.11h-1.46A.12.12,0,0,1,158.23,29.7Zm1.76-.49h-1.84a.12.12,0,0,1-.11-.1V29a.13.13,0,0,1,.11-.11H160a.1.1,0,0,1,.11.11v.14C160.1,29.16,160.08,29.21,160,29.21ZM158.1,30.7h2a.12.12,0,0,1,.11.11v.11a.1.1,0,0,1-.11.11h-2a.1.1,0,0,1-.11-.11v-.11A.11.11,0,0,1,158.1,30.7ZM160,28.25c.09,0,.11.06.11.14v.11a.1.1,0,0,1-.11.11h-1.84a.13.13,0,0,1-.11-.11v-.11a.13.13,0,0,1,.11-.14Zm-1.88-1.65.19-.3.11.33.35.11-.3.22,0,.35-.3-.22-.33.11.11-.33-.21-.27Zm-.38,4.81c0-.08,0-.1.08-.1h2.5a.1.1,0,0,1,.11.1v.11a.12.12,0,0,1-.11.11h-2.5c-.05,0-.08-.05-.08-.11Zm-.18.6a.13.13,0,0,1,.11-.11h2.82a.1.1,0,0,1,.11.11v.14a.1.1,0,0,1-.11.11h-2.82a.13.13,0,0,1-.11-.11Zm-1-2.5v.35l-.3-.22-.33.11.11-.32-.22-.3h.35l.22-.27.11.32.33.11Zm.51-1.58v.36l-.27-.19-.33.11.11-.33-.21-.3h.35l.19-.3.11.35.35.11Zm3.67,4.81a.13.13,0,0,1-.11.11h-3.07a.1.1,0,0,1-.11-.11v-.11a.1.1,0,0,1,.11-.11h3.07a.13.13,0,0,1,.11.11Zm.1-5,.33-.11.11-.35.22.3h.35l-.22.3.11.32-.33-.1-.29.19v-.36Zm1.44,2-.35-.11-.27.22v-.35l-.3-.22.35-.11.11-.32.19.27h.35l-.21.3Z"/></g></g></svg>