<svg xmlns="http://www.w3.org/2000/svg" width="240" height="80" viewBox="0 0 240 80"><defs><style>.cls-1,.cls-2,.cls-3{fill:#fff;}.cls-1{opacity:0;}.cls-3{isolation:isolate;opacity:0.7;}</style></defs><g id="레이어_2" data-name="레이어 2"><g id="레이어_1-2" data-name="레이어 1"><rect id="사각형_161" data-name="사각형 161" class="cls-1" width="240" height="80"/><path class="cls-2" d="M157,39.55c.19-.58.82-2.94.82-8.82V28.8l0-2v-.12H144.87v2.27h10.35v4c0,1.13-.14,5.51-.81,6.57h-1.29v-5.8h-2.47v5.8h-1.87v-5.8H146.3v5.8h-3.17v2.27h16.3V39.55Z"/><path class="cls-2" d="M118.36,26.5v5.9h-1.65V26.5h-2.38V37.81a6.3,6.3,0,0,1-3,.64h-3V28.79h3.91V26.62h-6.49v12a2,2,0,0,0,1.78,2.09s1.76,0,3.54,0a9,9,0,0,0,3.26-.6V43h2.38V34.7h1.65V43h2.37V26.5h-2.37Z"/><path class="cls-2" d="M67.87,41.86H84.21V39.59H81.76c.2-.64.81-3.06.81-8.74h0V26.66H69.66v2.27H80v4.16s0,5.2-.79,6.5H75.52V33.71H73v5.88H67.87Z"/><path class="cls-2" d="M193,39.91V37h2.39V34.77H184.84V33h10.52V26.66h-13.1v2.25h10.52v1.81H182.26v4.67a1.8,1.8,0,0,0,.35,1.24,1.31,1.31,0,0,0,1,.4h1v2.88h-4v2.21H197V39.91ZM187.12,37h3.37v2.88h-3.37Z"/><path class="cls-2" d="M202.74,37.31h-2.55v3.93a1.89,1.89,0,0,0,.37,1.3,1.34,1.34,0,0,0,1.08.41H214.1V40.79H202.74Z"/><path class="cls-2" d="M208.91,32.63a4.39,4.39,0,0,0-.73-5.72,5,5,0,0,0-6.55,0,4.42,4.42,0,0,0-.71,5.72h-1.73v2.18h4.67V38.2h2.55V34.81h4.24V32.63Zm-5.51-4.07a2.08,2.08,0,0,1,1.52-.62,2,2,0,0,1,1.48.62,2.25,2.25,0,0,1,0,3.24,2,2,0,0,1-1.48.66,2,2,0,0,1-1.52-.66,2.18,2.18,0,0,1-.67-1.61A2.21,2.21,0,0,1,203.4,28.56Z"/><polygon class="cls-2" points="211.55 39.4 214.11 39.4 214.11 26.52 211.55 26.52 211.55 35.86 209.22 35.86 209.22 38.04 211.55 38.04 211.55 39.4"/><path class="cls-2" d="M164,35.09a5.46,5.46,0,0,0,7.2,0,4.92,4.92,0,0,0,0-7.3,5.44,5.44,0,0,0-7.2,0,4.71,4.71,0,0,0-1.61,3.67A4.65,4.65,0,0,0,164,35.09Zm1.73-5.64a2.56,2.56,0,0,1,1.88-.77,2.51,2.51,0,0,1,1.83.77,2.7,2.7,0,0,1,.85,2,2.67,2.67,0,0,1-.85,2,2.52,2.52,0,0,1-1.83.82,2.56,2.56,0,0,1-1.88-.82,2.74,2.74,0,0,1-.84-2A2.77,2.77,0,0,1,165.71,29.45Z"/><path class="cls-2" d="M177.29,26.62h-2.37V38c-.35.72-2.33.74-2.33.74H162.24v2.16h9.45c2.69,0,3.15-.42,3.23-.58V43h2.57V26.62Z"/><path class="cls-2" d="M136.75,36.63H125.3v2.21h11.33V43h2.56V36.63h-2.44Z"/><path class="cls-2" d="M129.93,35.56a4.47,4.47,0,0,0,4.57-4.34,3.87,3.87,0,0,0-.73-2.24h1.55V26.87h-4.19V25.25h-2.5v1.62h-4.28V29H126a3.87,3.87,0,0,0-.73,2.24,4.55,4.55,0,0,0,4.63,4.34Zm0-2.09a2.17,2.17,0,1,1,2.16-2.17,2.17,2.17,0,0,1-2.16,2.17Z"/><path class="cls-2" d="M139.17,26.55h-2.56v9.12h2.56V32.35h1.71V30.07h-1.71V26.55Z"/><path class="cls-2" d="M99,26.45V29.4H96.22v2.15H99V34H96.22v2.14H99V38c-.87.88-3.25.87-3.27.87H89.94V34.57h5.24V26.64h-8v2.19h5.54v3.48H87.34v0h0v6.73a2.06,2.06,0,0,0,1.78,2l6.34-.05A9,9,0,0,0,99,40.5V43h2.59V26.45Z"/><path class="cls-2" d="M72.88,53.11c.14.13.27.26.4.37l.36.32.35.3.25.17h-1a1.46,1.46,0,0,1-1.28-.49l-2.88-3.21v3.7H67.79V47h1.26v3.45L71.81,47h1.24l-.15.15L71.66,48.7c-.15.2-.31.39-.46.58l-.41.5-.3.37-.13.17.2.23.33.36c.12.15.26.3.41.46l.44.48c.34.39.73.8,1.14,1.26"/><path class="cls-2" d="M77.79,53.45a2.31,2.31,0,0,0,1.81-.76,2.77,2.77,0,0,0,.66-1.93,3.59,3.59,0,0,0-.16-1.11,2.92,2.92,0,0,0-.49-.94,2.26,2.26,0,0,0-1.85-.92,2.37,2.37,0,0,0-1.84.76,2.84,2.84,0,0,0-.69,2,3.13,3.13,0,0,0,.69,2,2.31,2.31,0,0,0,1.87.92m0-6.6A3.7,3.7,0,0,1,80.55,48a3.51,3.51,0,0,1,1,2.56,4.1,4.1,0,0,1-.28,1.51,3.76,3.76,0,0,1-.86,1.23,4,4,0,0,1-1.25.83,4,4,0,0,1-1.47.27A3.76,3.76,0,0,1,75,53.33,3.58,3.58,0,0,1,73.9,50.6,3.53,3.53,0,0,1,75.05,48a3.85,3.85,0,0,1,2.79-1.1"/><path class="cls-2" d="M87.21,52.63a8.85,8.85,0,0,0,.76.85,5.75,5.75,0,0,0,.79.67l.21.14h-1a1.57,1.57,0,0,1-1.31-.57l-2.54-3.28.13,0C85.41,50.25,86,49.77,86,49a.88.88,0,0,0-.36-.77.75.75,0,0,0-.2-.1,1.36,1.36,0,0,0-.35-.09,3.54,3.54,0,0,0-.53-.06c-.21,0-.46,0-.76,0v5.75c0,.21,0,.37,0,.5v.11H82.56V47H85a2.64,2.64,0,0,1,1.71.51,1.65,1.65,0,0,1,.59,1.3,1.84,1.84,0,0,1-.54,1.29,2.27,2.27,0,0,1-.54.41,4.16,4.16,0,0,1-.48.21l.15.19c.06.09.13.17.21.27l.24.31.27.32c.19.25.4.52.63.8"/><polygon class="cls-2" points="90.76 53.26 94.16 53.26 94.16 54.27 89.5 54.27 89.5 47.02 93.71 47.02 93.71 47.99 90.76 47.99 90.76 49.86 93.08 49.86 93.08 50.82 90.76 50.82 90.76 53.26"/><path class="cls-2" d="M99.49,50.61l-.08-.22c0-.11-.1-.25-.16-.42l-.2-.5c-.07-.18-.13-.36-.19-.53s-.13-.3-.18-.43-.09-.23-.11-.28l-.1.27-.18.44c-.07.16-.14.34-.21.52s-.13.36-.19.51-.13.3-.17.42a1.5,1.5,0,0,1-.09.22ZM99.34,47l3,7.29h-1.39c-.19-.49-.35-.93-.5-1.32l-.18-.48-.16-.44a3.05,3.05,0,0,1-.13-.31.8.8,0,0,1,0-.15H97.28a1.12,1.12,0,0,0,0,.15l-.12.31-.16.44c0,.16-.11.32-.17.48-.15.39-.31.83-.49,1.32H95.17l3-7.29Z"/><path class="cls-2" d="M111.66,47v4.47a7.27,7.27,0,0,1-.06,1.13,2.24,2.24,0,0,1-.5,1,2.61,2.61,0,0,1-2,.78h-.61a2.61,2.61,0,0,1-2-.78,2.14,2.14,0,0,1-.5-1,7.27,7.27,0,0,1-.06-1.13V47h1.26c0,.82,0,1.57,0,2.23v2.24c0,1.37.55,2.05,1.64,2.05h0a3,3,0,0,0,1-.14,1.25,1.25,0,0,0,.6-.4,1.35,1.35,0,0,0,.28-.63,4.69,4.69,0,0,0,.07-.88V47h1Z"/><polygon class="cls-2" points="118.93 47.01 119.01 47.01 119.01 54.28 117.97 54.27 113.72 48.84 113.72 54.27 112.77 54.27 112.77 47.01 113.86 47.01 118.05 52.34 118.05 47.01 118.93 47.01"/><rect class="cls-2" x="120.33" y="47.02" width="1.25" height="7.25"/><path class="cls-2" d="M129.3,47l-2.8,7.25h-1.14L122.64,47h1.43c.36,1,.68,1.87,1,2.68.12.35.24.69.37,1l.33.92.25.7.13.35s.07-.16.13-.35.16-.42.26-.7l.33-.92c.12-.33.25-.67.37-1l1-2.68Z"/><polygon class="cls-2" points="131.42 53.26 134.83 53.26 134.83 54.27 130.16 54.27 130.16 47.02 134.37 47.02 134.37 47.99 131.42 47.99 131.42 49.86 133.75 49.86 133.75 50.82 131.42 50.82 131.42 53.26"/><path class="cls-2" d="M140.59,52.63a8.85,8.85,0,0,0,.76.85,5.75,5.75,0,0,0,.79.67l.21.14h-1a1.57,1.57,0,0,1-1.31-.57l-2.54-3.28.13,0c1.19-.17,1.79-.65,1.8-1.46a.88.88,0,0,0-.36-.77.75.75,0,0,0-.2-.1,1.36,1.36,0,0,0-.35-.09,3.54,3.54,0,0,0-.53-.06c-.21,0-.46,0-.76,0v5.75c0,.21,0,.37,0,.5v.11h-1.29V47h2.41a2.64,2.64,0,0,1,1.71.51,1.62,1.62,0,0,1,.59,1.3,1.84,1.84,0,0,1-.54,1.29,2.27,2.27,0,0,1-.54.41,4.16,4.16,0,0,1-.48.21l.15.19c.06.09.13.17.21.27l.24.31.27.32c.19.25.4.52.63.8"/><path class="cls-2" d="M147.53,52.11a2,2,0,0,1-.77,1.62,2.68,2.68,0,0,1-.95.49,4.23,4.23,0,0,1-1.22.17,5.57,5.57,0,0,1-1.94-.33l-.25-.1,0-1.17.14.08a4.43,4.43,0,0,0,2.15.58,1.83,1.83,0,0,0,.95-.26.86.86,0,0,0,.51-.77c0-.42-.31-.79-.91-1.1l-.88-.45-.55-.27-.37-.16a1.89,1.89,0,0,1-1-1.65,1.62,1.62,0,0,1,.9-1.49,3.62,3.62,0,0,1,1.87-.44,5.27,5.27,0,0,1,1.61.25h.05v1.27l-.12-.1a1.93,1.93,0,0,0-.69-.32,3.93,3.93,0,0,0-.91-.14,1.51,1.51,0,0,0-.91.18.7.7,0,0,0-.43.67c0,.38.31.72.91,1l.62.32.59.28c.16.09.36.18.58.28a1.8,1.8,0,0,1,1,1.52"/><rect class="cls-2" x="148.69" y="47.02" width="1.25" height="7.25"/><path class="cls-2" d="M151.16,47h5.34v1h-2.06V49c0,.3,0,.64,0,1v4.24h-1.25V48h-2Z"/><path class="cls-2" d="M162.63,47h1.21c-.5.75-1,1.43-1.35,2-.17.25-.34.5-.5.75l-.43.65-.31.47a1.15,1.15,0,0,0-.13.19v3.16h-1.26V51.11l-.11-.19-.3-.47L159,49.8c-.15-.25-.31-.5-.47-.75l-1.29-2h1.44c.34.53.64,1,.92,1.45.11.18.23.36.34.55s.22.34.33.48l.23.37a1.08,1.08,0,0,1,.12.2Z"/><polygon class="cls-2" points="174.39 48.39 172.11 54.27 171.54 54.27 169.03 48.42 168.27 54.27 167.24 54.27 168.3 47 169.72 47 171.91 52.1 173.93 47 175.36 47 176.37 54.27 175.09 54.27 174.39 48.39"/><polygon class="cls-2" points="178.34 53.26 181.74 53.26 181.74 54.27 177.08 54.27 177.08 47.02 181.29 47.02 181.29 47.99 178.34 47.99 178.34 49.86 180.66 49.86 180.66 50.82 178.34 50.82 178.34 53.26"/><path class="cls-2" d="M186.87,52.69a2,2,0,0,0,.68-.92,3.3,3.3,0,0,0,.22-1.22,3,3,0,0,0-.18-1.06,2.63,2.63,0,0,0-.54-.84A2.87,2.87,0,0,0,185,48h-.9v5.39h.7a3.19,3.19,0,0,0,2.08-.65M188.06,48a3.28,3.28,0,0,1,1.1,2.6A3.45,3.45,0,0,1,188,53.24a4.35,4.35,0,0,1-3,1h-2.17V47h2.23a4.38,4.38,0,0,1,3,1"/><rect class="cls-2" x="190.32" y="47.02" width="1.25" height="7.25"/><path class="cls-2" d="M199,53.91a1.92,1.92,0,0,1-.28.13c-.13.06-.28.11-.45.17s-.39.09-.63.12a4.42,4.42,0,0,1-.76.06,4.26,4.26,0,0,1-3-1,3.47,3.47,0,0,1-1.11-2.71A3.55,3.55,0,0,1,193.79,48a3.78,3.78,0,0,1,1.24-.82,4.88,4.88,0,0,1,1.59-.34,4.68,4.68,0,0,1,.94,0c.28,0,.51.1.7.15a3.05,3.05,0,0,1,.57.24v1.22q-.22-.15-.45-.27a4,4,0,0,0-.47-.21,3.05,3.05,0,0,0-.54-.14,3.23,3.23,0,0,0-.64,0,2.72,2.72,0,0,0-1.13.26,3.08,3.08,0,0,0-.84.59,2.56,2.56,0,0,0-.66,1.82,2.93,2.93,0,0,0,.7,2,2.54,2.54,0,0,0,.85.64,2.7,2.7,0,0,0,1,.23,4.4,4.4,0,0,0,.83,0,5.16,5.16,0,0,0,.67-.15,3,3,0,0,0,.47-.2l.3-.18Z"/><rect class="cls-2" x="200.13" y="47.02" width="1.25" height="7.25"/><polygon class="cls-2" points="208.86 47.01 208.94 47.01 208.94 54.28 207.9 54.27 203.65 48.84 203.65 54.27 202.7 54.27 202.7 47.01 203.79 47.01 207.98 52.34 207.98 47.01 208.86 47.01"/><polygon class="cls-2" points="211.31 53.26 214.72 53.26 214.72 54.27 210.05 54.27 210.05 47.02 214.26 47.02 214.26 47.99 211.31 47.99 211.31 49.86 213.63 49.86 213.63 50.82 211.31 50.82 211.31 53.26"/><path class="cls-3" d="M25.29,21.72V43.8c0,10,3.73,16.32,16.23,21.92h.27C54.29,60.12,58,53.76,58,43.8V21.72ZM57.12,44.06c0,9.37-3.58,15.36-15.34,20.63h-.25C29.76,59.42,26.28,53.43,26.28,44.06V22.61H57.12Z"/><path class="cls-3" d="M48.38,55.39h0"/><path class="cls-3" d="M48.38,55.39Z"/><path class="cls-3" d="M47.84,43.73v0"/><path class="cls-3" d="M45.53,50.22h0"/><path class="cls-2" d="M38,46.63a.71.71,0,0,0-.15.08.81.81,0,0,0-.34.65c0,.25.16.2.16.2s0-.38.1-.51a.73.73,0,0,1,.18-.17c.51-.18.53.28.75.23,0,0,.13-.22.06-.32A1,1,0,0,0,38,46.63Z"/><path class="cls-2" d="M53.06,44.18c-.07-.21-.36-.44-.28-.68s.35-.31.3-.55-.49-.44-.77-.5-.59-.13-.87-.21l-.3-.08L50.9,42l-.44-.2-.69-.21h0l0,0-.2-.12L49,41.32l-.36-.12,0,0-.13-.06-.2-.08-.1,0a4.75,4.75,0,0,0-1.93-.3h-.21a3.19,3.19,0,0,0-1,.11l-.38.15-.15.07-.06,0-.27.09-.15.06-.18.08a4.41,4.41,0,0,1-.76,0,4.49,4.49,0,0,0-.9,0,2.24,2.24,0,0,0-.85.35l-.31.16h0l-.24.06,0,0-.3.12a1.08,1.08,0,0,0-.18.07l-.18.07-.23.12-.07,0-.27.17-.06,0-.08.06,0,0s-.24.22-.26.25l-.16.19-.05.07a6.08,6.08,0,0,1-.59.56l-.27.15-.12.09-.09.08-.37.22-.17.09,0,0-.13.09-.25.2-.1.08-.3.29,0,.06-.29.38,0,0a4,4,0,0,0-.4,1l-.14.42a4.75,4.75,0,0,1-.36.5l0,0-.09.06-.07.07a1.31,1.31,0,0,0-.11.12l-.08,0-.33.33-.15.25-.06.1-.12.18-.27.44-.07.16a1.65,1.65,0,0,0-.17.37l-.1.11a1.5,1.5,0,0,0-.37.53,6.08,6.08,0,0,1-1.79-.52c-.78-.39-.37.24-.14.44a2.85,2.85,0,0,0,1.16.58,5.58,5.58,0,0,1-1.26-.37c-.76-.3-.14.34.07.48a2,2,0,0,0,.8.31,8.91,8.91,0,0,1-1.83-.29c-.7-.24-.34.18-.14.32a3.7,3.7,0,0,0,1.17.35,3,3,0,0,1-.88-.12c-.63-.14.07.37.62.44,0,0-.39.1-.7.15s0,.2.44.2a6.21,6.21,0,0,0,1-.11,7.25,7.25,0,0,0,.84.1l-.25.16s-1.41.16-1.69.17-.31.27.2.31a5,5,0,0,0,.78,0s-.46.27-.69.39-.17.31.34.18a8.82,8.82,0,0,0,1.42-.49,4.16,4.16,0,0,0,.84-.11,3.9,3.9,0,0,1-.69.82c-.27.2,0,.26.33.18a1.85,1.85,0,0,0,1.07-.81,1.12,1.12,0,0,0,.26,0,1,1,0,0,0,.65.56,2.7,2.7,0,0,0,1.33,1.1,1.56,1.56,0,0,0,1.28-.16,2.61,2.61,0,0,1,.4.41.54.54,0,0,0-.35.37,1.9,1.9,0,0,0,0,.4,1.68,1.68,0,0,0,.72,1.31.37.37,0,0,1,0,.08,1.54,1.54,0,0,0,.19.66,1.24,1.24,0,0,0,.22.27,1.19,1.19,0,0,0,.86.8,3.52,3.52,0,0,0,.55.27l.27.11-.09-.07a.87.87,0,0,0,.26.16,2.64,2.64,0,0,0,.89.09h.06a2.63,2.63,0,0,0,1.54-1,1.62,1.62,0,0,0,.38-.59,3.57,3.57,0,0,0,0-.73,8.33,8.33,0,0,1,0-.87c0-.23.06-.43.29-.54a.92.92,0,0,1,.8.12l.37.15c.15.06.27,0,.38.18a.29.29,0,0,0,.23.12.35.35,0,0,1,.31.14,1.44,1.44,0,0,0,.37.28,1.42,1.42,0,0,0,.48.23.59.59,0,0,0,.37-.06c.1-.06.12-.16.19-.24a1.65,1.65,0,0,1,.36-.22,1,1,0,0,0,.23-.12c.09-.07.09-.17.14-.27s.37-.15.49-.35a.57.57,0,0,0-.08-.62c-.08-.1-.2-.16-.29-.27s-.11-.1-.14-.16,0-.16-.06-.23-.25-.2-.31-.35c-.13-.37,0-.84-.15-1.21-.07-.16-.2-.19-.16-.4a2.93,2.93,0,0,1,.18-.83c.15-.29.46.4.52.47a3.35,3.35,0,0,0,.41.43.76.76,0,0,0,.58.25.47.47,0,0,0,.44-.21c.15-.25-.07-.46-.15-.7a5.73,5.73,0,0,1-.27-.92.92.92,0,0,1,0-.69c.06-.08.18-.07.25-.15s.07-.23.21-.24.21.12.31.16a.32.32,0,0,0,.43-.18c0-.06,0-.14.06-.18s.14-.07.19-.09a.44.44,0,0,0,.17-.51c-.07-.2-.28-.31-.39-.48a.58.58,0,0,1,0-.39,2.11,2.11,0,0,0,0-.56.68.68,0,0,0-.15-.26c-.09-.12-.06-.14,0-.29s0-.3,0-.36.26.08.35.11a1.48,1.48,0,0,0,.75.05.5.5,0,0,0,.36-.25.59.59,0,0,0-.29-.74c-.14-.11-.09-.17.07-.21a2.15,2.15,0,0,0,.64-.16.48.48,0,0,0,.27-.37c0-.11,0-.18.11-.25C52.79,44.59,53.2,44.61,53.06,44.18Zm-.43.1c-.12.11-.34.14-.42.27s0,.27-.07.38-.38.1-.57.19-.15.27-.35.31a1.76,1.76,0,0,1-.5,0c-.1.05,0,.15,0,.23s.61.25.76.45a.25.25,0,0,1,0,.24s-.05.1-.1.1a1.17,1.17,0,0,1-1-.26c-.07-.06-.14-.22-.23-.23a.24.24,0,0,0-.27.07c-.08.11,0,.49,0,.73a1,1,0,0,0-.07.49c0,.07.16.18.19.27a3,3,0,0,1,0,.94c0,.27.62.52.34.81l-.07,0c-.05,0,0,.16-.15.19,0,0-.14.09-.25,0l-.09-.1c-.11-.12-.13-.3-.19-.37s-.15-.06-.19,0a1,1,0,0,0-.16.34s0,.11,0,.15-.4.17-.46.27,0,.17,0,.22-.1.35-.11.46a2.77,2.77,0,0,0,.19,1c0,.06.67.86.05.76-.28,0-.8-.89-.84-1.18a3.86,3.86,0,0,1,0-.76h0c0-.27-.22-.07-.22-.07s-.23.35-.38.39-.14,0-.19,0a3.58,3.58,0,0,1-.46.19c-.14,0-.42.07-.53,0s-.11-.13,0-.19a3.28,3.28,0,0,0,1.33-2.13c0-.42-.42-1.18-.29-1.47h0c-.1,0-.33-.07-.4-.05a1,1,0,0,0-.35.19c-.24.15.1,1.06,0,1.53a5.44,5.44,0,0,1-.19.57,3.32,3.32,0,0,1-.07.42c0,.07-.06.07-.12.11l-.07,0a.15.15,0,0,0-.08,0c-.13.08-.25.33-.38.38a.33.33,0,0,1-.22,0,.57.57,0,0,1-.09-.08c-.15-.46.24-.72.27-1a1.72,1.72,0,0,0-.07-.5c0-.43.13-.89-.08-1.22-.05-.07-.19-.1-.23-.19s0-.27,0-.49-.35-.86-.23-1.11a.62.62,0,0,1,.54-.11c.08,0,.13.16.18.23s.19.31.31.38.53.11.8.23c.07,0,.15.17.23.19a.54.54,0,0,0,.3,0A1.87,1.87,0,0,0,48,46c0-.06.09-.08.16-.18s.07-.14.11-.2.46-.44.49-.54l.05-.08c.08-.09.1-.09.18-.19s.1-.19.15-.26.3-.22.35-.35-.05-.26-.05-.26a1.52,1.52,0,0,0-.77-.1c-.23,0-.5.21-.76.12l-.08-.08a.82.82,0,0,1,0-.14.44.44,0,0,1,.12-.12c.08,0,.14,0,.22-.08s0-.12,0-.12a.41.41,0,0,0-.38,0c-.06,0-.11.13-.19.15-.25.07-.39-.05-.61,0s-.23.26-.53.19c-.13,0-.24-.21-.34-.26s-.26-.05-.42-.12a.53.53,0,0,1-.15-.11c-.07-.08,0-.13,0-.19s.28-.22.11-.55c-.06-.11-.27-.11-.38-.19s0-.07-.08-.11-.07-.13,0-.18a.12.12,0,0,1,.13,0,2.6,2.6,0,0,1,.42.15c.11.06.29.28.42.32.3.08.48,0,.8,0,.07,0,.23.09.31.11l.34.06.15.06c.13,0,.19,0,.31,0a1.93,1.93,0,0,1,.6.5.38.38,0,0,1,.08.11c0,.08.16.06.31,0-.22-.06,0-.28-.18-.48a3.59,3.59,0,0,0-.76-.57A11.92,11.92,0,0,0,46.41,42a.35.35,0,0,1-.17-.14c0-.09.06-.33,0-.38a1.63,1.63,0,0,0-1.18.15s-.08.1-.11.12-.42,0-.54.07-.13.34.08.76l0,.08a.29.29,0,0,0,0,.11c.11.18.36.2.54.31s.13.15.19.19.22.05.31.17.06.18,0,.21-.23,0-.38,0a1.94,1.94,0,0,1-.76-.08c-.06,0-.16-.12-.23-.15a.84.84,0,0,1-.19-.09s-.11,0-.15-.1-.12-.09-.15-.15-.07-.32-.15-.46-.35-.25-.6-.36l-.12,0a.64.64,0,0,0-.39-.08l-.11.08c-.15.11-.08.41-.2.57s-.9-.17-.86.1a.28.28,0,0,1,.07.32s0,0-.08.07a.53.53,0,0,1-.49,0s-.15-.1-.19-.11a.83.83,0,0,0-.68,0,.9.9,0,0,0-.38.23l-.06,0s-.11.14,0,.18.42.06.56.11c.37.13.66.43.46.88a.67.67,0,0,1-.11.18.47.47,0,0,1-.65,0,.73.73,0,0,1-.07-.19.58.58,0,0,0-.35-.31,1.3,1.3,0,0,0-.68,0l-.1.08-.09,0c-.08,0,0,.08,0,.11s.14.08.15.15-.22.44-.11.43c-.1,0,.5,0,.41,0l.12,0s.06.09,0,.15a.41.41,0,0,1-.12.11,3.12,3.12,0,0,1-1.06.15c-.11,0-.1,0-.12-.09s.05-.28.05-.28c0-.18,0-.23,0-.23a.16.16,0,0,0-.15,0c-.1,0-.25.18-.35.23a2,2,0,0,0-.51.23,1.1,1.1,0,0,0-.28.76c0,.14.14,0,.14,0a1.72,1.72,0,0,1,.39-.49s.07-.14.22-.12.1,0,0,.15a1.93,1.93,0,0,0-.3.54c-.11.38.26.78.07,1.06a.55.55,0,0,1-.2.2l-.07.08a.22.22,0,0,1-.15.09s-.06,0-.07-.07v-.07s0-.05,0-.12v.05a.38.38,0,0,0,0-.08.29.29,0,0,1,0-.09h0c0-.06,0,0,0,0l0,0c0,.48-1.13.88-1.33,1.2,0,.17-.64.63-.4,1.23.1-.07.32-.23.41-.2s-.27.32-.33.43-.09.4-.3.31.18-.11.11-.4c-.21,0-.19.36-.48.42s-.32.38,0,.36a1.05,1.05,0,0,0,1.07-.38c.11-.14.4-.47.54-.39s-.45.54-.55.91c0,.17.06.21,0,.25s-.24.06-.24.23.06.11.05.22-.38.38-.16.78c.12.19.25.29.35.3a1.19,1.19,0,0,0,.28,0,2.57,2.57,0,0,0,1-.25c-.14-.14-.92-.19-.88-.32s.79-.24.73-.54-.52.23-.67.1,0-.33,0-.47,0-.37.2-.36.46.1.66-.23a4.75,4.75,0,0,1,1.77-1.1c-.08.09-1.5.89-1.73,1.43a9.73,9.73,0,0,0,1.45-.83,2.94,2.94,0,0,1-1.3,1.06c-.17.1-.09.2-.08.24s.16.16.4,0a1.72,1.72,0,0,0,.28-.25,1.62,1.62,0,0,1,.23,0l.15-.22.28,0a.47.47,0,0,0,.19,0,2.17,2.17,0,0,0,.26-.27,2.24,2.24,0,0,0,.2-.53c.07-.18.1-.15.21-.24s.19,0,.25.06.07,0,.08.07c.07.22,0,.33.11.46s.1,0,.16,0l.22.1.27.13a3.3,3.3,0,0,1,.3.22c.13.07.27.08.38.15s.18.4.31.61.25.25.39.46a.73.73,0,0,1,.1.28.35.35,0,0,1,.07.14c.09.28.31.35.34.69a2.37,2.37,0,0,0,.1,1c.09.28.53.74.62,1a9.65,9.65,0,0,1,.13,1.34c-.78,1-1.51,1-1.61,1-.25-.16-.79-.5-1.13-.34s.21.73.26.83a1.11,1.11,0,0,0,.61.27.79.79,0,0,0,.48.22c.51,0,1.23-.68,1.44-.91a.67.67,0,0,0,.17-.47h0a10.2,10.2,0,0,1,.07-1.5,1.56,1.56,0,0,1,.28-.51,3.25,3.25,0,0,0,.46-.91c.07-.34-.13-.73,0-1s.63-.4.94-.46c.13,0,.2,0,.31,0s.13-.06.11-.15-.06-.37-.19-.46c-.28-.19-1.24-.09-1.29-.46s.38-.4.45-.57a4.08,4.08,0,0,0,0-.8,1.26,1.26,0,0,0-.53-.68c-.09-.06-.26-.06-.31-.15-.16-.32.18-.38.16-.64l0-.11c0-.05,0,0-.06-.09s-.18-.16-.23-.22-.08-.06-.07-.19.35-.4.46-.54a1.79,1.79,0,0,0,.3-1.1l-.07-.15c0-.14,0-.32,0-.46s-.17-.19-.2-.27a.65.65,0,0,1,0-.45s0-.06.15,0,.12.34.23.5.18.15.22.26,0,.19,0,.3.18.27.23.43a3.26,3.26,0,0,1,.11,1.17s-.07.28-.07.31,0,.33,0,.49-.11.25-.14.37a.21.21,0,0,0,0,.2.76.76,0,0,1,.24.46c.07.36-.11.88,0,1.17s.87.42,1.06.57.13.28.23.42.24.18.3.31,0,.2.08.3a.54.54,0,0,1,0,.11c0,.14,0,.15.06.27s.28.23.22.47-.7.18-1.28.22a.88.88,0,0,1-.25,0,.91.91,0,0,1-.17-.09c-.15-.08-.33-.26-.48-.13a.62.62,0,0,0,0,.4,1.89,1.89,0,0,0,.61.76c.39.23.47,0,.47,0s-.08-.19-.09-.24,0-.07,0-.16.05-.24.27-.07a1.1,1.1,0,0,0,.11.12,3.61,3.61,0,0,0,.61.15.49.49,0,0,0,.42-.23,2.62,2.62,0,0,0,0-.8s.07-.37.07-.42A3.46,3.46,0,0,1,47,51.66s.2-.12.2.08-.17.9,0,1.1.13.08.19.18a8.63,8.63,0,0,0,.15,1.15c0,.11.18.19.22.27s0,.08.05.15a1.67,1.67,0,0,0,.38.42c.05.05.2.13.23.19s.06.12,0,.19l-.08.08a2.24,2.24,0,0,1-.34,0s-.08.11-.08.12c0,.16,0,.3-.11.42s-.35.09-.5.19-.16.28-.27.3c-.32.07-.69-.47-.87-.57s-.23-.05-.34-.11-.11-.13-.15-.16a2.13,2.13,0,0,0-.27-.07c-.31-.14-1-.61-1.48-.5l0,0a.81.81,0,0,0-.34.36,7.09,7.09,0,0,0-.24.68c0,.29.14,1.5,0,1.73-.88.93-1.08.94-1.22,1s-.36.15-.36.15a2.09,2.09,0,0,1-.71-.06c-.1-.11-.76-.3-1-.46-.61-.18-.58-.5-.59-.73a5,5,0,0,1-.43-.37,4.13,4.13,0,0,1,0-.58c-.82-.82-.76-1.3-.68-1.67,0,.16.45.34.76.45a2.92,2.92,0,0,0-2.25-2.3,1.28,1.28,0,0,0,.69.9c-1.14.52-1.95-.81-2-1.06a1.09,1.09,0,0,1-.78-.55,1.24,1.24,0,0,1-.45-.11A1.64,1.64,0,0,1,33,53.61a3.05,3.05,0,0,0,1-1.18,6.19,6.19,0,0,1-1.37.15,7.24,7.24,0,0,1-1.5.62c.22-.1.68-.36,1.11-.61a14.59,14.59,0,0,1-1.46,0l1.74-.15c.29-.17.66-.41.76-.46a8.35,8.35,0,0,1-1.58-.17,4.48,4.48,0,0,1-1.18.18,7.83,7.83,0,0,0,1-.22c-.33-.07-.73-.18-.75-.26a9.29,9.29,0,0,0,1.07.15c.26-.09.66-.18.8-.26a6.21,6.21,0,0,1-2.44-.47,5.92,5.92,0,0,0,3,.18,3.35,3.35,0,0,1-2-.65,4.53,4.53,0,0,0,1.94.43c.11,0,.12-.13.18-.22a3.69,3.69,0,0,1-1.93-.84,6.09,6.09,0,0,0,2.1.59c.27-.37.47-.48.55-.68a2.08,2.08,0,0,1,.13-.3l0,0a1.89,1.89,0,0,1,.09-.21c.09-.19.27-.39.38-.57a2.74,2.74,0,0,1,.19-.34,2,2,0,0,1,.34-.31l.12-.11.07-.08A2.8,2.8,0,0,0,35.9,47a6.79,6.79,0,0,1,.5-1.29,1.85,1.85,0,0,1,.21-.33c.12-.1.18-.23.3-.31s.19-.17.37-.29l.14-.1a6.21,6.21,0,0,0,.62-.35l.26-.22c.08-.06.14-.05.23-.11a6.59,6.59,0,0,0,.72-.68,2.78,2.78,0,0,1,.21-.27s.21-.19.21-.19l.08-.06a1,1,0,0,1,.24-.16c.09,0,.19-.12.28-.16s.28-.1.44-.18l.28-.1c.11,0,.16,0,.27-.06a6.31,6.31,0,0,1,1.11-.5c.53-.09,1.23,0,1.74-.07a2.23,2.23,0,0,0,.43-.18l.3-.09c.15,0,.37-.18.53-.23a4.17,4.17,0,0,1,1.1-.09,4.37,4.37,0,0,1,1.75.28l.29.11.17.08c.31.13.55.16.85.28.06,0,.19.11.25.14.28.11.49.12.76.23s.48.26.68.34c.43.17,1.05,0,1.34.36a.74.74,0,0,1,0,.35c-.11.19-.57.06-.63.28,0,.07-.08.13,0,.23s.71.23.75.42C52.65,44.14,52.67,44.26,52.63,44.28Zm-5.8.49a3.28,3.28,0,0,0,.75-.09,2.34,2.34,0,0,1,.48-.22c.34,0,.49.09.33.38l-.06.06s-.12.13-.14.14a2.51,2.51,0,0,0-.44.35s-.07.17-.12.22a2.26,2.26,0,0,1-.49.21,1.1,1.1,0,0,1-1-.57.42.42,0,0,1,.08-.44A2.21,2.21,0,0,1,46.83,44.77Zm-.56-.58.17-.13a1.13,1.13,0,0,1,.34-.11,3.67,3.67,0,0,1,.72-.2c.41,0,.07.4-.12.46s-.16,0-.22,0-.34.12-.46.15a.58.58,0,0,1-.36,0C46.16,44.28,46.27,44.19,46.27,44.19Zm-3.52,7.08a.67.67,0,0,1-.2.4l-.08.07s-.07.07-.11.1l0,0c-.08,0-.09.07-.12.07-.2,0-.24-.07-.22-.05-.21-.57.13-1.23,0-1.79,0-.12-.2-.25-.21-.38-.07-.5.39-.76.38-1.09s-.31-.55-.38-.79a2,2,0,0,1,0-1.14c0-.08.13-.22.16-.33S42,46,42,45.86a.28.28,0,0,1,.06-.14.16.16,0,0,1,.06-.08.18.18,0,0,1,.22,0,6.33,6.33,0,0,1,.32.74,3,3,0,0,1,0,1c-.09.24-.31.43-.26.86a2.24,2.24,0,0,0,.24.67s.12.25.13.3a2.72,2.72,0,0,1-.1.72C42.64,50.39,42.82,50.82,42.75,51.27Zm-1.56-2.83.11-.08c0-.06.1,0,.15,0s0,.1.08.14.1.13.11.16a1.56,1.56,0,0,1-.15,1,.22.22,0,0,1-.16.12c-.06,0-.08-.09-.11-.12s0-.46,0-.61S41.1,48.58,41.19,48.44Zm-.42-1.38c0,.14-.19.27-.23.38s0,.27,0,.46a2.31,2.31,0,0,0-.16.57c0,.25.41.23.5.42s-.15.41-.12.72a2.59,2.59,0,0,0,.26.67l.08.13c.15.34-.2.33-.45.3s-.32-.19-.46-.38-.21-.15-.34-.27-.11-.15,0-.22.22-.17.27-.23,0-.13,0-.19-.25-.23-.27-.38a.33.33,0,0,1,.08-.26,1.14,1.14,0,0,0,.07-.69,1.53,1.53,0,0,1,0-.41c0-.1.07-.32.16-.35l.11-.13a1.25,1.25,0,0,0,.11-.86l-.08-.06c-.48-.27-1.09.77-1.32,1-.06.06-.3.25-.36.3l-.32.16a4.83,4.83,0,0,1-.95.2c-.28,0-.28-.12-.24-.07s0-.08,0-.11.16-.16.19-.22a2.1,2.1,0,0,0,.14-.47.94.94,0,0,1,.11-.32l.07-.15.07-.08a.78.78,0,0,1,.22-.12c.11-.05.2-.2.34-.22.32-.06.58.09.92,0a3.54,3.54,0,0,0,.53-.23,2.37,2.37,0,0,1,.6,0s.08-.06.08-.08,0-.22.1-.32.55-.38.75-.5c0,0,.11-.05.14.1a1.87,1.87,0,0,0,0,.25l-.07.16c-.07.2,0,.4-.12.54s-.3.09-.34.23S40.8,46.81,40.77,47.06Zm-1.83,1.56,0,0c.11,0,.15.13.11.08s-.2.11-.2.11l-1.09-.14c-.06,0-.25-.08-.32-.09a.52.52,0,0,0-.38.05l-.11,0c-.05,0-.16,0-.24,0s0-.12,0-.12a2.34,2.34,0,0,1,.87-.35,2.31,2.31,0,0,1,.68.08c.36,0,.63-.12.87,0,0,0,.1.08,0,.14a.37.37,0,0,1-.14.07C38.86,48.55,39,48.61,38.94,48.62Zm-.39-.49s-.14,0-.09-.09.23-.1.29-.14.09-.21.15-.31l.12-.07c.21-.28.23-.56.6-.73l.17,0c.25,0,.26.24.27.21,0,.18-.48.2-.58.34C39.16,47.7,39.29,48.09,38.55,48.13Zm3.89-2.93-.15-.08c-.13,0-.23,0-.34,0-.54-.25.41-1.53.72-1.52a1,1,0,0,1,.19.08c.1.08.1.44.19.57s.17.08.26.15a1.11,1.11,0,0,1,.31.46s.05.22-.19.19-.12-.22-.42-.15S42.75,45.21,42.44,45.2Z"/><path class="cls-3" d="M39.58,52.67c-.18-.07-.23,0-.29.08-.19.32.37.54.51,1s-.1.42.15.6.82.37.86.85c.1.79.1.92.27,1s.59-.11.59-.3a2.63,2.63,0,0,0-.22-1.32c-.11-.34,0-.65-.18-.68s-.22.5-.3.52-.13,0-.12-.12a1.1,1.1,0,0,0-.33-.81C40.15,53.08,39.59,52.9,39.58,52.67Z"/><path class="cls-3" d="M39.71,55.47c-.21.4.61,1.27.72,1.37.41.11.42-.35.35-.51A4.49,4.49,0,0,1,39.71,55.47Z"/><path class="cls-3" d="M37.9,52.76a.31.31,0,0,0-.42-.08c-.13.07-.2.23-.12.31a1.74,1.74,0,0,0,1.34.85A5.31,5.31,0,0,1,37.9,52.76Z"/><path class="cls-3" d="M36.77,52.24l.13,0a2.35,2.35,0,0,0,.51-.15l.18-.08.19-.06c.06,0,.21-.14.29-.15s.28.05.48,0a2.54,2.54,0,0,1,.44-.07l.22.07c.18,0,.31,0,.49,0s.26.17.46,0c0,0,.12-.1.11-.08.08-.18-.21-.29-.51-.36s-1.09.18-1-.1-.05-.12-.05-.13,0,0-.15,0-.42.31-.55.4-.14,0-.18.08-.11.13-.17.17c-.24.13-.38,0-.64.08-.07,0-.31.14-.37.17h0C36.51,52.09,36.49,52.28,36.77,52.24Z"/><path class="cls-3" d="M38.6,55.68c-.13.45.72,1.16.85,1.16s.11-.54,0-.59A5.07,5.07,0,0,1,38.6,55.68Z"/><path class="cls-3" d="M32.94,52.38a7.61,7.61,0,0,0,.85-.11,2.29,2.29,0,0,1-.27-.27C33.33,52.13,33.14,52.26,32.94,52.38Z"/><path class="cls-3" d="M36.87,54.06a5.85,5.85,0,0,1-.41-.59c-.14-.34-.23-.42-.54-.35-.05,0-.19.13-.1.26S36.52,54.1,36.87,54.06Z"/><path class="cls-3" d="M33.29,51.7a.94.94,0,0,1-.13-.32H33a4.82,4.82,0,0,1-.9.3c.49,0,1,.07,1.22.07Z"/><path class="cls-3" d="M36.6,52h0"/><path class="cls-2" d="M32.77,30.81l-.25-.22-.28-.26c-.28-.31-.55-.6-.79-.88l-.31-.34a4.2,4.2,0,0,1-.29-.32l-.23-.25-.08-.09,0,0,.22-.26.28-.35c.11-.14.22-.27.32-.41l.87-1.07.31-.3H31.35l-1.76,2.19V26H28.47v5.31h1.12V29l1.81,2a1.14,1.14,0,0,0,1,.38h1.1L33,31l-.24-.2"/><path class="cls-2" d="M36.5,26v3.25a3.42,3.42,0,0,1,0,.59,1,1,0,0,1-.17.4.91.91,0,0,1-.37.24,1.91,1.91,0,0,1-.65.09c-.69,0-1-.44-1-1.32V26H33.12v3.25a5.39,5.39,0,0,0,0,.82,1.64,1.64,0,0,0,.39.79,1.92,1.92,0,0,0,1.5.58h.42A2,2,0,0,0,37,30.88a1.7,1.7,0,0,0,.38-.8,5.16,5.16,0,0,0,0-.81V26Z"/><polygon class="cls-2" points="32.52 33.71 31.12 37.31 30.76 37.31 29.23 33.73 28.76 37.31 28.13 37.31 28.78 32.85 29.65 32.85 30.99 35.99 32.23 32.85 33.11 32.85 33.73 37.31 32.94 37.31 32.52 33.71"/><polygon class="cls-2" points="34.75 36.69 36.84 36.69 36.84 37.31 33.98 37.31 33.98 32.87 36.56 32.87 36.56 33.46 34.75 33.46 34.75 34.61 36.18 34.61 36.18 35.2 34.75 35.2 34.75 36.69"/><path class="cls-2" d="M39.68,36.35a1.39,1.39,0,0,0,.41-.57,2,2,0,0,0,.14-.75,1.75,1.75,0,0,0-.12-.65,1.32,1.32,0,0,0-.33-.51,1.7,1.7,0,0,0-1.26-.43H38v3.3h.43a2,2,0,0,0,1.28-.39m.72-2.9a2,2,0,0,1,.68,1.6,2.08,2.08,0,0,1-.71,1.63,2.64,2.64,0,0,1-1.83.63H37.21V32.86h1.37a2.69,2.69,0,0,1,1.82.59"/><rect class="cls-2" x="41.48" y="32.87" width="0.77" height="4.45"/><path class="cls-2" d="M46.41,37.1l-.18.08-.27.1-.38.07a2.35,2.35,0,0,1-.47,0,2.62,2.62,0,0,1-1.85-.62,2.13,2.13,0,0,1-.68-1.66,2.2,2.2,0,0,1,.65-1.64A2.45,2.45,0,0,1,44,33a3,3,0,0,1,1-.21,3.58,3.58,0,0,1,.58,0l.42.09.35.15v.75L46,33.6l-.28-.13-.33-.08a1.7,1.7,0,0,0-.4,0,1.67,1.67,0,0,0-.69.16,1.94,1.94,0,0,0-.51.36A1.53,1.53,0,0,0,43.42,35a1.78,1.78,0,0,0,.43,1.22,1.45,1.45,0,0,0,.52.39,1.68,1.68,0,0,0,.65.14,2.68,2.68,0,0,0,.5,0,3.08,3.08,0,0,0,.41-.1,1,1,0,0,0,.29-.12l.19-.1Z"/><rect class="cls-2" x="46.81" y="32.87" width="0.77" height="4.45"/><polygon class="cls-2" points="51.85 32.86 51.9 32.86 51.9 37.32 51.27 37.31 48.66 33.99 48.66 37.31 48.08 37.31 48.08 32.86 48.74 32.86 51.31 36.13 51.31 32.86 51.85 32.86"/><polygon class="cls-2" points="53.17 36.69 55.26 36.69 55.26 37.31 52.4 37.31 52.4 32.87 54.98 32.87 54.98 33.46 53.17 33.46 53.17 34.61 54.6 34.61 54.6 35.2 53.17 35.2 53.17 36.69"/></g></g></svg>