<svg xmlns="http://www.w3.org/2000/svg" xmlns:xlink="http://www.w3.org/1999/xlink" width="240" height="80" viewBox="0 0 240 80"><defs><style>.cls-1,.cls-3,.cls-4{fill:#fff;}.cls-1{opacity:0;}.cls-2{fill:url(#무제_그라디언트_5);}.cls-4{isolation:isolate;opacity:0.7;}</style><radialGradient id="무제_그라디언트_5" cx="168.359" cy="17.214" r="23.349" gradientTransform="translate(3.775 -1.052) scale(0.951 0.951)" gradientUnits="userSpaceOnUse"><stop offset="0" stop-color="#fff" stop-opacity="0.2"/><stop offset="0.01" stop-color="#fff" stop-opacity="0.212"/><stop offset="0.188" stop-color="#fff" stop-opacity="0.42"/><stop offset="0.275" stop-color="#fff" stop-opacity="0.502"/><stop offset="1" stop-color="#fff" stop-opacity="0.698"/></radialGradient></defs><g id="레이어_2" data-name="레이어 2"><g id="레이어_1-2" data-name="레이어 1"><rect id="사각형_174" data-name="사각형 174" class="cls-1" width="240" height="80"/><path class="cls-2" d="M166.075,17V29.523c0,1.2.338,7.9,8.282,10.6,7.943-2.7,8.285-9.408,8.285-10.6V17Zm14.649,7.848h-2.13v.768h2.13v2.595h-2.13v7.117h-3.247l-2.458-2.456-2.48,2.5L168.5,33.464l4.376-4.376,2.972,2.942V21.772h-4.177V19.411h6.846v3.053h2.2Z"/><path class="cls-3" d="M138.54,21.772H133.5V36.937c0,3.892-.657,5.865-4.261,5.865-3.473,0-4.152-2.149-4.152-5.865V21.772h-5.219V37.186c0,4.371,1.136,8.411,9.371,8.411,8.333,0,9.482-4.04,9.482-8.411V21.772Z"/><polygon class="cls-4" points="156.042 45.229 161.261 45.229 161.261 21.772 161.078 21.772 156.042 21.772 156.042 31.488 147.516 31.488 147.516 21.772 142.296 21.772 142.296 45.229 147.516 45.229 147.516 34.718 156.042 34.718 156.042 45.229"/><path class="cls-3" d="M111.386,21.772V37.518c-.644-1.106-9.144-15.746-9.144-15.746H96.649V45.229h4.859s0-15.339,0-16.583l9.626,16.583h5.112V21.772h-4.858Z"/><path class="cls-3" d="M86.1,30.925c-3-1.3-5.581-2.424-5.581-4.327,0-1.324,1.458-2.227,3.625-2.213a23.448,23.448,0,0,1,7.939,1.673l.294.12V22.114l-.1-.016a50.026,50.026,0,0,0-7.4-.693c-6.068,0-9.695,2.292-9.695,6.131,0,4.056,4.037,5.9,7.6,7.523,2.943,1.343,5.723,2.613,5.723,4.91,0,2.469-3.766,2.572-4.2,2.572a18.529,18.529,0,0,1-8.368-2.379l-.308-.156v4.513l.361.085a33.8,33.8,0,0,0,7.458.993c7.062,0,10.8-2.434,10.8-7.036C94.243,34.465,89.914,32.583,86.1,30.925Z"/><path class="cls-3" d="M69.358,57.455v1.15H74.22v2h1.787v-2h3.828v-1.15Z"/><path class="cls-3" d="M72.753,59.283H70.968c.187.469-.482,3.493.52,3.4.107,0,7.237,0,7.339,0V61.532H72.753Z"/><path class="cls-3" d="M86.2,57.606A2.7,2.7,0,1,0,86.2,63,2.7,2.7,0,1,0,86.2,57.606Zm0,4.2c-1.69.029-1.693-3.041,0-3.011C87.885,58.769,87.882,61.839,86.2,61.809Z"/><path class="cls-3" d="M71.488,56.731l7.057,0v-4.9H76.76v1.652H72.752V51.83H70.966C71.175,52.282,70.437,56.892,71.488,56.731Zm1.264-2.1H76.76v.95H72.752Z"/><path class="cls-3" d="M89.563,51.443H87.776v3.836c-2.081.833-3.168.567-5.006.616V52.976h3.863V51.83H80.982c.224.452-.55,5.385.522,5.21,1.762-.008,4.806.166,6.272-.6v1.4h1.787V54.965H91.3V53.816H89.563Z"/><path class="cls-3" d="M154.212,51.439v1.425H152.8V51.827h-1.783v1.485h-2.242V51.827h-1.783c-.163,7.034-.447,4.89,5.808,5.2V55.855h1.41v1.733H156V51.439Zm-3.193,4.444h-2.242V54.457h2.242Zm3.193-1.173H152.8v-.7h1.41Z"/><path class="cls-3" d="M152.637,57.592a2.7,2.7,0,1,0,0,5.382A2.7,2.7,0,1,0,152.637,57.592Zm0,4.193c-1.689.028-1.689-3.034,0-3C154.317,58.751,154.318,61.814,152.634,61.785Z"/><path class="cls-3" d="M99.736,51.436V54.9H98.015v1.151h1.721v6.822h1.789V51.436Z"/><path class="cls-3" d="M135.661,54.393h-1.728V51.436h-1.79v6.41h1.79v-2.3h1.728Z"/><path class="cls-3" d="M143.24,58.384h1.788v-6.3h-7.916v1.149h6.128Z"/><path class="cls-3" d="M142.521,56.233h-1.787V60.3h-.676V56.233h-1.787V60.3h-2.753v1.151H146.17V60.3h-3.649Z"/><path class="cls-3" d="M127.006,58.628v1.149h5.137v3.094h1.79V58.628Z"/><path class="cls-3" d="M130.967,55.185a2.475,2.475,0,0,0-.577-1.576H131.7V52.463H129V51.025h-1.788v1.438H124.5v1.146h1.258C122.881,57.523,130.827,59.756,130.967,55.185Zm-4.091,0c-.019-1.99,2.414-1.993,2.392,0C129.29,57.177,126.856,57.174,126.876,55.183Z"/><path class="cls-3" d="M96.5,54.9a10.794,10.794,0,0,1-.249-3.022h-1.9a7.629,7.629,0,0,1-2.905,6.82l.878.8A9.867,9.867,0,0,0,95.3,56.356a9.867,9.867,0,0,0,2.975,3.138l.878-.8A7.7,7.7,0,0,1,96.5,54.9Z"/><path class="cls-3" d="M121.447,51.436V54.9h-.541V51.436h-1.789v5.29a8.3,8.3,0,0,1-3.2.533V52.973h2.339V51.824h-4.129v6.082c.432,1.166,4.162.259,4.988-.017v4.982h1.789V56.049h.541v6.822h1.787V51.436Z"/><path class="cls-3" d="M102.519,56.444v1.15h4.492v.726h-3.036v1.151h5.877v.548h-5.877c.156.468-.435,2.921.52,2.852h7.338V61.72h-5.884v-.549h5.886V58.32H108.8v-.726h4.491v-1.15Z"/><path class="cls-3" d="M107.906,56.174c4.465.044,4.468-5.458,0-5.411C103.433,50.716,103.437,56.219,107.906,56.174Zm0-4.3c1.929-.028,1.927,3.222,0,3.193C105.974,55.093,105.972,51.845,107.906,51.872Z"/><path class="cls-3" d="M165.294,51.441v5.2h-7.888v1.15h2.367v1.087h1.788V57.79h3.733v.468H163.62v1.149h1.674V60.47h1.788V51.441Z"/><path class="cls-3" d="M161.561,59.39h-1.79c.184.471-.483,3.591.527,3.49h6.784V61.728h-5.521Z"/><path class="cls-3" d="M161.073,56.416a2.694,2.694,0,1,0,0-5.375A2.694,2.694,0,1,0,161.073,56.416Zm0-4.224c1.6-.03,1.6,3.1,0,3.073C159.474,55.3,159.474,52.163,161.077,52.192Z"/></g></g></svg>