<svg xmlns="http://www.w3.org/2000/svg" width="240" height="80" viewBox="0 0 240 80"><defs><style>.a,.b,.c,.d,.e,.f,.g{fill:#fff;}.a{opacity:0;}.b{opacity:0.75;}.d{opacity:0.55;}.e{opacity:0.65;}.f{opacity:0.8;}.g{opacity:0.7;}</style></defs><rect class="a" width="240" height="80"/><path class="b" d="M2797.278,317.79h0a35.4,35.4,0,0,0-12.631,9.029,40.5,40.5,0,0,1,12.629,2.058h0a40.508,40.508,0,0,1,12.625-2.057A35.367,35.367,0,0,0,2797.278,317.79Z" transform="translate(-2718.616 -293)"/><path class="c" d="M2797.276,328.877v0h0Z" transform="translate(-2718.616 -293)"/><path class="c" d="M2797.278,317.789h0Z" transform="translate(-2718.616 -293)"/><path class="d" d="M2804.48,314.712a4.8,4.8,0,0,1-3.316-.894,6.084,6.084,0,0,0-7.775,0,4.809,4.809,0,0,1-3.319.894,7.259,7.259,0,0,0-2.98.266,45.414,45.414,0,0,1,10.185,2.811h0a45.353,45.353,0,0,1,10.183-2.811A7.263,7.263,0,0,0,2804.48,314.712Z" transform="translate(-2718.616 -293)"/><path class="e" d="M2787.09,314.978a5.521,5.521,0,0,0-1.082.476c-.061.037-.118.076-.173.111l-.01.009a7.058,7.058,0,0,0-2.488,3.058,4.866,4.866,0,0,1-2.429,2.447,6.959,6.959,0,0,0-2.876,2.836,18.359,18.359,0,0,0-1.562,4.018l.219-.03c1.272-.656,5.189-1.129,7.955-1.085a35.4,35.4,0,0,1,12.631-9.029A45.414,45.414,0,0,0,2787.09,314.978Z" transform="translate(-2718.616 -293)"/><path class="b" d="M2776.689,327.9l-.02.01a14.544,14.544,0,0,0,2.112,9.85,22.008,22.008,0,0,1,5.863-10.945C2781.878,326.774,2777.961,327.247,2776.689,327.9Z" transform="translate(-2718.616 -293)"/><path class="f" d="M2784.068,342.834c.594-7.394,7.75-12.866,13.2-13.958a40.5,40.5,0,0,0-12.629-2.058,22.008,22.008,0,0,0-5.863,10.945A16.53,16.53,0,0,0,2784.068,342.834Z" transform="translate(-2718.616 -293)"/><path class="e" d="M2817.753,327.91l.166.023a18.585,18.585,0,0,0-1.4-4.018,6.949,6.949,0,0,0-2.874-2.836,4.87,4.87,0,0,1-2.431-2.447,7.041,7.041,0,0,0-2.488-3.058l-.008-.009c-.056-.035-.113-.074-.173-.111a5.693,5.693,0,0,0-1.084-.476,45.353,45.353,0,0,0-10.183,2.811h0a35.367,35.367,0,0,1,12.622,9.028A27.18,27.18,0,0,1,2817.753,327.91Z" transform="translate(-2718.616 -293)"/><path class="b" d="M2817.758,327.913l-.005,0a27.18,27.18,0,0,0-7.853-1.092c2.862,3.154,5.2,6.507,5.705,11.009A14.509,14.509,0,0,0,2817.758,327.913Z" transform="translate(-2718.616 -293)"/><path class="f" d="M2815.6,337.827c-.5-4.5-2.843-7.855-5.705-11.009a40.5,40.5,0,0,0-12.624,2.057v0c7.172,1.948,12.7,7.022,13.181,13.9A16.5,16.5,0,0,0,2815.6,337.827Z" transform="translate(-2718.616 -293)"/><path class="e" d="M2775.244,335.872A23.736,23.736,0,0,0,2779.2,348.5c.3.469.628.929.967,1.379a18.263,18.263,0,0,0,2.152,2.368c3.812,3.5,9.256,4.779,11.683.776a5.934,5.934,0,0,0,.715-3.075c-.092-3.711-3.653-4.125-6.1-4.974-8.379-2.895-13.49-9.5-11.739-18.4A23.737,23.737,0,0,0,2775.244,335.872Z" transform="translate(-2718.616 -293)"/><path class="e" d="M2819.187,335.872a23.748,23.748,0,0,1-3.962,12.628c-.3.469-.627.929-.966,1.379a18.25,18.25,0,0,1-2.15,2.368c-3.812,3.5-9.257,4.779-11.685.776a5.936,5.936,0,0,1-.713-3.075c.091-3.711,3.652-4.125,6.1-4.974,8.377-2.895,13.489-9.5,11.74-18.4A23.758,23.758,0,0,1,2819.187,335.872Z" transform="translate(-2718.616 -293)"/><path class="c" d="M2847.521,336.652v2.06h7.422v3.211h2.6v-3.211h5.976v-2.06Zm4.134,6.238v-2.769h-2.6v3.529a1.93,1.93,0,0,0,1.928,1.927h11.573v-2.1h-10.313A.594.594,0,0,1,2851.655,342.89Zm-.756-10.971c0,2.254,1.987,3.955,4.619,3.955s4.619-1.7,4.619-3.955a3.369,3.369,0,0,0-.516-1.747h3.092v-2.1h-5.895v-1.8h-2.6v1.8h-5.9v2.1l3.092,0A3.347,3.347,0,0,0,2850.9,331.919Zm4.619-1.9a1.9,1.9,0,1,1-2.267,1.869A2.051,2.051,0,0,1,2855.518,330.021Z" transform="translate(-2718.616 -293)"/><path class="c" d="M2838.4,342.754v-4.187H2842a1.929,1.929,0,0,0,1.926-1.929v-9.114h-2.594v2.906h-8.475v-2.906h-2.6v9.114a1.93,1.93,0,0,0,1.924,1.929h3.61v4.187h-6.7v2.094h15.992v-2.094Zm-5.534-6.877v-3.35h8.475v3.35a.6.6,0,0,1-.593.594h-7.292A.593.593,0,0,1,2832.861,335.877Z" transform="translate(-2718.616 -293)"/><path class="c" d="M2899.464,345.577h-10.945a1.93,1.93,0,0,1-1.931-1.927V339.2h2.6v3.684a.594.594,0,0,0,.594.593h9.684v2.1Z" transform="translate(-2718.616 -293)"/><path class="c" d="M2896.025,337.08h-9.248a1.933,1.933,0,0,1-1.929-1.928v-5.37a1.932,1.932,0,0,1,1.929-1.927h7.51v2.1h-6.249a.592.592,0,0,0-.591.592v3.849a.592.592,0,0,0,.591.592h7.987v2.1Z" transform="translate(-2718.616 -293)"/><path class="c" d="M2901.995,331.685h-2.726v-4.161h-2.6v12.959h2.6v-6.7h2.726Z" transform="translate(-2718.616 -293)"/><path class="c" d="M2882.03,335.553h-8.681V331.8h-2.6v3.748h-4.821v2.061h4.006a4.764,4.764,0,0,0-1.87,3.861c0,3.016,2.439,5.125,5.924,5.125s5.923-2.109,5.923-5.125a4.756,4.756,0,0,0-1.867-3.861h3.984Zm-8.04,9.021a3.109,3.109,0,1,1,3.354-3.1A3.163,3.163,0,0,1,2873.99,344.574Zm4.079-14.362v4.694h2.6v-5.454a1.931,1.931,0,0,0-1.928-1.928h-11.849v2.1h10.586A.593.593,0,0,1,2878.069,330.212Z" transform="translate(-2718.616 -293)"/><path class="g" d="M2834.867,314.684h-4.6v-.835h1.774v-1.2h1.107v1.2h1.721Zm-.259,2.3a1.891,1.891,0,0,1-.546,1.419,2.295,2.295,0,0,1-2.948,0,2.112,2.112,0,0,1,0-2.837,2.3,2.3,0,0,1,2.948,0A1.9,1.9,0,0,1,2834.608,316.985Zm-1.116,0a1.335,1.335,0,0,0-.245-.836.8.8,0,0,0-.659-.314.808.808,0,0,0-.665.314,1.306,1.306,0,0,0-.252.836,1.284,1.284,0,0,0,.252.834.816.816,0,0,0,.665.307.806.806,0,0,0,.659-.307A1.313,1.313,0,0,0,2833.492,316.985Zm5.025,4.45a1.985,1.985,0,0,1-.712,1.61,3.23,3.23,0,0,1-3.725,0,2.168,2.168,0,0,1,0-3.213,3.253,3.253,0,0,1,3.725,0A1.968,1.968,0,0,1,2838.517,321.435Zm-1.137,0a1.308,1.308,0,0,0-.4-1,1.638,1.638,0,0,0-2.084,0,1.3,1.3,0,0,0-.4,1,1.323,1.323,0,0,0,.4,1.006,1.619,1.619,0,0,0,2.084,0A1.33,1.33,0,0,0,2837.38,321.435Zm1.453-2.7a.528.528,0,0,1-.175.42.582.582,0,0,1-.4.151.535.535,0,0,1-.547-.571v-2.3h-1.128v1.835a.515.515,0,0,1-.166.414.583.583,0,0,1-.393.145.575.575,0,0,1-.391-.145.516.516,0,0,1-.167-.414v-5.136h1.117V315.6h1.128v-2.463h1.118Z" transform="translate(-2718.616 -293)"/><path class="g" d="M2849.477,319.034h-9.24v-.827h4.19v-1.085h-1.733a.888.888,0,0,1-1-1.006v-2.993h1.128v1.084h4.345v-1.084h1.142v2.993a.89.89,0,0,1-1.007,1.006h-1.734v1.085h3.913a.413.413,0,0,1,0,.827Zm-1.2,3.945a.511.511,0,0,1-.167.411.581.581,0,0,1-.392.147.618.618,0,0,1-.408-.147.508.508,0,0,1-.172-.411v-1.912a.247.247,0,0,0-.279-.28h-5.207v-.828h6.123a.444.444,0,0,1,.5.5Zm-1.117-7.187v-.747h-4.345v.747a.449.449,0,0,0,.513.5h3.33A.444.444,0,0,0,2847.163,315.792Z" transform="translate(-2718.616 -293)"/><path class="g" d="M2868.21,317.716a.4.4,0,0,1,.19.351.417.417,0,0,1-.111.284.359.359,0,0,1-.279.124.48.48,0,0,1-.179-.036,4.479,4.479,0,0,1-1.324-.915,4.245,4.245,0,0,1-.936-1.226,3.064,3.064,0,0,1-.829,1.262,5.3,5.3,0,0,1-1.43.965.523.523,0,0,1-.21.049.415.415,0,0,1-.3-.123.4.4,0,0,1-.123-.285.388.388,0,0,1,.187-.327,4.737,4.737,0,0,0,1.574-1.554,4.623,4.623,0,0,0,.516-2.323v-.705h1.161v.705a4.293,4.293,0,0,0,.558,2.28A5,5,0,0,0,2868.21,317.716Z" transform="translate(-2718.616 -293)"/><path class="g" d="M2871.038,319.863V322.4a.891.891,0,0,1-1.008,1.006h-4.3a.89.89,0,0,1-1.008-1.006v-2.533a.445.445,0,0,1,.5-.5h5.308A.446.446,0,0,1,2871.038,319.863Zm-1.141,2.21V320.41c0-.15-.073-.223-.212-.223h-3.6a.2.2,0,0,0-.225.223v1.663a.444.444,0,0,0,.5.5h3.027A.445.445,0,0,0,2869.9,322.073Z" transform="translate(-2718.616 -293)"/><path class="g" d="M2880.624,319.783V322.4a.89.89,0,0,1-1.006,1.006h-4.3a.89.89,0,0,1-1.007-1.006v-2.613a.444.444,0,0,1,.5-.5h5.31A.444.444,0,0,1,2880.624,319.783Zm-1.141,2.29v-1.742c0-.151-.071-.224-.211-.224h-3.6a.2.2,0,0,0-.224.224v1.742a.443.443,0,0,0,.5.5h3.026A.444.444,0,0,0,2879.483,322.073Z" transform="translate(-2718.616 -293)"/><path class="g" d="M2871.038,318.121a.52.52,0,0,1-.17.409.612.612,0,0,1-.8,0,.517.517,0,0,1-.166-.409v-2.084h-1.954v-.826h1.954v-2.076h1.141Z" transform="translate(-2718.616 -293)"/><path class="g" d="M2877.908,313.3l-.067.549a4.384,4.384,0,0,1-1.247,2.916,8.335,8.335,0,0,1-3.34,1.9.6.6,0,0,1-.168.025.359.359,0,0,1-.386-.377.413.413,0,0,1,.3-.4q3.282-1.38,3.575-3.778h-3.6v-.84Zm2.716,4.8a.516.516,0,0,1-.169.407.57.57,0,0,1-.4.151.581.581,0,0,1-.4-.151.516.516,0,0,1-.168-.407v-4.961h1.141Z" transform="translate(-2718.616 -293)"/><path class="c" d="M2860.316,323.4h-6.747a1.124,1.124,0,0,1-1.265-1.283v-2.693h1.48v2.356a.6.6,0,0,0,.128.443.648.648,0,0,0,.451.12h5.953a.461.461,0,0,1,.522.522A.467.467,0,0,1,2860.316,323.4Z" transform="translate(-2718.616 -293)"/><path class="c" d="M2855.2,309.561a1.058,1.058,0,1,1-1.056-1.061A1.057,1.057,0,0,1,2855.2,309.561Z" transform="translate(-2718.616 -293)"/><path class="c" d="M2860.477,315.371v4.186a.663.663,0,0,1-.22.539.774.774,0,0,1-.529.191.739.739,0,0,1-.517-.191.685.685,0,0,1-.215-.539v-8.705h1.481v4.519Z" transform="translate(-2718.616 -293)"/><path class="c" d="M2862.049,313.652h-1.765v1.06h1.765a.469.469,0,0,0,.522-.535A.464.464,0,0,0,2862.049,313.652Z" transform="translate(-2718.616 -293)"/><path class="c" d="M2856.856,313.412h0s-1.205-1.861-4.945-2.265h0c-.353-.044-.724-.074-1.117-.086v0h-.217v1.116h.205a7.717,7.717,0,0,1,1.889.324,4.238,4.238,0,0,0-.718.612,2.952,2.952,0,0,0,.036,4.118,3.571,3.571,0,0,0,4.561,0,2.77,2.77,0,0,0,.856-2.078A2.806,2.806,0,0,0,2856.856,313.412Zm-2.593,3.515a1.837,1.837,0,1,1,1.643-1.828A1.744,1.744,0,0,1,2854.263,316.927Z" transform="translate(-2718.616 -293)"/><path class="c" d="M2857.955,311.053a10.967,10.967,0,0,0-2.923.368,4.856,4.856,0,0,1,1.452.832,6.578,6.578,0,0,1,1.274-.137c.066,0,.133,0,.2,0l.216.006v-1.073Z" transform="translate(-2718.616 -293)"/><path class="c" d="M2832.423,353.912h-.664l-1.494-4.532h.917l.909,2.954.911-2.954h.923Z" transform="translate(-2718.616 -293)"/><path class="c" d="M2834.8,352.511a.686.686,0,0,0,.725.74.918.918,0,0,0,.753-.314l.5.49a1.574,1.574,0,0,1-1.258.523c-.783,0-1.536-.357-1.536-1.7,0-1.082.585-1.693,1.446-1.693a1.425,1.425,0,0,1,1.443,1.584v.37Zm1.182-.923a.572.572,0,0,0-.551-.344.58.58,0,0,0-.555.344.949.949,0,0,0-.076.357h1.26A.872.872,0,0,0,2835.986,351.588Z" transform="translate(-2718.616 -293)"/><path class="c" d="M2838.68,353.912a.9.9,0,0,1-.959-.949v-1.642h-.35v-.63h.35v-.98h.826v.98h.586v.63h-.586v1.592c0,.191.088.3.287.3h.3v.7Z" transform="translate(-2718.616 -293)"/><path class="c" d="M2840.516,352.511a.685.685,0,0,0,.724.74.914.914,0,0,0,.751-.314l.5.49a1.575,1.575,0,0,1-1.26.523c-.783,0-1.533-.357-1.533-1.7,0-1.082.585-1.693,1.444-1.693a1.426,1.426,0,0,1,1.445,1.584v.37Zm1.181-.923a.616.616,0,0,0-1.106,0,.9.9,0,0,0-.075.357h1.259A.872.872,0,0,0,2841.7,351.588Z" transform="translate(-2718.616 -293)"/><path class="c" d="M2845.155,351.5a.554.554,0,0,0-.974.414v2h-.828V350.6h.81v.317a1.126,1.126,0,0,1,.833-.356,1,1,0,0,1,.783.311Z" transform="translate(-2718.616 -293)"/><path class="c" d="M2847.888,353.912v-.287a1.014,1.014,0,0,1-.817.318,1.136,1.136,0,0,1-.847-.292,1.073,1.073,0,0,1-.272-.745c0-.529.363-.961,1.133-.961h.782v-.165c0-.364-.18-.523-.617-.523a.709.709,0,0,0-.636.275l-.529-.517a1.4,1.4,0,0,1,1.2-.458c.93,0,1.413.395,1.413,1.171v2.184Zm-.021-1.4h-.654c-.3,0-.467.14-.467.375s.155.383.478.383a.654.654,0,0,0,.523-.159.547.547,0,0,0,.12-.42Z" transform="translate(-2718.616 -293)"/><path class="c" d="M2851.515,353.912v-2.006a.553.553,0,1,0-1.1,0v2.006h-.828V350.6h.809v.3a1.146,1.146,0,0,1,.828-.343,1.09,1.09,0,0,1,.784.293,1.237,1.237,0,0,1,.335.942v2.12Z" transform="translate(-2718.616 -293)"/><path class="c" d="M2854.323,353.95a1.8,1.8,0,0,1-1.414-.478l.541-.541a1.206,1.206,0,0,0,.886.313c.286,0,.584-.1.584-.344,0-.165-.088-.281-.348-.306l-.523-.05c-.6-.059-.966-.32-.966-.93,0-.688.6-1.057,1.278-1.057a1.751,1.751,0,0,1,1.266.388l-.507.516a1.158,1.158,0,0,0-.771-.222c-.331,0-.47.152-.47.318,0,.12.05.261.341.286l.523.051c.655.063.986.414.986.973C2855.729,353.6,2855.106,353.95,2854.323,353.95Z" transform="translate(-2718.616 -293)"/><path class="c" d="M2860.381,353.912v-1.9h-1.533v1.9h-.884V349.38h.884v1.852h1.533V349.38h.888v4.532Z" transform="translate(-2718.616 -293)"/><path class="c" d="M2862.912,352.511a.684.684,0,0,0,.721.74.924.924,0,0,0,.756-.314l.5.49a1.576,1.576,0,0,1-1.259.523c-.783,0-1.534-.357-1.534-1.7,0-1.082.586-1.693,1.443-1.693a1.426,1.426,0,0,1,1.445,1.584v.37Zm1.183-.923a.579.579,0,0,0-.555-.344.574.574,0,0,0-.551.344.856.856,0,0,0-.077.357h1.258A.9.9,0,0,0,2864.095,351.588Z" transform="translate(-2718.616 -293)"/><path class="c" d="M2867.449,353.912v-.287a1,1,0,0,1-.813.318,1.131,1.131,0,0,1-.846-.292,1.066,1.066,0,0,1-.275-.745c0-.529.362-.961,1.134-.961h.781v-.165c0-.364-.177-.523-.618-.523a.713.713,0,0,0-.636.275l-.526-.517a1.391,1.391,0,0,1,1.2-.458c.928,0,1.412.395,1.412,1.171v2.184Zm-.019-1.4h-.656c-.3,0-.463.14-.463.375s.152.383.474.383a.66.66,0,0,0,.526-.159.547.547,0,0,0,.119-.42Z" transform="translate(-2718.616 -293)"/><path class="c" d="M2870.087,353.912a.9.9,0,0,1-.969-.949V349.38h.826v3.533c0,.2.084.3.295.3h.317v.7Z" transform="translate(-2718.616 -293)"/><path class="c" d="M2872.256,353.912a.9.9,0,0,1-.961-.949v-1.642h-.351v-.63h.351v-.98h.829v.98h.583v.63h-.583v1.592c0,.191.088.3.286.3h.3v.7Z" transform="translate(-2718.616 -293)"/><path class="c" d="M2875.362,353.912v-2.025a.539.539,0,1,0-1.074,0v2.025h-.829V349.38h.829v1.52a1.1,1.1,0,0,1,.795-.343,1.078,1.078,0,0,1,1.107,1.21v2.145Z" transform="translate(-2718.616 -293)"/><path class="c" d="M2879.871,353.95a2.128,2.128,0,0,1-1.656-.6l.573-.572a1.482,1.482,0,0,0,1.094.382c.522,0,.8-.2.8-.561a.511.511,0,0,0-.138-.382.692.692,0,0,0-.4-.159l-.548-.076a1.534,1.534,0,0,1-.878-.374,1.2,1.2,0,0,1-.326-.893,1.4,1.4,0,0,1,1.58-1.374,1.943,1.943,0,0,1,1.463.527l-.56.554a1.266,1.266,0,0,0-.929-.312c-.472,0-.7.261-.7.573a.439.439,0,0,0,.134.325.779.779,0,0,0,.419.178l.538.077a1.5,1.5,0,0,1,.864.35,1.28,1.28,0,0,1,.35.962C2881.551,353.453,2880.819,353.95,2879.871,353.95Z" transform="translate(-2718.616 -293)"/><path class="c" d="M2882.971,352.511a.686.686,0,0,0,.725.74.908.908,0,0,0,.749-.314l.506.49a1.581,1.581,0,0,1-1.262.523c-.782,0-1.532-.357-1.532-1.7,0-1.082.584-1.693,1.444-1.693a1.427,1.427,0,0,1,1.445,1.584v.37Zm1.183-.923a.616.616,0,0,0-1.1,0,.876.876,0,0,0-.078.357h1.262A.888.888,0,0,0,2884.154,351.588Z" transform="translate(-2718.616 -293)"/><path class="c" d="M2887.611,351.5a.554.554,0,0,0-.974.414v2h-.829V350.6h.812v.317a1.115,1.115,0,0,1,.833-.356,1,1,0,0,1,.782.311Z" transform="translate(-2718.616 -293)"/><path class="c" d="M2890.14,353.912h-.651l-1.223-3.316h.875l.674,2.049.666-2.049h.872Z" transform="translate(-2718.616 -293)"/><path class="c" d="M2891.83,350.029v-.675h.849v.675Zm.015,3.883V350.6h.826v3.316Z" transform="translate(-2718.616 -293)"/><path class="c" d="M2894.914,353.95c-.663,0-1.483-.357-1.483-1.7s.82-1.693,1.483-1.693a1.409,1.409,0,0,1,1.094.446l-.56.561a.668.668,0,0,0-.534-.262.576.576,0,0,0-.471.215,1.136,1.136,0,0,0-.183.733,1.15,1.15,0,0,0,.183.738.572.572,0,0,0,.471.218.666.666,0,0,0,.534-.263l.56.555A1.413,1.413,0,0,1,2894.914,353.95Z" transform="translate(-2718.616 -293)"/><path class="c" d="M2897.184,352.511a.688.688,0,0,0,.728.74.913.913,0,0,0,.751-.314l.5.49a1.582,1.582,0,0,1-1.261.523c-.782,0-1.534-.357-1.534-1.7,0-1.082.586-1.693,1.445-1.693a1.426,1.426,0,0,1,1.446,1.584v.37Zm1.187-.923a.619.619,0,0,0-1.109,0,.944.944,0,0,0-.078.357h1.262A.93.93,0,0,0,2898.371,351.588Z" transform="translate(-2718.616 -293)"/></svg>