<svg xmlns="http://www.w3.org/2000/svg" width="240" height="80" viewBox="0 0 240 80"><defs><style>.cls-1,.cls-2,.cls-3,.cls-4,.cls-5,.cls-6,.cls-7{fill:#fff;}.cls-1{opacity:0;}.cls-2,.cls-4,.cls-5,.cls-6,.cls-7{fill-rule:evenodd;}.cls-3,.cls-7{opacity:0.8;}.cls-4{opacity:0.7;}.cls-5{opacity:0.6;}.cls-6{opacity:0.45;}</style></defs><g id="레이어_2" data-name="레이어 2"><g id="레이어_1-2" data-name="레이어 1"><rect id="사각형_188" data-name="사각형 188" class="cls-1" width="240" height="80"/><path class="cls-2" d="M101.819,30.418H98.246V38.08c0,.357.157.55.467.588a15.812,15.812,0,0,0,3.9-.07,2.32,2.32,0,0,0,1.228-.536,1.673,1.673,0,0,0,.346-1.167V29.678a1.079,1.079,0,0,1,1.075-1.076h0a1.079,1.079,0,0,1,1.075,1.076v3.934h1.894V29.678A1.079,1.079,0,0,1,109.3,28.6h0a1.079,1.079,0,0,1,1.075,1.076V43.693a1.079,1.079,0,0,1-1.075,1.075h0a1.078,1.078,0,0,1-1.075-1.075V35.382h-1.894v8.311a1.079,1.079,0,0,1-1.075,1.075h0a1.078,1.078,0,0,1-1.075-1.075V39.549a3.68,3.68,0,0,1-1.85.847,17.337,17.337,0,0,1-3.315.277,12.208,12.208,0,0,1-1.366-.07,1.591,1.591,0,0,1-1.244-.622,2.432,2.432,0,0,1-.312-1.387V29.678a1.081,1.081,0,0,1,.875-1.057.936.936,0,0,1,.185-.019h4.664a.911.911,0,0,1,.908.908h0a.911.911,0,0,1-.908.908Z"/><path class="cls-2" d="M128.8,35.418h-1.4v3.745a1.078,1.078,0,0,1-1.075,1.075h0a1.078,1.078,0,0,1-1.075-1.075V29.678a1.079,1.079,0,0,1,1.075-1.076h0a1.079,1.079,0,0,1,1.075,1.076V33.6h1.4a.91.91,0,0,1,.908.907h0a.911.911,0,0,1-.908.908Z"/><path class="cls-2" d="M116.281,43.693a1.08,1.08,0,0,0,.863,1.054.94.94,0,0,0,.213.025h9.133a.91.91,0,0,0,.908-.908h0a.91.91,0,0,0-.908-.907h-8.058V40.414a1.078,1.078,0,0,0-1.075-1.075h0a1.079,1.079,0,0,0-1.076,1.075v3.279Z"/><path class="cls-2" d="M135.318,43.693V41.314a1.073,1.073,0,0,1,.306-.75.907.907,0,0,1,.695-.326h7.965v-1.23h-8.059a.909.909,0,0,1-.907-.907h0a.91.91,0,0,1,.907-.908H145.2a1.018,1.018,0,0,1,.157-.012h0a1.069,1.069,0,0,1,.221.023.91.91,0,0,1,.482.24,1.075,1.075,0,0,1,.373.812v2.722a1.082,1.082,0,0,1-.863,1.055.944.944,0,0,1-.185.02h-7.919v.9h8.059a.91.91,0,0,1,.908.907h0a.911.911,0,0,1-.908.908h-9.181a1.079,1.079,0,0,1-1.028-1.074Z"/><path class="cls-2" d="M144.284,32.655v.931h-3.306a.91.91,0,0,0-.907.908h0a.91.91,0,0,0,.907.907h3.307a1.078,1.078,0,0,0,1.074,1.051h0a1.08,1.08,0,0,0,1.076-1.076v-5.7a1.08,1.08,0,0,0-1.076-1.076h0a1.079,1.079,0,0,0-1.075,1.076v1.161h-3.459l.043-.172a3.479,3.479,0,0,0,.051-.346q.121-1.28-1.227-1.28h-.759a.932.932,0,0,0-.177-.017h-5.694a.911.911,0,0,0-.908.908h0a.91.91,0,0,0,.908.907h4.417c.357,0,.507.168.449.5-.313,1.815-2.436,3.187-5.4,4.121h0a.928.928,0,0,0-.524,1.2h0a.934.934,0,0,0,1.018.582c3.448-.942,6.247-2.475,7.253-4.582h1.163v-.008Z"/><path class="cls-2" d="M165.287,39.884v3.809a1.079,1.079,0,0,1-1.076,1.075h0a1.079,1.079,0,0,1-1.075-1.075V40.62h-8.612a.911.911,0,0,1-.908-.908h0a.911.911,0,0,1,.908-.908h9.687a.914.914,0,0,1,.217.026,1.08,1.08,0,0,1,.859,1.054Z"/><path class="cls-2" d="M163.136,34.4h-1.893v2.589a1.079,1.079,0,0,1-1.076,1.075h0a1.078,1.078,0,0,1-1.075-1.075V29.678a1.079,1.079,0,0,1,1.075-1.076h0a1.08,1.08,0,0,1,1.076,1.076v2.9h1.893v-2.9a1.079,1.079,0,0,1,1.075-1.076h0a1.08,1.08,0,0,1,1.076,1.076v7.307a1.079,1.079,0,0,1-1.076,1.075h0a1.078,1.078,0,0,1-1.075-1.075V34.4Z"/><path class="cls-2" d="M180.866,36.854h-1.912a.91.91,0,0,1-.908-.907h0a.911.911,0,0,1,.908-.908h1.912v-.987h-1.912a.911.911,0,0,1-.908-.908h0a.91.91,0,0,1,.908-.907h1.912V29.678a1.08,1.08,0,0,1,1.076-1.076h0a1.08,1.08,0,0,1,1.076,1.076v7.307a1.079,1.079,0,0,1-1.076,1.075h0a1.079,1.079,0,0,1-1.076-1.075v-.131Z"/><path class="cls-3" d="M99.452,51.854h-.958l-1.207-1.737H96.9v1.737h-.8V47.8h.8v1.705h.392L98.478,47.8H99.4l-1.461,1.97,1.509,2.081Zm3.012-1.589a1.627,1.627,0,0,1-.572,1.414,1.546,1.546,0,0,1-.911.254q-1.461,0-1.461-1.646a1.621,1.621,0,0,1,.566-1.409,1.507,1.507,0,0,1,.911-.259q1.467,0,1.467,1.646Zm-.8.011q0-1.086-.683-1.085t-.672,1.085q0,1.086.672,1.085t.683-1.085Zm3.176-1.038h-.286a1.1,1.1,0,0,0-.788.26v2.356h-.8V48.7h.646l.048.308a1.116,1.116,0,0,1,.905-.392,1.643,1.643,0,0,1,.27.021v.6Zm2.837,1.2h-2.017a.8.8,0,0,0,.349.763,1.506,1.506,0,0,0,.7.121h.884v.419a3.117,3.117,0,0,1-1.164.174,1.374,1.374,0,0,1-1.53-1.577,1.683,1.683,0,0,1,.556-1.435,1.492,1.492,0,0,1,.926-.276q1.3,0,1.3,1.52v.291Zm-.715-.482q0-.793-.614-.794c-.437,0-.669.265-.693.794Zm4.055,1.785a1.162,1.162,0,0,1-.641.164q-.391,0-.481-.233a1.687,1.687,0,0,1-.927.254q-.942,0-.942-.879a.836.836,0,0,1,.609-.8,6.17,6.17,0,0,1,1.2-.312v-.3a.351.351,0,0,0-.153-.344,1.041,1.041,0,0,0-.44-.063h-.99v-.4a4.711,4.711,0,0,1,1.271-.19q1.091,0,1.09.868v1.821h.408v.419Zm-1.175-.456v-.9a4.89,4.89,0,0,0-.667.175.468.468,0,0,0-.366.45q0,.381.477.381a1.4,1.4,0,0,0,.556-.106Zm4.2.567h-.8V49.715a.487.487,0,0,0-.154-.424.753.753,0,0,0-.392-.074,1.566,1.566,0,0,0-.556.074v2.563h-.789V48.7h.683l.032.2a1.823,1.823,0,0,1,.964-.254,1.187,1.187,0,0,1,.646.143,1.01,1.01,0,0,1,.37.911v2.155Zm5.252,0H118.21q-.328-.636-.582-1.144-.582-1.181-.673-1.445a6.3,6.3,0,0,1-.248-.816h-.075q.048.6.048.985v2.42h-.667V47.8h1.1l.582,1.181q.308.63.667,1.408a7.049,7.049,0,0,1,.255.816h.069a7.47,7.47,0,0,1-.059-.98V47.8h.673v4.051Zm3.535-.111a1.161,1.161,0,0,1-.64.164q-.391,0-.482-.233a1.687,1.687,0,0,1-.927.254q-.942,0-.942-.879a.836.836,0,0,1,.609-.8,6.17,6.17,0,0,1,1.2-.312v-.3a.351.351,0,0,0-.153-.344,1.037,1.037,0,0,0-.44-.063h-.99v-.4a4.711,4.711,0,0,1,1.271-.19q1.091,0,1.091.868v1.821h.407v.419Zm-1.175-.456v-.9a4.89,4.89,0,0,0-.667.175.467.467,0,0,0-.365.45c0,.254.158.381.476.381a1.4,1.4,0,0,0,.556-.106Zm3.3-2.049V48.7h-.9v-.8l-.784.2V48.7h-.5v.535h.492v1.636a1.107,1.107,0,0,0,.27.869.949.949,0,0,0,.614.158,2.831,2.831,0,0,0,.795-.09v-.487h-.419a.549.549,0,0,1-.349-.079.572.572,0,0,1-.111-.418V49.238Zm1.143-1.133h-.842V47.48h.842v.625Zm-.022,3.749h-.794V48.7h.794v3.151Zm3.457-1.589a1.627,1.627,0,0,1-.572,1.414,1.546,1.546,0,0,1-.911.254q-1.461,0-1.461-1.646a1.621,1.621,0,0,1,.566-1.409,1.507,1.507,0,0,1,.911-.259q1.467,0,1.467,1.646Zm-.8.011q0-1.086-.683-1.085t-.672,1.085q0,1.086.672,1.085t.683-1.085Zm4,1.578h-.805V49.715a.487.487,0,0,0-.153-.424.753.753,0,0,0-.392-.074,1.566,1.566,0,0,0-.556.074v2.563h-.789V48.7h.683l.032.2a1.823,1.823,0,0,1,.964-.254,1.187,1.187,0,0,1,.646.143,1.01,1.01,0,0,1,.37.911v2.155Zm3.42-.111a1.164,1.164,0,0,1-.641.164q-.391,0-.482-.233a1.684,1.684,0,0,1-.927.254q-.942,0-.942-.879a.836.836,0,0,1,.609-.8,6.162,6.162,0,0,1,1.2-.312v-.3a.352.352,0,0,0-.154-.344,1.035,1.035,0,0,0-.439-.063h-.99v-.4a4.7,4.7,0,0,1,1.27-.19q1.09,0,1.091.868v1.821h.408v.419Zm-1.176-.456v-.9a4.93,4.93,0,0,0-.667.175.467.467,0,0,0-.365.45c0,.254.158.381.476.381a1.4,1.4,0,0,0,.556-.106Zm2.3.567h-.794V47.438h.794v4.416Zm4.764-3.442h-1.207v3.442h-.805V48.412h-1.2V47.8h3.214v.609ZM145,51.854h-.678l-.037-.2a1.763,1.763,0,0,1-.424.174,2.15,2.15,0,0,1-.577.085,1.1,1.1,0,0,1-.63-.148,1.023,1.023,0,0,1-.349-.905V48.7h.8v2.145a.491.491,0,0,0,.159.429.753.753,0,0,0,.392.074,1.931,1.931,0,0,0,.55-.074V48.7H145v3.151Zm3.44-1.668a1.534,1.534,0,0,1-.694,1.424,2.037,2.037,0,0,1-1.095.276,4.005,4.005,0,0,1-1-.106V47.438h.794v1.408a1.51,1.51,0,0,1,.752-.185q1.239,0,1.239,1.525Zm-.815.058a1.143,1.143,0,0,0-.249-.842.69.69,0,0,0-.5-.164,1.407,1.407,0,0,0-.429.048v2.038h.233a1,1,0,0,0,.615-.164,1.1,1.1,0,0,0,.328-.916Zm3.954.2h-2.017a.8.8,0,0,0,.349.763,1.506,1.506,0,0,0,.7.121h.884v.419a3.122,3.122,0,0,1-1.165.174,1.374,1.374,0,0,1-1.53-1.577,1.683,1.683,0,0,1,.556-1.435,1.5,1.5,0,0,1,.927-.276q1.3,0,1.3,1.52v.291Zm-.715-.482q0-.793-.614-.794-.657,0-.694.794Zm3.128-.72h-.286a1.109,1.109,0,0,0-.789.26v2.356h-.794V48.7h.646l.048.308a1.114,1.114,0,0,1,.905-.392,1.661,1.661,0,0,1,.27.021v.6Zm2.387,2.557a2.774,2.774,0,0,1-.884.106q-1.44,0-1.44-1.588a1.506,1.506,0,0,1,.662-1.4,1.926,1.926,0,0,1,1.021-.249,3.52,3.52,0,0,1,.583.037v.53h-.35a1.255,1.255,0,0,0-.7.164.988.988,0,0,0-.381.895,1.012,1.012,0,0,0,.339.884,1.1,1.1,0,0,0,.635.153h.519V51.8Zm3.112.059h-.677l-.037-.2a1.763,1.763,0,0,1-.424.174,2.156,2.156,0,0,1-.577.085,1.1,1.1,0,0,1-.63-.148,1.023,1.023,0,0,1-.35-.905V48.7h.8v2.145a.491.491,0,0,0,.159.429.752.752,0,0,0,.391.074,1.938,1.938,0,0,0,.551-.074V48.7h.794v3.151Zm1.45,0h-.794V47.438h.794v4.416Zm3.446-1.589a1.627,1.627,0,0,1-.572,1.414,1.544,1.544,0,0,1-.911.254q-1.461,0-1.461-1.646a1.619,1.619,0,0,1,.567-1.409,1.5,1.5,0,0,1,.91-.259q1.467,0,1.467,1.646Zm-.794.011q0-1.086-.683-1.085t-.673,1.085q0,1.086.673,1.085t.683-1.085Zm3.372.778q0,.864-1.319.863a4.15,4.15,0,0,1-.9-.079v-.514h1.017q.423,0,.423-.248c0-.106-.1-.223-.3-.35q-.27-.165-.747-.482a.9.9,0,0,1-.4-.757q0-.848,1.313-.847a4.337,4.337,0,0,1,.8.074v.514h-.927c-.282,0-.424.081-.424.243q0,.149.281.323.266.165.752.493a.936.936,0,0,1,.424.767Zm1.285-2.949h-.842V47.48h.842v.625Zm-.021,3.749h-.794V48.7h.794v3.151Zm2.72-.8q0,.864-1.318.863a4.15,4.15,0,0,1-.895-.079v-.514h1.017q.423,0,.423-.248,0-.159-.3-.35-.27-.165-.747-.482a.9.9,0,0,1-.4-.757q0-.848,1.313-.847a4.318,4.318,0,0,1,.8.074v.514h-.926q-.424,0-.424.243,0,.149.281.323.264.165.752.493a.935.935,0,0,1,.423.767Zm5.161.8h-.894l-.281-.863h-1.5l-.286.863h-.841l1.424-4.051h1l1.382,4.051Zm-1.286-1.446-.62-1.98-.651,1.98Zm3.62.646q0,.864-1.318.863a4.15,4.15,0,0,1-.895-.079v-.514h1.017q.423,0,.423-.248,0-.159-.3-.35-.27-.165-.747-.482a.9.9,0,0,1-.4-.757q0-.848,1.313-.847a4.318,4.318,0,0,1,.8.074v.514h-.926q-.424,0-.424.243,0,.149.281.323.264.165.752.493a.935.935,0,0,1,.423.767Zm2.535,0q0,.864-1.318.863a4.157,4.157,0,0,1-.895-.079v-.514h1.017q.423,0,.423-.248c0-.106-.1-.223-.3-.35q-.27-.165-.747-.482a.9.9,0,0,1-.4-.757q0-.848,1.313-.847a4.318,4.318,0,0,1,.8.074v.514h-.926c-.282,0-.424.081-.424.243q0,.149.281.323.264.165.752.493a.935.935,0,0,1,.423.767Zm3.271-.789a1.626,1.626,0,0,1-.571,1.414,1.546,1.546,0,0,1-.911.254q-1.461,0-1.461-1.646a1.621,1.621,0,0,1,.566-1.409,1.5,1.5,0,0,1,.911-.259q1.465,0,1.466,1.646Zm-.794.011q0-1.086-.683-1.085t-.672,1.085q0,1.086.672,1.085t.683-1.085Zm3.494,1.519a2.781,2.781,0,0,1-.885.106q-1.44,0-1.44-1.588a1.508,1.508,0,0,1,.662-1.4,1.932,1.932,0,0,1,1.022-.249,3.515,3.515,0,0,1,.582.037v.53h-.349a1.253,1.253,0,0,0-.7.164.988.988,0,0,0-.381.895,1.014,1.014,0,0,0,.338.884,1.1,1.1,0,0,0,.636.153h.519V51.8Zm1.264-3.69h-.842V47.48h.842v.625Zm-.021,3.749H187.4V48.7h.794v3.151Zm3.451-.111a1.162,1.162,0,0,1-.641.164q-.391,0-.481-.233a1.687,1.687,0,0,1-.927.254q-.942,0-.943-.879a.836.836,0,0,1,.609-.8,6.2,6.2,0,0,1,1.2-.312v-.3a.35.35,0,0,0-.154-.344,1.032,1.032,0,0,0-.439-.063h-.99v-.4a4.706,4.706,0,0,1,1.271-.19q1.091,0,1.09.868v1.821h.408v.419Zm-1.175-.456v-.9a4.89,4.89,0,0,0-.667.175.468.468,0,0,0-.366.45q0,.381.477.381a1.4,1.4,0,0,0,.556-.106Zm3.3-2.049V48.7h-.894v-.8l-.784.2V48.7h-.5v.535h.493v1.636a1.107,1.107,0,0,0,.27.869.947.947,0,0,0,.614.158,2.823,2.823,0,0,0,.794-.09v-.487h-.418a.547.547,0,0,1-.349-.079.567.567,0,0,1-.112-.418V49.238Zm1.143-1.133h-.842V47.48h.842v.625Zm-.021,3.749H194.1V48.7h.794v3.151Zm3.456-1.589a1.624,1.624,0,0,1-.572,1.414,1.54,1.54,0,0,1-.91.254q-1.461,0-1.462-1.646a1.619,1.619,0,0,1,.567-1.409,1.5,1.5,0,0,1,.911-.259q1.465,0,1.466,1.646Zm-.794.011q0-1.086-.683-1.085t-.672,1.085q0,1.086.672,1.085t.683-1.085Zm4,1.578h-.805V49.715a.484.484,0,0,0-.154-.424.749.749,0,0,0-.391-.074,1.562,1.562,0,0,0-.556.074v2.563h-.789V48.7h.683l.032.2a1.822,1.822,0,0,1,.963-.254,1.187,1.187,0,0,1,.646.143,1.01,1.01,0,0,1,.371.911Z"/><path class="cls-4" d="M39.581,26.011H45.12l.028,0h0l.029,0h0l.029,0h0l.028,0h0l.028,0h0l.028.006h0l.028.006h0l.027.006h0l.028.007h0l.026.008h0l.027.009h0l.026.009h0l.026.01h0l.026.011h0l.026.011h0l.025.011h0l.024.013h0l.025.013h0l.024.013h0l.024.014h0l.023.015h0l.023.015h0l.023.016h0l.022.016h0l.022.017h0l.021.017h0l.021.018h0l.021.018h0l.02.019h0l.019.019h0l.019.019h0l.019.02h0l.018.02h0l.018.021h0l.017.021h0l.017.022h0l.016.022h0l.016.023h0l.015.023h0l.015.023h0l.014.024h0l.013.024h0l.013.024h0l.013.025h0l.011.025.012.026.01.026.01.026.009.026.009.027.008.026.007.028.007.027.006.028.006.028,0,.028,0,.028,0,.029,0,.029,0,.028v2.821l2.188-3.362a1.232,1.232,0,0,1,1.168-.542h6.9a1.082,1.082,0,0,1,.712.142h0a1.161,1.161,0,0,1,.289,1.734l-5.592,8.529,5.728,8.8a1.147,1.147,0,0,1-.4,1.565h0a1.175,1.175,0,0,1-.128.064,1.123,1.123,0,0,1-.481.108h-6.46a1.145,1.145,0,0,1-1.142-1.142h0a1.145,1.145,0,0,1,1.142-1.142h4.391L49.527,37a1.134,1.134,0,0,1-.156-.645v0a1.137,1.137,0,0,1,.157-.535L54.463,28.3H49.979l-3.934,6.046a1.164,1.164,0,0,1-1.565.4h0a1.2,1.2,0,0,1-.561-1.008V28.3H39.581a1.145,1.145,0,0,1-1.142-1.142h0a1.145,1.145,0,0,1,1.142-1.142Zm0,18.7a1.145,1.145,0,0,0-1.141,1.142h0a1.144,1.144,0,0,0,1.141,1.141H45.12l.028,0,.029,0,.029,0,.028,0,.028-.005.028-.005.028-.006.027-.007.028-.008.026-.008.027-.008.026-.01.026-.01.026-.01.026-.011.025-.012.024-.012.025-.013.024-.014.024-.014.023-.015L45.7,46.8l.023-.016.022-.016.022-.016.021-.018.021-.017.021-.019.02-.018.019-.019.019-.02.019-.02.018-.021.018-.021.017-.021.017-.022.016-.022.016-.023.015-.023.015-.023.014-.024.013-.024.013-.024h0l.013-.025h0l.011-.025h0l.012-.025h0l.01-.025.01-.026.009-.027.009-.026.008-.027.007-.027.007-.028.006-.027.006-.028,0-.028,0-.029,0-.028,0-.029,0-.029v-.058h0V39.706a1.145,1.145,0,0,0-1.142-1.142h0a1.145,1.145,0,0,0-1.142,1.142v5Z"/><path class="cls-5" d="M64.416,31.157v-4a1.144,1.144,0,0,1,1.141-1.141h0a1.145,1.145,0,0,1,.236.024,1.162,1.162,0,0,1,.237-.025H80.775a1.145,1.145,0,0,1,.236.025,1.162,1.162,0,0,1,.237-.025h0a1.145,1.145,0,0,1,1.142,1.142v6.635h0v.058l0,.029,0,.029h0l0,.028h0l0,.029h0l0,.028h0l-.006.028h0l-.006.028h0l-.007.027h0l-.007.027h0l-.008.027h0l-.009.027h0l-.009.026h0l-.01.026h0l-.01.026h0l-.012.025h0l-.012.026h0l-.012.024h0l-.013.025h0l-.013.024h0l-.015.023h0l-.014.023h0l-.015.023h0l-.016.022h0l-.016.023h0l-.017.021h0l-.017.022h0l-.018.021h0l-.018.02h0l-.019.02h0l-.019.02h0l-.02.019h0l-.02.019h0l-.02.018h0l-.021.018h0l-.022.017h0l-.021.017h0l-.023.016h0l-.022.016h0l-.023.015h0l-.023.014h0l-.024.014h0l-.024.013h0l-.025.013h0l-.024.012h0l-.025.012h0l-.026.011h0l-.026.011h0l-.026.01h0l-.026.009h0l-.027.009h0l-.027.008h0l-.027.007h0l-.027.007h0l-.028.006h0l-.028.005h0l-.028,0-.028,0-.029,0-.029,0-.029,0H77.718V45.854h0a1.132,1.132,0,0,1-.228.682l-.017.022h0l-.017.021h0l-.017.021h0l-.018.021h0l-.018.02h0l-.019.02h0l-.019.019h0l-.02.018h0l-.021.019h0l-.021.017h0l-.021.017h0l-.022.016h0l-.022.016h0l-.022.016h0l-.023.015h0l-.023.015h0l-.024.014h0l-.024.014h0l-.024.012h0l-.025.012h0l-.025.012h0l-.025.011h0l-.026.01h0l-.026.01h0l-.027.01h0l-.026.008h0l-.027.008h0l-.027.008h0l-.028.006h0l-.027.006h0l-.028.005h0l-.028,0h0l-.028,0h0l-.028,0h0l-.029,0H73.17a1.145,1.145,0,0,1-1.142-1.142h0a1.145,1.145,0,0,1,1.142-1.141h2.265V33.788a1.142,1.142,0,0,1,.079-.418h0l.011-.025h0l.011-.026h0l.012-.025h0l.012-.025h0l.013-.024h0l.013-.024h0L75.6,33.2h0l.015-.024h0l.015-.022h0l.016-.023h0l.016-.022h0l.017-.022.017-.021.018-.021.018-.021.019-.02.019-.019.02-.02.02-.018.02-.019.021-.017.021-.018.022-.016h0l.022-.017h0l.023-.015h0l.023-.015h0l.023-.014h0l.024-.014h0l.024-.014h0l.025-.013h0l.024-.012h0l.025-.012h0l.026-.011h0l.026-.01h0l.026-.009h0l.026-.009h0l.027-.008h0l.026-.007h0l.027-.007h0l.027-.006h0l.028-.006h0l.028,0h0l.028-.005h0l.028,0h0l.029,0h0l.029,0h3.617V28.3H66.7v2.862A1.145,1.145,0,0,1,65.557,32.3h0A1.145,1.145,0,0,1,64.416,31.157Z"/><path class="cls-6" d="M68.3,51.717V40.143A4.842,4.842,0,0,0,63.456,35.3h-6.78a1.145,1.145,0,0,1-1.142-1.142h0a1.145,1.145,0,0,1,1.142-1.142h6.78a7.1,7.1,0,0,1,7.125,7.126h0V52.858h0v.03h0v.029h0l0,.029h0l0,.029h0l0,.028h0l0,.028h0l0,.029h0l0,.028h0l-.006.027h0l-.007.028h0l-.007.027h0l-.008.027h0l-.009.026h0l-.009.027h0l-.01.026h0l-.011.025h0l-.011.026h0l-.012.025h0l-.012.025h0l-.013.024h0l-.014.024h0l-.014.024h0l-.014.023h0l-.015.023h0l-.016.023h0l-.016.022h0l-.017.022h0l-.017.021h0L70.3,53.6h0l-.018.021h0l-.019.02h0l-.019.019h0l-.02.018h0l-.02.018h0l-.02.018h0l-.021.018h0l-.022.017h0l-.022.017h0l-.022.016h0l-.022.016h0l-.023.015h0l-.024.015h0l-.023.014h0l-.024.013h0l-.025.013h0l-.025.013h0l-.025.011h0l-.025.012h0l-.026.01h0l-.026.01h0l-.026.009h0l-.027.008h0l-.027.008h0l-.027.008h0l-.028.006h0l-.027.007h0l-.028.005h0l-.028.005h0l-.029,0h0l-.028,0h0l-.029,0h0L69.5,54h-5.14a1.145,1.145,0,0,1-1.141-1.142h0a1.144,1.144,0,0,1,1.141-1.141ZM60.484,41.029h-.059l-.029,0-.028,0-.029,0-.028,0-.029,0-.027.005-.028.006-.028.007-.027.007-.027.008-.026.009-.026.01-.027.009-.025.011-.026.011-.025.012-.025.012-.024.013-.024.014-.024.014-.023.014-.023.016-.023.015-.022.016-.022.017-.021.017-.021.018-.021.018-.02.019-.019.019-.019.02-.019.02-.018.021-.018.02-.017.022-.017.022-.016.022-.016.022-.015.023-.015.024-.014.024-.013.024-.013.024-.013.025-.011.025-.012.025-.01.026-.01.026-.009.026-.009.027-.008.027-.008.027-.006.028-.007.027-.005.028,0,.028,0,.029,0,.028,0,.029,0,.029v9.6H55.4a1.144,1.144,0,0,0-1.141,1.141h0A1.145,1.145,0,0,0,55.4,54h5.14l.029,0,.029,0,.029,0,.028,0,.028-.005.028-.005.028-.007.027-.006.028-.008.026-.008.027-.009.026-.009.026-.01.026-.01.026-.012.025-.011L61,53.874l.024-.013.024-.013.024-.014.023-.015.023-.015.023-.016.022-.016.022-.017.021-.017.021-.018.021-.018.02-.019.019-.019.019-.019.019-.02.018-.021.018-.021.017-.021.017-.022.016-.022.016-.023.015-.023.015-.023.014-.024.013-.024.013-.024.013-.025.011-.025.011-.026.011-.025.01-.026.01-.027.008-.026.008-.027.007-.027.007-.028.006-.027.006-.028,0-.029,0-.028,0-.028,0-.029,0-.029V43.312h1.247a1.145,1.145,0,0,0,1.142-1.142h0a1.145,1.145,0,0,0-1.142-1.141Z"/><path class="cls-7" d="M77.645,51.715H73.17a1.145,1.145,0,0,0-1.142,1.141h0A1.145,1.145,0,0,0,73.17,54h5.324a1.091,1.091,0,0,0,1.053-.711,1.226,1.226,0,0,0,.061-.2l1.781-5.849,2.438,6.107A1.077,1.077,0,0,0,84.851,54h7.177a1.169,1.169,0,0,0,.481-.113h0a1.176,1.176,0,0,0,.537-1.523L85.6,33.67a1.119,1.119,0,0,0-1.523-.537h0a1.174,1.174,0,0,0-.537,1.522l6.8,17.06H85.629l-3.338-8.361a1.028,1.028,0,0,0-.639-.59l-.009,0h0a1.12,1.12,0,0,0-1.472.663Z"/><path class="cls-2" d="M200.485,28.6a1.079,1.079,0,0,0-1.075,1.075V38.06h-.01c-.4,2.148-3.859,1.495-5.858,1.654V38.176h.016v-.235c2.717-.523,4.281-3.537,2.612-5.725.13,0,.493,0,.628,0a.908.908,0,0,0,0-1.816h-3.256c.066-.8.012-2.02-1.076-2-1.087-.016-1.143,1.2-1.075,2h-3.255a.908.908,0,0,0,0,1.816c.105,0,.53,0,.627,0-1.67,2.189-.1,5.2,2.613,5.725v.235h.015v1.538H187.6a.908.908,0,0,0,0,1.815h6.306c.015,0,.418,0,.426,0v0c1.906.018,4.3-.252,5.079-1.121,0,.816,0,2.468,0,3.282a1.076,1.076,0,0,0,2.151,0V29.677A1.079,1.079,0,0,0,200.485,28.6Zm-9.8,5.656a1.778,1.778,0,1,1,3.553,0A1.778,1.778,0,1,1,190.69,34.258Z"/><path class="cls-2" d="M177.563,31.887a.908.908,0,0,0,0-1.815h-3.03c.066-.8.013-2.021-1.076-2.006-1.086-.015-1.142,1.2-1.075,2.006H169.35a.908.908,0,0,0,0,1.815c.14,0,.483,0,.626,0-1.893,2.561.245,6.262,3.48,6.173,3.235.09,5.375-3.612,3.481-6.173Zm-4.107,4.2c-2.2.04-2.2-4.02,0-3.98C175.653,32.064,175.654,36.124,173.456,36.084Z"/><path class="cls-2" d="M181.942,38.544a1.134,1.134,0,0,0-1.076,1.348h-6.849a1.088,1.088,0,1,0-2.151-.273c.226.843-.6,4.8.7,5.08a.936.936,0,0,0,.377.069h9c1.882.1.808-4.192,1.076-5.149A1.078,1.078,0,0,0,181.942,38.544Zm-1.076,4.409h-6.849V41.708h6.849Z"/><path class="cls-2" d="M158.63,30.98c.044-1.4-2.359-.779-3.143-.908.462-2.666-2.614-2.663-2.151,0H151.1c-1.35.039-1.052,2.076.254,1.815-4.286,8,10.4,7.992,6.114,0A.964.964,0,0,0,158.63,30.98Zm-4.218,5.165c-2.015.04-2.015-3.9,0-3.858C156.427,32.247,156.426,36.185,154.412,36.145Z"/><path class="cls-2" d="M122.238,31.887a.908.908,0,0,0,0-1.815h-3.031c.463-2.666-2.614-2.663-2.15,0h-3.031c-1.685.293-.772,2.241.694,1.815-4.358,8.587,11.184,8.581,6.824,0Zm-4.107,4.533c-2.2.044-2.2-4.249,0-4.2C120.327,32.172,120.328,36.464,118.131,36.42Z"/></g></g></svg>