<svg xmlns="http://www.w3.org/2000/svg" xmlns:xlink="http://www.w3.org/1999/xlink" width="240" height="80" viewBox="0 0 240 80"><defs><style>.cls-1,.cls-3,.cls-4{fill:#fff;}.cls-1{opacity:0;}.cls-2{fill:url(#무제_그라디언트_5);}.cls-4{isolation:isolate;opacity:0.7;}</style><radialGradient id="무제_그라디언트_5" cx="162.539" cy="14.816" r="21.918" gradientTransform="translate(2.691 0.872) scale(0.979 0.979)" gradientUnits="userSpaceOnUse"><stop offset="0" stop-color="#fff" stop-opacity="0.2"/><stop offset="0.01" stop-color="#fff" stop-opacity="0.212"/><stop offset="0.188" stop-color="#fff" stop-opacity="0.42"/><stop offset="0.275" stop-color="#fff" stop-opacity="0.502"/><stop offset="1" stop-color="#fff" stop-opacity="0.698"/></radialGradient></defs><g id="레이어_2" data-name="레이어 2"><g id="레이어_1-2" data-name="레이어 1"><rect id="사각형_173" data-name="사각형 173" class="cls-1" width="240" height="80"/><path class="cls-2" d="M163.911,17V29.1c0,1.154.325,7.635,8,10.244,7.675-2.609,8.006-9.09,8.006-10.244V17Zm14.154,7.583h-2.058v.742h2.058v2.507h-2.058v6.877h-3.138L170.5,32.337l-2.4,2.419-1.843-1.848,4.23-4.227,2.872,2.842V21.61H169.32V19.329h6.615v2.95h2.13Z"/><path class="cls-3" d="M137.3,21.61h-4.869V36.265c0,3.76-.636,5.667-4.118,5.667-3.356,0-4.013-2.077-4.013-5.667V21.61h-5.042v14.9c0,4.222,1.1,8.127,9.055,8.127,8.052,0,9.161-3.905,9.161-8.127V21.61Z"/><polygon class="cls-4" points="154.215 44.277 159.259 44.277 159.259 21.61 159.081 21.61 154.215 21.61 154.215 30.998 145.978 30.998 145.978 21.61 140.932 21.61 140.932 44.277 145.978 44.277 145.978 34.119 154.215 34.119 154.215 44.277"/><path class="cls-3" d="M111.065,21.61V36.824L102.23,21.61h-5.4V44.277h4.7s0-14.821,0-16.025l9.3,16.025h4.939V21.61h-4.7Z"/><path class="cls-3" d="M86.628,30.455c-2.894-1.256-5.392-2.342-5.392-4.182,0-1.278,1.408-2.151,3.5-2.137a22.652,22.652,0,0,1,7.67,1.617l.284.114V21.941l-.093-.015a48.274,48.274,0,0,0-7.15-.67c-5.864,0-9.369,2.215-9.369,5.925,0,3.918,3.9,5.7,7.342,7.268,2.845,1.3,5.53,2.525,5.53,4.744,0,2.386-3.639,2.486-4.055,2.486a17.907,17.907,0,0,1-8.085-2.3l-.3-.15v4.361l.35.081a32.641,32.641,0,0,0,7.206.96c6.823,0,10.431-2.352,10.431-6.8C94.5,33.875,90.318,32.056,86.628,30.455Z"/><path class="cls-3" d="M144.911,50.364v1.561h-1.545V50.79h-1.952v1.626h-2.457V50.79H137c-.15,7.751-.557,5.335,6.363,5.7V55.2h1.545v1.9h1.955V50.364Zm-3.5,4.868h-2.457V53.67h2.457Zm3.5-1.285h-1.545v-.765h1.545Z"/><path class="cls-3" d="M143.185,57.1a2.956,2.956,0,1,0,0,5.9A2.956,2.956,0,1,0,143.185,57.1Zm0,4.594c-1.85.03-1.849-3.323,0-3.291C145.026,58.374,145.027,61.73,143.181,61.7Z"/><path class="cls-3" d="M85.235,50.362v3.791H83.349v1.262h1.886v7.472H87.2V50.362Z"/><path class="cls-3" d="M124.589,53.6H122.7V50.362h-1.96v7.019h1.96V54.857h1.893Z"/><path class="cls-3" d="M132.892,57.971h1.958v-6.9h-8.672v1.258h6.714Z"/><path class="cls-3" d="M132.1,55.615h-1.957v4.458H129.4V55.615h-1.956v4.458h-3.016v1.259H136.1V60.073h-4Z"/><path class="cls-3" d="M115.106,58.24V59.5h5.63v3.387h1.96V58.24Z"/><path class="cls-3" d="M119.447,54.467a2.711,2.711,0,0,0-.632-1.725h1.438V51.487h-2.967V49.911h-1.959v1.576h-2.965v1.255h1.379C110.589,57.03,119.294,59.476,119.447,54.467Zm-4.481,0c-.022-2.18,2.644-2.183,2.621,0C117.61,56.65,114.944,56.647,114.966,54.466Z"/><path class="cls-3" d="M81.687,54.152a11.814,11.814,0,0,1-.273-3.31h-2.08a8.349,8.349,0,0,1-3.184,7.47l.964.877a10.827,10.827,0,0,0,3.258-3.438,10.779,10.779,0,0,0,3.259,3.438l.961-.877A8.435,8.435,0,0,1,81.687,54.152Z"/><path class="cls-3" d="M109.018,50.362v3.791h-.592V50.362h-1.961v5.793a9.084,9.084,0,0,1-3.5.585v-4.7h2.563V50.786H101v6.662c.386,1.268,4.622.285,5.463-.018v5.457h1.961V55.415h.592v7.472h1.958V50.362Z"/><path class="cls-3" d="M88.283,55.848v1.258H93.2v.8H89.878v1.262h6.439v.6H89.878c.172.513-.475,3.2.57,3.125h8.039V61.628H92.041v-.6h6.447V57.9H95.161v-.8h4.921V55.848Z"/><path class="cls-3" d="M94.186,55.551c4.891.048,4.894-5.978,0-5.928C89.284,49.573,89.288,55.6,94.186,55.551Zm0-4.713c2.111-.031,2.11,3.531,0,3.5C92.067,54.368,92.066,50.807,94.186,50.838Z"/><path class="cls-3" d="M157.051,50.367v5.7H148.41v1.259H151v1.19h1.959v-1.19h4.089v.512h-1.834v1.26h1.834v1.162h1.958V50.367Z"/><path class="cls-3" d="M152.962,59.074H151c.2.516-.53,3.935.578,3.823h7.431V61.634h-6.047Z"/><path class="cls-3" d="M152.427,55.817a2.952,2.952,0,1,0,0-5.889A2.952,2.952,0,1,0,152.427,55.817Zm0-4.627c1.757-.033,1.754,3.4,0,3.366C150.677,54.589,150.674,51.157,152.432,51.19Z"/></g></g></svg>