<svg xmlns="http://www.w3.org/2000/svg" width="240" height="80" viewBox="0 0 240 80"><defs><style>.cls-1,.cls-2,.cls-3{fill:#fff;}.cls-1{opacity:0;}.cls-2{isolation:isolate;opacity:0.75;}</style></defs><g id="레이어_2" data-name="레이어 2"><g id="레이어_1-2" data-name="레이어 1"><rect id="사각형_190" data-name="사각형 190" class="cls-1" width="240" height="80"/><polygon class="cls-2" points="44.251 30.947 34.234 30.947 34.234 33.154 42.187 33.154 42.187 46.795 34.234 46.795 34.234 49.002 44.251 49.002 44.251 30.947"/><polygon class="cls-2" points="40.21 35.131 34.234 35.131 34.234 36.937 38.232 36.937 38.232 43.012 34.234 43.012 34.234 44.818 40.21 44.818 40.21 35.131"/><rect class="cls-2" x="34.234" y="38.914" width="2.02" height="2.121"/><rect class="cls-2" x="58.179" y="27.164" width="2.02" height="13.756"/><polygon class="cls-2" points="56.201 27.164 54.224 27.164 54.224 45.047 60.199 45.047 60.199 42.898 56.201 42.898 56.201 27.164"/><polygon class="cls-2" points="52.246 27.164 50.269 27.164 50.269 49.002 60.199 49.002 60.199 47.025 52.246 47.025 52.246 27.164"/><polygon class="cls-2" points="48.291 27.164 34.234 27.164 34.234 28.97 46.228 28.97 46.228 50.98 34.234 50.98 34.234 52.785 60.199 52.785 60.199 50.98 48.291 50.98 48.291 27.164"/><path class="cls-3" d="M73.344,36.318a12.16,12.16,0,0,0,2.942-3,12.16,12.16,0,0,0,2.942,3,10.067,10.067,0,0,0,3.739,1.594l1.287-1.594a19.751,19.751,0,0,1-2.574-1.1,8.776,8.776,0,0,1-3.371-3.433c-.8-1.471-.736-4.6-.736-4.6H75s.061,3.126-.736,4.6a8.776,8.776,0,0,1-3.371,3.433,19.751,19.751,0,0,1-2.574,1.1l1.287,1.594A10.067,10.067,0,0,0,73.344,36.318Z"/><polygon class="cls-3" points="74.815 38.096 74.815 42.019 68.502 42.019 68.502 43.919 84.071 43.919 84.071 42.019 77.757 42.019 77.757 38.096 74.815 38.096"/><path class="cls-3" d="M97.833,29.453h5.307V27.859H88.981v1.594h5.307a10.326,10.326,0,0,1-6.073,3.617l1.164,1.655a13.146,13.146,0,0,0,6.682-3.571,13.142,13.142,0,0,0,6.681,3.571l1.164-1.655A10.326,10.326,0,0,1,97.833,29.453Z"/><path class="cls-3" d="M88.215,37.238h6.558v.8c-3.312.308-5.823,1.783-5.823,3.557,0,2,3.184,3.616,7.111,3.616s7.11-1.619,7.11-3.616c0-1.752-2.449-3.213-5.7-3.546v-.806h6.436V35.521H88.215ZM100.4,41.59c0,.846-1.942,1.532-4.338,1.532s-4.339-.686-4.339-1.532,1.943-1.533,4.339-1.533S100.4,40.743,100.4,41.59Z"/><path class="cls-3" d="M108.425,33.253c0,2.506,1.778,4.536,5.149,4.536,3.188,0,5.149-2.03,5.149-4.536a4.321,4.321,0,0,0-1.785-3.432H118.6V28.227h-3.432V27.063h-3v1.164h-3.677v1.594h1.723A4.324,4.324,0,0,0,108.425,33.253Zm5.241-2.88a2.639,2.639,0,0,1,2.3,2.88,2.358,2.358,0,1,1-4.6,0A2.639,2.639,0,0,1,113.666,30.373Z"/><polygon class="cls-3" points="123.259 33.56 125.159 33.56 125.159 31.844 123.259 31.844 123.259 27.185 120.378 27.185 120.378 39.628 123.259 39.628 123.259 33.56"/><polygon class="cls-3" points="112.471 39.077 109.529 39.077 109.529 44.532 123.627 44.532 123.627 42.387 112.471 42.387 112.471 39.077"/><rect class="cls-3" x="143.18" y="27.063" width="2.329" height="17.101"/><path class="cls-3" d="M139.563,33.131h-1.838V27.369h-6.988V42.387h6.988V34.97h1.838v9.194h2.146v-17.1h-2.146ZM135.4,40.854h-2.451V29.085H135.4Z"/><path class="cls-3" d="M164.878,44.164v-17.1H162.3V40.235a18.005,18.005,0,0,1-4.781.5h-3.31V29.208h6.068V27.369h-8.826V42.141h6.068a17.255,17.255,0,0,0,4.781-.414v2.437Z"/><path class="cls-3" d="M179.222,33.928V44.164h2.268v-17.1h-2.268v5.394H177.26V27.492h-5.7v1.716h3.616v3.739h-3.494v1.594h3.546a7.87,7.87,0,0,1-.358,2.758,6.056,6.056,0,0,1-2.023,2.574,5.984,5.984,0,0,1-1.655.981l.858,1.594a11.427,11.427,0,0,0,3.984-3,8.123,8.123,0,0,0,1.244-5.516Z"/><rect class="cls-3" x="182.899" y="27.063" width="2.329" height="17.101"/><path class="cls-3" d="M203.249,27v6.314h-2.384c-.493-3.506-2.49-6.13-4.879-6.13-2.759,0-5,3.5-5,7.815s2.237,7.816,5,7.816c2.673,0,4.856-3.286,4.989-7.417h2.274v8.765h2.514V27Zm-7.263,13.8c-1.337,0-2.421-2.6-2.421-5.8s1.084-5.8,2.421-5.8,2.421,2.6,2.421,5.8S197.323,40.8,195.986,40.8Z"/><path class="cls-3" d="M71.381,50.672a1.587,1.587,0,0,0-.454-.26,4.048,4.048,0,0,0-.572-.168c-.166-.036-.3-.069-.4-.1s-.195-.055-.286-.078a2.447,2.447,0,0,1-.307-.107,1.363,1.363,0,0,1-.286-.166.868.868,0,0,1-.211-.226.522.522,0,0,1-.082-.29.94.94,0,0,1,.064-.337.884.884,0,0,1,.2-.306,1.018,1.018,0,0,1,.35-.226,1.368,1.368,0,0,1,.521-.088,1.582,1.582,0,0,1,.386.047,2.278,2.278,0,0,1,.347.118,1.72,1.72,0,0,1,.289.159c.086.058.162.114.229.168l.365-.33c-.077-.059-.165-.123-.265-.192a2.281,2.281,0,0,0-.346-.2,2.34,2.34,0,0,0-.44-.148,2.382,2.382,0,0,0-.543-.057,2.346,2.346,0,0,0-.8.131,1.514,1.514,0,0,0-.525.32,1.174,1.174,0,0,0-.29.445,1.465,1.465,0,0,0-.089.5.985.985,0,0,0,.382.762,2.437,2.437,0,0,0,1,.472l.629.155a3.44,3.44,0,0,1,.407.125,1.153,1.153,0,0,1,.315.175.69.69,0,0,1,.2.253.758.758,0,0,1,.061.351.925.925,0,0,1-.139.472.967.967,0,0,1-.311.3,1.414,1.414,0,0,1-.4.162,2.274,2.274,0,0,1-.418.057,1.647,1.647,0,0,1-.479-.057,2.134,2.134,0,0,1-.421-.166,2.571,2.571,0,0,1-.344-.212,1.611,1.611,0,0,1-.235-.206l-.379.344a2.609,2.609,0,0,0,.336.266,2.5,2.5,0,0,0,.425.233,2.9,2.9,0,0,0,.5.165,2.423,2.423,0,0,0,.568.064,2.875,2.875,0,0,0,.683-.081,1.788,1.788,0,0,0,.59-.256,1.367,1.367,0,0,0,.414-.445,1.314,1.314,0,0,0,.165-.647,1.165,1.165,0,0,0-.1-.523A1.1,1.1,0,0,0,71.381,50.672Z"/><path class="cls-3" d="M79.857,49.327a2.456,2.456,0,0,0-.168-.5,1.438,1.438,0,0,0-.278-.408,1.7,1.7,0,0,0-.636-.387,2.344,2.344,0,0,0-.794-.138,2.243,2.243,0,0,0-.85.158,1.684,1.684,0,0,0-.622.408,1.754,1.754,0,0,0-.407.853,6.271,6.271,0,0,0-.108,1.136,5.509,5.509,0,0,0,.1,1.166,1.651,1.651,0,0,0,.422.836,1.845,1.845,0,0,0,.636.405,2.254,2.254,0,0,0,.829.148,2.185,2.185,0,0,0,.851-.155,1.759,1.759,0,0,0,.6-.391,1.448,1.448,0,0,0,.275-.394,2.258,2.258,0,0,0,.161-.476,3.489,3.489,0,0,0,.075-.542q.018-.287.018-.6c0-.184-.007-.371-.021-.559A3.859,3.859,0,0,0,79.857,49.327Zm-.45,1.6a3.709,3.709,0,0,1-.05.472,2.112,2.112,0,0,1-.121.428,1.093,1.093,0,0,1-.647.634,1.6,1.6,0,0,1-.608.108,1.643,1.643,0,0,1-.6-.1,1.2,1.2,0,0,1-.422-.27,1.3,1.3,0,0,1-.346-.711,5.434,5.434,0,0,1-.075-1.042c0-.139.013-.288.025-.445a4.357,4.357,0,0,1,.06-.469,2.848,2.848,0,0,1,.118-.441,1.181,1.181,0,0,1,.2-.364,1.133,1.133,0,0,1,.429-.3,1.539,1.539,0,0,1,.607-.112,1.558,1.558,0,0,1,.6.112,1.107,1.107,0,0,1,.654.654,2.306,2.306,0,0,1,.121.448,3.978,3.978,0,0,1,.05.472c.007.157.011.3.011.438C79.418,50.6,79.414,50.764,79.407,50.928Z"/><path class="cls-3" d="M110.157,50.689h1.33v.721a1.323,1.323,0,0,1-.111.583.913.913,0,0,1-.293.354,1.094,1.094,0,0,1-.418.176,2.553,2.553,0,0,1-.493.047,1.572,1.572,0,0,1-.572-.095,1.733,1.733,0,0,1-.443-.249,1.288,1.288,0,0,1-.4-.694,4.1,4.1,0,0,1-.114-1.079q0-.257.018-.513a3.289,3.289,0,0,1,.071-.489,2.067,2.067,0,0,1,.15-.431,1.07,1.07,0,0,1,.261-.341,1.489,1.489,0,0,1,1.03-.357,1.854,1.854,0,0,1,.843.162,1.511,1.511,0,0,1,.529.452l.4-.277c-.072-.081-.153-.166-.243-.256a1.65,1.65,0,0,0-.336-.25,1.966,1.966,0,0,0-.49-.188,2.838,2.838,0,0,0-.7-.074,2.318,2.318,0,0,0-.815.134,2.094,2.094,0,0,0-.608.344,1.519,1.519,0,0,0-.329.388,2.012,2.012,0,0,0-.2.482,3.416,3.416,0,0,0-.1.566c-.019.2-.028.418-.028.648q0,.309.025.617a3.167,3.167,0,0,0,.1.583,2.007,2.007,0,0,0,.214.509,1.33,1.33,0,0,0,.361.394,2.232,2.232,0,0,0,.636.334,2.362,2.362,0,0,0,.744.111,2.671,2.671,0,0,0,.861-.121,1.535,1.535,0,0,0,.575-.334,1.253,1.253,0,0,0,.322-.5,1.9,1.9,0,0,0,.1-.623V50.257h-1.873Z"/><polygon class="cls-3" points="172.061 48.43 172.568 48.43 172.568 52.462 172.061 52.462 172.061 52.893 173.612 52.893 173.612 52.462 173.112 52.462 173.112 48.43 173.612 48.43 173.612 47.998 172.061 47.998 172.061 48.43"/><path class="cls-3" d="M178.651,49.559a2.15,2.15,0,0,1,.125-.418,1.332,1.332,0,0,1,.218-.36,1.2,1.2,0,0,1,.461-.334,1.559,1.559,0,0,1,.668-.125,2.567,2.567,0,0,1,.561.064,1.468,1.468,0,0,1,.375.145,1.082,1.082,0,0,1,.25.2c.067.072.126.141.179.209l.4-.277a2.839,2.839,0,0,0-.286-.3,1.679,1.679,0,0,0-.361-.247,2.025,2.025,0,0,0-.478-.165,3.034,3.034,0,0,0-.64-.06,2.218,2.218,0,0,0-.929.171,2.112,2.112,0,0,0-.608.408,1.685,1.685,0,0,0-.446.857,5.481,5.481,0,0,0-.1,1.112,5.163,5.163,0,0,0,.129,1.221,1.519,1.519,0,0,0,.486.829,2.092,2.092,0,0,0,.682.391,2.487,2.487,0,0,0,.8.121,2.9,2.9,0,0,0,.672-.067,2.05,2.05,0,0,0,.482-.175,1.494,1.494,0,0,0,.343-.243c.093-.09.18-.182.261-.277l-.4-.283a2.028,2.028,0,0,1-.2.226,1.21,1.21,0,0,1-.264.2,1.337,1.337,0,0,1-.372.138,2.332,2.332,0,0,1-.525.051,1.81,1.81,0,0,1-.586-.091,1.409,1.409,0,0,1-.486-.293,1.123,1.123,0,0,1-.243-.338,1.94,1.94,0,0,1-.143-.424,3.453,3.453,0,0,1-.068-.479c-.012-.166-.018-.333-.018-.5,0-.144,0-.291.011-.442A3,3,0,0,1,178.651,49.559Z"/><path class="cls-3" d="M136.158,52.091,133.721,48h-.2l0,0h-1.042v.245a1.524,1.524,0,0,1,.571.1v4.548h.551V48.868l2.429,4.025h.659V48h-.536Z"/><path class="cls-3" d="M126.537,48v0H125.5v.245a1.64,1.64,0,0,1,.541.09l-1.872,4.563h.572l.443-1.126h2.466l.429,1.126h.586L126.652,48Zm-1.171,3.338,1.051-2.7,1.057,2.7Z"/><path class="cls-3" d="M103.217,52.091,100.719,48h-.233l0,0H99.446v.245a1.353,1.353,0,0,1,.607.129v4.524h.551V48.868l2.491,4.025h.658V48h-.536Z"/><path class="cls-3" d="M119.505,50.1h-2.45V48h-.019v0h-.919v.245a1.52,1.52,0,0,1,.387.054v4.6h.55V50.534h2.45v2.359h.551V48h-.551Z"/><path class="cls-3" d="M149.369,52.018,147.726,48h-.165v0h-.919v.245a1.49,1.49,0,0,1,.4.059v4.594h.544V49.01l1.55,3.642h.465L151.149,49v3.9h.543V48h-.68Z"/><path class="cls-3" d="M167.723,49.04a1.516,1.516,0,0,0-.368-.533,1.792,1.792,0,0,0-.633-.37,2.79,2.79,0,0,0-.936-.139h-.94l0,0h-.92v.245a1.311,1.311,0,0,1,.475.088v4.565h1.383a2.907,2.907,0,0,0,.886-.121,1.757,1.757,0,0,0,.633-.344,1.524,1.524,0,0,0,.393-.539,2.126,2.126,0,0,0,.168-.708q.035-.4.032-.762c0-.238-.013-.488-.032-.748A2.035,2.035,0,0,0,167.723,49.04Zm-.4,2.141a1.328,1.328,0,0,1-.439.978,1.733,1.733,0,0,1-1.1.3h-.826V48.43h.826a1.635,1.635,0,0,1,1.143.334,1.291,1.291,0,0,1,.393.907c.015.256.023.508.026.755S167.341,50.925,167.322,51.181Z"/><path class="cls-3" d="M187.894,48v0h-.92v.245a1.191,1.191,0,0,1,.509.108l-1.865,4.545h.572l.443-1.126H189.1l.428,1.126h.586L188.106,48Zm-1.074,3.338,1.05-2.7,1.058,2.7Z"/><path class="cls-3" d="M196.935,50.547a1.447,1.447,0,0,0,.371-.32,1.326,1.326,0,0,0,.225-.4,1.224,1.224,0,0,0,.068-.441,1.363,1.363,0,0,0-.425-1.018,1.746,1.746,0,0,0-1.2-.365h-1.4v0h-.919v.245a1.255,1.255,0,0,1,.488.1v4.557h.551v-2.11h.792l1.543,2.11h.607l-1.571-2.157A2.194,2.194,0,0,0,196.935,50.547Zm-2.239-.2V48.43h1.274a1.4,1.4,0,0,1,.507.081.89.89,0,0,1,.333.216.839.839,0,0,1,.182.306,1.121,1.121,0,0,1,.057.354.937.937,0,0,1-.093.432.86.86,0,0,1-.25.3,1.086,1.086,0,0,1-.354.175,1.468,1.468,0,0,1-.411.058Z"/><path class="cls-3" d="M202.545,48h-.92v.245a1.35,1.35,0,0,1,.459.081v4.572h3.037v-.431h0v-.483h-.245a1.022,1.022,0,0,1-.115.483h-2.125V50.6h1.9a1.784,1.784,0,0,1,.035.336h.187V49.773h-.187a1.619,1.619,0,0,1-.051.4h-1.879V48.43h2.124a1.016,1.016,0,0,1,.116.484h.245V48.43h0V48h-2.578Z"/><path class="cls-3" d="M157.247,48h-.919v.245a1.342,1.342,0,0,1,.458.081v4.572h3.037v-.431h0v-.483h-.246a1.017,1.017,0,0,1-.114.483h-2.125V50.6h1.711a1.784,1.784,0,0,1,.035.336h.187V49.773h-.187a1.619,1.619,0,0,1-.051.4h-1.7V48.43h2.123a1,1,0,0,1,.116.484h.246V48.43h0V48h-2.577Z"/><path class="cls-3" d="M94.62,51.329a1.22,1.22,0,0,1-.115.543,1.144,1.144,0,0,1-.3.388,1.3,1.3,0,0,1-.425.232,1.51,1.51,0,0,1-.958,0,1.264,1.264,0,0,1-.421-.232,1.172,1.172,0,0,1-.3-.388,1.222,1.222,0,0,1-.115-.55V48h-.016v0h-.919v.245a1.526,1.526,0,0,1,.384.053v3.036a1.527,1.527,0,0,0,.579,1.237,1.9,1.9,0,0,0,.6.324,2.185,2.185,0,0,0,1.375,0,1.855,1.855,0,0,0,.6-.324A1.622,1.622,0,0,0,95,52.044a1.534,1.534,0,0,0,.161-.715V48H94.62Z"/><path class="cls-3" d="M86.7,48h-.919v.245a1.366,1.366,0,0,1,.452.078V51.3a3.074,3.074,0,0,1-.047.543.891.891,0,0,1-.189.428.7.7,0,0,1-.322.236,1.346,1.346,0,0,1-.435.061.948.948,0,0,1-.476-.115,1.286,1.286,0,0,1-.368-.317l-.4.317a1.788,1.788,0,0,0,.55.415,1.65,1.65,0,0,0,.694.131,2,2,0,0,0,.689-.111,1.2,1.2,0,0,0,.518-.367,1.245,1.245,0,0,0,.25-.516,2.874,2.874,0,0,0,.079-.7V48H86.7Z"/></g></g></svg>