<svg xmlns="http://www.w3.org/2000/svg" width="240" height="80" viewBox="0 0 240 80"><defs><style>.a,.b,.c,.d,.e{fill:#fff;}.a{opacity:0;}.c{opacity:0.7;}.d{opacity:0.5;}.e{opacity:0.85;}</style></defs><rect class="a" width="240" height="80"/><path class="b" d="M3685.16,461.8V458.19a1.349,1.349,0,0,0-1.424-1.547,1.375,1.375,0,0,0-1.447,1.547V461.8h-.853v-7.473h.853V456.6a2.061,2.061,0,0,1,1.628-.714,1.974,1.974,0,0,1,2.094,2.165V461.8Z" transform="translate(-3543.945 -407.819)"/><path class="b" d="M3691.284,461.21a2.424,2.424,0,0,1-3.336,0,4.2,4.2,0,0,1,0-4.662,2.424,2.424,0,0,1,3.336,0,4.191,4.191,0,0,1,0,4.662Zm-.6-4.137a1.493,1.493,0,0,0-1.063-.43,1.466,1.466,0,0,0-1.056.43,3.7,3.7,0,0,0,0,3.613,1.454,1.454,0,0,0,1.056.43,1.48,1.48,0,0,0,1.063-.43,3.785,3.785,0,0,0,0-3.613Z" transform="translate(-3543.945 -407.819)"/><path class="b" d="M3695.113,461.875a3.188,3.188,0,0,1-2.386-.844l.567-.568a2.377,2.377,0,0,0,1.808.672c.958,0,1.547-.342,1.547-1.031,0-.511-.293-.8-.967-.856l-.957-.086c-1.135-.092-1.739-.6-1.739-1.567,0-1.07.9-1.712,2.139-1.712a3.272,3.272,0,0,1,2.093.631l-.555.559a2.479,2.479,0,0,0-1.55-.465c-.85,0-1.3.369-1.3.964,0,.5.285.8,1.016.857l.933.083c1.02.094,1.714.488,1.714,1.581C3697.477,461.221,3696.519,461.875,3695.113,461.875Z" transform="translate(-3543.945 -407.819)"/><path class="b" d="M3702.348,461.366a2.024,2.024,0,0,1-1.419.509,1.872,1.872,0,0,1-1.642-.759v2.366h-.853v-7.528h.853v.689a1.849,1.849,0,0,1,1.642-.76,2.025,2.025,0,0,1,1.419.51,4.726,4.726,0,0,1,0,4.973Zm-1.6-4.723c-1.263,0-1.465,1.1-1.465,2.237s.2,2.236,1.465,2.236,1.456-1.1,1.456-2.236S3702.017,456.643,3700.752,456.643Z" transform="translate(-3543.945 -407.819)"/><path class="b" d="M3704.3,455.279v-.961h.959v.961Zm.049,6.526v-5.851h.851V461.8Z" transform="translate(-3543.945 -407.819)"/><path class="b" d="M3708.438,461.8a1.431,1.431,0,0,1-1.49-1.571v-3.591h-.734v-.655h.734V454.34h.852v1.648h1.241v.655H3707.8v3.568c0,.537.249.854.792.854h.449v.74Z" transform="translate(-3543.945 -407.819)"/><path class="b" d="M3713.762,461.8v-.56a2.032,2.032,0,0,1-1.678.63,2.072,2.072,0,0,1-1.644-.533,1.7,1.7,0,0,1-.433-1.19c0-1.022.706-1.686,2-1.686h1.75V457.9c0-.855-.424-1.283-1.489-1.283a1.525,1.525,0,0,0-1.466.667l-.58-.535a2.247,2.247,0,0,1,2.059-.87c1.562,0,2.328.677,2.328,1.951V461.8Zm0-2.7h-1.63c-.878,0-1.3.357-1.3,1.035s.414.995,1.333.995a1.689,1.689,0,0,0,1.3-.387,1.358,1.358,0,0,0,.3-1.011Z" transform="translate(-3543.945 -407.819)"/><path class="b" d="M3717.424,461.8a1.392,1.392,0,0,1-1.476-1.559v-5.914h.851v5.879c0,.571.192.854.78.854h.462v.74Z" transform="translate(-3543.945 -407.819)"/><path class="b" d="M3573.153,461.817h-.838v-.7a1.954,1.954,0,0,1-1.643.761,1.882,1.882,0,0,1-1.406-.51,4.7,4.7,0,0,1,0-4.95,1.906,1.906,0,0,1,1.41-.509,1.938,1.938,0,0,1,1.636.755v-2.242h.838Zm-.838-2.92a3.6,3.6,0,0,0-.251-1.539,1.393,1.393,0,0,0-2.4,0,3.524,3.524,0,0,0-.259,1.539,3.562,3.562,0,0,0,.259,1.543,1.393,1.393,0,0,0,2.4,0A3.64,3.64,0,0,0,3572.315,458.9Z" transform="translate(-3543.945 -407.819)"/><path class="b" d="M3578.972,458.9a3.241,3.241,0,0,1-.7,2.324,2.408,2.408,0,0,1-3.312,0,4.171,4.171,0,0,1,0-4.644,2.394,2.394,0,0,1,3.312,0A3.228,3.228,0,0,1,3578.972,458.9Zm-.837,0a2.6,2.6,0,0,0-.459-1.8,1.443,1.443,0,0,0-1.065-.427,1.419,1.419,0,0,0-1.048.427,3.673,3.673,0,0,0,0,3.6,1.425,1.425,0,0,0,1.048.429,1.462,1.462,0,0,0,1.081-.447A2.606,2.606,0,0,0,3578.135,458.9Z" transform="translate(-3543.945 -407.819)"/><path class="b" d="M3584.613,461.817h-.839v-3.6q0-1.552-1.427-1.552a1.388,1.388,0,0,0-1.053.4,1.605,1.605,0,0,0-.382,1.149v3.6h-.84v-5.823h.84v.637a2.045,2.045,0,0,1,1.62-.719,2.01,2.01,0,0,1,1.481.546,2.19,2.19,0,0,1,.6,1.626Z" transform="translate(-3543.945 -407.819)"/><path class="b" d="M3590.286,461.1a2.555,2.555,0,0,1-.646,1.8,2.29,2.29,0,0,1-1.766.7,2.787,2.787,0,0,1-1.062-.179,3.308,3.308,0,0,1-.9-.607l.557-.546a2.645,2.645,0,0,0,.6.445,1.891,1.891,0,0,0,.789.147,1.451,1.451,0,0,0,1.212-.525,1.977,1.977,0,0,0,.379-1.273v-.316a1.951,1.951,0,0,1-1.624.752,1.891,1.891,0,0,1-1.4-.52,4.034,4.034,0,0,1,0-4.56,1.9,1.9,0,0,1,1.406-.509,1.921,1.921,0,0,1,1.622.758v-.676h.839Zm-.839-2.394a2.822,2.822,0,0,0-.249-1.353,1.207,1.207,0,0,0-1.192-.678,1.232,1.232,0,0,0-1.206.678,2.822,2.822,0,0,0-.249,1.353,2.773,2.773,0,0,0,.249,1.348,1.236,1.236,0,0,0,1.206.688,1.211,1.211,0,0,0,1.192-.688A2.773,2.773,0,0,0,3589.447,458.71Z" transform="translate(-3543.945 -407.819)"/><path class="b" d="M3595.957,461.1a2.537,2.537,0,0,1-.646,1.8,2.285,2.285,0,0,1-1.766.7,2.784,2.784,0,0,1-1.061-.179,3.283,3.283,0,0,1-.9-.607l.556-.546a2.641,2.641,0,0,0,.6.445,1.9,1.9,0,0,0,.79.147,1.453,1.453,0,0,0,1.214-.525,1.987,1.987,0,0,0,.374-1.273v-.316a1.941,1.941,0,0,1-1.623.752,1.9,1.9,0,0,1-1.4-.52,4.051,4.051,0,0,1,0-4.56,2.149,2.149,0,0,1,3.027.249v-.676h.841Zm-.841-2.394a2.831,2.831,0,0,0-.246-1.353,1.2,1.2,0,0,0-1.191-.678,1.231,1.231,0,0,0-1.206.678,2.8,2.8,0,0,0-.249,1.353,2.751,2.751,0,0,0,.249,1.348,1.235,1.235,0,0,0,1.206.688,1.209,1.209,0,0,0,1.191-.688A2.782,2.782,0,0,0,3595.116,458.71Z" transform="translate(-3543.945 -407.819)"/><path class="b" d="M3601.822,461.817h-.837v-.654a2.043,2.043,0,0,1-1.629.718,2.015,2.015,0,0,1-1.485-.543,2.178,2.178,0,0,1-.59-1.63v-3.714h.841v3.584c0,1.03.472,1.55,1.414,1.55a1.411,1.411,0,0,0,1.06-.4,1.58,1.58,0,0,0,.389-1.146v-3.584h.837Z" transform="translate(-3543.945 -407.819)"/><path class="b" d="M3608,461.817h-1.046l-1.835-2.984-1.13,1.3v1.681h-.835v-7.392h.835v4.6l2.61-3.029h1.06l-1.96,2.225Z" transform="translate(-3543.945 -407.819)"/><path class="b" d="M3615.318,461.817h-.838v-.654a2.255,2.255,0,0,1-3.118.175,2.19,2.19,0,0,1-.584-1.63v-3.714h.84v3.584c0,1.03.469,1.55,1.41,1.55a1.416,1.416,0,0,0,1.063-.4,1.588,1.588,0,0,0,.389-1.146v-3.584h.838Z" transform="translate(-3543.945 -407.819)"/><path class="b" d="M3621.183,461.817h-.839v-3.6q0-1.552-1.425-1.552a1.389,1.389,0,0,0-1.055.4,1.6,1.6,0,0,0-.382,1.149v3.6h-.84v-5.823h.84v.637a2.045,2.045,0,0,1,1.623-.719,2.009,2.009,0,0,1,1.478.546,2.178,2.178,0,0,1,.6,1.626Z" transform="translate(-3543.945 -407.819)"/><path class="b" d="M3623.41,455.38h-.952v-.954h.952Zm-.065,6.437h-.837v-5.823h.837Z" transform="translate(-3543.945 -407.819)"/><path class="b" d="M3629.28,455.994l-2.128,5.823h-.75l-2.113-5.823h.916l1.571,4.674,1.585-4.674Z" transform="translate(-3543.945 -407.819)"/><path class="b" d="M3634.51,459.135h-3.9a2.245,2.245,0,0,0,.439,1.482,1.566,1.566,0,0,0,1.266.525,2.054,2.054,0,0,0,1.513-.665l.576.509a3.143,3.143,0,0,1-.9.674,3.011,3.011,0,0,1-1.209.221,2.318,2.318,0,0,1-1.831-.723,3.255,3.255,0,0,1-.69-2.261,3.4,3.4,0,0,1,.634-2.2,2.1,2.1,0,0,1,1.736-.789,2.135,2.135,0,0,1,1.743.762,3.169,3.169,0,0,1,.624,2.071Zm-.842-.639a3.271,3.271,0,0,0-.176-.978,1.478,1.478,0,0,0-2.7,0,3.085,3.085,0,0,0-.177.978Z" transform="translate(-3543.945 -407.819)"/><path class="b" d="M3638.636,456.925a1.339,1.339,0,0,0-.8-.255,1.26,1.26,0,0,0-1.007.445,1.652,1.652,0,0,0-.382,1.12v3.582h-.84v-5.823h.84v.708a1.78,1.78,0,0,1,1.622-.79,2.021,2.021,0,0,1,.912.2Z" transform="translate(-3543.945 -407.819)"/><path class="b" d="M3643.678,460.1a1.539,1.539,0,0,1-.642,1.3,2.8,2.8,0,0,1-1.706.472,3.258,3.258,0,0,1-2.372-.839l.56-.565a2.335,2.335,0,0,0,1.788.665c1.02,0,1.531-.34,1.531-1.025,0-.512-.318-.794-.955-.85l-.946-.081q-1.716-.156-1.716-1.567a1.5,1.5,0,0,1,.59-1.245,2.418,2.418,0,0,1,1.532-.462,3.175,3.175,0,0,1,2.075.632l-.549.56a2.379,2.379,0,0,0-1.526-.467q-1.284,0-1.283.956c0,.506.334.788,1,.852l.926.081C3643.111,458.631,3643.678,459.155,3643.678,460.1Z" transform="translate(-3543.945 -407.819)"/><path class="b" d="M3645.5,455.38h-.951v-.954h.951Zm-.064,6.437h-.838v-5.823h.838Z" transform="translate(-3543.945 -407.819)"/><path class="b" d="M3649.114,461.817h-.6a1.367,1.367,0,0,1-1.106-.462,1.575,1.575,0,0,1-.372-1.1v-3.572h-.727v-.654h.727v-1.6h.837v1.6h1.239v.654h-1.239v3.543c0,.566.262.849.791.849h.448Z" transform="translate(-3543.945 -407.819)"/><path class="b" d="M3654.475,456.03l-2.362,6.483a1.758,1.758,0,0,1-.412.686,1.552,1.552,0,0,1-1.124.4h-.364v-.757h.257a.971.971,0,0,0,.613-.155,1.345,1.345,0,0,0,.341-.566l.261-.716-1.96-5.379h.908l1.473,4.346,1.464-4.346Z" transform="translate(-3543.945 -407.819)"/><path class="c" d="M3733.463,449.336l-10.692,3.133c-1.115.326-1.32,1.222-.455,1.99l3.26,2.883a2.873,2.873,0,0,0,3.492.5l8.213-3.83v-.974Z" transform="translate(-3543.945 -407.819)"/><path class="c" d="M3737.281,444.807l-10.13-12.218c-.763-.913-1.6-.761-1.962.381l-1.364,4.4a3.3,3.3,0,0,0,.887,3.468l8.751,8.5,3.818-1.118Z" transform="translate(-3543.945 -407.819)"/><path class="d" d="M3737.281,448.218l-3.818,1.118,3.818,3.7Z" transform="translate(-3543.945 -407.819)"/><path class="d" d="M3738.295,454.036l8.333,12.074a1.187,1.187,0,0,0,2.214-.106l1.715-3.082a2.6,2.6,0,0,0-.372-3.407l-3.594-4.056Z" transform="translate(-3543.945 -407.819)"/><path class="e" d="M3746.591,455.459l12.955,2.22a3.232,3.232,0,0,0,3.416-1.268l3.19-3.908c.731-.894.378-1.653-.786-1.686l-19.388-.533a5.3,5.3,0,0,1-1.66,2.6Z" transform="translate(-3543.945 -407.819)"/><path class="d" d="M3762.824,443.878c1.1-.414,1.228-1.256.248-1.906l-4.239-2.806-12.662,10.2a6.334,6.334,0,0,1-.193.916Z" transform="translate(-3543.945 -407.819)"/><path class="c" d="M3758.833,439.166a2.926,2.926,0,0,0-3.126.065l-10.578,5.732a5.92,5.92,0,0,1,1.1,3.53,6.762,6.762,0,0,1-.057.875Z" transform="translate(-3543.945 -407.819)"/><path class="e" d="M3755.707,439.231a2.926,2.926,0,0,1,3.126-.065l3.133-2.527a2.88,2.88,0,0,0,1.136-3.354l-1.311-5.274c-.279-1.118-1.156-1.343-1.952-.5l-15.583,16.542a5.082,5.082,0,0,1,.873.915Z" transform="translate(-3543.945 -407.819)"/><path class="d" d="M3748.75,431.915a2.869,2.869,0,0,0-.809-3.407l-3.445-3.236c-.841-.793-1.709-.517-1.922.615l-.887,4.694a2.665,2.665,0,0,1,1.245,2.743l-.663,9.761a4.84,4.84,0,0,1,1.987.963Z" transform="translate(-3543.945 -407.819)"/><path class="e" d="M3737.591,428.34c-1.029-.557-1.774-.05-1.656,1.093l1.346,13.519h2.072l2.334-12.371Z" transform="translate(-3543.945 -407.819)"/><path class="c" d="M3742.932,433.324a2.665,2.665,0,0,0-1.245-2.743l-2.334,12.371h1.715a5.519,5.519,0,0,1,1.2.133Z" transform="translate(-3543.945 -407.819)"/><path class="c" d="M3744.318,452.888a4.986,4.986,0,0,1-3.25,1.148h-2.773l8.3,1.423Z" transform="translate(-3543.945 -407.819)"/><path class="b" d="M3660.952,461.828a1.385,1.385,0,0,1-1.452-1.569v-5.753h.835v5.718c0,.572.185.861.766.861h.454v.743Z" transform="translate(-3543.945 -407.819)"/><path class="b" d="M3664.433,461.9a3.089,3.089,0,0,1-2.344-.848l.557-.576a2.3,2.3,0,0,0,1.776.683c.942,0,1.522-.347,1.522-1.041,0-.515-.289-.8-.951-.862l-.942-.086c-1.115-.093-1.708-.612-1.708-1.581,0-1.075.882-1.723,2.1-1.723a3.167,3.167,0,0,1,2.056.633l-.544.564a2.385,2.385,0,0,0-1.525-.467c-.835,0-1.276.369-1.276.969,0,.505.277.8,1,.863l.917.083c1,.1,1.685.49,1.685,1.6C3666.759,461.244,3665.817,461.9,3664.433,461.9Z" transform="translate(-3543.945 -407.819)"/><path class="b" d="M3671.42,461.828v-.564a1.97,1.97,0,0,1-1.65.635,2.007,2.007,0,0,1-1.615-.535,1.74,1.74,0,0,1-.434-1.2c0-1.031.7-1.7,1.98-1.7h1.719V457.9c0-.862-.416-1.293-1.464-1.293a1.477,1.477,0,0,0-1.44.669l-.571-.539a2.185,2.185,0,0,1,2.02-.873c1.539,0,2.29.683,2.29,1.966v4Zm0-2.718h-1.6c-.86,0-1.279.36-1.279,1.042s.406,1.006,1.312,1.006a1.638,1.638,0,0,0,1.28-.394,1.382,1.382,0,0,0,.29-1.018Z" transform="translate(-3543.945 -407.819)"/><path class="b" d="M3677.315,461.828V458.2c0-1.042-.546-1.566-1.408-1.566s-1.418.54-1.418,1.566v3.631h-.838v-5.891h.838v.646a2.034,2.034,0,0,1,1.6-.718,1.967,1.967,0,0,1,1.463.55,2.215,2.215,0,0,1,.6,1.643v3.77Z" transform="translate(-3543.945 -407.819)"/><path class="b" d="M3658.007,455.437h-.947v-.954h.947Zm-.061,6.433h-.837v-5.817h.837Z" transform="translate(-3543.945 -407.819)"/><path class="b" d="M3678.58,441.094a6.59,6.59,0,0,1-1.148-3.737v-1.4h-2.644v1.4a6.59,6.59,0,0,1-1.148,3.737,10.93,10.93,0,0,1-3.506,2.835l1.531,1.415a12.491,12.491,0,0,0,2.824-1.889,8.5,8.5,0,0,0,1.62-1.849,8.64,8.64,0,0,0,1.621,1.849,12.5,12.5,0,0,0,2.826,1.889l1.53-1.415A10.943,10.943,0,0,1,3678.58,441.094Z" transform="translate(-3543.945 -407.819)"/><path class="b" d="M3673.674,452.5c-.8,0-1.061-.392-1.061-.9v-2.68a10.809,10.809,0,0,1,.163-2.023s.006.023.009,0h2.375v3.7h10.285v1.9Z" transform="translate(-3543.945 -407.819)"/><path class="b" d="M3686.986,441.116v-1.989h-2.058v-3.162h-2.551v12.156h2.381a10.794,10.794,0,0,0,.17-1.992v-5.013Z" transform="translate(-3543.945 -407.819)"/><path class="b" d="M3668.04,435.965h-2.548v7.977h2.379a10.761,10.761,0,0,0,.169-1.995Z" transform="translate(-3543.945 -407.819)"/><path class="b" d="M3659.139,435.562a4.268,4.268,0,1,1-4.363,4.267A4.3,4.3,0,0,1,3659.139,435.562Zm0,1.912a2.366,2.366,0,1,0,2.124,2.355A2.239,2.239,0,0,0,3659.139,437.474Z" transform="translate(-3543.945 -407.819)"/><path class="b" d="M3668.1,445.594c0-.51-.262-.9-1.061-.9H3655.7v1.9h9.856v1.081h-9.581V451.6c0,.513.19.907.987.907h11.64v-1.9h-10.153v-1.014h9.651Z" transform="translate(-3543.945 -407.819)"/><path class="b" d="M3573.379,444.89c-2.595,0-4.7,1.771-4.7,3.953,0,2.1,2.2,3.952,4.7,3.952,2.573,0,4.749-1.81,4.75-3.952S3575.952,444.89,3573.379,444.89Zm.022,6.029a2.089,2.089,0,1,1,0-4.15,2.226,2.226,0,0,1,2.348,2.074A2.257,2.257,0,0,1,3573.4,450.919Z" transform="translate(-3543.945 -407.819)"/><path class="b" d="M3581.448,444.9v-1.957h-6.8v-1.387h5.161v-1.93h-10.1v-2.086h10.1v-1.89h-12.629v5.2c0,.423.186.71.674.71h4.282v1.387h-6.777V444.9Z" transform="translate(-3543.945 -407.819)"/><path class="b" d="M3612.822,451.24a10.241,10.241,0,0,0,.159-1.934v-6.523h1.227v9.308h2.211c0-.022.01,0,.01,0a11.563,11.563,0,0,0,.155-2V435.651h-2.378v4.97h-1.225v-4.97H3610.6V444.2a15.99,15.99,0,0,1-2.921.292h-3V438.5h4.34v-2.055h-6.87v9.074a1,1,0,0,0,.981,1.054h4.553a9.962,9.962,0,0,0,2.923-.412v5.078Z" transform="translate(-3543.945 -407.819)"/><path class="b" d="M3635.8,440.771v-1.977h-2.042v-3.145h-2.537V445h2.367a10.894,10.894,0,0,0,.17-1.983v-2.245Z" transform="translate(-3543.945 -407.819)"/><path class="b" d="M3629.642,438.432v-1.986h-3.8v-1.538h-2.483c0,.077,0,1.538,0,1.538h-3.837v1.986h1.49a4.167,4.167,0,0,0-.622,2.121,4.213,4.213,0,0,0,8.421,0,4.119,4.119,0,0,0-.651-2.121Zm-5.076,0h0a2.1,2.1,0,0,1,2.119,2.121,2.137,2.137,0,0,1-2.086,2.132,2.128,2.128,0,0,1-.033-4.253Z" transform="translate(-3543.945 -407.819)"/><path class="b" d="M3638.675,438.268h10.291v4.513c0,1.527-.089,3.306-.168,4.033h2.375a18.623,18.623,0,0,0,.322-4.033v-5.6a.956.956,0,0,0-1.029-1.027h-11.791Z" transform="translate(-3543.945 -407.819)"/><path class="b" d="M3647.224,441.666h-2.53v6.744h-2.115v-6.744h-2.533l0,6.744h-3.181v2.116h16.007V448.41h-5.65Z" transform="translate(-3543.945 -407.819)"/><path class="b" d="M3633.589,452.091c.007-.019.012,0,.012,0a10.983,10.983,0,0,0,.161-2.01v-3.647a.854.854,0,0,0-.881-.806h-11.93v2.064h10.282v4.4Z" transform="translate(-3543.945 -407.819)"/><path class="b" d="M3594.838,452.091v-4.4h-9.551V445.62h4.739v-2.1h-6.8V441.47h11.5a9.314,9.314,0,0,0,.109-1.57v-2.359h-9.551v-1.89h10.979a1.036,1.036,0,0,1,1.1,1.156v2.734a12.388,12.388,0,0,1-.191,1.929h2.143v2.054h-6.752v2.1h3.744c.793,0,1.056.393,1.056.9v3.56a11.018,11.018,0,0,1-.163,2.01s-.006-.019-.01,0Z" transform="translate(-3543.945 -407.819)"/><path class="b" d="M3696.319,445.028a3.924,3.924,0,0,0-4.206,3.953,4.018,4.018,0,0,0,4.206,3.952c2.573,0,4.749-1.81,4.753-3.952S3698.892,445.028,3696.319,445.028Zm.023,6.031a2.09,2.09,0,1,1,0-4.152,2.227,2.227,0,0,1,2.348,2.074A2.257,2.257,0,0,1,3696.342,451.059Z" transform="translate(-3543.945 -407.819)"/><path class="b" d="M3699.207,435.739v2.231h-3.2v1.981h3.2v1.536h-3.13v1.949h3.13V445.1h2.366a10.918,10.918,0,0,0,.168-1.985v-7.373Z" transform="translate(-3543.945 -407.819)"/><path class="b" d="M3688.074,443.636a.85.85,0,0,0,.879.806h3.149v.006h4.341v-8.629H3693.9v2.556h-3.445v-2.556h-2.371Zm2.526-3.309h3.3v2.053h-3.3Z" transform="translate(-3543.945 -407.819)"/><path class="b" d="M3713.439,439.251a3.969,3.969,0,1,0-3.969,3.713h.02A3.884,3.884,0,0,0,3713.439,439.251Zm-5.78,0a1.829,1.829,0,1,1,1.82,2A1.988,1.988,0,0,1,3707.659,439.251Z" transform="translate(-3543.945 -407.819)"/><path class="b" d="M3708.237,447.242h2.5v-2.274h4.139v-2h-10.964v2h4.325Z" transform="translate(-3543.945 -407.819)"/><path class="b" d="M3709.49,442.964h0Z" transform="translate(-3543.945 -407.819)"/><path class="b" d="M3715.76,435.867l0,10.009-3.143.01v1.957h3.143v1.394h2.341c.006-.021.011,0,.011,0a11.932,11.932,0,0,0,.158-2.051V435.867Z" transform="translate(-3543.945 -407.819)"/><path class="b" d="M3707.978,447.576h-2.487v3.83a.871.871,0,0,0,.9.826h11.819v-2.111h-10.233Z" transform="translate(-3543.945 -407.819)"/></svg>