<svg xmlns="http://www.w3.org/2000/svg" width="240" height="80" viewBox="0 0 240 80"><defs><style>.a,.b,.c,.d,.e,.f{fill:#fff;}.a{opacity:0;}.b{opacity:0.9;}.c{opacity:0.5;}.d{opacity:0.65;}.e{opacity:0.8;}</style></defs><rect class="a" width="240" height="80"/><path class="b" d="M3860.175,451.7c-4.056,0-8.815-3.181-5.949-10.133,3.265-7.91,13.409-13.052,17.569-13.052,1.04,0,1.652.372,1.617,1.114-.051,1.09-.928,2.476.141,3.347,1.339,1.087,5.269-.673,5.652-3.455.246-1.84-2.267-3.723-7.327-3.723-11.65,0-23.154,6.8-26.581,15.915-3.064,8.137,1.765,15.085,11.027,15.085,8.348,0,13.952-5.088,15.9-11.289l.48-1.556h-10.4c-.5,2.051.1,4.458,3.285,4.458a5.125,5.125,0,0,0,2.5-.642c.081-.044.11.016.062.064A10.469,10.469,0,0,1,3860.175,451.7Z" transform="translate(-3808.041 -401.293)"/><path class="c" d="M3871.28,452.837c2.871.5,4.856-.7,5.781-2.964a18.936,18.936,0,0,0,.978-3.318c.4-1.928-1.808-2.546-4.149-2.584Z" transform="translate(-3808.041 -401.293)"/><path class="d" d="M3884.033,442.993c.43-2.512-.613-4.34-2.927-4.588a16.345,16.345,0,0,0-3.235-.079c-2.036.16-2.712,1.113-3.689,4.667Z" transform="translate(-3808.041 -401.293)"/><path class="e" d="M3869.779,437.35a16.327,16.327,0,0,0-.954,3.091c-.322,1.731,1.47,2.5,4.167,2.552l2.483-8.432A4.664,4.664,0,0,0,3869.779,437.35Z" transform="translate(-3808.041 -401.293)"/><path class="f" d="M3989.83,431.9l-3.626-.418c-.236-.032-.394.022-.455.242a.426.426,0,0,0,.255.493l.5.29a1.364,1.364,0,0,1,.855,1.375v1.009h-1.189a3.692,3.692,0,0,1-1.888-.308.469.469,0,0,0-.339-.05v-1.157a.748.748,0,0,0-.083-.434.487.487,0,0,0-.378-.165l-3.2-.27c-.238-.017-.4.025-.454.242a.427.427,0,0,0,.254.5l.18.088a1.331,1.331,0,0,1,.855,1.374v1.5h-3.965V433.78a.746.746,0,0,0-.084-.434.5.5,0,0,0-.383-.165l-3.194-.27c-.236-.02-.391.025-.456.242a.431.431,0,0,0,.259.5l.176.087a1.327,1.327,0,0,1,.854,1.375v5.125a2.578,2.578,0,0,0,.377,1.636,1.559,1.559,0,0,0,1.368.62h6.128a1.559,1.559,0,0,0,1.367-.62,2.58,2.58,0,0,0,.376-1.636v-1.328c.216.3.573.791.67.919.224.3.4.343.87.343h1.876v3.783h1.409a1.36,1.36,0,0,0,1.194-.542,2.239,2.239,0,0,0,.333-1.435V432.5a.756.756,0,0,0-.084-.432A.486.486,0,0,0,3989.83,431.9Zm-8.8,8.865a.48.48,0,0,1-.38.157h-3.033a.493.493,0,0,1-.382-.157.755.755,0,0,1-.082-.432v-2.555h3.965v2.555A.729.729,0,0,1,3981.034,440.768Zm5.138-2.268a3.678,3.678,0,0,1-1.888-.31.478.478,0,0,0-.339-.049V435.3c.216.3.573.787.67.916.224.3.4.344.87.344h1.876V438.5Z" transform="translate(-3808.041 -401.293)"/><path class="f" d="M4000.722,450.426a.473.473,0,0,1-.383-.161.718.718,0,0,1-.084-.429v-2.928a.726.726,0,0,0-.084-.429c-.054-.076-.148-.139-.38-.157l-3.61-.31c-.234-.024-.394.034-.456.256a.41.41,0,0,0,.257.486l.5.277a1.321,1.321,0,0,1,.854,1.352v1.466a2.585,2.585,0,0,0,.376,1.634,1.569,1.569,0,0,0,1.369.618h10.234a.384.384,0,0,0,.3-.09.5.5,0,0,0,.081-.334v-1.251Z" transform="translate(-3808.041 -401.293)"/><path class="f" d="M4005.175,432.22l.5.29a1.362,1.362,0,0,1,.854,1.375v9.462h-2.279a3.7,3.7,0,0,1-1.889-.31.38.38,0,0,0-.521.085.5.5,0,0,0,.079.491c.169.239.656.908.773,1.065.225.3.4.34.866.34h2.971v2.257h1.411a1.372,1.372,0,0,0,1.2-.543,2.262,2.262,0,0,0,.331-1.437V432.5a.777.777,0,0,0-.083-.432.488.488,0,0,0-.382-.167l-3.631-.418c-.229-.032-.39.022-.453.242A.421.421,0,0,0,4005.175,432.22Z" transform="translate(-3808.041 -401.293)"/><path class="f" d="M3966.131,432.22l.5.29a1.36,1.36,0,0,1,.853,1.375v8.85h1.41a1.376,1.376,0,0,0,1.2-.544,2.285,2.285,0,0,0,.33-1.435V432.5a.748.748,0,0,0-.085-.432.488.488,0,0,0-.382-.167l-3.629-.418c-.233-.032-.4.022-.455.242A.42.42,0,0,0,3966.131,432.22Z" transform="translate(-3808.041 -401.293)"/><path class="f" d="M3997.208,445.171h1.407a1.361,1.361,0,0,0,1.2-.542,2.247,2.247,0,0,0,.332-1.437v-1.155h4.693a.643.643,0,0,0,.512-.152.825.825,0,0,0,.135-.564v-.955h-10.874a3.612,3.612,0,0,1-1.928-.374c-.267-.127-.45-.035-.523.082a.489.489,0,0,0,.081.493c.169.24.7.971.816,1.127.224.3.4.343.865.343h3.288Z" transform="translate(-3808.041 -401.293)"/><path class="f" d="M3998.836,439.293c2.659,0,4.788-1.5,4.788-3.652,0-2.17-2.129-3.65-4.788-3.65s-4.789,1.432-4.789,3.65C3994.047,437.816,3996.178,439.293,3998.836,439.293Zm0-5.753a2.067,2.067,0,0,1,1.96,2.1,1.955,1.955,0,1,1-3.9,0A2.053,2.053,0,0,1,3998.836,433.54Z" transform="translate(-3808.041 -401.293)"/><path class="f" d="M3946.853,431.82l-3.17-.335c-.237-.032-.4.022-.465.242-.053.19.032.363.264.493l.218.118a1.354,1.354,0,0,1,.87,1.373v5.679h-1.519v-6.563a.725.725,0,0,0-.086-.431.507.507,0,0,0-.392-.167l-3.2-.363c-.239-.029-.4.027-.464.244-.054.188.029.363.264.494l.247.143a1.356,1.356,0,0,1,.877,1.374v9.545a11.648,11.648,0,0,1-3.5.727c-1.87.19-2.369.227-2.534.115s-.173-.3-.173-.531v-8.314h4a.385.385,0,0,0,.307-.089.481.481,0,0,0,.085-.334v-1.246H3930.3c-.238-.008-.465.065-.508.286s.075.364.306.5l.175.092a1.355,1.355,0,0,1,.874,1.374v8.578a1.792,1.792,0,0,0,.5,1.451c.431.39,1.465.406,4.295-.092a13.086,13.086,0,0,0,4.355-1.26v7.662h1.191a1.406,1.406,0,0,0,1.223-.541,2.235,2.235,0,0,0,.341-1.434v-9.546h1.519v11.754h1.193a1.4,1.4,0,0,0,1.224-.543,2.21,2.21,0,0,0,.338-1.435v-18.42a.73.73,0,0,0-.084-.431A.486.486,0,0,0,3946.853,431.82Z" transform="translate(-3808.041 -401.293)"/><path class="f" d="M3921.556,437.731a3.863,3.863,0,0,1-1.931-.309.389.389,0,0,0-.529.085.483.483,0,0,0,.08.492c.174.241.668.906.791,1.063.227.3.4.339.885.339h3.066v7.436h1.274a1.426,1.426,0,0,0,1.225-.545,2.248,2.248,0,0,0,.336-1.437V432.487a.716.716,0,0,0-.086-.432c-.056-.078-.152-.141-.388-.169l-3.543-.4c-.238-.032-.4.022-.463.242-.056.19.031.363.263.493l.509.29a1.36,1.36,0,0,1,.873,1.375v3.846Z" transform="translate(-3808.041 -401.293)"/><path class="f" d="M3917.558,450.265a.742.742,0,0,1-.084-.429v-3.908a.727.727,0,0,0-.086-.431c-.055-.073-.151-.138-.388-.156l-3.688-.308c-.238-.026-.4.032-.465.255-.053.192.031.361.263.487l.509.277a1.317,1.317,0,0,1,.876,1.352v2.445a2.574,2.574,0,0,0,.383,1.634,1.618,1.618,0,0,0,1.4.618h10.64a.387.387,0,0,0,.308-.09.465.465,0,0,0,.084-.334v-1.251h-9.359A.483.483,0,0,1,3917.558,450.265Z" transform="translate(-3808.041 -401.293)"/><path class="f" d="M3915.616,440.083a24.107,24.107,0,0,0,3.376,3.832.5.5,0,0,0,.752.051,12.6,12.6,0,0,0,1.964-1.961,17.152,17.152,0,0,1-4.991-3.709,10.62,10.62,0,0,0,.748-2.293h3.238a.4.4,0,0,0,.307-.087.485.485,0,0,0,.081-.332v-1.251h-3.429c.06-.622.1-1.343.1-1.874a.688.688,0,0,0-.089-.432.5.5,0,0,0-.388-.165l-3.621-.37c-.236-.031-.4.025-.464.243-.053.189.033.362.263.5a1.422,1.422,0,0,1,.873,1.373v.729h-2.255a3.746,3.746,0,0,1-1.974-.378.393.393,0,0,0-.53.089.486.486,0,0,0,.082.492c.173.24.712.971.834,1.127.228.3.405.34.883.34h2.923c-.175,2.578-1.688,5.012-4.928,7.656l.889.727a.556.556,0,0,0,.728,0A23.191,23.191,0,0,0,3915.616,440.083Z" transform="translate(-3808.041 -401.293)"/><path class="f" d="M3905.446,432.5a.752.752,0,0,0-.083-.432.517.517,0,0,0-.39-.167l-3.749-.42c-.237-.032-.4.022-.463.242-.054.19.031.363.264.493l.507.29a1.358,1.358,0,0,1,.873,1.375v18.931h1.479a1.412,1.412,0,0,0,1.226-.543,2.222,2.222,0,0,0,.336-1.435v-9.613h2.68a.414.414,0,0,0,.31-.088.487.487,0,0,0,.083-.335v-1.247h-3.073Z" transform="translate(-3808.041 -401.293)"/><path class="f" d="M3899.51,434.171h-7.9a3.773,3.773,0,0,1-1.972-.374.4.4,0,0,0-.533.083.492.492,0,0,0,.084.493c.174.241.713.971.832,1.129.231.3.406.341.886.341h5.282c-.665,3.435-3.167,8-7.781,11.682l1.054.775a.62.62,0,0,0,.728.006c4.93-3.389,8.737-8.4,9.673-13.713a.394.394,0,0,0-.054-.333A.384.384,0,0,0,3899.51,434.171Z" transform="translate(-3808.041 -401.293)"/><path class="f" d="M3964.588,433.471a.405.405,0,0,0-.046-.331.369.369,0,0,0-.3-.091h-7.964a2.276,2.276,0,0,1-1.545-.373.388.388,0,0,0-.524.085.484.484,0,0,0,.082.49c.166.241.7.972.813,1.128.225.3.4.342.867.342h4.8a14.383,14.383,0,0,1-7.341,7.65l.673.6a.78.78,0,0,0,.742,0C3958.825,441.406,3963.73,437.686,3964.588,433.471Z" transform="translate(-3808.041 -401.293)"/><path class="f" d="M3961.078,450.488a.74.74,0,0,1-.082-.43v-1.423h7.636c1.246,0,1.668-.438,1.668-1.363v-3.679h-11.172a3.385,3.385,0,0,1-1.866-.348c-.262-.127-.457-.123-.568.016a.5.5,0,0,0,.061.533c.169.243.674.914.79,1.071.223.3.4.342.867.342h8.828v1.8h-10.129c-.232-.006-.454.071-.5.288s.073.366.3.5l.172.092a1.357,1.357,0,0,1,.854,1.374v.749a2.612,2.612,0,0,0,.376,1.639,1.57,1.57,0,0,0,1.369.618h10.592a.388.388,0,0,0,.3-.09.486.486,0,0,0,.083-.332v-1.2h-9.207A.469.469,0,0,1,3961.078,450.488Z" transform="translate(-3808.041 -401.293)"/><path class="f" d="M3983.717,443.74c-2.81,0-5.7,1.573-5.7,4.532s2.887,4.527,5.7,4.527,5.694-1.568,5.694-4.527S3986.521,443.74,3983.717,443.74Zm0,7.491a2.842,2.842,0,0,1-2.74-2.959,2.807,2.807,0,0,1,2.74-2.936,2.849,2.849,0,0,1,2.743,2.936A2.886,2.886,0,0,1,3983.717,451.231Z" transform="translate(-3808.041 -401.293)"/></svg>