<svg xmlns="http://www.w3.org/2000/svg" xmlns:xlink="http://www.w3.org/1999/xlink" width="240" height="80" viewBox="0 0 240 80"><defs><style>.cls-1,.cls-3,.cls-4{fill:#fff;}.cls-1{opacity:0;}.cls-2{fill:url(#무제_그라디언트_5);}.cls-4{isolation:isolate;opacity:0.7;}</style><radialGradient id="무제_그라디언트_5" cx="181.492" cy="17.214" r="23.349" gradientTransform="translate(-8.953 -1.052) scale(0.951 0.951)" gradientUnits="userSpaceOnUse"><stop offset="0" stop-color="#fff" stop-opacity="0.2"/><stop offset="0.01" stop-color="#fff" stop-opacity="0.212"/><stop offset="0.188" stop-color="#fff" stop-opacity="0.42"/><stop offset="0.275" stop-color="#fff" stop-opacity="0.502"/><stop offset="1" stop-color="#fff" stop-opacity="0.698"/></radialGradient></defs><g id="레이어_2" data-name="레이어 2"><g id="레이어_1-2" data-name="레이어 1"><rect id="사각형_175" data-name="사각형 175" class="cls-1" width="240" height="80"/><path class="cls-2" d="M165.834,17V29.523c0,1.2.339,7.9,8.282,10.6,7.943-2.7,8.285-9.408,8.285-10.6V17Zm14.65,7.848h-2.13v.768h2.13v2.595h-2.13v7.117h-3.248l-2.458-2.456-2.479,2.5-1.907-1.912,4.377-4.376,2.972,2.942V21.772h-4.178V19.411h6.847v3.053h2.2Z"/><path class="cls-3" d="M138.3,21.772H133.26V36.937c0,3.892-.658,5.866-4.262,5.866-3.473,0-4.151-2.15-4.151-5.866V21.772h-5.219V37.186c0,4.371,1.135,8.411,9.37,8.411,8.334,0,9.482-4.04,9.482-8.411V21.772Z"/><polygon class="cls-4" points="155.801 45.229 161.021 45.229 161.021 21.772 160.837 21.772 155.801 21.772 155.801 31.488 147.276 31.488 147.276 21.772 142.055 21.772 142.055 45.229 147.276 45.229 147.276 34.718 155.801 34.718 155.801 45.229"/><path class="cls-3" d="M111.145,21.772V37.518C110.5,36.412,102,21.772,102,21.772H96.409V45.229h4.858s0-15.339,0-16.583l9.626,16.583H116V21.772h-4.859Z"/><path class="cls-3" d="M85.854,30.925c-2.994-1.3-5.58-2.424-5.58-4.327,0-1.324,1.457-2.227,3.624-2.213a23.456,23.456,0,0,1,7.94,1.673l.294.12V22.114l-.1-.016a50.023,50.023,0,0,0-7.4-.693c-6.069,0-9.7,2.292-9.7,6.131,0,4.056,4.038,5.9,7.6,7.523,2.943,1.343,5.722,2.613,5.722,4.91,0,2.47-3.766,2.572-4.2,2.572A18.522,18.522,0,0,1,75.7,40.162l-.308-.156V44.52l.36.084a33.813,33.813,0,0,0,7.459.993c7.062,0,10.8-2.434,10.8-7.036C94,34.465,89.673,32.583,85.854,30.925Z"/><path class="cls-3" d="M57.6,58.731c1.523-.73,3.441-4.265,3.092-6.656h1.715c-.568,1.549,1.084,5.909,2.689,6.757l-.756.756A12.746,12.746,0,0,1,61.5,56.377a9.958,9.958,0,0,1-3.059,3.16Z"/><polygon class="cls-3" points="65.969 51.604 65.969 55.167 64.255 55.167 64.255 56.142 65.969 56.142 65.969 62.866 67.482 62.866 67.482 51.604 65.969 51.604"/><path class="cls-3" d="M74.084,50.864c-4.32-.048-4.32,5.428,0,5.379C78.405,56.292,78.405,50.815,74.084,50.864Zm0,4.337a1.648,1.648,0,0,1,0-3.3A1.648,1.648,0,0,1,74.084,55.2Z"/><polygon class="cls-3" points="79.429 57.621 79.429 56.613 68.739 56.613 68.739 57.621 73.193 57.621 73.193 58.394 70.235 58.394 70.235 59.571 76.122 59.571 76.122 60.143 70.235 60.143 70.235 62.933 77.933 62.933 77.933 61.891 72.054 61.891 72.054 61.185 77.933 61.185 77.933 58.394 74.975 58.394 74.975 57.621 79.429 57.621"/><path class="cls-3" d="M87.719,51.6v3.429h-.706V51.6H85.366v5.3a8.412,8.412,0,0,1-3.294.485v-4.4h2.353V51.906H80.357c.127.142-.3,6.735.249,6.489,1.532-.1,2.255.317,4.76-.48v4.951h1.647V56.243h.706v6.623H89.4V51.6Z"/><path class="cls-3" d="M97.771,52.579h-2.69V51.2H93.5v1.379H90.812v1.109h1.173c-2.755,5.459,7.369,5.455,4.613,0h1.173ZM94.291,56.7c-1.765.029-1.765-3.034,0-3C96.057,53.669,96.057,56.733,94.291,56.7Z"/><polygon class="cls-3" points="101.906 55.705 101.906 54.461 100.09 54.461 100.09 51.604 98.376 51.604 98.376 57.89 100.09 57.89 100.09 55.705 101.906 55.705"/><path class="cls-3" d="M98.376,58.7H93.233v1.177h5.143v2.992h1.714V58.7Z"/><path class="cls-3" d="M109.537,52.142h-6.119v1.109h6.119v5.11h1.647V52.142Z"/><polygon class="cls-3" points="108.764 60.445 108.764 56.31 107.049 56.31 107.049 60.445 106.209 60.445 106.209 56.31 104.595 56.31 104.595 60.445 101.805 60.445 101.805 61.487 112.361 61.487 112.361 60.445 108.764 60.445"/><path class="cls-3" d="M120.5,51.5v1.546h-1.58V51.974H117.3V53.52h-2.353V51.974h-1.614c-.065,6.937-.738,4.736,5.581,5.076V55.907h1.58v1.647h1.748V51.5ZM117.3,56.041h-2.353V54.529H117.3Zm1.614-1.244v-.672h1.58V54.8Z"/><path class="cls-3" d="M118.882,57.705a2.609,2.609,0,1,0,0,5.211A2.609,2.609,0,1,0,118.882,57.705Zm-.05,4.253c-1.853.032-1.853-3.262,0-3.229C120.685,58.7,120.685,61.99,118.832,61.958Z"/><path class="cls-3" d="M127.337,51.167a2.643,2.643,0,1,0,0,5.278A2.643,2.643,0,1,0,127.337,51.167Zm0,4.3c-1.677.035-1.677-3.364,0-3.328C129.014,52.106,129.014,55.506,127.337,55.47Z"/><path class="cls-3" d="M127.791,59.571h-1.648v3.3H133.3v-.908h-5.513Z"/><polygon class="cls-3" points="131.589 51.503 131.589 56.781 123.757 56.781 123.757 57.789 126.143 57.789 126.143 58.899 127.791 58.899 127.791 57.789 131.589 57.789 131.589 58.394 130.009 58.394 130.009 59.369 131.589 59.369 131.589 60.445 133.304 60.445 133.304 51.503 131.589 51.503"/><path class="cls-3" d="M135.22,52.982V51.873h5.95c.551,1.79-3.431,6.271-5.177,6.253l-.773-.807a7.535,7.535,0,0,0,4.135-4.3H135.22Z"/><polygon class="cls-3" points="145.809 54.495 144.061 54.495 144.061 51.604 142.481 51.604 142.481 57.823 144.061 57.823 144.061 55.672 145.809 55.672 145.809 54.495"/><path class="cls-3" d="M140.8,57.689a2.66,2.66,0,1,0,0,5.311A2.66,2.66,0,1,0,140.8,57.689Zm0,4.292c-1.918.032-1.918-3.306,0-3.273C142.719,58.675,142.719,62.014,140.8,61.981Z"/><path class="cls-3" d="M157.206,54.461H155.39V51.6h-1.546v3.862c-.835.508-3.754.656-5.177.575V52.007h-1.614c.147.183-.323,5.271.251,5.11,2.556-.15,2.79.459,6.54-.719v1.425h1.546V55.571h1.816Z"/><path class="cls-3" d="M147.994,58.63c.112.171-.278,4.433.257,4.236h7.139V58.63Zm5.85,3.294h-4.135V59.571h4.135Z"/><path class="cls-3" d="M160.433,55.672a7.575,7.575,0,0,1-2.488,2.454l-.672-.706a5.645,5.645,0,0,0,2.454-5.446h1.58c-.231,1.683.505,4.457,2.353,5.378l-.723.757A8.4,8.4,0,0,1,160.433,55.672Z"/><rect class="cls-3" x="166.282" y="51.537" width="1.412" height="7.463"/><polygon class="cls-3" points="164.03 51.537 164.03 54.529 162.651 54.529 162.651 55.537 164.03 55.537 164.03 59 165.576 59 165.576 51.537 164.03 51.537"/><path class="cls-3" d="M162.013,61.924V58.9h-1.782c.129.223-.3,4.1.275,3.967h7.222v-.942Z"/><path class="cls-3" d="M176.6,51.537v3.429h-1.68v.941h1.68v1.787c-.7.542-3.749.817-5.277.7V55.907h3.193v-.941h-3.193V52.982h3.866V51.906h-5.48v7.247a.25.25,0,0,0,.25.25c2.511-.175,3.273.513,6.641-.747v4.21h1.648V51.537Z"/></g></g></svg>