<svg xmlns="http://www.w3.org/2000/svg" width="240" height="80" viewBox="0 0 240 80"><defs><style>.a,.b,.c,.d,.e{fill:#fff;}.a{opacity:0;}.b{opacity:0.75;}.d{opacity:0.9;}.e{opacity:0.55;}</style></defs><rect class="a" width="240" height="80"/><path class="b" d="M3358.522,465.978v-3.247h-.364v3.237h-.737V460.8h.737V462.2h.364V460.8h.737v5.182Z" transform="translate(-3292.764 -410.166)"/><path class="b" d="M3364.594,462.439h-.654v1.688h-.838V460.8h.838v1.118h.654Z" transform="translate(-3292.764 -410.166)"/><path class="b" d="M3354.49,462.439h-.655v1.688h-.841V460.8h.841v1.118h.655Z" transform="translate(-3292.764 -410.166)"/><path class="b" d="M3349.458,462.981h-.654v2.992h-.841V460.8h.841v1.663h.654Z" transform="translate(-3292.764 -410.166)"/><path class="b" d="M3346.65,462.8c0,.6-.067,1.442-.488,1.442s-.49-.84-.49-1.442.072-1.441.49-1.441S3346.65,462.2,3346.65,462.8Zm-.488-1.991c-1.008,0-1.344,1.154-1.344,1.991s.336,1.993,1.344,1.993,1.345-1.156,1.345-1.993S3347.166,460.812,3346.162,460.812Z" transform="translate(-3292.764 -410.166)"/><path class="b" d="M3351.3,462.754h0a3.207,3.207,0,0,0,1.1,1.009h0l.366-.446a2.111,2.111,0,0,1-.794-.823,2.663,2.663,0,0,1-.273-1.292v-.354h-.862v.354a2.634,2.634,0,0,1-.269,1.292,2.151,2.151,0,0,1-.8.823l.364.446h0a3.573,3.573,0,0,0,1.161-1.009Z" transform="translate(-3292.764 -410.166)"/><path class="b" d="M3356.139,462.945a3.078,3.078,0,0,0,.956,1.186l.4-.41a2.391,2.391,0,0,1-.682-.757,2.562,2.562,0,0,1-.354-1.291v-.3h.677v-.518h-2.146v.518h.623v.3a2.654,2.654,0,0,1-.236,1.291,2.294,2.294,0,0,1-.615.757l.4.41A3.053,3.053,0,0,0,3356.139,462.945Z" transform="translate(-3292.764 -410.166)"/><path class="b" d="M3351,465.859a.237.237,0,0,1-.239-.233v-1.555h.842v1.25h2.309v.538Z" transform="translate(-3292.764 -410.166)"/><path class="b" d="M3360.957,465.859a.236.236,0,0,1-.237-.233v-1.555h.84v1.25h2.31v.538Z" transform="translate(-3292.764 -410.166)"/><path class="b" d="M3360.2,460.848V463.2a.238.238,0,0,0,.239.232h2.249V462.9h-1.649v-1.53h1.4v-.52Z" transform="translate(-3292.764 -410.166)"/><path class="b" d="M3338.038,451.065l-1.462-.23v-.009l1.439-.336Zm1.523,1.02-.032-.791-.835-.139-.032-.811.822-.2-.032-.79-3.98,1.1.035.847Z" transform="translate(-3292.764 -410.166)"/><path class="b" d="M3338.452,448.342c.368-.283.512-.458.551-.671a.317.317,0,0,0-.268-.386c-.577-.107-1.21.92-2.167.746a1.013,1.013,0,0,1-.814-1.2,1.462,1.462,0,0,1,.381-.725l.74.131a1.332,1.332,0,0,0-.409.631.3.3,0,0,0,.211.382c.467.082,1.245-.957,2.177-.786a1.056,1.056,0,0,1,.916,1.222,1.538,1.538,0,0,1-.469.808Z" transform="translate(-3292.764 -410.166)"/><path class="b" d="M3339.148,444.314l-1.226-.833,0-.006,1.448.312Zm.939,1.574.309-.726-.7-.49.32-.742.829.169.308-.729-4.069-.7-.332.778Z" transform="translate(-3292.764 -410.166)"/><path class="b" d="M3338.452,440.167l.458-.6,2.39.6,0-.009-1.79-1.374.467-.61,3.172,2.43-.432.567-2.494-.627-.008.012,1.875,1.431-.469.611Z" transform="translate(-3292.764 -410.166)"/><path class="c" d="M3343.735,434.955l1.633-.956.345.6-.925.544.475.812.894-.52.351.594-.9.521.843,1.448-.7.409Z" transform="translate(-3292.764 -410.166)"/><path class="c" d="M3348.362,434.92c-.224-.753-.226-1.253.2-1.384.463-.137.724.383.924,1.044.276.922.168,1.277-.194,1.386C3348.862,436.093,3348.595,435.68,3348.362,434.92Zm-.807.2c.434,1.434,1.3,1.794,1.961,1.594.586-.179,1.217-.873.767-2.371-.434-1.437-1.309-1.752-1.949-1.559C3347.663,432.99,3347.163,433.826,3347.555,435.125Z" transform="translate(-3292.764 -410.166)"/><path class="c" d="M3352.571,432.1l.076,2.75c.011.319.17.542.457.529.32-.009.436-.238.429-.6l-.08-2.7.818-.026.074,2.629c.027.88-.363,1.437-1.217,1.459-.749.019-1.271-.379-1.3-1.374l-.076-2.64Z" transform="translate(-3292.764 -410.166)"/><path class="c" d="M3356.465,432.267l.737.172.434,2.423.01.005.515-2.2.748.171-.909,3.893-.692-.164-.46-2.529-.01,0-.537,2.3-.749-.173Z" transform="translate(-3292.764 -410.166)"/><path class="c" d="M3360.159,436.951l1.255-2.33.211.108c.5.267.365.866.006,1.531-.377.7-.78,1.066-1.3.787Zm-1.04.208.975.526c.978.523,1.86-.263,2.3-1.075.46-.856.555-1.934-.441-2.469l-.934-.5Z" transform="translate(-3292.764 -410.166)"/><path class="c" d="M3363.7,438.355l1.182-.892.009,0-.763,1.27Zm-1.788.383.588.525.683-.5.606.539-.428.731.589.528,1.974-3.627-.631-.568Z" transform="translate(-3292.764 -410.166)"/><path class="c" d="M3367.347,439.567l-.485-.663.56-.408,1.451,1.99-.56.406-.483-.667-2.67,1.954-.48-.661Z" transform="translate(-3292.764 -410.166)"/><path class="c" d="M3369.712,442.043l.352.738-3.611,1.714-.352-.739Z" transform="translate(-3292.764 -410.166)"/><path class="c" d="M3369.065,445.87c.762-.182,1.264-.156,1.366.278.111.471-.424.7-1.1.859-.935.219-1.282.093-1.369-.274C3367.86,446.3,3368.291,446.055,3369.065,445.87Zm-.157-.818c-1.458.344-1.868,1.183-1.708,1.86.141.591.8,1.266,2.321.9,1.459-.343,1.828-1.2,1.672-1.85C3371.033,445.282,3370.23,444.736,3368.908,445.052Z" transform="translate(-3292.764 -410.166)"/><path class="c" d="M3371.66,449.486l-.027.753-2.29.9v.01l2.261.075-.028.771-4-.133.023-.713,2.394-.943V450.2l-2.356-.079.023-.768Z" transform="translate(-3292.764 -410.166)"/><path class="b" d="M3341.405,453.152a12.543,12.543,0,1,1,24.587-1.193c.081.152.16.3.241.455a12.848,12.848,0,1,0-25.058,1.078Z" transform="translate(-3292.764 -410.166)"/><path class="c" d="M3388.9,463h-1.887l1-3.486h.025Zm.9,3.293h2.02l-2.693-8.39h-2.165l-2.789,8.39h1.9l.576-1.875h2.634Z" transform="translate(-3292.764 -410.166)"/><path class="c" d="M3396.166,461.6a3.878,3.878,0,0,0-1.527-.334c-.494,0-.708.239-.708.453,0,.389.276.519,1.308.9a1.752,1.752,0,0,1,1.313,1.828c0,1.394-1.046,1.936-2.311,1.936a6.523,6.523,0,0,1-2.055-.3l.049-1.467a3.14,3.14,0,0,0,1.563.433c.889,0,.948-.312.948-.588s-.493-.395-1.31-.733a1.95,1.95,0,0,1-1.31-1.922c0-.676.481-1.877,2.345-1.877a5.8,5.8,0,0,1,1.745.249Z" transform="translate(-3292.764 -410.166)"/><path class="c" d="M3400.865,463.634c0,1.529-.96,1.554-1.128,1.554a.739.739,0,0,1-.819-.819c0-1.045,1.191-1.094,1.947-1.094Zm-2.908-1.9a3.2,3.2,0,0,1,1.743-.555c.277,0,1.165,0,1.165,1.2h-.575c-.661,0-3.1.011-3.1,2.1a1.808,1.808,0,0,0,1.936,1.9,1.845,1.845,0,0,0,1.721-.961h.021l.05.864h1.732c-.037-.423-.048-.841-.048-1.768V462.24c0-1.392-.505-2.306-2.706-2.306a7.35,7.35,0,0,0-2.019.4Z" transform="translate(-3292.764 -410.166)"/><path class="c" d="M3407.24,462.432c0-.779-.351-.985-.734-.985-.612,0-.83.528-.83,1.336v3.509h-1.9v-4.953a12.093,12.093,0,0,0-.05-1.312h1.733c.024.278.047.626.047,1.047h.024a1.707,1.707,0,0,1,1.766-1.14c1.384,0,1.84,1.005,1.84,2.258v4.1h-1.9Z" transform="translate(-3292.764 -410.166)"/><path class="c" d="M3420.332,459.657h-.024l-1.886,6.635h-1.3l-1.815-6.635h-.023v6.635h-1.8V457.9h2.969l1.359,5.4h.024l1.466-5.4h2.838v8.39h-1.8Z" transform="translate(-3292.764 -410.166)"/><path class="c" d="M3425.116,462.625c0-.336,0-1.54.976-1.54.781,0,.985.75.985,1.54Zm3.694.58c0-3.271-2.154-3.271-2.718-3.271-1.793,0-2.778,1.523-2.778,3.209a2.906,2.906,0,0,0,3.174,3.246,5.889,5.889,0,0,0,1.984-.362l-.035-1.428a3.929,3.929,0,0,1-1.769.491,1.4,1.4,0,0,1-1.552-1.43h3.694Z" transform="translate(-3292.764 -410.166)"/><path class="c" d="M3431.622,463.165c0-.994.071-1.933.914-1.933.771,0,.949.939.949,1.933,0,.724-.17,1.855-.949,1.855C3431.669,465.02,3431.622,463.814,3431.622,463.165Zm3.764-5.89h-1.9v3.681h-.024a1.61,1.61,0,0,0-1.61-1.022c-1.575,0-2.2,1.394-2.2,3.078,0,1.995.794,3.377,2.2,3.377a1.785,1.785,0,0,0,1.707-1.092h.024c0,.43.025.755.048.995h1.8c-.024-.288-.048-.612-.048-1.407Z" transform="translate(-3292.764 -410.166)"/><path class="c" d="M3436.648,460.027h1.9v6.265h-1.9Zm0-2.752h1.9v1.684h-1.9Z" transform="translate(-3292.764 -410.166)"/><path class="c" d="M3444.234,466.126a6.948,6.948,0,0,1-1.72.263,2.9,2.9,0,0,1-2.958-3.163,2.98,2.98,0,0,1,3.1-3.292,5.124,5.124,0,0,1,1.514.3l-.094,1.432a3.174,3.174,0,0,0-1.107-.268c-1.443,0-1.443,1.587-1.443,1.83a1.518,1.518,0,0,0,1.54,1.746,3.087,3.087,0,0,0,1.1-.278Z" transform="translate(-3292.764 -410.166)"/><path class="c" d="M3448.455,463.634c0,1.529-.961,1.554-1.132,1.554a.738.738,0,0,1-.817-.819c0-1.045,1.19-1.094,1.949-1.094Zm-2.911-1.9a3.2,3.2,0,0,1,1.742-.555c.278,0,1.169,0,1.169,1.2h-.576c-.665,0-3.1.011-3.1,2.1a1.807,1.807,0,0,0,1.936,1.9,1.837,1.837,0,0,0,1.717-.961h.027l.048.864h1.731c-.037-.423-.05-.841-.05-1.768V462.24c0-1.392-.5-2.306-2.705-2.306a7.375,7.375,0,0,0-2.019.4Z" transform="translate(-3292.764 -410.166)"/><path class="c" d="M3451.423,457.275h1.9v9.017h-1.9Z" transform="translate(-3292.764 -410.166)"/><path class="c" d="M3463.375,459.8a3.07,3.07,0,0,0-1.709-.484c-1.321,0-2.162,1.069-2.162,2.765,0,1.639.95,2.743,2.2,2.743a3.511,3.511,0,0,0,1.718-.446l.073,1.757a6.73,6.73,0,0,1-2.105.3c-2.295,0-3.906-1.724-3.906-4.376,0-3.078,2.067-4.307,3.775-4.307a5.21,5.21,0,0,1,2.211.409Z" transform="translate(-3292.764 -410.166)"/><path class="c" d="M3466.021,462.625c0-.336,0-1.54.971-1.54.782,0,.988.75.988,1.54Zm3.688.58c0-3.271-2.152-3.271-2.717-3.271-1.79,0-2.774,1.523-2.774,3.209a2.905,2.905,0,0,0,3.173,3.246,5.912,5.912,0,0,0,1.985-.362l-.039-1.428a3.9,3.9,0,0,1-1.767.491,1.394,1.394,0,0,1-1.549-1.43h3.688Z" transform="translate(-3292.764 -410.166)"/><path class="c" d="M3474.172,462.432c0-.779-.349-.985-.734-.985-.612,0-.831.528-.831,1.336v3.509h-1.9v-4.953a12.726,12.726,0,0,0-.047-1.312h1.731c.026.278.047.626.047,1.047h.025a1.705,1.705,0,0,1,1.767-1.14c1.382,0,1.84,1.005,1.84,2.258v4.1h-1.9Z" transform="translate(-3292.764 -410.166)"/><path class="c" d="M3476.78,460.027h1.082v-1.285l1.854-.588v1.873h1.225v1.337h-1.225v2.874c0,.612.273.782.634.782a1.376,1.376,0,0,0,.626-.135v1.336a4.567,4.567,0,0,1-1.322.168,1.668,1.668,0,0,1-1.84-1.848v-3.177h-1.034Z" transform="translate(-3292.764 -410.166)"/><path class="c" d="M3483.476,462.625c0-.336,0-1.54.973-1.54.784,0,.989.75.989,1.54Zm3.691.58c0-3.271-2.153-3.271-2.718-3.271-1.79,0-2.778,1.523-2.778,3.209a2.909,2.909,0,0,0,3.178,3.246,5.882,5.882,0,0,0,1.982-.362l-.037-1.428a3.9,3.9,0,0,1-1.767.491,1.4,1.4,0,0,1-1.551-1.43h3.691Z" transform="translate(-3292.764 -410.166)"/><path class="c" d="M3488.167,461.339a11.833,11.833,0,0,0-.049-1.312h1.729c.015.375.037.762.05,1.133h.023c.386-.676.652-1.226,1.743-1.226h.278v1.752a2.52,2.52,0,0,0-.637-.072c-1.107,0-1.239.963-1.239,1.877v2.8h-1.9Z" transform="translate(-3292.764 -410.166)"/><path class="c" d="M3471.279,436.605h-2.659v-1.958h-2.581v2.795h-4.054v-2.795h-2.553v8.47a.885.885,0,0,0,.91.851h8.278v-1.9h2.659v2.7h2.554v-10.31h-2.554Zm-5.24,5.458h-4.054V439.35h4.054Zm2.581-1.878v-1.692h2.659v1.692Z" transform="translate(-3292.764 -410.166)"/><path class="c" d="M3479.271,447.564v4.252a.879.879,0,0,0,.905.851l11.334,0v-1.94h-9.63v-3.16Z" transform="translate(-3292.764 -410.166)"/><path class="c" d="M3479.271,446.355h2.609V443.9H3489v.8h-3.882v1.955H3489v1.862h2.556v-14H3489v7.432h-12.3V443.9h2.568Z" transform="translate(-3292.764 -410.166)"/><path class="c" d="M3454.8,434.461h-2.875v12.229h2.875v-6.2h2.614V438.57H3454.8Z" transform="translate(-3292.764 -410.166)"/><path class="c" d="M3436.124,434.461h-2.873v18.581h2.873v-11.4h2.613v-1.923h-2.613Z" transform="translate(-3292.764 -410.166)"/><path class="c" d="M3426.427,448.41c3.508,0,4.684-4.04,4.684-6.954s-1.176-6.947-4.684-6.947-4.684,4.041-4.684,6.947S3422.916,448.41,3426.427,448.41Zm0-11.976c1.61,0,1.877,2.93,1.877,5.022s-.267,5.028-1.877,5.028-1.878-2.935-1.878-5.028S3424.817,436.434,3426.427,436.434Z" transform="translate(-3292.764 -410.166)"/><path class="c" d="M3445.278,441.435a11.474,11.474,0,0,0,3.839,3.705l1.279-1.631a7.8,7.8,0,0,1-2.769-3.032,10.145,10.145,0,0,1-.944-4.733v-1.1h-3.006v1.1a10.069,10.069,0,0,1-.945,4.733,7.836,7.836,0,0,1-2.766,3.032l1.273,1.631A12.572,12.572,0,0,0,3445.278,441.435Z" transform="translate(-3292.764 -410.166)"/><path class="c" d="M3443.322,446.063v5.7a.87.87,0,0,0,.871.871h10.683v-1.986h-8.685v-4.579Z" transform="translate(-3292.764 -410.166)"/><path class="c" d="M3473.763,449.44c0-2.5-2.937-3.966-6.56-3.966s-6.565,1.47-6.565,3.966,2.939,3.972,6.565,3.972S3473.763,451.947,3473.763,449.44Zm-10.2,0c0-1.469,1.628-2.216,3.637-2.216s3.641.77,3.641,2.216-1.63,2.219-3.641,2.219S3463.566,450.915,3463.566,449.44Z" transform="translate(-3292.764 -410.166)"/><path class="c" d="M3482.3,441.118c2.78,0,5.038-1.247,5.038-3.445s-2.258-3.443-5.038-3.443-5.041,1.259-5.041,3.443S3479.517,441.118,3482.3,441.118Zm0-5.381a1.949,1.949,0,1,1-2.168,1.936A1.932,1.932,0,0,1,3482.3,435.737Z" transform="translate(-3292.764 -410.166)"/><path class="c" d="M3409.555,444.538h-5.626v1.937H3414.9v1.114h-10.972V451.7a.877.877,0,0,0,.9.847l13.224.008V450.6h-11.245v-1.218h10.966v-4.847h-5.347V443.37h6.969v-1.959h-16.817v1.959h6.973Z" transform="translate(-3292.764 -410.166)"/><path class="c" d="M3392.817,441.053h4.016v12.013h2.882V434.461h-2.882v4.71h-4.016Z" transform="translate(-3292.764 -410.166)"/><path class="c" d="M3403.958,437.381c0,2.146,3.149,3.357,7.032,3.357s7.032-1.218,7.032-3.357-3.146-3.35-7.032-3.35S3403.958,435.247,3403.958,437.381Zm10.769.007c0,1.071-1.673,1.627-3.737,1.627s-3.741-.545-3.741-1.627,1.675-1.631,3.741-1.631S3414.727,436.315,3414.727,437.388Z" transform="translate(-3292.764 -410.166)"/><path class="c" d="M3388.957,445.123a10.8,10.8,0,0,0,4.159,3.7l1.337-1.633a8.045,8.045,0,0,1-2.909-3.029,11.435,11.435,0,0,1-1.154-5.157v-4.361h-2.863v4.361a11.435,11.435,0,0,1-1.154,5.157,7.978,7.978,0,0,1-2.913,3.029l1.345,1.633A10.8,10.8,0,0,0,3388.957,445.123Z" transform="translate(-3292.764 -410.166)"/><path class="d" d="M3360.983,456.523c-.144.468-1.756.472-3.223.619-1.27.126-4.815.421-5.855.458a40.953,40.953,0,0,1-4.784.124c-2.109-.3-2.661-1.132-3.063-1.855-.766-1.37-.649-3.619.114-4.03.785-.422,1.682.187,3.329.153a14.859,14.859,0,0,1,2.03.1c1.087.116,2.205.173,3.295.387,1.555.3,3.841.5,5.476.646a14.6,14.6,0,0,1,2.513.489c2.023.677,1.29,1.667.692,1.892-.163.065-.917.325-.917.488S3361.015,456.417,3360.983,456.523Z" transform="translate(-3292.764 -410.166)"/><path class="b" d="M3353.585,429.693a20.459,20.459,0,0,0-15.971,33.267c.161-.284.329-.574.5-.865a19.611,19.611,0,1,1,1.955,2.174c-.176.154-.287.249-.287.249a4.909,4.909,0,0,1-.512.271,20.47,20.47,0,1,0,14.316-35.1Z" transform="translate(-3292.764 -410.166)"/><path class="b" d="M3353.589,428.166a22,22,0,1,0,22,22A22.026,22.026,0,0,0,3353.589,428.166Zm0,43.671a21.621,21.621,0,0,1-15.892-6.954.865.865,0,0,1-.261-.285,21.662,21.662,0,1,1,16.153,7.239Z" transform="translate(-3292.764 -410.166)"/><path class="e" d="M3367.556,455.556l0,0a.11.11,0,0,0,.145.007l0,0c.3-.3-.832-1.737-1.354-2.912-4.122-7.923-6.827-11.031-8.374-12.268l.387.359a5.247,5.247,0,0,0-6.508-.724,12.251,12.251,0,0,0-2.6,2.177c-1.372,1.439-4.841,6.676-6.211,8.6-.989,1.384-2.651,3.8-3.37,5.036-.882,1.516-1.622,2.39-1.2,2.859.734.811,1.6-1.382,1.774-.5.067.333-1.573,2.875-2.748,4.966-.6,1.082-.027,2.776,2.272,1.372,0,0,1.334-1.135,2.544-2.357,1.442-1.442,2.756-3.093,4.3-4.526a3.257,3.257,0,0,1-2.567-1.766c-.766-1.371-.649-3.619.114-4.03.785-.422,1.682.187,3.329.153a14.859,14.859,0,0,1,2.03.1c.812.087,1.641.14,2.462.251.155-.157.309-.312.451-.448,1.015-.98.6-1.446,1.476-2.5a11.042,11.042,0,0,1,1.48-1.454c.877-.5,1.354-.064,2.029.656.985,1.052,2.509,2.949,3.488,3.853,1.349,1.249,3.327,3.256,4.5,4.578.121.138,1.232,1.37,2.306.347C3368.178,456.943,3367.967,456.256,3367.556,455.556Z" transform="translate(-3292.764 -410.166)"/></svg>