<svg xmlns="http://www.w3.org/2000/svg" width="240" height="80" viewBox="0 0 240 80"><defs><style>.cls-1,.cls-2{fill:#fff;}.cls-1{opacity:0;}</style></defs><g id="레이어_2" data-name="레이어 2"><g id="레이어_1-2" data-name="레이어 1"><rect id="사각형_186" data-name="사각형 186" class="cls-1" width="240" height="80"/><path id="패스_1023" data-name="패스 1023" class="cls-2" d="M213.534,44.569h3.458v1.947h2.492V31.224H217l-.011,11.315h-3.458Z"/><path id="패스_1024" data-name="패스 1024" class="cls-2" d="M209.566,48.11V43.546h-2.409v6.678h12.491V48.11Z"/><path id="패스_1025" data-name="패스 1025" class="cls-2" d="M210.165,45.446h2.214V41.8h3.754V39.576h-10.81V41.8h4.842Z"/><path class="cls-2" d="M214.913,34.24c-.506-5.379-8.883-4.891-8.772.5C206.358,40.639,215.6,40.25,214.913,34.24Zm-2,.752c-.272,2.915-4.811,2.653-4.753-.269C208.272,31.528,213.279,31.735,212.91,34.992Z"/><path id="패스_1027" data-name="패스 1027" class="cls-2" d="M173.985,40.885h5.964v1.247h-4.833v1.894h9.972v1.263h-9.972v4.985h12.477V48.383H177.444v-1.2h9.972V42.135H182.4V40.888h6.188v-1.96h-14.6Z"/><path id="패스_1028" data-name="패스 1028" class="cls-2" d="M169.723,37.637h-3.612v2h3.612V50.076h2.462V31.156h-2.462Z"/><path id="패스_1029" data-name="패스 1029" class="cls-2" d="M138.892,37.479h2.141V35.422h-2.1V31.179h-2.464V41.216h2.425Z"/><path id="패스_1030" data-name="패스 1030" class="cls-2" d="M127.337,50.26h11.595V42.043H127.337Zm2.373-6.211h6.855v4.2H129.71Z"/><path id="패스_1031" data-name="패스 1031" class="cls-2" d="M129.51,36.516c.729,2.327,3.955,4.454,3.955,4.454l1.264-1.743c-4.4-2.256-4.082-7.69-4.082-7.69h-2.28s.321,5.434-4.076,7.69l1.264,1.743S128.777,38.847,129.51,36.516Z"/><path id="패스_1032" data-name="패스 1032" class="cls-2" d="M153.218,41.216h2.424V31.178h-2.465v3.376h-3.1v2.053h3.146Z"/><path id="패스_1033" data-name="패스 1033" class="cls-2" d="M149.445,41.1c-8.464-.087-8.468,9.907,0,9.817C157.91,51.007,157.91,41.018,149.445,41.1Zm0,7.65c-5.263.048-5.262-5.529,0-5.481C154.71,43.221,154.711,48.807,149.445,48.754Z"/><path id="패스_1034" data-name="패스 1034" class="cls-2" d="M197.771,41.416c-8.469-.082-8.466,9.52,0,9.439C206.237,50.942,206.239,41.326,197.771,41.416Zm0,7.338c-5.261.048-5.265-5.286,0-5.234,5.264-.048,5.265,5.277,0,5.23Z"/><path id="패스_1035" data-name="패스 1035" class="cls-2" d="M145.905,36.516c.729,2.326,3.682,4.274,3.682,4.274l1.264-1.747c-4.13-2.072-3.8-7.506-3.8-7.506h-2.287s.33,5.434-3.8,7.506l1.263,1.747S145.177,38.846,145.905,36.516Z"/><path id="패스_1036" data-name="패스 1036" class="cls-2" d="M181.313,38.358c8.487.339,8.353-8.144,0-7.92C172.968,30.215,172.834,38.7,181.313,38.358Zm.047-5.975c5.335-.141,5.342,4.2,0,4.056C176.034,36.579,176.029,32.244,181.36,32.383Z"/><path id="패스_1037" data-name="패스 1037" class="cls-2" d="M164.353,40.386c-.846-2.816-.733-5.9-.709-8.808h-2.467c.176,4.892.243,10.685-4.24,13.795l1.525,1.561a13.829,13.829,0,0,0,4-5.524,14.051,14.051,0,0,0,3.906,5.524l1.439-1.561A10.145,10.145,0,0,1,164.353,40.386Z"/><path id="패스_1038" data-name="패스 1038" class="cls-2" d="M198.858,38.851h2.686v2.806h2.425V31.108H201.5v1.929h-2.644V31.224h-2.281v2.81h-4.051v-2.81H190.24v9.484h8.622Zm-2.286-.141h-4.05V36.03h4.05Zm4.972-3.622V36.8h-2.686V35.088Z"/><path id="패스_1039" data-name="패스 1039" class="cls-2" d="M101.025,43.579a2.284,2.284,0,0,1-.99,1.755c8.994-4.055,14.3-8.573,13.621-12.451-1.269-7.294-23.165-9.57-48.914-5.08a136.528,136.528,0,0,0-29.1,8.164A5.752,5.752,0,0,1,37,35.814c1.366,0,3.253.332,3.253,2.431v.682h-2.4v-.6a.829.829,0,0,0-.777-.878.842.842,0,0,0-.123,0,.8.8,0,0,0-.883.653,1.275,1.275,0,0,0,.011.5c.273,1.132,3.94,1.736,4.35,3.752a4.836,4.836,0,0,1,0,1.588c-.228,1.608-1.667,2.206-3.414,2.206-1.813,0-3.51-.65-3.51-2.8V42.6h2.593v.935a.861.861,0,0,0,.973.875.833.833,0,0,0,.938-.646,1.236,1.236,0,0,0-.023-.715c-.494-1.25-3.924-1.823-4.346-3.792a3.466,3.466,0,0,1-.022-1.3,2.214,2.214,0,0,1,.934-1.515c-9.3,4.111-14.831,8.725-14.146,12.676,1.275,7.293,23.18,9.568,48.929,5.085A135.3,135.3,0,0,0,98.95,45.816a5.555,5.555,0,0,1-1.31.15c-1.717,0-3.241-.624-3.4-2.382-.022-.323-.034-.455-.034-.633V38.889c0-.179.025-.481.044-.643.212-1.8,1.676-2.383,3.393-2.383s3.2.577,3.383,2.383a5.751,5.751,0,0,1,.025.643v.317H98.613v-.541a2.148,2.148,0,0,0-.032-.367.875.875,0,0,0-.963-.7.886.886,0,0,0-.959.7,2.194,2.194,0,0,0-.039.457v4.411a1.761,1.761,0,0,0,.021.37,1.046,1.046,0,0,0,1.972,0,2.079,2.079,0,0,0,.024-.37v-1.4h-.993V40.358h3.427v2.593C101.061,43.124,101.056,43.256,101.025,43.579Zm-53.7,2.2L46.04,37.02h-.052l-1.326,8.759H42.054l1.791-9.653h4.3l1.778,9.653Zm12.841,0L60.1,37.1h-.052L58.44,45.779H55.99L54.379,37.1h-.055l-.06,8.679H51.846l.211-9.653H56l1.189,7.382h.055l1.19-7.382h3.937l.213,9.653Zm11.623-1.855c-.224,1.593-1.648,2.18-3.378,2.18-1.792,0-3.471-.641-3.471-2.773V42.6H67.5v.925a.857.857,0,0,0,.844.87.784.784,0,0,0,.119-.006.826.826,0,0,0,.931-.644,1.218,1.218,0,0,0-.02-.7c-.491-1.236-3.888-1.806-4.3-3.758a3.221,3.221,0,0,1-.021-1.29c.253-1.56,1.642-2.12,3.339-2.12,1.354,0,3.226.327,3.226,2.4v.675H69.23v-.59a.808.808,0,0,0-.747-.865.884.884,0,0,0-.136,0,.785.785,0,0,0-.876.641,1.2,1.2,0,0,0,.012.5c.269,1.117,3.894,1.713,4.3,3.719a4.668,4.668,0,0,1,.007,1.56Zm9.086-.876c0,.174-.015.544-.019.632-.173,1.806-1.593,2.386-3.371,2.386s-3.2-.58-3.371-2.386c-.008-.088-.023-.458-.02-.632V36.125h2.441v7.143a2.346,2.346,0,0,0,.022.365.962.962,0,0,0,1.853,0,2.477,2.477,0,0,0,.023-.365V36.125h2.442Zm10.8,2.63H88.242l-2.389-7.84H85.8l.135,7.84H83.562V36.126h3.584l2.22,7.578h.054l-.135-7.578h2.39Z"/></g></g></svg>