<svg xmlns="http://www.w3.org/2000/svg" width="240" height="80" viewBox="0 0 240 80"><defs><style>.a,.b,.c{fill:#fff;}.a{opacity:0;}.b{opacity:0.7;}</style></defs><rect class="a" width="240" height="80"/><path class="b" d="M3363.963,315.872a66.566,66.566,0,0,0-49.354,0c-.489.242-.725.458-.725,1.012v25.393c0,.554.236.769.725,1.012a66.554,66.554,0,0,0,49.354,0c.489-.243.726-.458.726-1.012V316.884C3364.689,316.33,3364.452,316.114,3363.963,315.872Zm-7.4.4a1.471,1.471,0,0,1,1.85-1.139,1.4,1.4,0,0,1,.57.3l.011.009-.16.446-.023-.025a1,1,0,0,0-.494-.311.969.969,0,0,0-.754.084,1.364,1.364,0,0,0-.475,1.728.952.952,0,0,0,.581.454,1.216,1.216,0,0,0,.607.017l.033-.011-.1.465-.014,0a1.514,1.514,0,0,1-.642-.063A1.453,1.453,0,0,1,3356.561,316.277Zm-3.588-2.372,0-.02.427.087-.612,3.043-.427-.085Zm-5.043-.808,0-.02.432.057s-.345,2.616-.35,2.656c.038,0,1.143.151,1.143.151l-.055.422-1.575-.208Zm-6.418,1.03a1.747,1.747,0,0,1,.51-1.225,1.249,1.249,0,0,1,.919-.309,1.414,1.414,0,0,1,1.263,1.673,1.739,1.739,0,0,1-.5,1.226,1.34,1.34,0,0,1-1.815-.093A1.749,1.749,0,0,1,3341.512,314.127Zm-5.347-1.516s.041,1.243.043,1.281l1.278-.042c0-.039-.043-1.282-.043-1.282l.416-.014h.02l.1,3.1-.436.015s-.044-1.357-.045-1.4l-1.279.042c0,.04.046,1.4.046,1.4l-.436.015-.1-3.1Zm-.829,4.29c1.393-.082,2.731-.123,3.96-.123,5.884,0,14.247.945,19.409,2.771h-23.369Zm0,4.066h24.577c0,.058.007.116.008.167v.7h-21.9v5.987H3348.1v.868h-12.766Zm4.1,5.439v-.869h20.481v.869Zm20.481,1.416v.868h-10.4v-.868Zm-20.481-3.7v-.869h20.481v.869Zm8.662,5.987v5.438h-17.449v-.869h14.421v-3.7h-14.421V319.538H3319.92a59.627,59.627,0,0,1,14-2.541v13.111Zm-15.9-17.225.02,0,.047.423-.852.1c.005.038.3,2.661.3,2.661l-.431.049s-.3-2.623-.3-2.662l-.853.1-.048-.424Zm-6.568.964.421-.08.013,0,1.745,2.828-.465.089s-.408-.683-.421-.706l-1.3.248c0,.027-.13.812-.13.812l-.45.086Zm-5.873,1.786a1.421,1.421,0,0,1,.882-.673,1.393,1.393,0,0,1,.641-.042l.015,0,.094.466-.033-.011a1,1,0,0,0-.584-.01.979.979,0,0,0-.6.462,1.259,1.259,0,0,0-.079.955,1.073,1.073,0,0,0,1.3.858,1.231,1.231,0,0,0,.528-.3l.023-.026.154.449-.011.009a1.532,1.532,0,0,1-.583.28,1.416,1.416,0,0,1-1.1-.1,1.683,1.683,0,0,1-.759-1.054A1.654,1.654,0,0,1,3319.761,315.633Zm-1.088,5.5c0-.055,0-.116.008-.18h10.554v10.022h-10.562Zm0,11.258h24.984v.87h-14.422v3.7h20.284v-6.855h10.4v7.241a1.84,1.84,0,0,1-.242,1,1.536,1.536,0,0,1-.547.427,47.265,47.265,0,0,1-9.613,2.192v-3.136h-30.8a3.134,3.134,0,0,1-.043-.482Zm29.429,6.856v1.9a76.9,76.9,0,0,1-8.806.556,70.423,70.423,0,0,1-18.444-2.455Zm-29.61,4.024a1.007,1.007,0,0,1-.614-.506,1.451,1.451,0,0,1,.018-1.118l.584-1.7.006-.019.412.14-.572,1.664a1.136,1.136,0,0,0-.049.846.663.663,0,0,0,.808.277,1.126,1.126,0,0,0,.482-.7l.571-1.663.411.141-.589,1.718C3319.679,343.175,3319.157,343.5,3318.492,343.272Zm3.449,1.022-.486-2.715-.689,2.375-.419-.122.86-2.963.007-.019.547.159s.448,2.526.471,2.654l.675-2.321.417.122-.866,2.981Zm1.8.477-.423-.107.757-2.99.006-.02.421.107Zm1.546.365-.363-3.231,0-.027.474.1s.245,2.67.254,2.764c.049-.081,1.408-2.4,1.408-2.4l.448.1-1.709,2.8Zm4.126-1.928-1.133-.2c-.006.036-.142.806-.148.843l1.031.18-.074.421-1.031-.182c-.007.037-.161.918-.168.956l1.132.2-.073.42-1.562-.275.536-3.038,0-.02,1.561.275Zm2.332.759a.7.7,0,0,1-.641.623.534.534,0,0,1,.206.333l.36,1.309-.49-.066-.278-1.123c-.078-.3-.194-.316-.4-.344l-.214-.029c-.006.038-.185,1.348-.185,1.348l-.431-.058.417-3.057,0-.02.689.094a1.242,1.242,0,0,1,.844.363.721.721,0,0,1,.136.448A1.259,1.259,0,0,1,3331.749,343.967Zm1.435.558a1.044,1.044,0,0,1,.623,1.038.9.9,0,0,1-1.116.826,1.7,1.7,0,0,1-.557-.184l-.013-.007.089-.445.024.014a1.541,1.541,0,0,0,.548.2.58.58,0,0,0,.406-.116.436.436,0,0,0,.159-.311c.03-.3-.192-.447-.45-.616-.3-.2-.638-.418-.586-.943a.827.827,0,0,1,.986-.761,1.726,1.726,0,0,1,.581.169l.015.008-.1.438-.023-.013a1.1,1.1,0,0,0-.495-.176.524.524,0,0,0-.374.086.353.353,0,0,0-.124.255C3332.748,344.231,3332.95,344.367,3333.184,344.525Zm1.628,1.995-.433-.032.225-3.077v-.02l.435.032Zm2.841-2.535-.856-.037c0,.039-.12,2.675-.12,2.675l-.434-.019s.118-2.636.119-2.675c-.038,0-.857-.039-.857-.039l.019-.406v-.02l2.148.1Zm2.928-.378-1.076,1.771,0,1.3h-.434s0-1.286,0-1.3S3338,343.6,3338,343.6l-.018-.031h.509l.808,1.357c.033-.055.794-1.353.794-1.353h.509Zm3.623,2.6a1.249,1.249,0,0,1-.886.409c-.817.049-1.383-.549-1.44-1.522a1.413,1.413,0,0,1,1.25-1.683c.8-.048,1.384.564,1.441,1.523A1.737,1.737,0,0,1,3344.2,346.207Zm1.551.165-.433.045-.312-3.09,1.479-.15.02,0,.042.424s-1.027.1-1.066.109c0,.036.083.814.087.851l1.018-.1.043.422-1.019.1C3345.619,345.022,3345.755,346.372,3345.755,346.372Zm4.915-.658s-.57.09-.587.085l-1.4-1.258c.016.1.226,1.449.226,1.449l-.43.066-.478-3.068.43-.067s.187,1.2.2,1.3c.138-.219.928-1.469.942-1.477l.52-.081.044-.007s-1.055,1.625-1.073,1.654l1.651,1.4Zm1.5-.239c-.8.161-1.444-.354-1.637-1.31a1.412,1.412,0,0,1,1.007-1.838c.789-.159,1.447.368,1.636,1.309A1.4,1.4,0,0,1,3352.167,345.475Zm3.446-.841-.675-.941a.371.371,0,0,0-.5-.17l-.211.052c.01.038.33,1.321.33,1.321l-.424.106-.748-3.015.676-.168a1.241,1.241,0,0,1,.917.026.808.808,0,0,1,.346.536.794.794,0,0,1,.024.191.7.7,0,0,1-.387.627.535.535,0,0,1,.313.232l.818,1.083Zm1.079-.289-.867-2.982,1.5-.436.02-.006.118.41-1.1.321c.01.035.228.786.239.822l1-.293.12.41-1.007.292c.012.036.262.9.271.932l1.1-.321.12.409Zm4.135-1.3s-.495-.623-.512-.643l-1.255.422c0,.027-.019.823-.019.823l-.434.146.141-3.324.405-.137.013,0,2.111,2.566Zm-18.03-27.672a.774.774,0,0,0,.577-.194,1.554,1.554,0,0,0,.088-1.909.8.8,0,0,0-1.109-.058,1.341,1.341,0,0,0-.383.938C3341.942,314.694,3342.142,315.34,3342.8,315.373Zm16.269,27.028c.051-.017.938-.316.987-.334l-.953-1.2C3359.1,340.97,3359.068,342.348,3359.066,342.4Zm6.871-27.049a2.049,2.049,0,0,0-.781-.678,68.185,68.185,0,0,0-51.734,0,2.055,2.055,0,0,0-.78.678,3.172,3.172,0,0,0-.32,1.522v25.409a3.181,3.181,0,0,0,.32,1.523,2.066,2.066,0,0,0,.725.65,68.173,68.173,0,0,0,51.846,0,2.082,2.082,0,0,0,.724-.65,3.16,3.16,0,0,0,.319-1.523V316.874A3.152,3.152,0,0,0,3365.937,315.352Zm-.711,26.942a1.75,1.75,0,0,1-.144.869,1.088,1.088,0,0,1-.443.448,67.172,67.172,0,0,1-50.7,0,1.094,1.094,0,0,1-.443-.448,1.762,1.762,0,0,1-.144-.869v-25.4a1.765,1.765,0,0,1,.144-.869,1.088,1.088,0,0,1,.443-.447,67.172,67.172,0,0,1,50.7,0,1.082,1.082,0,0,1,.443.447,1.753,1.753,0,0,1,.144.869Zm-21.5,1.731a.76.76,0,0,0-.569-.188.747.747,0,0,0-.541.254,1.552,1.552,0,0,0,.1,1.91.824.824,0,0,0,1.128-.068,1.558,1.558,0,0,0-.122-1.908Zm-12.9-.612-.356-.049-.12.884.313.042a.637.637,0,0,0,.476-.09.41.41,0,0,0,.157-.286.428.428,0,0,0,.006-.071C3331.3,343.61,3331.129,343.454,3330.823,343.413Zm21.387-.56a.81.81,0,0,0-1.091.217,1.357,1.357,0,0,0-.139,1.006c.107.532.46,1.109,1.1.981a.774.774,0,0,0,.509-.331,1.558,1.558,0,0,0-.383-1.873Zm2.049-.643-.349.086c.009.037.206.829.216.865l.306-.076c.3-.074.465-.243.465-.465a.506.506,0,0,0-.016-.119C3354.815,342.235,3354.588,342.128,3354.259,342.21Zm-28.329-27.919c-.016.1-.232,1.46-.239,1.513l1.022-.2C3326.685,315.563,3325.983,314.378,3325.93,314.291Z" transform="translate(-3277.209 -291)"/><path class="c" d="M3381.2,329.853a5.218,5.218,0,0,1,3.743,1.369,4.813,4.813,0,0,1,1.556,3.6,4.729,4.729,0,0,1-1.556,3.559,5.647,5.647,0,0,1-7.464,0,4.727,4.727,0,0,1-1.558-3.559,4.812,4.812,0,0,1,1.558-3.6A5.185,5.185,0,0,1,3381.2,329.853Zm0,1.881a1.858,1.858,0,0,0-1.536.937,3.867,3.867,0,0,0,0,4.292,1.854,1.854,0,0,0,1.536.949,1.874,1.874,0,0,0,1.558-.949,3.873,3.873,0,0,0,0-4.292A1.878,1.878,0,0,0,3381.2,331.734Z" transform="translate(-3277.209 -291)"/><path class="c" d="M3400.987,333.213a5.169,5.169,0,0,0,1.469,4,9.646,9.646,0,0,0,2.878,2.131l-1.544,1.365a8.671,8.671,0,0,1-2.462-1.352,6.853,6.853,0,0,1-1.8-1.952,7.836,7.836,0,0,1-2.005,2.109,8.822,8.822,0,0,1-2.316,1.234l-1.558-1.4a10.282,10.282,0,0,0,2.793-1.969,5.651,5.651,0,0,0,1.617-4.158l-3.332,0v-1.742h3.321v-1.145a1.389,1.389,0,0,0-.664-1.107h3.6v2.252h3.333v1.739Z" transform="translate(-3277.209 -291)"/><path class="c" d="M3440.688,322.55a6.87,6.87,0,0,0,.631-3.272v-6.3h-7.857v1.087h5.976v4.43a10.584,10.584,0,0,1-.46,4.052h-.32v-5.1h-2.043l.045.049a1.3,1.3,0,0,1,.222.913v4.141h-.89v-5.1h-2.028l.038.059a1.581,1.581,0,0,1,.214.9v4.141h-1.525v1.077h9.641V322.55Z" transform="translate(-3277.209 -291)"/><path class="c" d="M3419.675,312.426h-1.739l.073.051a1.007,1.007,0,0,1,.355.91v2.09h-.84V312.8c0-.257-.13-.378-.41-.378h-1.777l.081.056a.99.99,0,0,1,.372.9v4.938a3.206,3.206,0,0,1-1.251.223H3412.3v-4.592h2.686v-1.088h-5.034l.061.053a1.343,1.343,0,0,1,.354,1.034v4.478a1.113,1.113,0,0,0,1.2,1.2h2.912a2.27,2.27,0,0,0,1.312-.363v4.354h1.734v-7.074h.84v7.074h1.725V312.8C3420.089,312.547,3419.957,312.426,3419.675,312.426Z" transform="translate(-3277.209 -291)"/><path class="c" d="M3430.513,314.722v-1.93c0-.256-.13-.377-.41-.377h-1.98l.086.056a1,1,0,0,1,.407.9v6.249h-5.935V320.7h5.781c.1,0,.142.063.142.228v2.7h1.909V315.81h1.709v-1.088Zm-2.873,1.606a2.332,2.332,0,0,0-.816-1.741h.943v-1.049h-2.1v-1.212h-2.123l-.015.049s.241.141.241.7v.464h-2.093v1.049h.953a2.327,2.327,0,0,0-.815,1.741,2.942,2.942,0,0,0,5.821,0Zm-4.122,0a1.24,1.24,0,1,1,1.21,1.506A1.384,1.384,0,0,1,3423.518,316.328Z" transform="translate(-3277.209 -291)"/><path class="c" d="M3394.438,317.6v-.74h2.892v-1.053h-5.748v-.6h5.748v-1.073h-5.748v-.627h5.748v-1.05h-8.1l.067.049a1.233,1.233,0,0,1,.379,1.027v2.131a1.243,1.243,0,0,0,1.351,1.192h1.5v.74h-4.012v1.049h9.993V317.6Zm-2.628,4.325h4.655c.589,0,.877-.327.877-1v-1.311c0-.257-.131-.377-.411-.377h-7.138v1.076h5.641v.6h-5.9l-.01.053c.006,0,.374.136.374.881v.55a1.287,1.287,0,0,0,1.363,1.228h6.1v-1.063h-5.557Z" transform="translate(-3277.209 -291)"/><path class="c" d="M3407.983,312.426h-2.012l.091.058a1,1,0,0,1,.422.9v3.863a4.926,4.926,0,0,1-1.743.287h-3.273v-1.33h2.772c.591,0,.877-.324.877-1v-2.137c0-.256-.129-.374-.411-.374h-5.255v1.063h3.9v1.379h-4.184l.056.052a1.337,1.337,0,0,1,.334,1.012v1.188a1.119,1.119,0,0,0,1.2,1.205h3.88a3.771,3.771,0,0,0,1.84-.445v1.468h-6.07V320.7h5.928c.1,0,.142.063.142.228v2.7h1.909V312.8C3408.393,312.548,3408.263,312.426,3407.983,312.426Z" transform="translate(-3277.209 -291)"/><path class="c" d="M3386.3,314.991v-2.123c0-.364-.223-.442-.408-.442h-1.951l.08.056a.994.994,0,0,1,.371.9v10.24h1.908v-7.561h1.709v-1.075Zm-8.739-1.1h3.278v.2c0,2.586-1.187,4.334-3.257,4.8l-.021.005v1.068l.028,0a5.692,5.692,0,0,0,5.362-6.011v-1.139h-5.39Z" transform="translate(-3277.209 -291)"/><path class="c" d="M3470.326,336.584c2.646,0,4.723-1.666,4.723-3.793,0-2.091-2.12-3.79-4.723-3.79s-4.74,1.7-4.74,3.79C3465.586,334.918,3467.668,336.584,3470.326,336.584Zm0-5.906a2.139,2.139,0,0,1,0,4.23,2.139,2.139,0,0,1,0-4.23Zm-8.8-1.23h-3.289l.146.09a1.638,1.638,0,0,1,.693,1.484v.9h-2.306v-1.883h-3.926l.131.073.058.032a1.306,1.306,0,0,1,.722,1.322v1.3h-3.134v-2.724h-3.691v.091c.244.093.653.394.653,1.336v5.61a1.877,1.877,0,0,0,2.011,1.995h7.176v-1.467h2.306v2.425a7.326,7.326,0,0,0-2.775-.534c-3.229,0-5.848,2.027-5.848,4.512s2.619,4.509,5.848,4.509c3.25,0,5.9-2.025,5.9-4.509,0-.052,0-.1,0-.151h0v-13.8C3462.2,329.644,3461.991,329.448,3461.53,329.448Zm-7.771,7.862h-3.134v-2.761h3.134Zm2.509,9.477a2.758,2.758,0,1,1,2.789-2.756A2.751,2.751,0,0,1,3456.268,346.787Zm2.812-10.918h-2.306v-2.2h2.306Zm20.347-6.47h-3.134l.111.079a2.032,2.032,0,0,1,.571,1.544V340.1h-3.764v1.555h3.764V346h-5.937v-3.29h-3.453l.047.082a3.176,3.176,0,0,1,.281,1.489v1.489a1.9,1.9,0,0,0,2,2.012h10.184v-1.047h0V330.016C3480.1,329.6,3479.885,329.4,3479.427,329.4Zm-7.122,9.4h3.839v-1.677h-11.205V338.8h3.827c-.033.619-.8,1.351-2.446,1.532h-.037v1.687h.044C3469.2,342.022,3471.651,340.7,3472.3,338.8Zm-55.074-2.969a8.787,8.787,0,0,0,4.44,3.218l.023.005,1.571-1.464-.063-.027a7,7,0,0,1-4.388-5.957V329.73h-4.04l.148.089a1.469,1.469,0,0,1,.73,1.335v.454a7.174,7.174,0,0,1-4.4,6.033l-.07.02,1.575,1.466.022-.005A8.8,8.8,0,0,0,3417.231,335.833Zm9.321-6.385h-3.294l.149.09a1.633,1.633,0,0,1,.692,1.484v1.651h-3.417v1.765h3.417v5.594a7.32,7.32,0,0,0-2.776-.534c-3.226,0-5.85,2.027-5.85,4.512s2.624,4.509,5.85,4.509c3.249,0,5.9-2.025,5.9-4.509,0-.045,0-.086,0-.126h0v-13.82C3427.221,329.644,3427.007,329.448,3426.552,329.448Zm-5.263,17.339a2.758,2.758,0,1,1,2.787-2.756A2.753,2.753,0,0,1,3421.289,346.787Zm18.092-6.747h4.735v-9.805h-13.409l-.023.079.039.019a1.576,1.576,0,0,1,.8,1.538v6.157a1.9,1.9,0,0,0,2.037,2.012h2.7v5.229h-6.277v1.763h15.676v-1.763h-6.275Zm-4.732-1.74v-6.281h6.344V338.3Z" transform="translate(-3277.209 -291)"/><path class="c" d="M3405.952,329.481h-.133l.108.078a1.98,1.98,0,0,1,.573,1.531v3.425h-3.423v1.7h3.423v9.772h-6.429V341.6h-3.6l.074.106a2.237,2.237,0,0,1,.5,1.308v2.744a1.905,1.905,0,0,0,2.027,2h10.542V330.092c0-.418-.216-.611-.673-.611Z" transform="translate(-3277.209 -291)"/><path class="c" d="M3388.095,329.481h-.134l.108.078a1.981,1.981,0,0,1,.573,1.531v14.9h-6.429V341.6h-3.6l.074.106a2.225,2.225,0,0,1,.5,1.308v2.744a1.906,1.906,0,0,0,2.027,2h10.541V330.092c0-.418-.215-.611-.673-.611Z" transform="translate(-3277.209 -291)"/></svg>