<svg xmlns="http://www.w3.org/2000/svg" width="240" height="80" viewBox="0 0 240 80"><defs><style>.cls-1,.cls-2{fill:#fff;}.cls-1{opacity:0;}.cls-3{opacity:0.55;}</style></defs><g id="레이어_2" data-name="레이어 2"><g id="레이어_1-2" data-name="레이어 1"><rect id="사각형_188" data-name="사각형 188" class="cls-1" width="240" height="80"/><path class="cls-2" d="M119.856,30.468h0c-3.095,0-5.985,1.624-8.287,3.426a4.411,4.411,0,0,0-4.34-3.426h0A10.9,10.9,0,0,0,99.35,33.62l.729-2.777h-6.95l-4.1,19.209h7.179L98.4,39.787c.5-2.345,2-4.022,4.4-4.022h0c.7,0,1.754.316,1.46,1.715l-2.573,12.572h7.2L111.223,39.1c.722-1.981,2.047-3.34,4.206-3.34h0a1.4,1.4,0,0,1,1.459,1.715l-2.572,12.572h7.2l2.959-13.876A4.723,4.723,0,0,0,119.856,30.468Z"/><path class="cls-2" d="M150.933,33.109c.849-1.6,2.211-4.152,2.819-5.231.454-.8.765-.869.8-.874a.178.178,0,0,1,.14.06l.068.064.007.006a7.47,7.47,0,0,1,.258,1.56c.108.968.231,2.394.38,4.415h1.405c-.194-2.647-.346-4.309-.48-5.28-.156-1.129-.3-1.435-.622-1.732l-.025-.024a1.563,1.563,0,0,0-1.321-.457,2.705,2.705,0,0,0-1.829,1.574c-.718,1.275-2.419,4.473-3.185,5.919Z"/><path class="cls-2" d="M147.336,27.148a7.793,7.793,0,0,1,.232,1.555c.01.1.02.209.031.319.1.98.187,2.754.247,4.087h1.4c-.06-1.352-.154-3.187-.255-4.223-.011-.109-.021-.215-.03-.317a8.169,8.169,0,0,0-.31-1.9,1.681,1.681,0,0,0-1.337-1.153,1.835,1.835,0,0,0-1.665.426,2.781,2.781,0,0,0-.743,1.423c-.22.9-.447,1.883-.761,3.288a3.859,3.859,0,0,1-.313.941.488.488,0,0,1-.922-.13l0-.012a10.368,10.368,0,0,1-.1-1.274c-.009-.231-.017-.45-.031-.663-.108-1.648-.2-3.071-1.014-3.623a1.93,1.93,0,0,0-1.755-.286,2.331,2.331,0,0,0-1.321,1.744c-.284,1.055-.893,3.8-1.322,5.757H138.8c.42-1.921.979-4.427,1.24-5.393.174-.645.393-.771.456-.8a.615.615,0,0,1,.472.127,1.8,1.8,0,0,1,.248.815c.082.507.123,1.137.163,1.747.013.193.021.4.03.626.046,1.181.113,2.063.8,2.666a1.661,1.661,0,0,0,1.022.328,1.578,1.578,0,0,0,1.634-.594,4.146,4.146,0,0,0,.654-1.676c.312-1.395.537-2.37.755-3.259.223-.913.523-.856.788-.806C147.217,26.925,147.267,26.958,147.336,27.148Z"/><path class="cls-2" d="M164.362,28.918a2.9,2.9,0,0,0-2.135-.176l.082,1.381c.942-.234,1.254-.084,1.307-.051.025.015.062.038.084.146a1.4,1.4,0,0,1-.788,1.553,2.958,2.958,0,0,1-1.411.247,2.615,2.615,0,0,1-1.482-.437,1.884,1.884,0,0,1-.343-1.482,4.124,4.124,0,0,1,.661-2.012c.634-.859,1.2-1.044,3.044-.988.55.016,1.149.066,1.713.127.128-.424.287-.944.411-1.328-.665-.076-1.4-.142-2.081-.162a7.463,7.463,0,0,0-2.414.2,3.482,3.482,0,0,0-1.811,1.351,5.4,5.4,0,0,0-.92,2.714,2.968,2.968,0,0,0,.86,2.637,3.978,3.978,0,0,0,2.313.738c.062,0,.123,0,.185,0a4.26,4.26,0,0,0,1.965-.426,3.031,3.031,0,0,0,1.231-1.211,2.648,2.648,0,0,0,.241-1.8A1.541,1.541,0,0,0,164.362,28.918Z"/><path class="cls-2" d="M139.033,40.276A2.9,2.9,0,0,0,136.9,40.1l.082,1.382c.942-.234,1.255-.084,1.308-.052.024.015.061.038.084.147a1.4,1.4,0,0,1-.789,1.553,2.956,2.956,0,0,1-1.41.246,2.618,2.618,0,0,1-1.483-.437,1.877,1.877,0,0,1-.342-1.481,4.141,4.141,0,0,1,.66-2.013c.634-.859,1.2-1.043,3.044-.988.551.017,1.149.066,1.713.127.128-.423.287-.943.412-1.327-.665-.076-1.4-.142-2.081-.163a7.457,7.457,0,0,0-2.414.2,3.471,3.471,0,0,0-1.811,1.35,5.394,5.394,0,0,0-.921,2.714,2.969,2.969,0,0,0,.86,2.637,3.981,3.981,0,0,0,2.314.739c.061,0,.123,0,.184,0a4.254,4.254,0,0,0,1.966-.426,3.022,3.022,0,0,0,1.23-1.211,2.647,2.647,0,0,0,.241-1.8A1.536,1.536,0,0,0,139.033,40.276Z"/><path class="cls-2" d="M171.664,31.866h-3.4c-.343,0-.918,0-1.1-.2a.778.778,0,0,1-.091-.534,1.581,1.581,0,0,1,.591-1.238h4.389l.269-1.366h-4.664a1.569,1.569,0,0,1,.075-.677c.11-.392.326-.716,1.861-.716h3l.269-1.367h-3.271a4.887,4.887,0,0,0-2.015.319,2.088,2.088,0,0,0-1.2,1.4,2.341,2.341,0,0,0,.03,1.684,3.161,3.161,0,0,0-.733,1.828,1.935,1.935,0,0,0,.449,1.584,2.73,2.73,0,0,0,2.058.642h3.21Z"/><path class="cls-2" d="M143.815,55.675c.849-1.6,2.211-4.152,2.819-5.232.454-.8.765-.868.8-.873a.18.18,0,0,1,.14.059c.027.027.05.048.068.065l.007.006a7.448,7.448,0,0,1,.258,1.559c.108.968.231,2.4.38,4.416h1.405c-.194-2.647-.346-4.309-.48-5.281-.157-1.128-.3-1.435-.622-1.731l-.025-.024a1.56,1.56,0,0,0-1.321-.457,2.7,2.7,0,0,0-1.829,1.574c-.718,1.275-2.419,4.473-3.185,5.919Z"/><path class="cls-2" d="M140.218,49.714a7.793,7.793,0,0,1,.232,1.554c.01.1.02.21.031.32.1.98.186,2.753.246,4.087h1.4c-.06-1.353-.154-3.187-.255-4.224-.011-.109-.021-.214-.03-.316a8.169,8.169,0,0,0-.31-1.9,1.681,1.681,0,0,0-1.337-1.153,1.833,1.833,0,0,0-1.665.426,2.777,2.777,0,0,0-.743,1.423c-.22.9-.448,1.882-.761,3.288a3.875,3.875,0,0,1-.313.941.488.488,0,0,1-.922-.13l0-.012a10.368,10.368,0,0,1-.1-1.274c-.009-.232-.017-.451-.031-.663-.108-1.648-.2-3.071-1.014-3.623a1.928,1.928,0,0,0-1.755-.286,2.329,2.329,0,0,0-1.321,1.743c-.284,1.055-.893,3.8-1.322,5.758h1.434c.421-1.921.98-4.427,1.241-5.393.174-.645.393-.772.456-.795a.615.615,0,0,1,.472.126,1.817,1.817,0,0,1,.248.816c.082.507.123,1.137.163,1.747.013.192.021.4.03.625.046,1.182.113,2.063.8,2.667a1.654,1.654,0,0,0,1.022.327,1.578,1.578,0,0,0,1.634-.593,4.146,4.146,0,0,0,.654-1.676c.312-1.4.537-2.371.755-3.26.223-.912.523-.855.788-.806C140.1,49.49,140.149,49.523,140.218,49.714Z"/><path class="cls-2" d="M195.958,51.483a2.9,2.9,0,0,0-2.135-.176l.081,1.382c.943-.234,1.255-.084,1.308-.051.025.015.062.037.084.146a1.4,1.4,0,0,1-.788,1.553,2.961,2.961,0,0,1-1.411.246,2.62,2.62,0,0,1-1.482-.436,1.881,1.881,0,0,1-.343-1.482,4.131,4.131,0,0,1,.661-2.013c.634-.858,1.2-1.043,3.044-.988.55.017,1.149.067,1.713.127.128-.423.287-.943.411-1.327-.665-.076-1.4-.142-2.081-.163a7.457,7.457,0,0,0-2.414.2,3.475,3.475,0,0,0-1.811,1.35,5.384,5.384,0,0,0-.92,2.714,2.966,2.966,0,0,0,.859,2.637,3.981,3.981,0,0,0,2.314.739l.184,0a4.264,4.264,0,0,0,1.966-.425,3.024,3.024,0,0,0,1.23-1.212,2.647,2.647,0,0,0,.242-1.8A1.541,1.541,0,0,0,195.958,51.483Z"/><path class="cls-2" d="M171.91,54.431h-3.4c-.343,0-.918,0-1.1-.2a.775.775,0,0,1-.091-.533,1.579,1.579,0,0,1,.591-1.238H172.3l.269-1.367H167.9a1.571,1.571,0,0,1,.075-.677c.11-.391.326-.716,1.861-.716h3l.27-1.366h-3.272a4.87,4.87,0,0,0-2.015.319,2.088,2.088,0,0,0-1.2,1.4,2.337,2.337,0,0,0,.03,1.683,3.165,3.165,0,0,0-.733,1.829,1.935,1.935,0,0,0,.449,1.584,2.73,2.73,0,0,0,2.058.642h3.21Z"/><path class="cls-2" d="M160.692,38.486a1.221,1.221,0,0,1,.962.458,1.273,1.273,0,0,1,.24.479,1.231,1.231,0,0,1,.008.557l-.164.767a3.222,3.222,0,0,1-3.156,2.554h-.955l1.027-4.815h2.038m0-1.4h-3.171L155.9,44.7h2.686a4.628,4.628,0,0,0,4.526-3.663l.164-.767a2.637,2.637,0,0,0-2.58-3.187Z"/><path class="cls-2" d="M145.367,38.486a1.734,1.734,0,0,1,1.7,2.1l-.1.466a2.843,2.843,0,0,1-2.783,2.252h-.445a1.735,1.735,0,0,1-1.7-2.1l.1-.467a2.839,2.839,0,0,1,2.782-2.251h.445m0-1.4h-.445a4.244,4.244,0,0,0-4.152,3.36l-.1.467a3.136,3.136,0,0,0,3.067,3.79h.445a4.246,4.246,0,0,0,4.153-3.361l.1-.466a3.136,3.136,0,0,0-3.067-3.79Z"/><path class="cls-2" d="M155,43.3h-2.713a1.655,1.655,0,0,1-1.618-2l.9-4.216h-1.432l-.837,3.924a3.055,3.055,0,0,0,2.988,3.693H154.7Z"/><path class="cls-2" d="M153,53.026a.654.654,0,0,1,.178-.111c.158.061.328.134.508.22a11.45,11.45,0,0,1,3.332,2.54l1.494-.4a16.9,16.9,0,0,0-3.21-2.65h0a2.639,2.639,0,0,0,2.731-1.759,2.138,2.138,0,0,0-.565-2.26c-.534-.48-1.153-.463-2.09-.436-.283.008-.6.017-.984.017h-2.073l-.3,1.4h2.372c.4,0,.729-.01,1.021-.018.691-.019,1.029-.024,1.155.09.151.136.281.253.136.883-.042.184-.155.672-1.133.681-1.392.014-2.81.086-3.523.794a2.7,2.7,0,0,0-.823,1.421,15.752,15.752,0,0,0-.361,2.235h1.372C152.479,53.54,152.662,53.358,153,53.026Z"/><path class="cls-2" d="M161.775,51.239c.914-.458,2.093-.963,3.342-1.5l.724-.311-1.435-.908c-1.585.68-2.822,1.222-3.724,1.707l.441-2.069h-1.432l-1.6,7.516h1.432l.392-1.835a6.626,6.626,0,0,1,2.976,1.128c.353.216.71.453,1.072.707l1.155-.9a10.769,10.769,0,0,0-4.909-2.32l.06-.278A5.874,5.874,0,0,1,161.775,51.239Z"/><polygon class="cls-2" points="178.709 48.349 173.999 48.349 173.71 49.702 175.445 49.702 174.171 55.675 175.603 55.675 176.877 49.702 178.42 49.702 178.709 48.349"/><polygon class="cls-2" points="179.606 48.349 178.044 55.675 179.476 55.675 181.038 48.349 179.606 48.349"/><path class="cls-2" d="M188.423,48.349c-.5,2.58-.831,4.049-1.03,4.944-.039.176-.073.329-.1.462-.113.516-.359.585-.584.585a.963.963,0,0,1-.416-.048c-.008,0-.053-.037-.142-.228a5.43,5.43,0,0,1-.095-1.3c-.006-.5-.013-1.119-.069-1.807a4.2,4.2,0,0,0-.529-1.966,1.812,1.812,0,0,0-1.281-.807,2.125,2.125,0,0,0-2.367,1.7c-.179.678-.885,3.77-1.344,5.792H181.9c.456-2.006,1.1-4.816,1.261-5.434.2-.77.753-.685.776-.681a.423.423,0,0,1,.347.2,2.961,2.961,0,0,1,.3,1.31c.052.64.058,1.208.064,1.71a4.865,4.865,0,0,0,.226,1.879,1.712,1.712,0,0,0,1.828,1.087,1.964,1.964,0,0,0,1.029-.281,2.084,2.084,0,0,0,.923-1.406c.029-.132.063-.284.1-.457.207-.932.551-2.484,1.089-5.248Z"/><polygon class="cls-2" points="136.661 25.669 135.074 33.109 136.507 33.109 138.093 25.669 136.661 25.669"/><g class="cls-3"><path class="cls-2" d="M76.348,35.357h0a4.259,4.259,0,0,0-4.166,3.371l-.748,3.028a2.452,2.452,0,0,0,2.4,2.963h0A4.259,4.259,0,0,0,78,41.348l.747-3.029A2.45,2.45,0,0,0,76.348,35.357Z"/><path class="cls-2" d="M66.334,23l-7.25,34h8.085a8.618,8.618,0,0,1-3.955-6.274l6.347.838a3.353,3.353,0,0,0,3.114,2.1h0a4.282,4.282,0,0,0,4.188-3.389l1.089-5.106a9.213,9.213,0,0,1-7.636,3.753h0c-3.653,0-6.485-4.558-5.723-8.131l.447-2.16a9.978,9.978,0,0,1,9.759-7.9h0a5.741,5.741,0,0,1,5.416,3.825l.758-3.555h6.394l-3.982,18.67A10.91,10.91,0,0,1,77.908,57h46.3l7.251-34ZM123.1,55.637H84.981L91.65,24.363h38.122Z"/></g><polygon class="cls-2" points="62.621 28.339 63.76 23 56.149 23 55.011 28.339 62.621 28.339"/><polygon class="cls-2" points="54.397 31.216 48.899 57 56.509 57 62.008 31.216 54.397 31.216"/></g></g></svg>