<svg xmlns="http://www.w3.org/2000/svg" width="240" height="80" viewBox="0 0 240 80"><defs><style>.a,.b,.c{fill:#fff;}.a{opacity:0;}.c{opacity:0.7;}</style></defs><rect class="a" width="240" height="80"/><rect class="b" width="2.832" height="17.752" transform="translate(99.913 25.778)"/><path class="b" d="M3915.15,321.491a1.012,1.012,0,0,0-.2-.24c-.4-.358-.8-.759-1.277-1.158a6.16,6.16,0,0,0-.957-.757,9.206,9.206,0,0,0-1.038-.639,14.4,14.4,0,0,0,1.317-3.19,13.726,13.726,0,0,0,.519-4.029h-4.109v.4a1.425,1.425,0,0,1,.6.4,1.909,1.909,0,0,1,.279,1.317,8.052,8.052,0,0,1-.319,2.153,21.955,21.955,0,0,1-.718,2.114,10.361,10.361,0,0,1-1.556,2.714,15.615,15.615,0,0,1-1.955,2.194l1.276,1.276a12.72,12.72,0,0,0,1.956-1.675,19.246,19.246,0,0,0,1.635-1.994,6.18,6.18,0,0,1,.8.637c.279.24.519.48.758.718.32.36.719.838,1.157,1.4a11.405,11.405,0,0,1,1.037,1.4l.8-1.075.8-1.037C3915.708,322.13,3915.468,321.81,3915.15,321.491Z" transform="translate(-3821.141 -285.26)"/><path class="b" d="M3916.545,311.038v.4a.541.541,0,0,1,.48.36,1.864,1.864,0,0,1,.2.837v3.312h-2.832v2.193h2.832V328.79h2.673V311.038Z" transform="translate(-3821.141 -285.26)"/><path class="b" d="M3939.324,311.6v3.472h-7.859V311.6h-3.511v.4c.16,0,.32.119.439.359a1.647,1.647,0,0,1,.2.757v9.535h13.563V311.6Zm0,8.856h-7.859v-3.231h7.859Z" transform="translate(-3821.141 -285.26)"/><path class="b" d="M3935.374,325.08h-8.337v2.235h16.714V325.08Z" transform="translate(-3821.141 -285.26)"/><path class="b" d="M3958.471,321.93V319.7h-8.256v-1.915h6.7v-6.263h-9.655v2.273h6.821v1.876H3946.7v.4c.2,0,.318.122.479.36a1.928,1.928,0,0,1,.158.8v4.708Z" transform="translate(-3821.141 -285.26)"/><path class="b" d="M3962.661,314.748v-3.669h-3.51v.4a.539.539,0,0,1,.478.36,1.582,1.582,0,0,1,.159.8v11.29h2.873v-6.942h2.792v-2.234Z" transform="translate(-3821.141 -285.26)"/><path class="b" d="M3961.145,326.637h-8.776v-3.471h-3.511v.4a.7.7,0,0,1,.518.359,1.76,1.76,0,0,1,.12.6v4.35h13.6v-2.234Z" transform="translate(-3821.141 -285.26)"/><path class="b" d="M3975.346,317.342a19.213,19.213,0,0,1,3.191,2.033,11.643,11.643,0,0,1,2.712,2.873l2.234-1.994a14.036,14.036,0,0,0-3.229-2.552,17.655,17.655,0,0,0-3.831-1.837,13.963,13.963,0,0,0,1.2-2.153,12.451,12.451,0,0,0,.719-2.275h-4.827v.4c.279,0,.478.158.678.517a1.227,1.227,0,0,1,.04,1.117,13.1,13.1,0,0,1-2.474,4.029,15.275,15.275,0,0,1-4.068,3.431l1.2,1.277a18.639,18.639,0,0,0,3.509-2.116,19.263,19.263,0,0,0,2.953-2.751Zm8.617,9.973V325.08h-16.754v2.235Z" transform="translate(-3821.141 -285.26)"/><path class="b" d="M3999.56,311.079v.4a.537.537,0,0,1,.479.36,1.585,1.585,0,0,1,.158.8v.919h-3.311v-2.035h-2.871v2.552h-4.228v-2.552h-3.472v.4c.16,0,.32.12.44.358a1.682,1.682,0,0,1,.2.8v7.62h9.931v-.879h3.311v2.194h2.873V311.079Zm-5.545,7.38h-4.228v-2.2h4.228Zm6.182-.918h-3.311v-1.755h3.311Z" transform="translate(-3821.141 -285.26)"/><path class="b" d="M4001.475,323.206a9.521,9.521,0,0,0-2.912-.877,13.106,13.106,0,0,0-6.662.678,1.773,1.773,0,0,0-.4.2c-1.357.678-2.075,1.516-2.075,2.472,0,1,.718,1.795,2.075,2.514.12.04.279.119.4.16a11.63,11.63,0,0,0,4.587.838,17.06,17.06,0,0,0,2.075-.12,10.772,10.772,0,0,0,2.912-.878c1.357-.719,2.074-1.516,2.074-2.514C4003.549,324.722,4002.832,323.884,4001.475,323.206Zm-2.194,3.551a2.2,2.2,0,0,1-.718.238,8.266,8.266,0,0,1-2.075.24,7.18,7.18,0,0,1-2.792-.478c-.759-.279-1.156-.679-1.156-1.079s.4-.757,1.156-1.076a7.162,7.162,0,0,1,2.792-.478,8.27,8.27,0,0,1,2.075.238c.238.081.519.159.718.24.758.319,1.156.678,1.156,1.076S4000.039,326.478,3999.281,326.757Z" transform="translate(-3821.141 -285.26)"/><path class="b" d="M4018.868,326.676h-6.621v-3.551h-3.472v.4c.16,0,.279.12.44.321a1.867,1.867,0,0,1,.2.837v4.189h14.6v-2.2Z" transform="translate(-3821.141 -285.26)"/><path class="b" d="M4020.9,318.06v6.782h2.831V311.079h-3.511v.4a.536.536,0,0,1,.479.36,1.561,1.561,0,0,1,.2.8v3.231h-2.594v2.2h2.594Z" transform="translate(-3821.141 -285.26)"/><path class="b" d="M4013.124,321.291v3.431h2.832v-3.431h3.51v-2.234h-12.606v2.234h6.265Z" transform="translate(-3821.141 -285.26)"/><path class="b" d="M4008.9,317.3a6.924,6.924,0,0,0,7.539,0,3.108,3.108,0,0,0,0-5.385,6.919,6.919,0,0,0-7.539,0,3.068,3.068,0,0,0,0,5.385Zm1.994-4.029a2.935,2.935,0,0,1,1.754-.52,2.779,2.779,0,0,1,1.756.52,1.712,1.712,0,0,1,.718,1.316,1.621,1.621,0,0,1-.718,1.357,2.8,2.8,0,0,1-1.756.558,2.971,2.971,0,0,1-1.754-.558,1.617,1.617,0,0,1-.719-1.357A1.708,1.708,0,0,1,4010.89,313.273Z" transform="translate(-3821.141 -285.26)"/><path class="b" d="M3909.405,341.835a3.417,3.417,0,0,1-1.357-.24.354.354,0,0,1-.2-.318c0-.36.039-.757.079-1.237,0-.159.04-.24.08-.24.08,0,.12.04.12.161a1.2,1.2,0,0,0,.079.478,1.228,1.228,0,0,0,1.317.917,1.272,1.272,0,0,0,.958-.319,1,1,0,0,0,.318-.718,2.04,2.04,0,0,0-.917-1.516l-.439-.319a3.067,3.067,0,0,1-1.4-2.235,1.569,1.569,0,0,1,.6-1.275,2.45,2.45,0,0,1,1.6-.479,4.572,4.572,0,0,1,1.237.159c.079,0,.119.041.119.081v.358a4.825,4.825,0,0,0-.04.8c0,.159-.04.279-.079.279-.081,0-.12-.079-.12-.2a.958.958,0,0,0-.24-.6,1.209,1.209,0,0,0-1-.478,1.322,1.322,0,0,0-.838.279.855.855,0,0,0-.279.718.9.9,0,0,0,.2.6,3.352,3.352,0,0,0,.759.718l.279.2a5.608,5.608,0,0,1,1.2,1.2,2.117,2.117,0,0,1,.36,1.2,1.81,1.81,0,0,1-.918,1.636A2.686,2.686,0,0,1,3909.405,341.835Z" transform="translate(-3821.141 -285.26)"/><path class="b" d="M3913.993,338.962v-3.629a.488.488,0,0,0-.4-.519.882.882,0,0,0-.359-.04c-.12,0-.16-.039-.16-.079s.04-.08.2-.08h.757c.319,0,.519.039.6.039,1.476,0,2.234-.039,2.314-.039a1.366,1.366,0,0,0,.439-.04.3.3,0,0,1,.12-.041.086.086,0,0,1,.078.081.4.4,0,0,1-.039.159c0,.12-.039.279-.039.439,0,.2-.041.4-.041.639-.04.078-.04.078-.12.078-.04,0-.04,0-.079-.078v-.2c0-.079-.04-.118-.04-.159-.08-.2-.279-.319-.639-.358-.2,0-.638-.041-1.316-.041-.04,0-.08.041-.08.12v2.353c0,.081.04.12.08.12.838,0,1.357-.039,1.477-.039s.2,0,.239-.04a.437.437,0,0,0,.239-.08.29.29,0,0,1,.119-.12c.041,0,.08,0,.08.039a.548.548,0,0,1-.039.2c0,.159-.041.318-.041.519a5.38,5.38,0,0,0-.04.6c0,.118-.039.2-.079.2s-.08-.039-.08-.118a1.277,1.277,0,0,0-.04-.32c-.04-.2-.239-.319-.519-.358-.2,0-.638-.041-1.356-.041a.178.178,0,0,0-.04.12v2.194a.73.73,0,0,0,.24.637,1.991,1.991,0,0,0,.877.122,3.745,3.745,0,0,0,.878-.081.945.945,0,0,0,.439-.719c0-.079.04-.118.079-.118.081,0,.081.039.081.159a4.351,4.351,0,0,1-.12,1.038c0,.118-.081.2-.12.2a.8.8,0,0,1-.359.039c-.558,0-1.117,0-1.636-.039H3913.4c-.12,0-.2,0-.2-.081,0-.039.081-.08.2-.08s.2-.038.278-.038c.16-.041.24-.2.279-.52C3913.993,340.718,3913.993,340.079,3913.993,338.962Z" transform="translate(-3821.141 -285.26)"/><path class="b" d="M3921.452,341.236l-2.393-5.7a1.5,1.5,0,0,0-.279-.519,1.119,1.119,0,0,0-.44-.2.875.875,0,0,0-.358-.04c-.08,0-.12-.039-.12-.079s.12-.08.279-.08h.718c.319,0,.519.039.639.039a3.4,3.4,0,0,1,.478-.039h.679c.119,0,.2.039.2.08s-.04.079-.16.079a.783.783,0,0,0-.359.081.232.232,0,0,0-.079.2,5.312,5.312,0,0,0,.2.718l1.635,4.23h.041c.519-1.318,1.156-2.873,1.835-4.668a1.9,1.9,0,0,0,.079-.319.186.186,0,0,0-.119-.2.891.891,0,0,0-.36-.04c-.119,0-.159-.039-.159-.079s.08-.08.24-.08h.638a1.283,1.283,0,0,1,.359.039,2.376,2.376,0,0,1,.4-.039h.478c.12,0,.2.039.2.08s-.04.079-.16.079a.64.64,0,0,0-.439.12,1.718,1.718,0,0,0-.558.838c-.2.479-.559,1.317-1.117,2.552l-1.237,2.833a2.91,2.91,0,0,1-.24.559.2.2,0,0,1-.2.159c-.041,0-.08-.041-.16-.12A3.183,3.183,0,0,0,3921.452,341.236Z" transform="translate(-3821.141 -285.26)"/><path class="b" d="M3926.718,338.962v-3.629c-.04-.28-.159-.478-.439-.519a.883.883,0,0,0-.359-.04c-.08,0-.16-.039-.16-.079s.08-.08.2-.08h.8a4.641,4.641,0,0,1,.559.039c1.476,0,2.273-.039,2.354-.039a1.225,1.225,0,0,0,.4-.04.617.617,0,0,1,.159-.041c.04,0,.04.041.04.081v.159a1.492,1.492,0,0,0-.04.439c-.039.2-.039.4-.079.639,0,.078-.04.078-.08.078s-.08,0-.08-.078a1.756,1.756,0,0,0-.04-.2c0-.079,0-.118-.039-.159a.664.664,0,0,0-.6-.358c-.239,0-.678-.041-1.357-.041-.039,0-.039.041-.039.12v2.353c0,.081,0,.12.039.12.878,0,1.357-.039,1.516-.039.12,0,.2,0,.24-.04a.313.313,0,0,0,.2-.08c.079-.081.119-.12.159-.12s.08,0,.08.039a.837.837,0,0,0-.04.2,2.107,2.107,0,0,0-.04.519,5.38,5.38,0,0,0-.04.6c0,.118-.04.2-.08.2a.1.1,0,0,1-.119-.118v-.32a.6.6,0,0,0-.559-.358c-.159,0-.6-.041-1.317-.041-.039,0-.039.041-.039.12v2.194a.861.861,0,0,0,.2.637,2.219,2.219,0,0,0,.918.122,4.046,4.046,0,0,0,.878-.081.917.917,0,0,0,.4-.719c.04-.079.08-.118.12-.118s.079.039.079.159a4.339,4.339,0,0,1-.119,1.038c-.04.118-.08.2-.12.2a1.02,1.02,0,0,1-.4.039c-.518,0-1.076,0-1.595-.039h-2.155c-.159,0-.2,0-.2-.081,0-.039.08-.08.2-.08.08,0,.2-.038.28-.038.16-.041.239-.2.279-.52C3926.718,340.718,3926.718,340.079,3926.718,338.962Z" transform="translate(-3821.141 -285.26)"/><path class="b" d="M3952.847,334.615h-.6a1.114,1.114,0,0,0-.319.039,3.407,3.407,0,0,0-.48-.039h-.637c-.2,0-.279.039-.279.08s.079.079.158.079c.239,0,.4.04.519.04a.78.78,0,0,1,.279.4,2.654,2.654,0,0,0,.041.479l.08,4.189h-.041c-.757-.758-1.437-1.477-2.074-2.116-1.436-1.475-2.393-2.472-2.912-3.03-.16-.2-.28-.28-.319-.28-.081,0-.12.079-.12.319l-.12,5.545a4.042,4.042,0,0,1-.039.838c-.04.2-.12.279-.24.32-.12,0-.2.038-.319.038a.533.533,0,0,0-.159.021.153.153,0,0,0-.081-.021,1.3,1.3,0,0,1-.4-.038c-.318-.041-.558-.4-.837-1-.957-2.394-1.755-4.309-2.314-5.784-.08-.2-.159-.279-.239-.279s-.159.079-.24.319l-.039.039-2.354,5.9a2.378,2.378,0,0,1-.279.559,1.1,1.1,0,0,1-.149.124,2.972,2.972,0,0,1-.689-.482c-.239-.28-.518-.638-.878-1.078-.079-.079-.478-.558-1.156-1.4a2.8,2.8,0,0,0,1.237-2.114,1.4,1.4,0,0,0-.2-.8,1.7,1.7,0,0,0-.439-.478,2.819,2.819,0,0,0-1.476-.4h-.878c-.358,0-.557.039-.677.039a3.646,3.646,0,0,0-.519-.039h-.758c-.16,0-.2.039-.2.08s.039.079.159.079a.884.884,0,0,1,.359.04.488.488,0,0,1,.4.519v3.629c0,1.117,0,1.756-.04,1.995-.04.32-.119.479-.279.52-.08,0-.16.038-.28.038s-.2.041-.2.08c0,.081.08.081.2.081h2.514c.119,0,.2,0,.2-.081,0-.039-.04-.08-.12-.08a1.868,1.868,0,0,1-.438-.038c-.239,0-.359-.2-.4-.52,0-.28-.04-.917-.04-1.995v-.118a.085.085,0,0,1,.08-.08h.837a.141.141,0,0,1,.08.039c.04,0,.04.041.081.041.358.478.637.917.916,1.275a5.681,5.681,0,0,0,1.277,1.4,1.663,1.663,0,0,0,.6.143.414.414,0,0,0,.157.018h2.074c.121,0,.16,0,.16-.081,0-.039-.039-.08-.12-.08h-.159c-.239,0-.359-.079-.359-.279a1.978,1.978,0,0,1,.12-.559l.518-1.355c.039-.039.039-.08.08-.08h2.114a.087.087,0,0,1,.08.08l.758,1.994a.144.144,0,0,1-.08.2c-.12,0-.16.041-.16.08s.119.081.28.081h2.113a.174.174,0,0,0,.059-.01.571.571,0,0,0,.142.01h2.153c.161,0,.24,0,.24-.081,0-.039-.079-.08-.279-.08a2.584,2.584,0,0,0-.358-.038q-.3-.12-.362-1.079l-.079-3.908h.04c.24.28.519.559.8.877.519.559,1,1.078,1.4,1.477,1.278,1.235,2.2,2.154,2.793,2.751a.411.411,0,0,0,.318.2c.082,0,.122-.079.122-.279l.079-5.9a5.081,5.081,0,0,1,.078-.519.524.524,0,0,1,.559-.319c.121,0,.161-.039.161-.079S3953.007,334.615,3952.847,334.615Zm-17.632,3.551a1.359,1.359,0,0,1-.479.158h-.2a3.638,3.638,0,0,1-.718-.079.206.206,0,0,1-.08-.16v-2.872c0-.04.04-.079.04-.12a1.657,1.657,0,0,1,.558-.04,1.228,1.228,0,0,1,.4.04,1.412,1.412,0,0,1,.519.32,1.831,1.831,0,0,1,.518,1.357A1.64,1.64,0,0,1,3935.215,338.166Zm6.782.6h-1.716c-.039,0-.039,0-.039-.04l.877-2.314c0-.04,0-.08.039-.08a.139.139,0,0,1,.041.08l.837,2.314C3942.077,338.764,3942.036,338.764,3942,338.764Z" transform="translate(-3821.141 -285.26)"/><path class="b" d="M3958.512,341.835a4.832,4.832,0,0,1-3.231-1.036,3.525,3.525,0,0,1-1.157-2.755,3.19,3.19,0,0,1,1.117-2.552,4.137,4.137,0,0,1,2.95-1,7.939,7.939,0,0,1,1.357.08c.2.04.519.079.918.16.12,0,.16.039.16.12a.631.631,0,0,1-.04.159v.358c0,.279-.039.6-.039,1,0,.158-.041.2-.12.2-.041,0-.081-.041-.081-.2a1.147,1.147,0,0,0-.358-.837,1.745,1.745,0,0,0-.759-.44,3.538,3.538,0,0,0-1.156-.16,2.466,2.466,0,0,0-1.756.6,2.99,2.99,0,0,0-.877,2.393,3.434,3.434,0,0,0,1,2.513,2.789,2.789,0,0,0,1.955.838,5.934,5.934,0,0,0,.957-.079,1.328,1.328,0,0,0,.758-.44,1.386,1.386,0,0,0,.32-.639c.039-.118.079-.158.12-.158.079,0,.079.04.079.118a3.773,3.773,0,0,1-.04.559,3.36,3.36,0,0,1-.159.678.348.348,0,0,1-.24.279A4.349,4.349,0,0,1,3958.512,341.835Z" transform="translate(-3821.141 -285.26)"/><path class="b" d="M3962.66,338.962v-1.634c0-1.117,0-1.8-.04-1.995a.487.487,0,0,0-.4-.519.887.887,0,0,0-.36-.04c-.12,0-.159-.039-.159-.079s.079-.08.2-.08h.757c.321,0,.518.039.6.039,1.477,0,2.275-.039,2.354-.039a1.224,1.224,0,0,0,.4-.04.393.393,0,0,1,.16-.041.145.145,0,0,1,.039.081.4.4,0,0,1-.039.159c0,.12-.04.279-.04.439a3.735,3.735,0,0,1-.039.639c0,.078-.04.078-.081.078-.08,0-.08,0-.08-.078a.441.441,0,0,1-.04-.2c0-.079-.039-.118-.039-.159-.079-.2-.279-.319-.639-.358-.2,0-.639-.041-1.316-.041-.039,0-.08.041-.08.12v2.353c0,.081.041.12.08.12.838,0,1.357-.039,1.515-.039a.506.506,0,0,0,.24-.04.309.309,0,0,0,.2-.08c.079-.081.118-.12.159-.12s.041,0,.041.039a.524.524,0,0,1-.041.2,2.4,2.4,0,0,1-.041.519,4.87,4.87,0,0,1-.039.6c0,.118,0,.2-.079.2-.039,0-.079-.039-.079-.118a1.248,1.248,0,0,0-.041-.32c-.041-.2-.2-.319-.519-.358-.159,0-.6-.041-1.316-.041-.039,0-.08.041-.08.12v2.194c.041.319.08.518.24.637a1.992,1.992,0,0,0,.877.122,4.5,4.5,0,0,0,.918-.081.914.914,0,0,0,.4-.719c.041-.079.041-.118.121-.118.039,0,.079.039.079.159a4.455,4.455,0,0,1-.118,1.038c-.041.118-.082.2-.161.2-.04.039-.16.039-.358.039-.559,0-1.078,0-1.636-.039h-2.155c-.119,0-.2,0-.2-.081,0-.039.08-.08.238-.08.081,0,.161-.038.279-.038.122-.041.24-.2.24-.52A15.794,15.794,0,0,0,3962.66,338.962Z" transform="translate(-3821.141 -285.26)"/><path class="b" d="M3974.469,337.607h3.59a.086.086,0,0,0,.079-.08v-.2c0-1.117-.039-1.8-.039-1.995a.488.488,0,0,0-.4-.519.887.887,0,0,0-.36-.04c-.118,0-.158-.039-.158-.079s.04-.08.2-.08h.759c.319,0,.519.039.6.039a4.445,4.445,0,0,1,.519-.039h.637c.122,0,.2.039.2.08s-.04.079-.16.079a.775.775,0,0,0-.279.04c-.2.041-.32.2-.36.519v3.629c0,1.078,0,1.756.04,2.036s.161.438.361.479a2.375,2.375,0,0,0,.477.038c.121,0,.16.041.16.08,0,.081-.078.081-.2.081H3977.5c-.122,0-.2,0-.2-.081,0-.039.079-.08.2-.08s.2-.038.318-.038c.12-.041.2-.2.24-.52a15.883,15.883,0,0,0,.079-1.995v-.8a.085.085,0,0,0-.079-.081h-3.59c-.04,0-.04.04-.04.081v.8c0,1.078,0,1.756.04,2.036s.159.438.358.479a2.4,2.4,0,0,0,.479.038c.119,0,.158.041.158.08,0,.081-.079.081-.2.081h-2.635c-.118,0-.2,0-.2-.081,0-.039.08-.08.239-.08.081,0,.16-.038.28-.038.119-.041.2-.2.238-.52a15.57,15.57,0,0,0,.08-1.995v-1.634c0-1.117-.039-1.8-.039-1.995a.488.488,0,0,0-.4-.519.882.882,0,0,0-.358-.04c-.122,0-.161-.039-.161-.079s.079-.08.2-.08h.757c.32,0,.519.039.6.039a4.363,4.363,0,0,1,.517-.039h.639c.158,0,.2.039.2.08s-.041.079-.16.079a.78.78,0,0,0-.279.04c-.2.041-.318.2-.358.519v2.194C3974.429,337.566,3974.429,337.607,3974.469,337.607Z" transform="translate(-3821.141 -285.26)"/><path class="b" d="M3987.992,335.413a3.936,3.936,0,0,0-2.793-.918h-.041a3.633,3.633,0,0,0-2.951,1.237,3.81,3.81,0,0,0,0,4.866,3.6,3.6,0,0,0,2.912,1.237h.039a3.951,3.951,0,0,0,2.793-1.117,3.858,3.858,0,0,0,1.038-2.753A3.3,3.3,0,0,0,3987.992,335.413Zm-1.158,5.465a1.908,1.908,0,0,1-1.316.478,1.115,1.115,0,0,1-.36-.04,2.42,2.42,0,0,1-1.754-1,3.737,3.737,0,0,1-.759-2.473,3.048,3.048,0,0,1,.759-2.313,1.983,1.983,0,0,1,1.556-.6h.2a2.323,2.323,0,0,1,1.717.919,3.551,3.551,0,0,1,.8,2.472A3.335,3.335,0,0,1,3986.834,340.878Z" transform="translate(-3821.141 -285.26)"/><path class="b" d="M3991.9,341.835a3.27,3.27,0,0,1-1.355-.24.352.352,0,0,1-.2-.318c0-.36.04-.757.04-1.237.039-.159.079-.24.12-.24.08,0,.12.04.12.161a1.374,1.374,0,0,0,1.4,1.395,1.269,1.269,0,0,0,.957-.319,1,1,0,0,0,.319-.718,2.041,2.041,0,0,0-.918-1.516l-.437-.319a3.06,3.06,0,0,1-1.4-2.235,1.564,1.564,0,0,1,.6-1.275,2.447,2.447,0,0,1,1.595-.479,4.57,4.57,0,0,1,1.237.159c.079,0,.12.041.12.081v.358a4.712,4.712,0,0,0-.041.8c0,.159-.039.279-.079.279-.079,0-.12-.079-.12-.2a.966.966,0,0,0-.238-.6,1.236,1.236,0,0,0-1.038-.478,1.29,1.29,0,0,0-.8.279.878.878,0,0,0-.319.718.953.953,0,0,0,.24.6,3.3,3.3,0,0,0,.757.718l.279.2a5.625,5.625,0,0,1,1.2,1.2,2.107,2.107,0,0,1,.358,1.2,1.811,1.811,0,0,1-.917,1.636A2.688,2.688,0,0,1,3991.9,341.835Z" transform="translate(-3821.141 -285.26)"/><path class="b" d="M3996.488,338.962v-3.629c-.039-.28-.159-.478-.4-.519a.883.883,0,0,0-.359-.04c-.119,0-.158-.039-.158-.079s.039-.08.2-.08h.757c.319,0,.519.039.6.039.121,0,.32-.039.639-.039h.717a2.38,2.38,0,0,1,1.715.519,1.5,1.5,0,0,1,.48,1.115,2.173,2.173,0,0,1-.638,1.637,2.26,2.26,0,0,1-1.675.638h-.2c-.04-.04-.079-.04-.079-.079,0-.081.079-.121.24-.121a1.112,1.112,0,0,0,.837-.4,1.742,1.742,0,0,0,.437-1.156,1.8,1.8,0,0,0-.558-1.4,1.433,1.433,0,0,0-.956-.358c-.161,0-.279,0-.32.039-.081,0-.12.081-.12.16v3.749c0,1.078.039,1.756.039,2.036.041.279.161.438.4.479a2.021,2.021,0,0,0,.478.038c.08,0,.12.041.12.08,0,.081-.04.081-.161.081h-2.632c-.119,0-.2,0-.2-.081,0-.039.081-.08.2-.08s.2-.038.28-.038c.159-.041.239-.2.279-.52C3996.488,340.718,3996.488,340.079,3996.488,338.962Z" transform="translate(-3821.141 -285.26)"/><path class="b" d="M4002.631,338.962v-3.629c-.039-.28-.118-.478-.318-.519a.989.989,0,0,0-.358-.04c-.082,0-.122-.039-.122-.079,0-.08.04-.08.2-.08h.637c.32,0,.519.039.6.039s.239-.039.518-.039h.6c.16,0,.2,0,.2.08,0,.04-.04.079-.118.079a.674.674,0,0,0-.28.04c-.239.041-.361.2-.361.519,0,.2-.039.878-.039,1.995v1.634c0,1.117.039,1.8.039,2.075a.441.441,0,0,0,.4.44,2.02,2.02,0,0,0,.478.038c.08,0,.12.041.12.08,0,.081-.04.081-.161.081h-2.631c-.12,0-.2,0-.2-.081,0-.039.081-.08.2-.08s.2-.038.279-.038c.159-.041.239-.161.279-.44S4002.631,340.079,4002.631,338.962Z" transform="translate(-3821.141 -285.26)"/><path class="b" d="M4008.137,338.962v-3.828l-1.4.039c-.519,0-.8.081-.917.279a1.134,1.134,0,0,0-.161.319c-.039.081-.039.12-.119.12-.04,0-.081-.039-.081-.159a8.333,8.333,0,0,1,.2-1.078c.04-.12.079-.159.12-.159a.4.4,0,0,1,.16.039.493.493,0,0,0,.239.041,8.412,8.412,0,0,0,.957.079h3.71a3.442,3.442,0,0,0,.438-.079c.2,0,.36-.041.441-.041.039,0,.078.081.078.2v.519a4.044,4.044,0,0,0-.039.6c0,.078-.039.118-.079.118s-.082-.04-.082-.2l-.039-.079c0-.32-.4-.519-1.076-.519l-1.2-.039v3.828c0,1.078,0,1.756.04,2.036s.161.438.36.479a2.387,2.387,0,0,0,.478.038c.119,0,.16.041.16.08,0,.081-.041.081-.16.081H4007.5c-.12,0-.159,0-.159-.081,0-.039.039-.08.2-.08.079,0,.158-.038.279-.038.119-.041.239-.2.28-.52C4008.1,340.677,4008.137,340.04,4008.137,338.962Z" transform="translate(-3821.141 -285.26)"/><path class="b" d="M4018.988,341.515a1.3,1.3,0,0,1-.4-.038c-.278-.041-.557-.4-.836-1-.958-2.394-1.717-4.309-2.314-5.784-.079-.2-.16-.279-.24-.279-.04,0-.158.079-.24.319v.039l-2.352,5.9a2.336,2.336,0,0,1-.319.559.728.728,0,0,1-.479.279h-.28c-.079,0-.12.041-.12.08,0,.081.041.081.16.081h2.115c.079,0,.16,0,.16-.081,0-.039-.041-.08-.16-.08h-.12c-.279,0-.4-.079-.4-.279a2.452,2.452,0,0,1,.16-.559l.519-1.355a.086.086,0,0,1,.079-.08H4016a.088.088,0,0,1,.08.08l.758,1.994c.039.081.039.161-.079.2-.079,0-.12.041-.12.08s.08.081.279.081h2.114a.087.087,0,0,0,.079-.081C4019.106,341.556,4019.066,341.515,4018.988,341.515Zm-3.152-2.751h-1.756c-.04,0-.04,0-.04-.04l.878-2.314a.141.141,0,0,1,.039-.08c.041,0,.041.04.082.08l.838,2.314C4015.877,338.764,4015.877,338.764,4015.836,338.764Z" transform="translate(-3821.141 -285.26)"/><path class="b" d="M4021.261,337.328v1.634a11.211,11.211,0,0,0,.039,1.4.947.947,0,0,0,.161.639,2.086,2.086,0,0,0,1.117.2c.6,0,.956-.081,1.117-.281a1.051,1.051,0,0,0,.24-.558.1.1,0,0,1,.118-.119c.04,0,.04.04.04.158a5.026,5.026,0,0,1-.119,1.079.358.358,0,0,1-.24.238h-.358c-.479,0-1.038,0-1.6-.039h-2.314c-.12,0-.2,0-.2-.081,0-.039.079-.08.24-.08.079,0,.157-.038.279-.038.118-.041.24-.2.279-.52,0-.239.04-.878.04-1.995v-1.634c0-1.117,0-1.8-.04-1.995a.539.539,0,0,0-.2-.478,1.354,1.354,0,0,0-.519-.081c-.079,0-.16-.039-.16-.079s.081-.08.24-.08h.679c.318,0,.519.039.6.039a4.648,4.648,0,0,1,.559-.039h.718c.12,0,.2.039.2.08s-.079.079-.2.079a1.091,1.091,0,0,0-.358.04c-.2.041-.321.2-.321.519C4021.261,335.533,4021.261,336.211,4021.261,337.328Z" transform="translate(-3821.141 -285.26)"/><path class="c" d="M3896.759,313.433a10.826,10.826,0,0,0-.758-1.117,11.409,11.409,0,0,0-1.076-1.357c-.359-.438-.719-.838-1.117-1.237-.479-.479-.958-.918-1.476-1.356-.2-.16-.4-.319-.639-.479-.6-.478-1.237-.918-1.875-1.356a12.23,12.23,0,0,0-1.236-.678,12.891,12.891,0,0,0-1.277-.639,9.046,9.046,0,0,0-.877-.4,2.6,2.6,0,0,1-.32-.12,3.49,3.49,0,0,0-.6-.2,18.963,18.963,0,0,0-2.952-.837,22.187,22.187,0,0,0-4.349-.4,25.353,25.353,0,0,0-3.909.318,21.438,21.438,0,0,0-3.151.838,8.969,8.969,0,0,0-.957.319c-.16.08-.359.159-.559.239l-1.077.478c-.478.24-1,.519-1.476.8l-1.316.837a9.347,9.347,0,0,0-1,.758,7.6,7.6,0,0,0-.877.678c-.519.479-1.037.959-1.516,1.477a16.86,16.86,0,0,0-1.875,2.233,21.842,21.842,0,0,0,0,26.049,20.1,20.1,0,0,0,1.875,2.236,17.451,17.451,0,0,0,1.516,1.435c.279.238.559.478.877.718s.638.478,1,.718a12.166,12.166,0,0,0,1.316.837c.479.28,1,.559,1.476.8a6.5,6.5,0,0,0,1.077.478c.2.08.4.159.559.239l.957.36a21.548,21.548,0,0,0,3.151.8,21.221,21.221,0,0,0,3.909.36,22.266,22.266,0,0,0,4.349-.441,24.7,24.7,0,0,0,2.952-.8c.2-.081.4-.16.6-.24a2.965,2.965,0,0,1,.32-.12c.278-.118.6-.238.877-.358a12.878,12.878,0,0,0,1.277-.639c.439-.238.837-.478,1.236-.718a19.818,19.818,0,0,0,1.875-1.316,4.012,4.012,0,0,0,.639-.519,23.546,23.546,0,0,0,2.593-2.554A11.23,11.23,0,0,0,3896,338.2c.279-.359.519-.759.758-1.117a21.924,21.924,0,0,0,3.471-11.847A21.688,21.688,0,0,0,3896.759,313.433ZM3896,337.128a12.409,12.409,0,0,1-1.076,1.475c-.359.44-.719.878-1.117,1.278a16.86,16.86,0,0,1-1.476,1.435,4.066,4.066,0,0,1-.639.519,20.539,20.539,0,0,1-1.875,1.4,12.293,12.293,0,0,1-1.236.718,12.49,12.49,0,0,1-1.277.678c-.279.12-.6.28-.877.4a2.459,2.459,0,0,0-.32.119l-.6.239c-.957.32-1.955.6-2.952.837a22.264,22.264,0,0,1-4.349.441,21.4,21.4,0,0,1-7.06-1.2l-.957-.36c-.16-.078-.359-.159-.559-.238-.359-.159-.718-.32-1.077-.519a13.553,13.553,0,0,1-1.476-.837c-.439-.28-.877-.559-1.316-.878a9.343,9.343,0,0,1-1-.758c-.318-.24-.6-.478-.877-.718-.519-.519-1.037-1-1.516-1.556a16.145,16.145,0,0,1-1.875-2.393,21.157,21.157,0,0,1,0-23.935,21.655,21.655,0,0,1,1.875-2.394c.479-.518,1-1.037,1.516-1.516.279-.239.559-.518.877-.758s.638-.519,1-.758c.439-.319.877-.6,1.316-.878.479-.279,1-.558,1.476-.837l1.077-.478c.2-.081.4-.161.559-.24q.479-.18.957-.358a21.438,21.438,0,0,1,3.151-.838,21.134,21.134,0,0,1,3.909-.36,22.343,22.343,0,0,1,4.349.439,19.3,19.3,0,0,1,2.952.838c.2.079.4.159.6.24a3.007,3.007,0,0,0,.32.118,8.833,8.833,0,0,1,.877.4,16.7,16.7,0,0,1,2.513,1.395,20.666,20.666,0,0,1,1.875,1.358c.24.158.438.358.639.518.518.478,1,.957,1.476,1.435.4.439.758.879,1.117,1.318a16.54,16.54,0,0,1,1.076,1.435c.279.4.519.838.758,1.237a21.186,21.186,0,0,1,0,21.3A12.756,12.756,0,0,1,3896,337.128Z" transform="translate(-3821.141 -285.26)"/><path class="c" d="M3896.759,315.147a13.4,13.4,0,0,0-.758-1.276,12.839,12.839,0,0,0-1.076-1.516c-.359-.479-.719-.918-1.117-1.356-.479-.519-.958-1-1.476-1.476-.2-.16-.4-.359-.639-.519a20.727,20.727,0,0,0-1.875-1.4,23.568,23.568,0,0,0-2.513-1.435c-.279-.122-.6-.28-.877-.4a2.8,2.8,0,0,1-.32-.118c-.2-.081-.4-.161-.6-.24a21.136,21.136,0,0,0-7.3-1.276,21.134,21.134,0,0,0-3.909.359,21.438,21.438,0,0,0-3.151.838q-.478.177-.957.358c-.16.079-.359.16-.559.24-.359.159-.718.319-1.077.519-.478.279-1,.557-1.476.836-.439.279-.877.6-1.316.918a9.471,9.471,0,0,0-1,.757c-.318.242-.6.521-.877.759-.519.478-1.037,1.037-1.516,1.557a18.268,18.268,0,0,0-1.875,2.472,20.957,20.957,0,0,0,0,22.978,16.032,16.032,0,0,0,1.875,2.473,18.515,18.515,0,0,0,1.516,1.556,7.924,7.924,0,0,0,.877.757,9.838,9.838,0,0,0,1,.8c.439.318.877.6,1.316.877.479.319,1,.6,1.476.877.359.159.718.32,1.077.478.2.08.4.2.559.279l.957.36a21.371,21.371,0,0,0,7.06,1.2,22.343,22.343,0,0,0,4.349-.44,24.669,24.669,0,0,0,2.952-.877,3.493,3.493,0,0,0,.6-.2,2.592,2.592,0,0,1,.32-.12c.278-.159.6-.279.877-.438a12.466,12.466,0,0,0,1.277-.639c.439-.24.837-.519,1.236-.757.638-.44,1.277-.918,1.875-1.4.24-.2.438-.358.639-.558.518-.478,1-.956,1.476-1.476.4-.438.758-.878,1.117-1.315A17.741,17.741,0,0,0,3896,336.65c.279-.439.519-.879.758-1.317a20.939,20.939,0,0,0,0-20.186Zm-.758.917-.039-.039c0-.079,0-.119.039-.119.04-.041.081.04.12.079l.2.48.12.158.119.279s.04.08,0,.121-.08,0-.119-.041l-.041-.12c-.079-.079-.12-.079-.239,0-.04,0-.079.04-.16.04a4.337,4.337,0,0,1-.638.32s-.239.12-.438.2a.6.6,0,0,1-.2.119,5.742,5.742,0,0,0-.758.4.185.185,0,0,0-.12.2l.08.16.04.079-.04.04h-.04l-.079-.04-.2-.438-.08-.159-.08-.16-.159-.279c-.04-.08,0-.12.04-.12l.04-.041.04.081.079.119c.04.041.08.041.2,0,.04,0,.079-.039.12-.039.159-.08.4-.2.677-.319l.44-.2.2-.12.757-.36a.456.456,0,0,0,.12-.079.143.143,0,0,0,.04-.119Zm-2.712-1.156v-.239c.04-.558.159-.878.478-1.077l.041-.039a.84.84,0,0,1,1.117.358.038.038,0,0,1,.039.039,2.64,2.64,0,0,1,.24.48s.039.08,0,.118h-.08l-.2.161-.16.08c-.04.038-.12.079-.16.038,0-.038-.039-.079.04-.118a.615.615,0,0,0,.16-.24.491.491,0,0,0-.08-.438.407.407,0,0,0-.319-.2c-.08-.041-.16,0-.239.039-.16.12-.2.24-.24.677v.121a1.494,1.494,0,0,1-.119.679.949.949,0,0,1-1.2.6c-.08-.081-.2-.12-.279-.2a1.6,1.6,0,0,1-.24-.279,1.66,1.66,0,0,1-.239-.558v-.04c0-.041,0-.079.08-.12a2.4,2.4,0,0,1,.4-.238l.039-.041c.041-.039.12-.079.16,0v.041l-.04.079c-.04,0-.079.08-.159.12v.039a.534.534,0,0,0,0,.6v.039a.446.446,0,0,0,.638.16A.752.752,0,0,0,3893.289,314.908Zm-2.314-3.709.559-.6c.12-.119.12-.159.04-.279l-.081-.079-.039-.08v-.04l.039-.039c.041,0,.081.039.12.079l.08.08.2.2.08.081.36.358.08.041a1.454,1.454,0,0,1,.4.677.678.678,0,0,1-.2.6.607.607,0,0,1-.279.2,1.4,1.4,0,0,1-.639.12c-.039,0-.08-.04-.119-.04v.2c-.04.479-.12.838-.12,1.158a.671.671,0,0,0,.12.478l.08.08c.039.04.039.04.039.079a.04.04,0,0,1-.039.041h-.041l-.079-.041-.28-.24a.881.881,0,0,1-.239-.4.514.514,0,0,1-.04-.24c0-.159.04-.36.04-.558l.08-.36.039-.319v-.08s-.239-.2-.239-.238l-.04.039a3.807,3.807,0,0,0-.6.639c-.08.038-.08.079-.08.118s0,.081.04.081l.12.159v.12h-.04l-.08-.04-.319-.32-.08-.08-.039-.038-.12-.081-.24-.239-.04-.079.04-.041.04-.04.08.04.08.08c.04.04.119,0,.2-.039v-.041a5.472,5.472,0,0,0,.638-.559A6.49,6.49,0,0,1,3890.975,311.2Zm-2.712-2.035c.159-.238.239-.4.319-.518a.364.364,0,0,0,.119-.2c.08-.12.08-.159,0-.24l-.119-.08v-.04l-.04-.039v-.04a.039.039,0,0,1,.04-.039c.039,0,.08.039.119.039l.279.2.16.12c.08.04.439.32.678.439a.688.688,0,0,0,.16.12l.159.078h.04l.04.041a.054.054,0,0,1,0,.079l-.04.041-.119.16-.04.079-.12.121a.125.125,0,0,1-.08.039h-.039l-.041-.039.041-.08a.145.145,0,0,0,.039-.081v-.159c-.039-.04-.039-.081-.119-.12a4.166,4.166,0,0,0-.439-.319h-.04l-.558.838c.279.2.478.319.518.358a.666.666,0,0,0,.2.081c.04-.04.08-.04.08,0h.04v.08h-.04l-.159.2-.16.24c-.04,0-.08.078-.119.039s-.041-.039-.041-.08l.041-.04.039-.079v-.08c0-.04,0-.081-.08-.16-.039-.039-.279-.2-.4-.279-.04,0-.04-.039-.08-.039l-.16.279-.119.118-.24.4a.224.224,0,0,0-.079.2c0,.079.079.159.279.279a1.471,1.471,0,0,0,.319.2h.08a.7.7,0,0,0,.2-.161c.04,0,.08-.039.12-.039l.04.039-.04.12a2.266,2.266,0,0,1-.28.32.038.038,0,0,0-.039.039c-.08.04-.12.04-.24-.039l-.678-.479-.239-.2-.12-.04-.039-.039-.28-.2-.079-.039.039-.08h.12l.12.08a.147.147,0,0,0,.119-.039c0-.041.04-.041.04-.081.119-.12.279-.4.518-.677Zm-3.75-3.072.04-.041a.143.143,0,0,1,.119.041l.319.16.2.079.159.08.16.041.16.079a.143.143,0,0,1,.08.041v.038c0,.041-.041.08-.12.041-.04,0-.08-.041-.12-.041a.04.04,0,0,0-.04.041c-.04.039-.04.12-.04.318,0,0-.08,1.8-.08,1.916.041-.04.08-.081.16-.16a3.324,3.324,0,0,1,.4-.4l.2-.2.32-.319.4-.438.081-.081v-.079l-.12-.079a.088.088,0,0,1-.081-.08c.041-.081.12-.041.16-.041l.32.161.08.039h.039l.08.04.239.08c0,.04.08.08.08.12l-.04.039h-.08a.3.3,0,0,0-.2-.039.126.126,0,0,0-.08.039,2.88,2.88,0,0,0-.239.2l-.479.437-.159.161-.24.2-.08.081-.6.558-.319.319h-.04c-.16.159-.2.2-.28.2-.079-.04-.079-.119-.039-.319v-2.672a.41.41,0,0,0-.12-.4l-.159-.04-.04-.08Zm-2.912,2.354.079-.041.16.041c.04,0,.08-.041.119-.159.08-.161.12-.48.24-.838l.16-.678.2-.838v-.161l-.08-.079-.119-.039-.08-.04v-.08h.12l.159.039.359.081.2.039.28.079c.04,0,.12.041.12.081l-.041.04h-.2c-.08,0-.119.04-.16.158l-.2.838-.2.678a5.3,5.3,0,0,0-.159.879v.079c0,.041,0,.08.08.121l.2.038.08.041v.04c0,.039-.04.08-.119.039l-.24-.039-.2-.04-.2-.041-.159-.038-.32-.08-.079-.041Zm-4.309-.439h.16c.08,0,.119-.12.119-.479l.16-2.354c0-.079,0-.159.04-.159l.04-.04.119.12.04.04a2.066,2.066,0,0,0,.239.279c.24.24.6.678.958,1.077l.6.639s.159.2.239.279v-1.795c0-.2,0-.279-.08-.32h-.2c-.08,0-.12-.039-.12-.08l.04-.04c0-.039.04-.039.12-.039l.359.039h.518c.04,0,.12,0,.12.081v.039l-.12.041h-.08c-.079,0-.119.079-.159.279l-.159,2.553c0,.039,0,.159-.08.159a.3.3,0,0,1-.16-.079l-.638-.68-.479-.558c-.239-.278-.518-.557-.679-.757a.838.838,0,0,1-.159-.24.039.039,0,0,1-.039-.04c0,.16-.041,1.636-.041,1.636v.04c0,.32.041.359.12.4h.16l.12.039v.04c0,.08-.08.08-.12.08h-.041l-.358-.039h-.559c-.039,0-.08,0-.08-.041l-.04-.04C3877.172,308.047,3877.212,308.007,3877.292,308.007Zm-4.627-2.194c.04,0,.08-.041.119-.041l.359-.079h.2l.2-.079.279-.041c.041,0,.12-.039.161.041,0,.04,0,.079-.081.079l-.119.04c-.08.039-.12.08-.08.239,0,0,.16.8.16.838l.12.519a1.36,1.36,0,0,0,.318.8c.041.041.12.08.16.121a.7.7,0,0,0,.478.04.751.751,0,0,0,.519-.28c.16-.279.08-.6,0-1.038l-.079-.478-.16-.837c-.04-.12-.08-.161-.2-.161h-.24v-.079c0-.039.04-.039.08-.039l.439-.081h.04l.119-.039.319-.081h.08a.039.039,0,0,1,.04.04c.04.08-.04.08-.08.121h-.12c-.079.04-.079.118-.079.238l.159.838.08.44a1.316,1.316,0,0,1-.16,1.275,1.342,1.342,0,0,1-.758.479,3.2,3.2,0,0,1-.638,0,.444.444,0,0,1-.318-.12c-.32-.159-.479-.478-.6-1l-.08-.6c-.12-.6-.16-.677-.2-.838-.041-.118-.08-.158-.16-.158l-.16.04-.079-.04-.04-.04Zm-4.228,1.8.119-.041.319-.158.2-.121.239-.118c.04-.04.12-.081.16,0v.039a.14.14,0,0,1-.08.04l-.08.08c-.04.04-.079.04-.079.08s.039.079.039.158a6.449,6.449,0,0,1,.359.68.139.139,0,0,1,.04.079,5.113,5.113,0,0,0,.359.637c.04.12.12.242.16.36a2.647,2.647,0,0,1,.239.4c.08.081.119.12.2.081l.2-.081h.08l.04.041s0,.04-.08.079l-.4.2-.16.118-.119.039-.04.041-.279.16a.12.12,0,0,1-.16-.04s0-.041.079-.08l.12-.081c.041-.039.041-.079,0-.2-.079-.12-.159-.319-.279-.559-.039-.08-.08-.159-.12-.238l-.318-.6-.4-.758c-.079-.158-.159-.158-.2-.119h-.04l-.119.04c-.041.039-.08,0-.12-.04C3868.317,307.689,3868.4,307.648,3868.437,307.608Zm-3.072,2.114a.086.086,0,0,1,.08-.08l.319-.238a1.376,1.376,0,0,1,.159-.12l.8-.6.12-.118.04-.041.039-.04.041.04.039.041a.582.582,0,0,0,.08.159.039.039,0,0,0,.04.04l.04.08.08.159a.055.055,0,0,1,0,.079.074.074,0,0,1-.12,0c0-.039,0-.039-.04-.079l-.04-.041c-.079-.037-.12-.037-.279.041a4.789,4.789,0,0,1-.479.319v.04l.638.8a.571.571,0,0,0,.16-.118c.24-.161.319-.24.359-.24.04-.081.08-.12.08-.161a.135.135,0,0,1,.04-.079l.04-.04.039.04.04.039.12.2.16.24.039.078-.039.04-.04.039-.04-.039-.04-.04-.08-.078c-.04-.041-.08-.041-.239.039-.04.039-.319.238-.439.319l.2.239.08.16.279.358c.16.2.24.2.559-.04a1.446,1.446,0,0,0,.279-.239c.04-.079,0-.16-.039-.319a.074.074,0,0,1,0-.12h.039l.08.04v.041a1.828,1.828,0,0,1,.239.358c.041.12,0,.159-.159.279l-.08.041-.559.4-.239.2-.159.12-.24.2-.119.041-.04-.041a.147.147,0,0,1,.04-.119l.119-.079c.04-.041,0-.12-.039-.24a3.406,3.406,0,0,0-.24-.319,2.164,2.164,0,0,0-.28-.359l-.4-.559c-.4-.519-.439-.6-.519-.677-.039-.08-.08-.08-.119-.121a.145.145,0,0,0-.12.041l-.159.08-.081.04-.039-.04Zm-1.675,1.477c.079-.081.119-.161.2-.2a.858.858,0,0,1,.239-.16s.04-.039.12,0l.039.04.28.32c.079.039.079.08.079.118v.041h-.079l-.08-.041a.511.511,0,0,0-.239-.079.53.53,0,0,0-.359.12l-.04.04a.474.474,0,0,0-.159.318.358.358,0,0,0,.119.28c.04,0,.04.041.08.041.119.078.279.078.6.039l.159-.039h.12a1.119,1.119,0,0,1,1,.159c.039.039.08.039.119.079a1.07,1.07,0,0,1,.24.639v.159a1.459,1.459,0,0,1-.32.6.04.04,0,0,0-.039.041,1.7,1.7,0,0,1-.479.319c-.079.039-.079.039-.16-.04l-.359-.36a.038.038,0,0,0-.039-.039s-.081-.08-.04-.12.04-.039.079-.039a.039.039,0,0,1,.04.039.855.855,0,0,0,.2.12.522.522,0,0,0,.639-.159l.12-.12a.722.722,0,0,0,.039-.24.3.3,0,0,0-.039-.2c-.04-.041-.04-.08-.08-.08-.16-.16-.319-.2-.718-.16l-.2.04h-.039a1.8,1.8,0,0,1-.838-.04.722.722,0,0,1-.28-.2.648.648,0,0,1-.239-.519A1.069,1.069,0,0,1,3863.69,311.2Zm-3.351,4.507c0-.039.079-.039.159-.039l.04-.04s.918-.161,1.755-.36l.08-.039.758-.159a2.047,2.047,0,0,0,.359-.081c-.16-.08-.758-.44-1.117-.678l-.4-.2c-.2-.12-.279-.12-.32-.08-.079.039-.119.119-.159.159,0,.039-.039.079-.079.039l-.041-.039a.146.146,0,0,1,.041-.12l.2-.279.08-.12.04-.079.159-.279a.087.087,0,0,1,.12-.04.039.039,0,0,1,.04.04c0,.039-.04.039-.04.079l-.04.08c0,.04-.04.04-.04.081s.08.118.24.2l.2.12,1.516,1,.4.279c.08.04.12.04.12.081v.079c-.04.041-.12.041-.2.08l-.319.079-.559.12-.758.2a.431.431,0,0,0-.2.04c-.439.08-.838.159-1.037.2h-.04c.079.039.678.4,1.077.639a2.3,2.3,0,0,0,.319.2c.279.161.359.161.4.12.08-.039.12-.12.159-.159l.04-.079.04.039c.08.04.04.079,0,.119l-.2.32-.08.12-.04.039-.159.321c-.04.039-.04.079-.08.079h-.04l-.04-.04.04-.08.04-.16.04-.041c0-.038-.08-.118-.359-.279l-.08-.079-1.875-1.2-.08-.041a.126.126,0,0,1-.119-.12A.039.039,0,0,0,3860.339,315.706Zm.159,15.358h-.12a.639.639,0,0,1,0-1.277h.12a.653.653,0,0,1,0,1.277Zm.8-8.057-.04.4v.2l-.04.2v.32a.139.139,0,0,1-.04.079l-.04.039-.039-.039-.04-.079V324c0-.08-.08-.12-.161-.12l-.4-.039-.359-.041a.612.612,0,0,0-.4.041c-.08,0-1,.478-1.237.6a.846.846,0,0,0-.279.239.3.3,0,0,0-.08.16.077.077,0,0,1-.079.079.088.088,0,0,1-.04-.12v-.2l.04-.319v-.12l.039-.318.04-.041.04-.04c.04,0,.04.04.04.12a.039.039,0,0,0,.04.04.241.241,0,0,0,.16-.04c.079-.039.758-.319,1.076-.479a.4.4,0,0,1,.12-.04,3.281,3.281,0,0,0-.479-.319c-.239-.159-.478-.318-.518-.358a.637.637,0,0,0-.2-.08c-.04,0-.04,0-.08.039,0,.041-.04.12-.08.12-.08-.039-.04-.079-.04-.12l.04-.4.04-.4v-.12h.04c.04,0,.08.041.08.12a.238.238,0,0,0,.04.159,2.061,2.061,0,0,0,.159.24,11.078,11.078,0,0,0,1.2.877.649.649,0,0,0,.4.081l.279.039h.04l.4.041c.12,0,.2-.041.2-.12l.04-.2c0-.079.04-.079.08-.079h.04Zm-.8-1.677a2.028,2.028,0,0,1-.519-.079,1.743,1.743,0,0,1-.957-.8,1.666,1.666,0,0,1-.08-1.316,1.769,1.769,0,0,1,.8-1.077,1.226,1.226,0,0,1,.758-.12.936.936,0,0,1,.439.08,1.6,1.6,0,0,1,1.077,2.114A1.6,1.6,0,0,1,3860.5,321.33Zm3.391,18.073c-.08.078-.24.2-.24.238-.04-.04-.758-.877-1.276-1.475a6.991,6.991,0,0,0-.519-.6,3.937,3.937,0,0,1,.519-.438l.12-.12c.079-.079.119-.2.079-.238,0-.041.04-.041.08-.081a6.812,6.812,0,0,0,.439.559,5.952,5.952,0,0,0-.519.438s1,1.2,1.317,1.556l.08.08Zm1.875-1.677c-.319.279-.719.6-1,.877a3.3,3.3,0,0,1-.438.359c0-.039-.359-.4-.359-.438.039-.04.677-.6.677-.6s-.318-.36-.478-.559a.692.692,0,0,1-.279-.039.954.954,0,0,1-.6-.36.975.975,0,0,1,.04-1.435.785.785,0,0,1,.559-.24,1.241,1.241,0,0,1,.877.358v.041a1.116,1.116,0,0,1,.279.836c.08.122.519.6.519.6l.12-.079c.04-.041.04-.081.08-.12,0-.08.039-.121,0-.159l.039-.041a6.138,6.138,0,0,0,.479.519C3866.282,337.287,3866.042,337.446,3865.764,337.726Zm3.231,4.068h-.039a1.852,1.852,0,0,1-.4.2,1.3,1.3,0,0,1-.519.159H3868a2.745,2.745,0,0,1-.119-.319,2.634,2.634,0,0,0,.678-.32,2.54,2.54,0,0,0,.957-1,.276.276,0,0,0-.039-.36.141.141,0,0,1,.039-.081.176.176,0,0,0,.12.04c.159.08.439.24.559.279a.135.135,0,0,1,.079.041c-.039.04-.039.081-.079.081a2.23,2.23,0,0,1-.559.8,1.635,1.635,0,0,1-.279.24v.039c.12.2.2.4.279.559a3.24,3.24,0,0,1,.159.479l-.159.079a1.111,1.111,0,0,1-.319.16A4.488,4.488,0,0,0,3869,341.794Zm.638,2.155a.413.413,0,0,1-.159-.039c0-.041.079-.16.159-.359.159-.32.4-.878.559-1.236.119-.2.2-.36.2-.36a1.518,1.518,0,0,0-.2-.08,1.2,1.2,0,0,0-.359-.16,2.122,2.122,0,0,1,.2-.438c0,.039.08.039.16.12a1.607,1.607,0,0,1,.358.159l.28-.6a.328.328,0,0,0,0-.28c0-.039,0-.039.04-.079a2.889,2.889,0,0,1,.279.16,1.031,1.031,0,0,1,.279.12s-.12.239-.279.6c-.279.559-.678,1.475-.957,2.034-.16.358-.239.6-.239.6A1.111,1.111,0,0,1,3869.633,343.949Zm1.516-.558c-.239.558-.479,1.038-.479,1.038a3.07,3.07,0,0,1-.478-.2.039.039,0,0,1-.04-.039.144.144,0,0,0,.04-.079c.159-.36.6-1.317.957-2.074.279-.6.479-1.038.479-1.079a5.24,5.24,0,0,0,.518.241C3872.146,341.236,3871.588,342.433,3871.149,343.391Zm8.657,2.393h-.559V343.67h-.239v2.114h-.559v-.679h-1.915v-2.472c0-.119-.08-.239-.159-.239v-.079h1.636v.437h-.918v1.915h1.356v-2.114c0-.12-.04-.238-.12-.238v-.081h.679v.958h.239v-.958h.559Zm4.786-3.39a.9.9,0,0,1,0-.718c-.2.08-.318.159-.359.159,0-.041-.159-.358-.159-.4l.758-.36v-.039c-.08-.08-.16-.159-.2-.12-.041,0-.041-.039-.041-.079.041,0,.639-.279.639-.279l.119.279.16-.08a3.427,3.427,0,0,1,.558-.279.122.122,0,0,0,.04.08,1.224,1.224,0,0,0,.16.319l-.16.079c-.079.041-.159.041-.239.119a.561.561,0,0,1,.239.081.812.812,0,0,1,.32.32v.038a.85.85,0,0,1,0,.759,2.585,2.585,0,0,1-.32.359c-.079.04-.12.079-.2.119a1.518,1.518,0,0,1-.4.12A.912.912,0,0,1,3884.592,342.394Zm3.232-.638c-.04.038-.479.239-.519.28v-.041c-.08-.16-.758-1.556-.758-1.556a.532.532,0,0,0-.119-.159h-.081v.039a.141.141,0,0,0-.039-.079.169.169,0,0,1,.12-.041,2.273,2.273,0,0,1,.518-.279c0,.041.24.519.359.757l.08.161.478-.24c.041,0,.16.319.2.359-.04,0-.518.241-.518.241Zm.159,1.635c-.04-.04-.359-.679-.359-.679a1.839,1.839,0,0,0-.319.16,7.754,7.754,0,0,0-.877.4,2.212,2.212,0,0,1-.32.159c-.279.121-.518.24-.6.279h-.04a3.949,3.949,0,0,0-.2-.4,1.523,1.523,0,0,0,.239-.079,4.205,4.205,0,0,1,.6-.279.792.792,0,0,1,.32-.159,8.643,8.643,0,0,1,.877-.439c.359-.161.638-.318.638-.318.04.039.519,1.075.559,1.115A2.062,2.062,0,0,0,3887.983,343.391Zm.6-5.864a9.664,9.664,0,0,1-1.277.957c-.279.2-.6.4-.877.559a2.16,2.16,0,0,0-.32.2,4.558,4.558,0,0,0-.6.318,15.394,15.394,0,0,1-2.952,1.117,15.118,15.118,0,0,1-4.268.6h-.081a15.73,15.73,0,0,1-3.909-.519,14.188,14.188,0,0,1-3.151-1.157,10.75,10.75,0,0,1-.957-.519c-.16-.079-.359-.2-.559-.318-.359-.24-.718-.519-1.077-.759-.519-.4-1-.838-1.476-1.276a15.486,15.486,0,0,1-1.316-1.475,10.786,10.786,0,0,1-1-1.357c-.318-.519-.6-1.038-.877-1.556a15.779,15.779,0,0,1-1.516-4.986,12.413,12.413,0,0,1-.16-2.155,13.005,13.005,0,0,1,.16-2.154,16.428,16.428,0,0,1,1.516-4.986c.279-.519.559-1.037.877-1.516a10.957,10.957,0,0,1,1-1.4,11.146,11.146,0,0,1,1.316-1.435,14.3,14.3,0,0,1,1.476-1.276c.359-.28.718-.519,1.077-.759a6.526,6.526,0,0,0,.559-.36c.319-.159.638-.358.957-.517a16.376,16.376,0,0,1,3.151-1.158,15.678,15.678,0,0,1,3.909-.478h.081a16.7,16.7,0,0,1,4.268.558,15.738,15.738,0,0,1,2.952,1.157c.2.12.4.2.6.32a2.665,2.665,0,0,0,.32.159c.278.2.6.4.877.6a9.579,9.579,0,0,1,1.277.958,11.168,11.168,0,0,1,1.236,1.156,15.263,15.263,0,0,1,1.875,2.354,9.29,9.29,0,0,1,.639,1.036,16.555,16.555,0,0,1,1.476,3.671,15.386,15.386,0,0,1,.518,4.069,14.949,14.949,0,0,1-.518,4.068,16.823,16.823,0,0,1-1.476,3.712c-.2.358-.4.677-.639,1.037a15.255,15.255,0,0,1-1.875,2.353C3889.419,336.77,3889.021,337.167,3888.582,337.527Zm6.343-.559c-.12.16-.639.8-1.117,1.356-.479.6-.958,1.157-.958,1.157a2.184,2.184,0,0,1-.359-.279c.04-.041.439-.478.439-.478l-.6-.519-.16-.08c-.08-.081-.2-.12-.239-.081-.041,0-.041-.039-.08-.039.039-.04.4-.478.4-.478.041,0,.041,0,.081.039.2.16.917.758.917.758l.16-.239s-.918-.757-.958-.8a3.68,3.68,0,0,1,.359-.4c.04,0,.957.8.957.8a.039.039,0,0,1,.041-.039,1.217,1.217,0,0,1,.239-.319c-.04-.041-.16-.12-.239-.2-.439-.358-1.2-.958-1.476-1.237a.455.455,0,0,1-.12-.079s-.24.238-.519.558c-.4.518-.917,1.117-.917,1.157a2.257,2.257,0,0,0-.359-.279c.039-.04.758-.918,1.276-1.556.319-.359.519-.6.519-.6s.039,0,.12.08c.239.2.957.757,1.476,1.237.239.2.478.4.6.478.119-.118.239-.238.239-.279,0,.041.2.2.28.279.039,0,.039,0,.039.041Zm0-16.275c-.041,0-.081.039-.081.119v.04l.04.2v.041a.039.039,0,0,1-.04.039c-.039,0-.079.04-.119-.08l-.12-.437-.039-.161-.041-.2-.119-.279c0-.12,0-.12.04-.12h.039l.04.039.08.161c0,.038.08.038.2,0h.12c.2-.041.438-.121.717-.2a3.316,3.316,0,0,0,.359-.12c.24-.039.519-.159.758-.2a2,2,0,0,0,.439-.16,3.641,3.641,0,0,1-.16-.517c-.079-.24-.119-.319-.2-.319h-.08l-.079-.041c-.041,0-.08,0-.08-.039-.04-.081.039-.081.039-.081a.152.152,0,0,1,.12-.039,2.192,2.192,0,0,0,.359-.04c.04,0,.12,0,.12.04v.2l.12.4.439,1.516a1.812,1.812,0,0,0,.119.319l.04.04v.04c-.04.041-.04.041-.08.08l-.479.119a.146.146,0,0,1-.119-.04v-.039a.085.085,0,0,1,.08-.079h.08a.347.347,0,0,0,.079-.24.5.5,0,0,0-.04-.24,4.15,4.15,0,0,1-.119-.479c-.08.041-.32.08-.6.159s-.558.2-.758.241a1.741,1.741,0,0,0-.2.079,4.429,4.429,0,0,0-.838.24ZM3896,331.064a.639.639,0,1,1,.638-.638A.63.63,0,0,1,3896,331.064Zm2.354-6.1a.078.078,0,0,1-.08-.08.239.239,0,0,0-.04-.159,1.267,1.267,0,0,0-.239-.2,9.068,9.068,0,0,0-1.237-.6.121.121,0,0,0-.079-.04,1.537,1.537,0,0,0-.4-.039,2.253,2.253,0,0,1-.279.039h-.079l-.359.04c-.16.039-.2.08-.2.159v.279l-.039.041-.041-.041c-.04,0-.04-.039-.04-.079l-.039-.438v-.2l-.04-.2-.04-.28c0-.041,0-.12.08-.12h.039v.079l.04.12c.041.081.12.081.2.081h.4l.12-.04h.2a2.139,2.139,0,0,0,.438-.12c0-.041.041-.08.12-.12.279-.2.8-.6.958-.717a.748.748,0,0,0,.239-.28.243.243,0,0,0,.04-.161c0-.078.04-.078.08-.078h.04l.039.078v.521l.041.118.039.319-.039.081h-.041c-.039,0-.039-.04-.079-.081v-.039h-.04c-.04,0-.08.039-.12.039-.079.041-.718.519-1,.719a.123.123,0,0,0-.08.04c.08.039.279.12.519.24a3.707,3.707,0,0,0,.558.238.523.523,0,0,0,.2.041.088.088,0,0,0,.08-.081c0-.039,0-.08.079-.08a.087.087,0,0,1,.08.08v.4l.08.4C3898.435,324.921,3898.4,324.961,3898.355,324.961Z" transform="translate(-3821.141 -285.26)"/><path class="c" d="M3891.493,312.235a.368.368,0,0,0,.2-.039c.12,0,.24-.081.4-.24a.7.7,0,0,0,.24-.519.843.843,0,0,0-.32-.517h-.04l-.279.279-.6.6v.041a1.03,1.03,0,0,0,.2.238A.346.346,0,0,0,3891.493,312.235Z" transform="translate(-3821.141 -285.26)"/><path class="c" d="M3885.75,342.394a.5.5,0,0,0,.2-.679.535.535,0,0,0-.678-.238.508.508,0,0,0-.2.677.528.528,0,0,0,.439.319A.581.581,0,0,0,3885.75,342.394Z" transform="translate(-3821.141 -285.26)"/><path class="c" d="M3864.766,337.088l-.039.04c-.04.039-.081.039-.081.08.041.04.081.079.12.12a3.053,3.053,0,0,0,.239.279l.24-.2-.4-.4A.085.085,0,0,1,3864.766,337.088Z" transform="translate(-3821.141 -285.26)"/><path class="c" d="M3863.889,335.812a.219.219,0,0,0-.2.118.571.571,0,0,0-.12.759.363.363,0,0,0,.319.16.552.552,0,0,0,.478-.12.571.571,0,0,0,.081-.8A.482.482,0,0,0,3863.889,335.812Z" transform="translate(-3821.141 -285.26)"/><path class="c" d="M3860.857,318.658a1.166,1.166,0,0,0-.359-.079,1.453,1.453,0,0,0-.838.118,1.21,1.21,0,0,0-.519.639c-.079.319-.119.957.919,1.278a1.456,1.456,0,0,0,.438.079,1.209,1.209,0,0,0,1.317-.8.911.911,0,0,0-.041-.638A1.481,1.481,0,0,0,3860.857,318.658Z" transform="translate(-3821.141 -285.26)"/><path class="c" d="M3886.029,314.827a16.573,16.573,0,0,1-7.82-3.269,16.274,16.274,0,0,1-7.339,3.19c-.439.079-.878.16-1.276.2a22.813,22.813,0,0,1-2.315.158v7.859a21.467,21.467,0,0,0,.32,4.029,17.368,17.368,0,0,1,1.995-.358c.438-.081.877-.159,1.276-.2a55.579,55.579,0,0,1,15.159.08c.957.12,1.875.279,2.792.478a21.547,21.547,0,0,0,.319-4.029v-7.859A16.935,16.935,0,0,1,3886.029,314.827Zm-15.718,4.548c.08-.079.2-.079.439.041a.31.31,0,0,1,.12.04c.12.041.319.079.479.12a.077.077,0,0,1,.079.079v1.277s.04.119-.079.119a1.2,1.2,0,0,1-.479-.119c-.16-.08-.4-.239-.559-.08Zm-1.236,1.557v-1.277a.077.077,0,0,1,.079-.079c.16-.041.32-.079.44-.12a.392.392,0,0,1,.159-.04c.239-.12.359-.12.4-.041v1.477c-.12-.159-.36,0-.519.08h-.039a.97.97,0,0,1-.44.119C3869.034,321.051,3869.075,320.932,3869.075,320.932Zm2.672.638-.877-.12-.239-.04s-.16-.039-.2.04a.226.226,0,0,1-.4,0c0-.079-.159-.04-.159-.04l-.279.04-.839.12c-.119,0-.119-.16-.119-.16l.08-1.4a.178.178,0,0,1,.039-.12,1.962,1.962,0,0,1,.12-.159h.04v.079l-.04,1.278s0,.12.081.12a1.175,1.175,0,0,0,.638-.041c.079-.04.2-.079.279-.12a.226.226,0,0,1,.359.161.262.262,0,0,1,.4-.161c.039.041.2.08.239.12h.04a1.022,1.022,0,0,0,.6.041c.12,0,.08-.12.08-.12v-1.278a.054.054,0,0,1,0-.079h.04a1.886,1.886,0,0,1,.119.159.175.175,0,0,1,.04.12l.08,1.4S3871.867,321.57,3871.747,321.57Zm6.462,3.63a5.126,5.126,0,1,1,5.147-5.107A5.151,5.151,0,0,1,3878.209,325.2Zm8.179-3.43-.2.4v.52c0,.079-.039.119-.08.119h-.12a.106.106,0,0,1-.119-.119v-.52l-.2-.4a.082.082,0,0,1,.08-.12h.6S3886.428,321.65,3886.388,321.77Zm.2-.479-.079.159s0,.041-.08.041h-.8c-.04,0-.08-.081-.08-.081l-.08-.119c-.04-.079.08-.079.08-.079h1S3886.627,321.212,3886.587,321.291Zm.279-.559-.119.24s0,.039-.08.039h-1.276a.141.141,0,0,1-.081-.039l-.079-.2c-.04-.119.04-.119.04-.119h1.555S3886.907,320.653,3886.866,320.732Zm-.079-.478a1.361,1.361,0,0,1-.758.2h-.08a.936.936,0,0,1-.678-.319.723.723,0,0,1,.12-.957c.079-.04.079,0,.079,0a.618.618,0,0,0,.04.717,1.236,1.236,0,0,1,.519-1.2,1.149,1.149,0,0,0,.159-.118c.12-.081.159-.04.159,0a.923.923,0,0,0,.2.637,1.205,1.205,0,0,1,.4.56A.511.511,0,0,1,3886.787,320.254Z" transform="translate(-3821.141 -285.26)"/><path class="c" d="M3878.209,317.46a2.614,2.614,0,1,0,2.633,2.633A2.631,2.631,0,0,0,3878.209,317.46Z" transform="translate(-3821.141 -285.26)"/><path class="c" d="M3867.718,327.634a16.991,16.991,0,0,0,3.152,6.821h0l7.3-7.34,7.34,7.34h0a16.359,16.359,0,0,0,3.191-6.821,53.54,53.54,0,0,0-20.983,0Z" transform="translate(-3821.141 -285.26)"/><path class="c" d="M3880.284,332.939l-1.476-1.475-.638-.6-.917.918-1.4,1.4-3.231,3.231a24.377,24.377,0,0,0,3.231,2.472c.439.279.918.521,1.4.8.318.158.638.319.956.478a4.32,4.32,0,0,0,.6-.32,12.911,12.911,0,0,0,1.476-.8,20.708,20.708,0,0,0,3.471-2.633Zm-3.989,4.149h-.8c-.04,0-.04-.039-.04-.08a.039.039,0,0,1,.04-.04h.16c.039-.039.08-.039.08-.119v-1.2a.672.672,0,0,0-.2.081h-.04l-.04.039a.084.084,0,0,1-.079-.079l.039-.041c.04,0,.279-.2.439-.279l.08-.079.08-.039c.04,0,.08,0,.08.079v.039l-.04.558v.44l.04.479c0,.08,0,.08.04.119h.159a.039.039,0,0,1,.04.04C3876.335,337.049,3876.335,337.088,3876.295,337.088Zm.958.04h-.041c-.358,0-.6-.2-.6-.478a.589.589,0,0,1,.4-.519.517.517,0,0,1-.279-.439c0-.159.12-.4.519-.438h.039c.279,0,.479.159.479.4a.4.4,0,0,1-.279.4c.159.12.359.24.359.519S3877.651,337.088,3877.253,337.128Zm1.555,0c-.359,0-.6-.2-.6-.478a.548.548,0,0,1,.359-.519.459.459,0,0,1,.24-.877h.04c.319,0,.519.159.519.4a.434.434,0,0,1-.319.4c.159.12.4.24.4.519S3879.247,337.088,3878.808,337.128Zm1.476-.04c-.08,0-.159.04-.239.04a.573.573,0,0,1-.239-.079c-.04,0-.04-.041-.04-.12v-.279a.079.079,0,0,1,.079-.081.14.14,0,0,1,.04.081c0,.2.08.279.28.279a.142.142,0,0,0,.119-.041c.12-.039.2-.159.2-.36a.418.418,0,0,0-.2-.358.642.642,0,0,0-.319-.12c-.08-.039-.08-.08-.08-.08l.04-.6a.086.086,0,0,1,.08-.079h.718c.08,0,.08.04.08.079l-.04.279a.04.04,0,0,1-.04.041c-.04,0-.08,0-.08-.041s0-.079-.159-.079h-.359c-.04.04-.04.16-.04.2a1.616,1.616,0,0,1,.2.041c.32.118.558.319.558.637A.7.7,0,0,1,3880.284,337.088Z" transform="translate(-3821.141 -285.26)"/><path class="c" d="M3878.808,336.249l-.039-.038a.466.466,0,0,0-.24.4.286.286,0,0,0,.279.32.3.3,0,0,0,.32-.32C3879.128,336.449,3878.967,336.33,3878.808,336.249Z" transform="translate(-3821.141 -285.26)"/><path class="c" d="M3878.808,335.93l.04.04c.119-.04.2-.118.2-.319,0-.159-.081-.238-.2-.238h-.04c-.159,0-.2.159-.2.238C3878.609,335.771,3878.649,335.852,3878.808,335.93Z" transform="translate(-3821.141 -285.26)"/><path class="c" d="M3877.253,336.249c-.041,0-.041-.038-.081-.038a.574.574,0,0,0-.239.4.316.316,0,0,0,.32.32.286.286,0,0,0,.279-.32A.429.429,0,0,0,3877.253,336.249Z" transform="translate(-3821.141 -285.26)"/><path class="c" d="M3877.253,335.93a.039.039,0,0,0,.039.04.327.327,0,0,0,.2-.319.229.229,0,0,0-.239-.238.255.255,0,0,0-.24.238C3877.013,335.771,3877.093,335.852,3877.253,335.93Z" transform="translate(-3821.141 -285.26)"/></svg>