<svg xmlns="http://www.w3.org/2000/svg" width="240" height="80" viewBox="0 0 240 80"><defs><style>.a,.b,.c,.d{fill:#fff;}.a{opacity:0;}.c{opacity:0.4;}.d{opacity:0.9;}</style></defs><rect class="a" width="240" height="80"/><path class="b" d="M3754.2,335.237h1.141v3.174h.474v-3.174h1.143v7.475h-1.143v-3.293h-.474v3.293H3754.2Z" transform="translate(-3566.855 -287.621)"/><path class="b" d="M3778.167,340.025l.212-2.725.27,2.725Zm-1.334,2.687h1.134l.131-1.7h.652l.165,1.7h1.14l-.89-7.475h-1.559Z" transform="translate(-3566.855 -287.621)"/><path class="b" d="M3770.869,335.227h1.141v7.494h-1.141Z" transform="translate(-3566.855 -287.621)"/><path class="b" d="M3763.659,339.959V341.3a1.761,1.761,0,0,0,.01.263.212.212,0,0,0,.228.215c.2,0,.244-.1.244-.478v-.9a.813.813,0,0,0-.371-.831l-.606-.551a1.479,1.479,0,0,1-.654-1.369v-1.081a3.862,3.862,0,0,1,.053-.507,1.227,1.227,0,0,1,1.322-.907,1.428,1.428,0,0,1,1.077.418,1.073,1.073,0,0,1,.235.489,2.89,2.89,0,0,1,.057.837v.908h-1.113v-1.172c0-.382-.045-.47-.244-.47s-.238.088-.238.47v.771c0,.4.045.484.391.794l.61.539a1.528,1.528,0,0,1,.616,1.433v1.191a2.554,2.554,0,0,1-.054.512,1.21,1.21,0,0,1-1.325.921,1.406,1.406,0,0,1-1.081-.427.981.981,0,0,1-.253-.494,3.732,3.732,0,0,1-.053-.512v-1.4Z" transform="translate(-3566.855 -287.621)"/><path class="b" d="M3774.248,336.248h-.785v-1.024h2.718v1.024h-.8v6.473h-1.128Z" transform="translate(-3566.855 -287.621)"/><path class="b" d="M3782.513,335.231v6.457h.847v1.031h-1.993v-7.488Z" transform="translate(-3566.855 -287.621)"/><path class="b" d="M3758.321,336.395c0-.96.753-1.239,1.42-1.239s1.428.279,1.428,1.239v5.158c0,.958-.748,1.238-1.428,1.238s-1.42-.28-1.42-1.238Zm1.091,5.068c0,.366.114.453.34.453s.328-.087.328-.453v-4.977c0-.37-.115-.455-.328-.455s-.34.085-.34.455Z" transform="translate(-3566.855 -287.621)"/><path class="b" d="M3766.9,342.651V335.3h1.049c1.107,0,1.6.453,1.573,1.436v1.586c.006,1.2-.549,1.572-1.62,1.506v2.824Zm1-3.7c.291,0,.587,0,.613-.333v-1.745c0-.682-.215-.736-.613-.7Z" transform="translate(-3566.855 -287.621)"/><path class="b" d="M3677.394,341.066v.331a4.616,4.616,0,0,1-.054.511,1.251,1.251,0,0,1-1.37.933,1.452,1.452,0,0,1-1.125-.432,1.136,1.136,0,0,1-.25-.5,4.34,4.34,0,0,1-.054-.511v-4.853a4.261,4.261,0,0,1,.054-.509,1.241,1.241,0,0,1,1.363-.923,1.447,1.447,0,0,1,1.132.419,1.129,1.129,0,0,1,.25.5,4.528,4.528,0,0,1,.054.509v1.536h-1.183v-1.466a1.716,1.716,0,0,0-.011-.265.214.214,0,0,0-.23-.211c-.2,0-.246.084-.246.476v4.713c0,.388.044.478.246.478s.241-.081.241-.478v-1.568h1.183Z" transform="translate(-3566.855 -287.621)"/><path class="b" d="M3678.777,335.178h1.158V338.4h.474v-3.222h1.161v7.578h-1.161v-3.337h-.474v3.337h-1.158Z" transform="translate(-3566.855 -287.621)"/><path class="b" d="M3684.174,335.178v6.149c0,.388.048.478.239.478s.248-.081.248-.478v-6.149h1.175V341.4a2.376,2.376,0,0,1-.059.511,1.235,1.235,0,0,1-1.364.933,1.46,1.46,0,0,1-1.124-.432,1.139,1.139,0,0,1-.237-.5,2.14,2.14,0,0,1-.06-.511v-6.219Z" transform="translate(-3566.855 -287.621)"/><path class="b" d="M3687.259,335.178h1.236l.66,3.853v-3.853h1.069v7.578H3689l-.655-3.836v3.836h-1.082Z" transform="translate(-3566.855 -287.621)"/><path class="b" d="M3693.3,337.8v-1.185a2.408,2.408,0,0,0-.008-.265.216.216,0,0,0-.23-.211c-.206,0-.247.084-.247.476v4.713c0,.388.041.478.247.478s.238-.081.238-.478V339.84h-.223V338.8h1.388v3.952h-.631l-.077-.289a.812.812,0,0,1-.772.374,1.419,1.419,0,0,1-1.047-.432,1.062,1.062,0,0,1-.248-.5,3.326,3.326,0,0,1-.059-.511v-4.853a3.271,3.271,0,0,1,.059-.509,1.238,1.238,0,0,1,1.352-.923,1.417,1.417,0,0,1,1.111.419,1.023,1.023,0,0,1,.249.5,3.05,3.05,0,0,1,.063.84v.924Z" transform="translate(-3566.855 -287.621)"/><path class="b" d="M3695.82,338.887h1.134v.958h-1.134Z" transform="translate(-3566.855 -287.621)"/><path class="b" d="M3699.694,340.033l.217-2.763.27,2.763Zm-1.355,2.723h1.148l.139-1.721h.66l.17,1.721h1.158l-.907-7.578h-1.583Z" transform="translate(-3566.855 -287.621)"/><path class="b" d="M3703.036,335.178h1.239l.657,3.853v-3.853H3706v7.578h-1.227l-.658-3.836v3.836h-1.081Z" transform="translate(-3566.855 -287.621)"/><path class="b" d="M3709.062,337.8v-1.185a1.46,1.46,0,0,0-.013-.265.216.216,0,0,0-.226-.211c-.206,0-.252.084-.252.476v4.713c0,.388.046.478.252.478.191,0,.239-.081.239-.478V339.84h-.226V338.8h1.383v3.952h-.622l-.083-.289a.812.812,0,0,1-.772.374,1.415,1.415,0,0,1-1.045-.432,1.086,1.086,0,0,1-.252-.5,3.743,3.743,0,0,1-.057-.511v-4.853a3.678,3.678,0,0,1,.057-.509,1.244,1.244,0,0,1,1.352-.923,1.428,1.428,0,0,1,1.116.419,1.105,1.105,0,0,1,.249.5,3.237,3.237,0,0,1,.057.84v.924Z" transform="translate(-3566.855 -287.621)"/><path class="b" d="M3714.229,335.159v6.168c0,.386.048.478.245.478s.246-.081.246-.478v-6.168h1.175v6.234a2.505,2.505,0,0,1-.055.515,1.236,1.236,0,0,1-1.366.934,1.493,1.493,0,0,1-1.133-.428,1.221,1.221,0,0,1-.243-.506,2.759,2.759,0,0,1-.051-.515v-6.234Z" transform="translate(-3566.855 -287.621)"/><path class="b" d="M3717.286,335.159h1.237l.664,3.868v-3.868h1.069v7.6h-1.232l-.662-3.847v3.847h-1.076Z" transform="translate(-3566.855 -287.621)"/><path class="b" d="M3721.679,335.159h1.156v7.6h-1.156Z" transform="translate(-3566.855 -287.621)"/><path class="b" d="M3724.222,335.159h1.155l.452,4.843.39-4.843h1.153l-.847,7.6h-1.415Z" transform="translate(-3566.855 -287.621)"/><path class="b" d="M3728.755,335.159h2.2V336.2h-1.038v2.194h1.038v1.024h-1.038v2.311h1.038v1.034h-2.2Z" transform="translate(-3566.855 -287.621)"/><path class="b" d="M3733.557,336.2c.39,0,.469.083.469.434v1.436c0,.353-.079.434-.469.434Zm-1.161,6.563h1.161v-3.242c.39,0,.469.07.469.421v2.113a1.4,1.4,0,0,0,.123.708h1.141a1.652,1.652,0,0,1-.1-.721v-1.9c0-.478-.092-.763-.319-.925a1.117,1.117,0,0,0-.31-.162c.358-.175.48-.307.546-.592a3.948,3.948,0,0,0,.083-.8v-.886c0-.732-.092-1.072-.319-1.3a1.379,1.379,0,0,0-1.1-.313H3732.4Z" transform="translate(-3566.855 -287.621)"/><path class="b" d="M3737.783,339.967v1.36a1.446,1.446,0,0,0,.012.263.212.212,0,0,0,.228.215c.2,0,.253-.092.253-.478v-.912a.814.814,0,0,0-.379-.838l-.619-.567a1.5,1.5,0,0,1-.66-1.388v-1.094a3.81,3.81,0,0,1,.059-.515,1.243,1.243,0,0,1,1.337-.92,1.435,1.435,0,0,1,1.091.423,1.087,1.087,0,0,1,.242.5,3.218,3.218,0,0,1,.052.848v.921h-1.123V336.6c0-.387-.049-.48-.253-.48s-.24.093-.24.48v.778c0,.408.045.491.4.809l.62.544a1.554,1.554,0,0,1,.623,1.453v1.213a2.726,2.726,0,0,1-.055.515,1.227,1.227,0,0,1-1.346.934,1.449,1.449,0,0,1-1.095-.428,1.048,1.048,0,0,1-.251-.506,3.615,3.615,0,0,1-.059-.515v-1.426Z" transform="translate(-3566.855 -287.621)"/><path class="b" d="M3740.8,335.159h1.159v7.6H3740.8Z" transform="translate(-3566.855 -287.621)"/><path class="b" d="M3744.182,336.2h-.8v-1.036h2.76V336.2h-.82v6.563h-1.142Z" transform="translate(-3566.855 -287.621)"/><path class="b" d="M3748.792,335.159l.458,2.382.434-2.382h1.16l-.991,4.778v2.821h-1.186V339.9l-1.07-4.741Z" transform="translate(-3566.855 -287.621)"/><path class="b" d="M3751.951,329.132V316.468h-11.317v1.493h8.966v11.17h-1.685v-6.694h-2.35v6.694h-1.611v-6.694h-2.343v6.694h-2.491v1.5H3753.4v-1.5Z" transform="translate(-3566.855 -287.621)"/><path class="b" d="M3698.273,325.108c-2.58,0-4.684,1.712-4.684,3.812a3.273,3.273,0,0,0,.688,1.994,5.311,5.311,0,0,0,8,0,3.24,3.24,0,0,0,0-3.982A4.974,4.974,0,0,0,3698.273,325.108Zm0,6.131a2.4,2.4,0,0,1-2.058-1.238,2.19,2.19,0,0,1,0-2.168,2.337,2.337,0,0,1,4.119,0,2.19,2.19,0,0,1,.278,1.087A2.364,2.364,0,0,1,3698.273,331.239Z" transform="translate(-3566.855 -287.621)"/><path class="b" d="M3697.477,322.907a4,4,0,0,0,0-5.565,4.159,4.159,0,0,0-7.159,2.786,4.011,4.011,0,0,0,1.127,2.779,4.191,4.191,0,0,0,6.032,0Zm-3.017-.234a1.481,1.481,0,0,1-1.136-.59,3.3,3.3,0,0,1,0-3.919,1.494,1.494,0,0,1,1.136-.588,1.526,1.526,0,0,1,1.147.588,3.135,3.135,0,0,1,.643,1.964C3696.25,321.529,3695.45,322.673,3694.46,322.673Z" transform="translate(-3566.855 -287.621)"/><path class="b" d="M3702.843,319.494V316.16H3700.5v8.818h2.344v-3.987h2.173v-1.5Z" transform="translate(-3566.855 -287.621)"/><path class="b" d="M3781.014,316.038v8.553h-2.056v1.423h2.056v3.073h2.295V316.038Z" transform="translate(-3566.855 -287.621)"/><path class="b" d="M3774.223,326.583h2.287v-2.6h3.48v-1.423h-1.906a3.692,3.692,0,0,0,1.351-2.816,3.651,3.651,0,0,0-1.107-2.6,4.263,4.263,0,0,0-5.92,0,3.615,3.615,0,0,0,0,5.2c.077.075.162.145.244.215h-1.767v1.423h3.338Zm-.039-5.017a2.671,2.671,0,0,1-.679-1.841,2.184,2.184,0,0,1,1.866-2.394,1.644,1.644,0,0,1,1.19.553,2.865,2.865,0,0,1,0,3.682,1.555,1.555,0,0,1-2.377,0Z" transform="translate(-3566.855 -287.621)"/><path class="b" d="M3774.268,327.3h-2.291v3.318h0v1.423h11.32v-1.423h-9.028Z" transform="translate(-3566.855 -287.621)"/><path class="b" d="M3760.91,324.082h2.288v-7.628h-2.288v2.514h-3.278v-2.514h-2.288v6.171h0v1.44h5.571Zm-3.278-1.457v-2.217h3.278v2.217Z" transform="translate(-3566.855 -287.621)"/><path class="b" d="M3765.946,318.727h-1.724v1.423h1.724v1.808h-1.724v1.422h1.724v1.6h2.295v-8.9h-2.295Z" transform="translate(-3566.855 -287.621)"/><path class="b" d="M3763.386,325.108c-2.58,0-4.688,1.712-4.688,3.81a3.288,3.288,0,0,0,.688,2,5.316,5.316,0,0,0,8,0,3.229,3.229,0,0,0,0-3.982A4.967,4.967,0,0,0,3763.386,325.108Zm0,6.131a2.4,2.4,0,0,1-2.061-1.238,2.208,2.208,0,0,1,0-2.168,2.342,2.342,0,0,1,4.125,0,2.25,2.25,0,0,1,.274,1.085A2.359,2.359,0,0,1,3763.386,331.239Z" transform="translate(-3566.855 -287.621)"/><path class="b" d="M3736.112,332.013v-6.037h-10.789v1.5h8.441v4.54Z" transform="translate(-3566.855 -287.621)"/><path class="b" d="M3730.848,323.35a3.613,3.613,0,0,0,0-5.2,4.171,4.171,0,0,0-2.963-1.195,3.943,3.943,0,0,0-4.064,3.8,3.674,3.674,0,0,0,1.1,2.6,4.267,4.267,0,0,0,5.923,0Zm-2.963-.188a1.629,1.629,0,0,1-1.188-.555,2.853,2.853,0,0,1,0-3.681,1.556,1.556,0,0,1,2.378,0,2.717,2.717,0,0,1,.673,1.839A2.18,2.18,0,0,1,3727.885,323.162Z" transform="translate(-3566.855 -287.621)"/><path class="b" d="M3729.141,316.468v-1.485h-2.517v1.485h-3.161v1.458h8.853v-1.458Z" transform="translate(-3566.855 -287.621)"/><path class="b" d="M3736.112,319.3v-3.31h-2.35V325h2.35v-4.209h2.169V319.3Z" transform="translate(-3566.855 -287.621)"/><path class="b" d="M3681.167,325.566c-2.773,0-5.024,1.607-5.024,3.58a2.869,2.869,0,0,0,.732,1.872,6.217,6.217,0,0,0,8.573,0,2.757,2.757,0,0,0,0-3.742A5.635,5.635,0,0,0,3681.167,325.566Zm0,5.691a2.834,2.834,0,0,1-2.313-1.127,1.66,1.66,0,0,1,0-1.968,2.933,2.933,0,0,1,4.622,0,1.687,1.687,0,0,1,.317.988A2.444,2.444,0,0,1,3681.167,331.257Z" transform="translate(-3566.855 -287.621)"/><path class="b" d="M3686.893,316.355v1.5h-3.948c.966,2.694,4.458,3.105,4.458,3.105v1.465s-4.209-.2-6.245-3.26c-2.032,3.061-6.249,3.26-6.249,3.26v-1.465s3.491-.411,4.454-3.105h-3.946v-1.5Z" transform="translate(-3566.855 -287.621)"/><path class="b" d="M3682.317,326.123v-1.5h5.978v-1.495h-14.283v1.495h5.958v1.5Z" transform="translate(-3566.855 -287.621)"/><path class="b" d="M3715.643,325.884h-5.776v-7.929h3.759v-1.49h-6.107v10.9h8.124Z" transform="translate(-3566.855 -287.621)"/><path class="b" d="M3718.172,315.99v4.653h-1.048v-4.656h-2.218v16.026h2.218v-9.838h1.048v9.838h2.229V315.99Z" transform="translate(-3566.855 -287.621)"/><rect class="c" width="13.42" height="13.413" transform="translate(70.74 15)"/><rect class="c" width="13.411" height="13.413" transform="translate(84.161 28.413)"/><path class="d" d="M3603.535,345.726c.159-.074.318-.151.472-.226a4.4,4.4,0,0,0,1.377-.452c.14-.054.284-.106.425-.146a.4.4,0,0,1,.074-.007c-.155,1.123-.949,2.232-.475,3.282.1.153.2.3.295.453.158.057.312.116.467.173.175.077.309.248.489.32.112-.01.118.066.191.11.324.213.57.085.894-.182.005-.026.007-.046.011-.07.291-.022.417.085.724-.048a4.136,4.136,0,0,1,.015-.623c-.11.005.239-.2.326-.3.13-.008,0-.248-.024-.34-.092,0-.072.027-.063-.069.033-.011.063-.025.1-.034.224-.388.452-.778.678-1.168.25-.305.5-.611.754-.912a.556.556,0,0,0,.043-.4c.445-.031.584-1.055.54-1.349.166-.011.921-.8,1.155-.953.237-.11.476-.217.721-.325a.061.061,0,0,0,.027-.019c.118,0,.085-.18.114-.285s-.033-.066-.138-.059c0-.02.01-.044.012-.066.139.007.275.022.419.037.3-.112.607-.221.914-.331.011-.092.158-.193.112-.241l.638-.052a5.811,5.811,0,0,0,1.784-.908c.046,0,.095-.009.142-.009-.008.1-.03.073.062.07.015-.112.156-.123.235-.158.013-.094-.009-.068.087-.074l-.011.072c.158-.017.084,1.473.323,1.769l.079,0c-.04.09-.079.186-.114.285a1.483,1.483,0,0,1-.058.414h.073c-.031.237.694-.086.806-.125,0-.026,0-.044.009-.068,0,.046,0,.1,0,.151a.893.893,0,0,1-.362.522c-.828.657-.451,1.567-.353,2.278.015.241.024.484.036.73.07.144.127.291.192.442-.026.151-.046.3-.068.463a2.063,2.063,0,0,0,.15.953.271.271,0,0,0-.012.073c.075-.007.235-.441.511-.584a.248.248,0,0,0-.019.047c-.086.181-.172.365-.257.548a1.736,1.736,0,0,0,.263,1.541c-.046.354-.114.631.256.743.011-.069.022-.14.031-.209a1.763,1.763,0,0,1,.269-.506c.084-.212.165-.421.248-.631.156-.011-.116-.25-.166-.333-.1.006-.022-.229-.024-.344.09,0,.19-.01.285-.018a1.531,1.531,0,0,0-.266-1.155c-.107.006.029-.048.079-.073.005-.024.005-.046.009-.072.106-.005.022.016.062.068a.351.351,0,0,1-.011.066c.1,0,.085,0,.111-.086.226-.642.463-1.277.743-1.9.117-.007.071-.064.068-.149.027-.23.06-.46.09-.688a6.135,6.135,0,0,1,.27-1.747c-.088.009-.121-.586-.256-.739.015-.107.1-.149.179-.217.028-.21.053-.421.084-.625.024-.158.223-.328.346-.438.035-.232-.007-.427.026-.691-.12.009-.145-.048-.2-.125-.1.007-.077.029-.064-.063.147-.015.278-.211.325-.324.054-.2.109-.4.16-.608.429-.876.961-1.025,1.756-1.468.118-.088.232-.173.35-.255.02-.129-.159-.107-.27-.114.005-.026.007-.048.011-.072a5.893,5.893,0,0,0,1.421-1.147c.057-.139.118-.282.173-.424a.73.73,0,0,1,.48.056c0-.024.007-.05.011-.068.156-.081.309-.162.461-.239.019-.1.053-.074.155-.079.017-.113-.1-.1-.193-.127.016-.122.13-.114.231-.151a.329.329,0,0,1,.014-.07c-.069,0-.123,0-.14-.063.06-.408.3-.445.629-.386.009-.048.411-.651.457-.717.1-.006.122-.2.187-.287-.018.12.137.017.218-.016-.022.136.18-.146.243-.221-.113.006-.121-.072-.2-.125a.267.267,0,0,0,.013-.072c.12-.029.248-.06.374-.092a.282.282,0,0,1,.008-.068c.677-.046,1.036-.524,1.667-.66.02-.151.133-.209.257-.3.009-.068.019-.136.03-.206-.05,0-.1.005-.146.009-.014.125-.228.217-.329.3-.088.006-.235-.152-.333-.182,0-.027.007-.05.011-.071.272-.02.319-.361.6-.245.022,0,.05-.007.076-.007.007-.078-.011-.09-.057-.133.027-.177-.026-.084-.043-.2.017-.105-.741.221-.893.263.014-.11.108.059.024.007a.471.471,0,0,0,.009-.066c.226-.014.347-.34.46-.487.012-.1-.076-.1-.155-.114a8.675,8.675,0,0,0-2.5.711c-.371.129-.742.263-1.112.392-.25.14-.5.274-.748.416-.819.373-1.671.6-2.478,1.013a.534.534,0,0,0,.011-.07c-.081,0-.082-.015-.132-.06a.917.917,0,0,0-.046-.686c.041-.12.086-.238.129-.357.081-.6.161-1.2.237-1.806-.118.009.051-.132.1-.215.128-.006.027-.118,0-.19-.223-.577.061-1.281.016-1.947-.023-.395-.2-.6,0-1.033-.111.007-.083-.039-.1-.109-.171-.563-.416-.364-.891-.519a1.2,1.2,0,0,0,.021-.136.831.831,0,0,0,.309-.164c.042-.283-.455-.476-.637-.573-.009.074-.476.144-.592.193a1.881,1.881,0,0,1-.89.209c-.2-.009-.384-.119-.631-.062a11.289,11.289,0,0,0-2.664,2.04c.026,0,.048,0,.076-.006-.019.121.167.112.27.121-.009.043-.015.092-.022.138-.1.006-.068-.018-.08.076a2.089,2.089,0,0,0-.825.344c-.322.29-.443.774-.706,1.112-.151.2-.458.243-.556.5,0,.057,0,.118,0,.179,0,.022-.006.046-.009.07-.708.045-2.058,3.335-2.746,3.764-.009.044-.013.092-.018.134-.03,0-.052.008-.077.008-.028.459-.306.649-.495,1.025a3.193,3.193,0,0,1-.306.613c.122-.006.033.066-.016.14.1-.006-.072.169-.1.277-.1.377-.414.637-.589.968a10.953,10.953,0,0,0-1.009,2.175c-.429.026-.258.519-.087.627a.382.382,0,0,1-.013.07c-.469.031-.522.524-.546.861a.6.6,0,0,1-.072,0c.013-.1-.035-.058-.106-.035a4.307,4.307,0,0,0-1.657.841c-.13.011,0,.092.053.136,0,.025-.007.048-.009.068a1.939,1.939,0,0,0-1.122.36c-.375.24-.851.83-1.327.766a.375.375,0,0,0-.076.007.62.62,0,0,1-.009.066c-.118.007-.075.125-.1.217-.019.11-.282.28-.359.39-.115.177-.3.285-.426.449a2.41,2.41,0,0,0-.517,1.029C3602.308,345.54,3603.27,345.774,3603.535,345.726Zm18.385-12.492a.521.521,0,0,1-.009.068c.1-.005.077-.026.064.067-.024-.026-.043-.043-.064-.067C3621.839,333.306,3621.867,333.286,3621.92,333.234Zm-6.506,1.521s1.453-1.925,1.62-2.124c-.16.035-.075-.127-.059-.256.135-.029,1.137-1.524,1.486-1.828a.827.827,0,0,0,.013-.088,6.415,6.415,0,0,0,.43.982c-.222.615-.452,1.234-.676,1.85a13.925,13.925,0,0,1-.164,1.51,2.242,2.242,0,0,1-1.326,1.289,5.228,5.228,0,0,0-.761.2l-1.578.989C3613.689,336.958,3615.324,335.4,3615.414,334.755Z" transform="translate(-3566.855 -287.621)"/><path class="d" d="M3603.364,327.061a13.2,13.2,0,0,0-1.356-.265l-.027.019-.151.115-.006.013a.523.523,0,0,0-.176.02l0-.011-.06-.011-.274-.045c-.063-.012-.135.045-.208.1,0,0-.026.02-.041.029l-.091-.128-.03.106-.009.038a.08.08,0,0,0-.022,0c0-.026-.05-.037-.2.127-.032-.022-.125-.07-.125-.07l-.033.044a.672.672,0,0,1-.173.077l0,0-.006-.011c-.014-.007-.036-.011-.067.028l-.065-.026-.051,0-.021.026-.141.2-.01,0v-.083l-.167-.024-.031.118-.03-.008a.086.086,0,0,1-.009.024c-.014-.005-.134-.068-.134-.068l-.013.063c0,.017-.031.066-.231.131l-.028.009,0,.029a.259.259,0,0,1-.083.077l-.068.052v.011a1.147,1.147,0,0,0-.51.132l-.233.09-.011.028a1.106,1.106,0,0,1-.215.451.241.241,0,0,0-.043-.048l.022-.072-.06-.009c-.089-.016-.151.112-.2.248v-.033l-.044-.006h-.008l.006-.023-.057-.027a.116.116,0,0,0-.121.061l-.008-.078-.038-.012a1.334,1.334,0,0,0-.484.178l-.3.129-.011.024a.721.721,0,0,1-.219.281.936.936,0,0,0-.209.231.418.418,0,0,0-.451.184c-.013.006-.025.006-.035.015a.124.124,0,0,0-.029.1.467.467,0,0,0,0,.077.326.326,0,0,1-.056-.011l.036.092a.08.08,0,0,0,.009.022c-.012.015-.032.026-.087.033a.346.346,0,0,0-.035,0c.015-.029.039-.086.039-.086h0l0,0-.1-.043,0,.012a.454.454,0,0,1-.133.128l-.263.234.206-.046a.317.317,0,0,0,.041-.007c-.01.036-.02.121-.028.147a5.521,5.521,0,0,0-.746.761c-.006.009-.065.123-.065.123l-.046.1a.659.659,0,0,0-.257.152l0,0-.011-.035-.042-.029c-.089-.017-.111.057-.122.1,0,.014-.058.2-.058.2-.06.2-.072.247-.321.374l-.013-.192-.086.171s-.178.32-.2.36l-.2-.152a.186.186,0,0,0-.074.145l-.055-.007a.261.261,0,0,0-.013.04.164.164,0,0,1-.025-.009l-.015.035-.165.278-.153.307-.178.226a1.538,1.538,0,0,0-.4.7c-.2.059-.4.8-1.009,1.883l-.364.62a.955.955,0,0,0-.026.145v.011c0,.043-.006.061-.075.1l-.019.011-.007.022a1.117,1.117,0,0,1-.25.482c-.01.02-.019.042-.019.042l-.022.064a.057.057,0,0,0,.022.008l-.118.209a.106.106,0,0,0-.011.056.31.31,0,0,0,.05.147l.04.084.052.019.026.005a1.368,1.368,0,0,0-.164.489.28.28,0,0,0,.024.116.216.216,0,0,0,.127.1,1.5,1.5,0,0,0-.142.491l.037-.007-.024.083.056.025.112.021c-.006.038-.032.237-.032.237a.109.109,0,0,0,.022.009.076.076,0,0,0-.027.063,1.268,1.268,0,0,0,.038.217l-.04-.022-.09.38-.028.118c0,.015,0,.473,0,.473a.8.8,0,0,1-.125.3l-.009.013,0,.057.032.04.009.048.016.052c-.007-.015-.016.007-.016.007l-.024.086.123-.023c.1-.03.255.213.338.342l.056.083v.005c-.008,0-.081.059-.081.059l.007.016v.006a.072.072,0,0,0,.035.057l0,.047.022.008c0,.016-.018.162-.022.189h0l0,.022.108,0a.031.031,0,0,1-.02.019l-.028,0,.067.115.02.011a.044.044,0,0,0-.006.022.1.1,0,0,0,.026.068.509.509,0,0,1,.193.382,1.9,1.9,0,0,1-.075.427l-.011.042-.02.026-.03.033h0l0,.006c-.034.051-.13.176-.13.176l-.011.024-.01.081.052.02c.1.011.135-.083.164-.161.029.01.061.021.07.044l.02.054.02-.02s.048-.018.09-.031c0,.007-.046.145-.046.145l-.007.03.042.018a.2.2,0,0,1,.024.109.253.253,0,0,1-.035.13.081.081,0,0,0-.007.028.607.607,0,0,0,.114.283l.042.063c-.011-.021-.016,0-.016,0l-.017.058.167.034.019-.041.061-.114.045.015s.139.016.18.016c0,.011.017.1.017.1l.044,0h.293l.013-.037a.267.267,0,0,1,.141-.186h.067c.049,0,.057,0,.075.017l.013.017.011,0h0a.929.929,0,0,1-.085.232l-.051.127.07.007.078.015a.251.251,0,0,0,.015-.041.111.111,0,0,0,.024.006l.019-.031.128-.216.017-.027V344l.038.018.005,0,0,.035-.048.242-.038.215c0,.015.06.173.06.173s.069.168.074.182l0,0-.019.064a.1.1,0,0,0,.033.009c-.007.024-.022.083-.022.083l.07-.02a1.308,1.308,0,0,0,.131-.033c.062,0,.207,0,.233.07l.011.03.127.021.033-.045c.019-.056.125-.043.156-.035a.7.7,0,0,0,.091.029.559.559,0,0,1-.015.055l.059.009a.091.091,0,0,0,.1-.058.328.328,0,0,0,.15.123c-.012-.008.058.053.058.053l.075.068a.9.9,0,0,0,.517-.007l.193-.039.086.142.033-.118c.031-.1.149-.147.359-.144.084.014.152-.1.243-.253,0,0,.016-.028.027-.05a.974.974,0,0,0,.151-.033.121.121,0,0,1-.007.029l.062.01c-.028.066-.07.173-.07.173a1.162,1.162,0,0,0-.123.373l0,.051.13.026.013-.05a.784.784,0,0,1,.178-.257l.013,0h.015c0-.017.064.125.064.125l.028.062.1.017.166-.267,0-.024c.039-.005.167-.027.167-.027l.171-.032.354.019.163-.059c.085-.042.142-.068.182-.037l.064.046.028-.09a.661.661,0,0,0,.16-.092.225.225,0,0,0-.024.055l.184.028a.1.1,0,0,0,.011-.026l.053.022.107.052.017-.061.023-.086s-.04-.017-.051-.023l0-.042,0-.007a.132.132,0,0,0,.028.016l.1.065.013-.072a.25.25,0,0,1,.165-.144.355.355,0,0,1,.234,0l.06.048.023-.075c.031-.108.242-.167.347-.19l.044-.007.548-.123.09-.009.011-.041.03-.086-.011-.006.026-.022a3.1,3.1,0,0,0,.531-.077l.022-.011.03-.09a1.316,1.316,0,0,1,.154-.028c.1.021.279-.127.336-.251h.006c.048.033.079-.019.141-.113a.236.236,0,0,0,.023-.029v.013l1.007-.521s.044-.029.059-.042H3602l.012-.046a.4.4,0,0,1,.2-.3.372.372,0,0,1,.33,0l.086.042-.011-.09a2.391,2.391,0,0,1,.04-.463.243.243,0,0,1,.168-.07.335.335,0,0,0,.219-.092l.066-.094.062-.086c-.009.009.162-.064.162-.064a.5.5,0,0,0,.25-.135.723.723,0,0,0,.134-.338l.076-.236a1.587,1.587,0,0,1,.809-.452l.063.022,0-.035a7.532,7.532,0,0,0,.59-1.234c0-.007.277.035.277.035l.009-.031v-.011a1.261,1.261,0,0,0,.678-.482c.181-.2.289-.654.5-.7l.043-.007v-.076a.185.185,0,0,0-.062-.16c-.085-.064-.206-.012-.3.026l-.081.031,0,.037a1.613,1.613,0,0,0-.53.176v-.016l-.064.008a.367.367,0,0,0-.177.1l-.073.056-.19.073s0-.009-.007-.016c-.045-.017-.074.016-.1.042l-.015.018a4.016,4.016,0,0,1-1.171.749h-.044l-.006.038a.261.261,0,0,1-.05,0l-.024.037a.645.645,0,0,1-.272.047h-.036l-.021.04a2.316,2.316,0,0,1-.811.48c-.085,0-.1.031-.106.063l-.116-.032-.028.058c-.009.057-.136.18-.879.354l.007-.007-.084-.015-.046.006-.024.037a.778.778,0,0,1-.186.093l-.117.05v.015a.571.571,0,0,0-.195.1.958.958,0,0,1-.253.14l-.035,0a.15.15,0,0,0-.009.028.716.716,0,0,0-.2.052l-.227.058-.012.032a1.385,1.385,0,0,0-.721.193l0-.015a.093.093,0,0,0-.079-.028h-.017l-.059-.013-.035.04c-.014.015-.077.015-.1.015l-.066,0-.072-.109-.046.087a1.012,1.012,0,0,1-.276.1s-.156.052-.2.07a.346.346,0,0,0-.051-.013c-.01-.011-.011-.027-.021-.035-.044-.022-.082.017-.134.083-.039-.019-.086-.044-.086-.044a.123.123,0,0,0-.044-.009l-.05-.01-.015.046c-.011.03-.071.041-.117.043l-.083.014,0,.024-.159-.04-.37.083-.207-.017-.258-.018a1.6,1.6,0,0,1-1.175-1.159,1.545,1.545,0,0,1-.02-.254,4.311,4.311,0,0,1,.031-.437l0-.03.009-.187a1.48,1.48,0,0,1,.048-.39l.165-.4.1-.225.1-.36.157-.3c.007-.018.023-.226.023-.226l.006-.049.037-.153s.014-.046.024-.092a.126.126,0,0,1,0,.041,1.678,1.678,0,0,1-.015.183l-.01.054.13.022.015-.037.092-.178.159-.159c.006,0,.321-.4.321-.4l.2-.311a1.79,1.79,0,0,1,.406-.53l.015-.007v0a.219.219,0,0,1,.028.015l.1.059.013-.07a.318.318,0,0,0,.017-.118,1.074,1.074,0,0,0-.021-.189.069.069,0,0,0-.007-.024.163.163,0,0,0,.143.079,2.469,2.469,0,0,0,.85-.695l.059.042.079.081.048-.068.1-.132a.787.787,0,0,0,.195-.289c.033-.005.165-.037.232-.052a.193.193,0,0,0,.077.092l-.02.063.078.018.063.013.02-.071h0a.161.161,0,0,0,.067-.1l.018-.056c0-.01.118-.109.118-.109l.012-.007c.023.007.05.013.05.013l.015.005a.805.805,0,0,1,.208.223l.058.128.041-.134a.2.2,0,0,1,.106-.125.329.329,0,0,1,.251.022l.031.015.035-.031a2.9,2.9,0,0,1,.52-.16l.324.025a1.49,1.49,0,0,0,.413.009,1.624,1.624,0,0,0,.541-.251l.289-.161.4-.133.4-.133a4.805,4.805,0,0,0,.751-.421l.445-.383.165-.1a1.337,1.337,0,0,0,.328-.246,1.307,1.307,0,0,0,.229-.511l.111-.315.136-.226a2.533,2.533,0,0,0,.154-.861,2.768,2.768,0,0,0-.09-.695l-.07-.231c-.007-.015-.211-.277-.211-.277a1.09,1.09,0,0,1-.357-.726.617.617,0,0,1,.017-.147l.007-.062h-.355l-.013.038a.048.048,0,0,0-.013-.026.346.346,0,0,1-.152-.32s-.021-.165-.022-.191.04-.129.04-.129l-.132-.022-.024.044a.248.248,0,0,0-.009.035c-.022-.005-.089-.016-.089-.016s.046.1.048.107l-.011,0a.333.333,0,0,1-.235-.119l-.011-.026-.111-.02-.012.046c-.013.031-.013.031-.019.031h-.013l-.046-.006-.009.013a.66.66,0,0,0-.151-.208l-.011-.005c0-.007,0-.026-.02-.037-.042-.024-.154.078-.154.078A2.321,2.321,0,0,1,3603.364,327.061Z" transform="translate(-3566.855 -287.621)"/><path class="b" d="M3650.567,316.016h-12.948v13.411h1.427c.041-.08.081-.162.122-.244a4.591,4.591,0,0,1,.368-.68h-1V316.939H3650.1V328.5h-5.81a6.033,6.033,0,0,1-.366.924h7.1V316.016Z" transform="translate(-3566.855 -287.621)"/><path class="b" d="M3638.424,330.213l.24-.186.024-.02a2.784,2.784,0,0,0,.347-.559h-1.44v1.7A5.842,5.842,0,0,1,3638.424,330.213Z" transform="translate(-3566.855 -287.621)"/><path class="c" d="M3643.914,329.448a.725.725,0,0,1-.062.094c0,.044.012.358.012.358l-.009.046-.029.026a1.038,1.038,0,0,0-.311.344,2.754,2.754,0,0,0-.057.507c-.032.5-.068,1.063-.322,1.155a1.967,1.967,0,0,1,.022.269c0,.2-.022.432-.04.667s-.041.484-.041.71c0,.366.055.679.259.8l.066.048a.692.692,0,0,0,.072.05l.008-.015.027-.005a1.562,1.562,0,0,0,.375-.138l.4-.149a12.053,12.053,0,0,0,1.942-.738l1.269-.746,1.33-.782.307-.224a1.75,1.75,0,0,1,1.079-.5l.081.008-.029.242-.029.015a4.483,4.483,0,0,0-.453.66c-.042.066-.068.113-.09.142l.053.079a.877.877,0,0,1,.182.377v.016l-.009.054-.053.015a3.018,3.018,0,0,0-.815.614l.009.014-.345.813c-.054.1-.293.217-.661.375l-.29.136-.087.033-.026.01s-.009.044-.014.068l.062,0-.035.285s-.08-.008-.093-.008a1.358,1.358,0,0,1-.758.519c-.007.055-.016.136-.016.136v.029l-.008,0a.261.261,0,0,1,.191.055.145.145,0,0,1,.035.1v.022l-.011.1.335-.037.094-.013-.016.158-.006.072-.12,0c-.018.009-.038.022-.038.022a2.565,2.565,0,0,0-.617.366l0-.024,0-.016c0-.009-.013-.011-.015-.019,0,.019,0,.142,0,.142s-.256.04-.291.042c0,.008-.007.008-.007.008a.208.208,0,0,1-.138.051v0l-.134-.009c-.012.024-.02.045-.02.045l-.016.015a.266.266,0,0,0,.012.05.062.062,0,0,1,.053.02l.02.052-.009.07-.016.064-.109.005a.126.126,0,0,1-.112-.029.119.119,0,0,1-.033-.09v0a.38.38,0,0,1-.077-.138.164.164,0,0,1-.15-.033.125.125,0,0,1-.03-.073.46.46,0,0,0-.267-.1.048.048,0,0,0-.013.029l-.013.094-.266-.088a.829.829,0,0,0-.151.331v.007l.062.011c.05-.032.095-.059.143-.032a.092.092,0,0,1,.036.039h.139l-.016.169-.1.153c-.272.393-.489.7-1.1.662l-.213,0a.742.742,0,0,1-.348.214v.01l-.009.133-.314-.239a1.4,1.4,0,0,0-.193-.14l-.041.116-.116.03s-.382-.024-.472-.028c0,.022-.048.408-.048.408l-.092-.033a2.263,2.263,0,0,1-.414-.254,1.434,1.434,0,0,0-.414-.242l-.149-.006.137-.175a.364.364,0,0,0,.077-.121,1.035,1.035,0,0,1-.208-.228l-.168-.2-.088-.064c-.776-.566-.9-.7-.9-.791a.083.083,0,0,1,0-.023.109.109,0,0,1,.037-.039.164.164,0,0,0,0-.03,1.123,1.123,0,0,0-.211-.45.74.74,0,0,1-.162-.324.13.13,0,0,1,.02-.064c.006-.011.019-.007.024-.011a.15.15,0,0,1,.006-.044h-.006a1.022,1.022,0,0,1-.555-.857.451.451,0,0,1,.006-.09l.01-.07.061.005a.567.567,0,0,0,.006-.066s.116.009.148.009a1.113,1.113,0,0,1-.382-.642,1.894,1.894,0,0,0-.077-.2c-.018,0-.33.032-.357.033a.436.436,0,0,1,.053.2.54.54,0,0,1-.036.2.756.756,0,0,1-.5.4.72.72,0,0,0,.109.068l.039.02.048.043-.013.1-.008.076-.059,0-.005.022-.024.018a3.384,3.384,0,0,0-.585.769l-.039.062v7.257h13.421V329.448Z" transform="translate(-3566.855 -287.621)"/><path class="c" d="M3630.909,328.817l.008-.053.054-.013s.142-.026.2-.039c.206-1.022,1.355-3.872,2.484-3.865.911,0,1.512.978,1.68,1.6l.029.149-.1-.006a2.1,2.1,0,0,0-.214.881,1.818,1.818,0,0,0,.021.248l0,.05.008.1-.1-.007a7.528,7.528,0,0,0-.514,1.594h3.133V316.035h-13.412v13.413h6.515A2.109,2.109,0,0,0,3630.909,328.817Z" transform="translate(-3566.855 -287.621)"/><path class="d" d="M3650.212,331.235a1.75,1.75,0,0,0-1.079.5l-.307.224-1.33.782-1.269.746a12.053,12.053,0,0,1-1.942.738l-.4.149a1.562,1.562,0,0,1-.375.138l-.027.005-.008.015a.692.692,0,0,1-.072-.05l-.066-.048c-.2-.126-.259-.439-.259-.8,0-.226.018-.476.041-.71s.04-.463.04-.667a1.967,1.967,0,0,0-.022-.269c.254-.092.29-.652.322-1.155a2.754,2.754,0,0,1,.057-.507,1.038,1.038,0,0,1,.311-.344l.029-.026.009-.046s-.009-.314-.012-.358a5.818,5.818,0,0,0,.51-1.262.643.643,0,0,0,.021-.162,1.063,1.063,0,0,0-.022-.182.282.282,0,0,0,.112-.171l.018-.046.006-.039a.081.081,0,0,0,.02-.009l.144-.059a.631.631,0,0,0-.039-.062c.007-.02.131-.289.158-.346a.1.1,0,0,0,.072-.04.134.134,0,0,0,.015-.041.2.2,0,0,0-.015-.07.943.943,0,0,0,.243-.274l.095-.125.307-.3a4.215,4.215,0,0,0,.55-.592c.009-.015.155-.4.155-.4l.072-.187.106-.138a.973.973,0,0,0,.272-.581.457.457,0,0,0-.006-.09c-.053-.37-.379-.509-.636-.618l-.057-.026c0-.016.009-.072.009-.072h-.135c-.083,0-.149-.011-.2-.014a.9.9,0,0,0,.147-.364.236.236,0,0,0,.123-.072l.1-.1-.16-.025-.015-.041-.026-.092-.055,0-.235-.013-.087.241a.275.275,0,0,1-.167-.149l-.015-.038-.075-.011-.006-.008.006,0,.013-.063-.122-.049c.019-.028.039-.063.039-.063s-.088-.011-.107-.011a.13.13,0,0,1,.005-.024.4.4,0,0,0,.008-.083.167.167,0,0,0-.024-.084c-.013-.015-.04-.015-.062-.026a.226.226,0,0,0-.107-.138l-.015-.011c.006-.022.017-.075.017-.075l-.085-.028a1.17,1.17,0,0,1-.321-.1c-.264-.094-.559-.2-.773-.078a.511.511,0,0,0-.2.335.413.413,0,0,1-.106-.052s-.039-.025-.063-.042a.4.4,0,0,1-.016-.066l-.116-.029h-.11l-.013.066a.476.476,0,0,1-.271.441l-.174.114s.1.015.158.022a.09.09,0,0,0-.015.022l-.1.19a3.986,3.986,0,0,0-.561,1.371.232.232,0,0,0,.019.089c-.085,0-.3-.019-.3-.019l-.006.07a1.709,1.709,0,0,1-.434.995l-.194.261-.243.464-.082.15a4.2,4.2,0,0,0-.45.813,4.109,4.109,0,0,1-.428.773l-.368.386a4.368,4.368,0,0,0-.384.706,4.072,4.072,0,0,1-.48.824l-.024.02-.24.186a4.1,4.1,0,0,0-1.145,1.561.572.572,0,0,1-.072.018l-.011.006a9.577,9.577,0,0,0-1.83,1.778l-.206.238-.277.349-.076.092c.006-.008-.316.22-.316.22a2.074,2.074,0,0,0-.408.311c-.005.008-.336.436-.336.436l-.043.055c-.079.074-.232.063-.388.046a.749.749,0,0,0-.436.054,8.8,8.8,0,0,1,.8-2.72.14.14,0,0,0,.067-.042.079.079,0,0,0,.021-.059.2.2,0,0,0-.018-.071l-.009-.034a.437.437,0,0,1-.012-.09,5.779,5.779,0,0,1,.5-1.644l.024-.052s-.022-.015-.046-.029a.249.249,0,0,0,.015-.03l.055-.1.056-.317.064-.382a8.4,8.4,0,0,1,.588-1.958l.1.007-.008-.1,0-.05a1.818,1.818,0,0,1-.021-.248,2.1,2.1,0,0,1,.214-.881l.1.006-.029-.149c-.168-.618-.769-1.593-1.68-1.6-1.129-.007-2.278,2.843-2.484,3.865-.057.013-.2.039-.2.039l-.055.013-.007.053a2.129,2.129,0,0,1-.208.634l-.131.315-.371.973-.213.529.083.022s.1.028.185.05c-.077,0-.32-.017-.32-.017l-.005.074a2.216,2.216,0,0,1-.175.539l-.116.274-.018.108-.083.5-.151.292-.079.158a5.062,5.062,0,0,0-.252,1.037l-.067.368-.052.283a3.769,3.769,0,0,0-.114.791,1.246,1.246,0,0,0,.244.761l-.007.015-.289-.081-.029.2.055.026s.073.033.125.053a3.373,3.373,0,0,0-.022.352,2.6,2.6,0,0,0,.616,1.706l.127.149a1.252,1.252,0,0,1,.3.465l.014.05.837.048,0-.037c.086.037.507.2.507.2l.026,0,.416-.042a1.821,1.821,0,0,0,.912-.2.552.552,0,0,0,.082.006l-.007.055-.014.143h.082a1.143,1.143,0,0,0,.835-.39l.276-.226.011-.031c0-.02,0-.041,0-.059a.443.443,0,0,0-.043-.177.672.672,0,0,0,.2-.091l.141-.074-.009-.037-.033-.112a.308.308,0,0,0-.053-.031,1.137,1.137,0,0,0,.356-.078.663.663,0,0,0,.267-.194l.153-.142.353-.2a2.107,2.107,0,0,0,.869-.677c.056-.013.146-.073.344-.3l.015-.022.007-.05a.3.3,0,0,0,.108-.112l.03-.057h0c.44-.121.725-.573,1-1.015a3.384,3.384,0,0,1,.585-.769l.024-.018.005-.022.059,0,.008-.076.012-.1-.047-.043-.039-.02a.72.72,0,0,1-.109-.068.753.753,0,0,0,.5-.4.54.54,0,0,0,.036-.2.436.436,0,0,0-.053-.2c.027,0,.339-.031.357-.033a1.838,1.838,0,0,1,.077.2,1.114,1.114,0,0,0,.382.641c-.032,0-.148-.009-.148-.009a.567.567,0,0,1-.006.066l-.061-.005-.01.07a.451.451,0,0,0-.006.09,1.022,1.022,0,0,0,.555.857h.006a.15.15,0,0,0-.006.044s-.018,0-.024.011a.13.13,0,0,0-.02.064.74.74,0,0,0,.162.324,1.123,1.123,0,0,1,.211.45.164.164,0,0,1,0,.03.109.109,0,0,0-.037.039.083.083,0,0,0,0,.023c0,.092.125.225.9.791l.088.064.168.2a1.035,1.035,0,0,0,.208.228.364.364,0,0,1-.077.121l-.137.175.149.006a1.434,1.434,0,0,1,.414.242,2.263,2.263,0,0,0,.414.254l.092.033s.046-.386.048-.408c.09,0,.472.028.472.028l.116-.03.041-.116a1.4,1.4,0,0,1,.193.14l.314.239.009-.133v-.01a.742.742,0,0,0,.348-.214l.213,0c.611.041.828-.269,1.1-.662l.1-.153.016-.169h-.139a.092.092,0,0,0-.036-.039c-.048-.027-.093,0-.143.032l-.062-.011v-.007a.836.836,0,0,1,.151-.331l.266.088.013-.094a.048.048,0,0,1,.013-.029.46.46,0,0,1,.267.1.125.125,0,0,0,.03.073.164.164,0,0,0,.15.033.38.38,0,0,0,.077.138v0a.119.119,0,0,0,.033.09.126.126,0,0,0,.112.029l.109-.005.016-.064.009-.07-.02-.052a.062.062,0,0,0-.053-.02.266.266,0,0,1-.012-.05l.016-.015s.008-.021.02-.045l.134.009v0a.208.208,0,0,0,.138-.051s0,0,.007-.008c.035,0,.291-.042.291-.042s0-.123,0-.142c0,.008.011.01.015.019l0,.016,0,.024a2.565,2.565,0,0,1,.617-.366s.02-.013.038-.022l.12,0,.006-.072.016-.158-.094.013-.335.037.011-.1v-.022a.145.145,0,0,0-.035-.1.261.261,0,0,0-.191-.055l.008,0v-.029s.009-.081.016-.136a1.358,1.358,0,0,0,.758-.519c.013,0,.093.008.093.008l.035-.285-.062,0c.005-.024.014-.068.014-.068l.026-.01.087-.033.29-.136c.368-.158.607-.272.661-.375l.345-.813-.009-.014a3.028,3.028,0,0,1,.814-.614l.054-.015.009-.054v-.016a.877.877,0,0,0-.182-.377l-.053-.079c.022-.029.048-.076.09-.142a4.483,4.483,0,0,1,.453-.66l.029-.015.029-.242Z" transform="translate(-3566.855 -287.621)"/></svg>