<svg xmlns="http://www.w3.org/2000/svg" width="240" height="80" viewBox="0 0 240 80"><defs><style>.cls-1,.cls-2,.cls-3{fill:#fff;}.cls-1{opacity:0;}.cls-3{isolation:isolate;opacity:0.6;}</style></defs><g id="레이어_2" data-name="레이어 2"><g id="레이어_1-2" data-name="레이어 1"><rect id="사각형_188" data-name="사각형 188" class="cls-1" width="240" height="80"/><line class="cls-2" x1="86.882" y1="47.215" x2="85.022" y2="47.215"/><path class="cls-2" d="M79.452,37.263v0a1.108,1.108,0,0,0-1.117-1.1l0,0H75.868a.336.336,0,1,0,0,.672l.031,0h.86v8.917h-11.3l.515,1.132H76.761v1.849h2.693V37.264Z"/><path class="cls-2" d="M66.217,40.664a4.622,4.622,0,0,1,9.185,0,4.622,4.622,0,0,1-9.185,0Zm4.592,3.115c1.11,0,2.011-1.4,2.011-3.115s-.9-3.114-2.011-3.114S68.8,38.944,68.8,40.664,69.7,43.779,70.809,43.779Z"/><path class="cls-2" d="M94.912,37.863v-.584l0,0a1.091,1.091,0,0,0-1.1-1.077v0H91.381a.33.33,0,1,0,0,.66.136.136,0,0,0,.03,0h.846v5.809h2.651v-4.8Z"/><path class="cls-2" d="M86.064,39.451a3.675,3.675,0,0,0,.689-1.88h2.324l.444-.682H80.784l.395.682h2.892c-.007.37-.181,2.93-3.382,4.751l.765.4A12.238,12.238,0,0,0,85.6,40.029a3.14,3.14,0,0,1,1.226.826,2.538,2.538,0,0,1,.4,1.78h2.657a3.615,3.615,0,0,0-1.243-2.014A5.5,5.5,0,0,0,86.064,39.451Z"/><path class="cls-2" d="M83.68,45.962c0-1.561,2.514-2.828,5.616-2.828s5.616,1.267,5.616,2.828-2.514,2.83-5.616,2.83S83.68,47.526,83.68,45.962ZM89.3,47.616c1.574,0,2.85-.741,2.85-1.654s-1.276-1.651-2.85-1.651-2.851.738-2.851,1.651S87.722,47.616,89.3,47.616Z"/><polygon class="cls-2" points="92.389 38.948 90.131 38.948 89.382 40.087 92.389 40.087 92.389 38.948"/><polygon class="cls-2" points="110.977 44.002 105.895 44.002 98.809 44.002 96.279 44.002 96.764 45.145 102.455 45.145 102.455 48.729 105.056 48.729 105.056 45.145 110.507 45.145 110.977 44.002"/><path class="cls-2" d="M109.331,37.343a1.091,1.091,0,0,0-1.1-1.077v0H105.8a.33.33,0,1,0,0,.66.243.243,0,0,0,.03,0h.843v1.756h-6.091V37.347a.8.8,0,0,0-.015-.088,1.1,1.1,0,0,0-1.093-.985l-.014,0c-.026,0-.05-.01-.075-.012h-2.32v0a.334.334,0,0,0,.009.668l0,0h.838v4.516A1.012,1.012,0,0,0,98.98,42.49c.036,0,.114.008.149.006h10.2V37.345ZM106.7,41.46h-6.091V39.722H106.7Z"/><path class="cls-2" d="M156.966,37.319a1.1,1.1,0,0,0-1.093-1.093v0h-1.219V41h-.915V37.323l0,0v0a1.094,1.094,0,0,0-1.092-1.093l0,0h-2.091a.335.335,0,0,0,0,.67c.011,0,.021,0,.03,0h.841V48.8h2.314V42.131h.915V48.8h2.315V37.323l0,0Z"/><path class="cls-2" d="M149.239,38.309l.468-1.087h-6.62v8.6h0v.012a.871.871,0,0,0,.9.843.126.126,0,0,0,.039,0h5.553V45.58h-3.8V38.309Z"/><path class="cls-2" d="M167.8,37.412H164.26V36.2h-3.526v0a.335.335,0,1,0,0,.669h.875v.542h-3.541l.47,1.128H160a2.628,2.628,0,0,0-.936,1.95c0,1.657,1.737,3,3.886,3s3.886-1.347,3.886-3a2.63,2.63,0,0,0-.938-1.95h1.432Zm-4.849,4.739a1.664,1.664,0,1,1,1.557-1.661A1.614,1.614,0,0,1,162.954,42.151Z"/><path class="cls-2" d="M174.471,40.263l-.771-1.141h-1.611V37.3l0,0a1.121,1.121,0,0,0-1.139-1.106v0h-2.508a.339.339,0,1,0,0,.677.1.1,0,0,0,.032-.005h.875v6.917h2.741V40.263Z"/><polygon class="cls-2" points="160.407 44.579 172.089 44.579 172.089 48.784 169.343 48.784 169.343 45.726 160.92 45.726 160.407 44.579"/><polygon class="cls-2" points="175.554 37.161 176.034 38.306 185.328 38.306 185.328 45.387 188.054 45.387 188.054 37.161 175.554 37.161"/><path class="cls-2" d="M184.182,47.1v-4.08h-3.295v.009a.326.326,0,0,0-.123.025.314.314,0,0,0-.174.173.308.308,0,0,0-.029.133.338.338,0,0,0,.343.332h.664V47.1h-1.86v-4.08h-3.294v0a.335.335,0,1,0,.006.67.122.122,0,0,0,.032,0h.644V47.1h-2.53l.485,1.142h13.743l.47-1.142Z"/><path class="cls-2" d="M112.943,38.921c0-1.51,2.66-2.737,5.94-2.737s5.937,1.227,5.937,2.737-2.659,2.732-5.937,2.732-5.94-1.226-5.94-2.732m5.94,1.61c1.826,0,3.309-.723,3.309-1.61s-1.483-1.613-3.309-1.613-3.311.722-3.311,1.613,1.481,1.61,3.311,1.61"/><polygon class="cls-2" points="125.758 43.276 126.23 42.152 111.543 42.152 112.013 43.276 125.758 43.276"/><path class="cls-2" d="M115.705,46.785h8.305a.893.893,0,0,0,.9-.877l0-.015V43.827H112.739l.472,1.128h8.954v.852H113.51v0h-.552v2.082a.887.887,0,0,0,.9.874h1.846v0h9.206l.471-1.125h-9.677Z"/><path class="cls-2" d="M132.753,41.363a8.005,8.005,0,0,0,.731-3.034h2.465l.47-1.1h-9.264l.419,1.1h3.067A10.853,10.853,0,0,1,127.053,46l.811.644a13.61,13.61,0,0,0,4.4-4.348,3.809,3.809,0,0,1,1.3,1.333,6.567,6.567,0,0,1,.425,3.044h2.818a7.622,7.622,0,0,0-1.317-3.424,5.108,5.108,0,0,0-2.736-1.886"/><path class="cls-2" d="M140.988,37.284v0a1.109,1.109,0,0,0-1.124-1.09l0,0H137.38a.334.334,0,1,0,0,.668h.9v11.9h2.712V37.286Z"/><path class="cls-2" d="M220.5,37.291v0a1.117,1.117,0,0,0-1.126-1.1h-2.484a.337.337,0,1,0,0,.674l.032,0h.864v5.322H205.97l.518,1.132h2.6V44.7h2.746V43.313h5.96v.749h-2.329L214.7,45.2h3.093v.589h2.712V37.292Z"/><path class="cls-2" d="M221.063,47.625H211.9V45.71l-3.765,0a.337.337,0,1,0,0,.673.076.076,0,0,0,.03-.005h.984v1.505a.889.889,0,0,0,.9.879h10.535Z"/><path class="cls-2" d="M212,36.663c2.78,0,5.036,1.149,5.036,2.565S214.78,41.794,212,41.794s-5.036-1.149-5.036-2.566,2.256-2.565,5.036-2.565m-2.322,2.565c0,.8,1.039,1.452,2.322,1.452s2.321-.65,2.321-1.452-1.04-1.452-2.321-1.452-2.322.65-2.322,1.452"/><path class="cls-2" d="M204.293,37.289h0a1.114,1.114,0,0,0-1.124-1.1h-2.484a.337.337,0,1,0,0,.674.157.157,0,0,0,.03,0h.866v1.372H199.32v-.234h0v0a1.115,1.115,0,0,0-1.127-1.1v0h-2.481a.337.337,0,1,0,0,.673c.01,0,.02,0,.031,0h.866v1.4h-2.776v-.965h0v0a1.114,1.114,0,0,0-1.125-1.1l0,0h-2.482a.337.337,0,1,0,0,.673c.011,0,.022,0,.032,0h.865v4.311l0,0a.814.814,0,0,0,.823.8l7.373,0V41.332h2.264v1.586H204.3V37.292Zm-7.684,4.248h-2.776V40.091h2.776Zm2.711-2.177h2.264V40.2H199.32Z"/><path class="cls-2" d="M192.862,45.963c0-1.57,2.584-2.841,5.772-2.841s5.771,1.271,5.771,2.841-2.584,2.84-5.771,2.84-5.772-1.272-5.772-2.84m5.772,1.657c1.618,0,2.93-.742,2.93-1.657s-1.312-1.66-2.93-1.66-2.93.741-2.93,1.66,1.312,1.657,2.93,1.657"/><path class="cls-3" d="M42.583,33.19A1.993,1.993,0,1,1,40.592,31.2,1.993,1.993,0,0,1,42.583,33.19Z"/><path class="cls-2" d="M52.947,36.173a3.32,3.32,0,0,0-3.319,3.322m0,0V45.47a2.935,2.935,0,0,0,3.319,3.318h9.3V45.47H53.735a.788.788,0,0,1-.788-.786v-4.4a.789.789,0,0,1,.788-.788l.541,0h7.967v-3.32h-9.3"/><path class="cls-2" d="M22.256,36.175a3.32,3.32,0,0,0-3.319,3.32m0,0v5.969a3.321,3.321,0,0,0,3.319,3.32h9.3v-3.32H23.585l-.541,0a.788.788,0,0,1-.788-.786v-.787h8.523V41.07H22.256v-.785a.788.788,0,0,1,.788-.788l.541,0h7.969v-3.32h-9.3"/><path class="cls-2" d="M38.931,48.788h3.321V39.495H38.931Zm5.975-12.613H42.252v3.32H44.12a.787.787,0,0,1,.786.785v8.508h3.321V39.495h0a3.32,3.32,0,0,0-3.321-3.32m-8.63,0a3.2,3.2,0,0,0-2.459.863,3.73,3.73,0,0,0-.863,2.457v9.293h3.322V40.28a.784.784,0,0,1,.785-.785h1.87v-3.32Z"/></g></g></svg>