<svg xmlns="http://www.w3.org/2000/svg" width="240" height="80" viewBox="0 0 240 80"><defs><style>.cls-1,.cls-2,.cls-3{fill:#fff;}.cls-1{opacity:0;}.cls-3{isolation:isolate;opacity:0.75;}</style></defs><g id="레이어_2" data-name="레이어 2"><g id="레이어_1-2" data-name="레이어 1"><rect id="사각형_199" data-name="사각형 199" class="cls-1" width="240" height="80"/><path class="cls-2" d="M74.779,34.735v1.046a2.093,2.093,0,0,1,1.317-.806,4.92,4.92,0,0,1,3.619.745,4.824,4.824,0,0,1,1.171,2.262l6.918-.24a8.008,8.008,0,0,0-1.2-3.778,9.018,9.018,0,0,0-5.136-3.14c-2.315-.426-6.732-.4-8.568.239a8.091,8.091,0,0,0-3.911,2.661,5.047,5.047,0,0,0-.528,1.011Z"/><path class="cls-2" d="M87.3,43.144a10.866,10.866,0,0,0-4.737-3.034c-1.623-.452-4.816-1.277-6.333-1.6a2.441,2.441,0,0,1-1.45-.742v2.977H68.6a5.964,5.964,0,0,0,1.565,1.809,18.757,18.757,0,0,0,6.6,2.448c1.491.187,3.566.958,4.071,1.677a2.444,2.444,0,0,1,.346,2.554,3.033,3.033,0,0,1-2.873,1.517,4.373,4.373,0,0,1-3.539-1.49,5.622,5.622,0,0,1-1.011-2.5l-5.522.273V26.5H60.849v8.235H54.49V26.5H47.106V50.514H54.49V40.749h6.359v9.765H67.5a8.909,8.909,0,0,0,4.312,3.938,16.144,16.144,0,0,0,8.116.879,11.43,11.43,0,0,0,5.508-1.89,7.806,7.806,0,0,0,3.14-4.842A7.715,7.715,0,0,0,87.3,43.144Z"/><path class="cls-2" d="M105.45,32.128h-4.4V30.611H97.507v1.517H93.1v2.98h2.415a5.5,5.5,0,0,0-1.883,4.138,5.642,5.642,0,0,0,11.282,0,5.494,5.494,0,0,0-1.884-4.138h2.416ZM99.277,41.5a2.251,2.251,0,1,1,2.288-2.25A2.269,2.269,0,0,1,99.277,41.5Z"/><polygon class="cls-2" points="113.295 34.789 111.193 34.789 111.193 31.09 107.707 31.09 107.707 48.173 111.193 48.173 111.193 37.849 113.295 37.849 113.295 34.789"/><polygon class="cls-2" points="100.284 51.925 100.284 47.188 96.718 47.188 96.718 54.852 111.486 54.852 111.486 51.925 100.284 51.925"/><polygon class="cls-2" points="121.411 30.359 113.774 42.425 116.621 44.208 121.411 36.425 126.201 44.208 129.048 42.425 121.411 30.359"/><rect class="cls-2" x="129.873" y="31.09" width="3.459" height="17.083"/><polygon class="cls-2" points="121.863 51.898 121.863 46.47 118.324 46.47 118.324 54.852 133.651 54.852 133.651 51.898 121.863 51.898"/><rect class="cls-2" x="148.712" y="39.339" width="1.676" height="15.673"/><path class="cls-2" d="M145.838,39.339v2.714h-1.464V39.339h-6.146V49.477h6.146V43.569h1.464V55.011h1.676V39.339Zm-3.379,8.594h-2.4V40.855h2.4Z"/><polygon class="cls-2" points="163.4 39.339 163.4 48.013 155.523 48.013 155.523 40.855 161.165 40.855 161.165 39.339 153.741 39.339 153.741 49.53 163.4 49.53 163.4 55.011 165.209 55.011 165.209 39.339 163.4 39.339"/><path class="cls-2" d="M178.646,39.339v8.727H175.72V40.8H177V39.339h-8.169V40.8h1.277v7.264h-1.277v1.49h9.818v5.455h1.73V39.339ZM171.835,40.8h2.155v7.264h-2.155Z"/><path class="cls-2" d="M187.294,39.312a4.657,4.657,0,1,0,4.657,4.657A4.657,4.657,0,0,0,187.294,39.312Zm0,7.584a2.927,2.927,0,1,1,2.927-2.927A2.928,2.928,0,0,1,187.294,46.9Z"/><polygon class="cls-2" points="196.9 42.026 195.357 42.026 195.357 39.339 193.601 39.339 193.601 54.985 195.357 54.985 195.357 43.569 196.9 43.569 196.9 42.026"/><path class="cls-3" d="M142.778,31.09h-4.63v.585H140.3a3.583,3.583,0,0,1-2.154.639l.08.612a4.68,4.68,0,0,0,2.235-.612,4.68,4.68,0,0,0,2.235.612l.08-.612a3.583,3.583,0,0,1-2.154-.639h2.154Z"/><path class="cls-3" d="M143.031,33.432h-2.289v-.506h-.559v.506H137.9v.5h1.295c-2.459,3.511,5,3.508,2.546,0h1.3Zm-2.568,2.7a1.083,1.083,0,1,1,0-2.164A1.083,1.083,0,1,1,140.463,36.137Z"/><path class="cls-3" d="M151.372,31.3h-1.25v-.479h-.692V31.3h-1.251v.638h.4c-1.308,2.282,3.712,2.281,2.4,0h.394Zm-.8,1.25c.017.793-1.614.794-1.6,0C148.96,31.76,150.592,31.76,150.574,32.553Z"/><path class="cls-3" d="M152.357,33.964v.612h-3.193v-.612h-.692v2.261h4.577V33.964Zm-3.193,1.756v-.612h3.193v.612Z"/><polygon class="cls-3" points="153.661 32.101 153.049 32.101 153.049 31.143 152.357 31.143 152.357 33.618 153.049 33.618 153.049 32.713 153.661 32.713 153.661 32.101"/><path class="cls-3" d="M163.213,31.143v.931h-1.344a2.758,2.758,0,0,0,.2-.931h-2.953v.639h2.208a2.57,2.57,0,0,1-2.288,1.277l.08.559c-.033.076,1.926-.127,2.417-.958h1.68v.958h.586V31.143Z"/><path class="cls-3" d="M159.275,34.017v2.208H163.8V34.017Zm3.938,1.676h-3.352V34.549h3.352Z"/><path class="cls-3" d="M171.855,32.766a1.5,1.5,0,0,1-.425-1.064h1.263V31.09h-3.167V31.7h1.263c.263.542-1.086,1.678-1.356,1.623l.266.586s1.171-.479,1.411-1.118c.239.639,1.41,1.118,1.41,1.118l.266-.586A3.812,3.812,0,0,1,171.855,32.766Z"/><rect class="cls-3" x="173.671" y="31.037" width="0.665" height="3.539"/><polygon class="cls-3" points="170.451 35.667 170.451 34.523 169.759 34.523 169.759 36.225 174.336 36.225 174.336 35.667 170.451 35.667"/><polygon class="cls-3" points="181.041 35.667 181.041 34.523 180.349 34.523 180.349 36.225 184.926 36.225 184.926 35.667 181.041 35.667"/><path class="cls-3" d="M181.573,32v-.852h-.585c.271,1.1-.679,2.254-1.144,2.235l.239.4a1.883,1.883,0,0,0,1.2-1.117,1.883,1.883,0,0,0,1.2,1.117l.24-.4A1.7,1.7,0,0,1,181.573,32Z"/><rect class="cls-3" x="184.288" y="31.09" width="0.612" height="3.512"/><polygon class="cls-3" points="183.197 31.09 183.197 31.915 182.531 31.915 182.531 32.447 183.197 32.447 183.197 34.602 183.809 34.602 183.809 31.09 183.197 31.09"/><polygon class="cls-3" points="190.567 31.183 190.567 35.174 193.947 35.174 193.947 34.509 191.259 34.509 191.259 33.471 193.015 33.471 193.015 32.886 191.259 32.886 191.259 31.848 193.494 31.848 193.494 31.183 190.567 31.183"/><polygon class="cls-3" points="194.612 31.17 194.612 32.899 193.707 32.899 193.707 33.485 194.612 33.485 194.612 36.305 195.304 36.305 195.304 31.17 194.612 31.17"/><rect class="cls-3" x="68.233" y="34.735" width="6.546" height="6.014"/></g></g></svg>