<svg xmlns="http://www.w3.org/2000/svg" width="240" height="80" viewBox="0 0 240 80"><defs><style>.a,.b,.c,.d{fill:#fff;}.a{opacity:0;}.c{opacity:0.8;}.d{opacity:0.5;}</style></defs><rect class="a" width="240" height="80"/><path class="b" d="M2857.214,465.851h-12.656v2.42h11.594v3.489h3.458v-3.489a2.444,2.444,0,0,0-2.4-2.42Z" transform="translate(-2713.011 -425.534)"/><path class="b" d="M2859.61,454.32h-3.458V464.67h3.458v-4.818h2.235v-2.42h-2.235V454.32Z" transform="translate(-2713.011 -425.534)"/><path class="b" d="M2848.8,464.521h.045c2.836,0,5.671-1.914,5.349-4.311a3.552,3.552,0,0,0-1.36-2.42h2.12v-2.4H2850.6v-1.786h-3.409v1.786h-4.911v2.4h2.42a3.41,3.41,0,0,0-1.336,2.42c-.324,2.213,2.281,4.311,5.393,4.311Zm-1.982-4.588a2.107,2.107,0,0,1,1.982-2.189h.045a2.071,2.071,0,0,1,1.937,2.189,2.158,2.158,0,0,1-1.982,2.258h-.046a2.151,2.151,0,0,1-1.936-2.258Z" transform="translate(-2713.011 -425.534)"/><path class="b" d="M2878.58,457.294v-.185a2.42,2.42,0,0,0-2.42-2.42h-12.516v2.42h11.479v11.065h-2.134v-7.1h-2.927v7.1H2868.3v-7.1h-2.951v7.1h-3v2.442H2880.1v-2.442h-1.522v-10.88Z" transform="translate(-2713.011 -425.534)"/><path class="b" d="M2894.209,456.1h-2.444v-1.428h-3.227V456.1h-3.965v-1.428h-3.227v5.923a2.131,2.131,0,0,0,2.329,2.3l2.88-.023h5.326l-.024-1.061h2.352v2.582a8.435,8.435,0,0,0-1.222-.345,11.148,11.148,0,0,0-2.375-.254,10.506,10.506,0,0,0-4.057.784c-1.728.76-2.858,1.982-2.858,3.365s1.13,2.6,2.858,3.365a10.506,10.506,0,0,0,4.057.784,11.215,11.215,0,0,0,2.375-.254c2.535-.552,4.333-1.982,4.471-3.757a7.718,7.718,0,0,0,.069-1.037v-12.47h-3.318V456.1Zm-5.671,4.4h-3.965v-2.26h3.965v2.26Zm4.449,8.712a4.87,4.87,0,0,1-2.375.554c-1.821,0-3.3-.807-3.3-1.821s1.475-1.821,3.3-1.821a4.893,4.893,0,0,1,2.375.553,1.333,1.333,0,0,1,0,2.535Zm1.222-9.4h-2.444v-1.568h2.444v1.568Z" transform="translate(-2713.011 -425.534)"/><path class="b" d="M2913.455,454.505v9.612h-3.78v2.3h3.78v2.651h-7.008c-.046-.046-.046-.046-.046-.092v-2.743h-2.12a12.069,12.069,0,0,0,1.775-.53,3.505,3.505,0,0,0,.876-.484,5.134,5.134,0,0,0,1.937-2.259h3.273v-2.3c-.808.046-1.615.093-2.421.116a3.247,3.247,0,0,0,1.59-2.721c0-2.051-2.351-3.872-5.255-3.894h-.023c-2.928,0-5.3,1.843-5.3,3.894a3.255,3.255,0,0,0,1.936,2.743c-.921-.022-1.866-.045-2.789-.092v2.259h4.91a5.061,5.061,0,0,1-.553.737c-.876.716-2.006.877-4.08.923v1.936h2.19c.369,0,.576.53.53.76v2.306a1.676,1.676,0,0,0,1.8,1.89h12.148V454.505Zm-9.727,4.034a2.356,2.356,0,1,1,2.328,2.074,2.237,2.237,0,0,1-2.328-2.074Z" transform="translate(-2713.011 -425.534)"/><path class="b" d="M2820.288,454.367h-3.481v9.358h-10.234v5.394a2.381,2.381,0,0,0,2.42,2.373h11.3V459.576h2.35v-2.42h-2.35v-2.789Zm-3.481,14.7h-6.777v-2.927h6.777v2.927Z" transform="translate(-2713.011 -425.534)"/><path class="b" d="M2814.755,462.158v-2.444h-7.167v-4.979h-3.459v5.025a2.421,2.421,0,0,0,2.444,2.4Z" transform="translate(-2713.011 -425.534)"/><path class="b" d="M2798.344,458.262h-2.7V460.7h2.7v8.483h-6.915v-3.711h-3.481v3.711a2.43,2.43,0,0,0,2.444,2.442H2801.8V454.482h-3.457v3.78Z" transform="translate(-2713.011 -425.534)"/><path class="b" d="M2790.184,462.25c.991,1.314,2.559,2.374,5.647,2.4l.047-2.373c-2.283-.047-3.918-1.521-3.918-5.048h3.711V454.85H2784.7v2.375h3.711c.023,3.527-1.613,5-3.918,5.048l.046,2.373c3.088-.022,4.679-1.082,5.647-2.4Z" transform="translate(-2713.011 -425.534)"/><path class="b" d="M2837.021,459.852h-1.751v-5.209H2832v11.594h-4.288v-8.8h3.021v-2.42h-6.478v11.272a2.415,2.415,0,0,0,2.42,2.4H2832v3.134h3.273V462.3h1.751v9.519h3.273V454.643h-3.273v5.209Z" transform="translate(-2713.011 -425.534)"/><path class="b" d="M2787.446,475.482a.941.941,0,0,0-.96-.881c-.434,0-1.072.342-1.072,1.78,0,.916.308,1.738,1.072,1.738.5,0,.85-.333.96-.957h.9c-.182,1.106-.8,1.879-1.881,1.879-1.153,0-1.979-.915-1.979-2.674,0-1.78.876-2.688,1.99-2.688a1.849,1.849,0,0,1,1.87,1.8Z" transform="translate(-2713.011 -425.534)"/><path class="b" d="M2789.874,476.622v2.285h-.9v-5.092h.9v1.928h1.688v-1.928h.9v5.092h-.9v-2.285Z" transform="translate(-2713.011 -425.534)"/><path class="b" d="M2794.028,476.36c0-1.425.687-1.78,1.176-1.78s1.176.355,1.176,1.78-.687,1.781-1.176,1.781-1.176-.355-1.176-1.781Zm-.9,0c0,2.39,1.508,2.681,2.08,2.681s2.079-.291,2.079-2.681-1.506-2.681-2.079-2.681-2.08.29-2.08,2.681Z" transform="translate(-2713.011 -425.534)"/><path class="b" d="M2800.611,473.814h.844v5.092h-.905l-1.766-3.632h-.011v3.632h-.844v-5.092h.952l1.718,3.545h.013v-3.545Z" transform="translate(-2713.011 -425.534)"/><path class="b" d="M2804.928,473.814h.844v5.092h-.906l-1.766-3.632h-.012v3.632h-.843v-5.092h.952l1.719,3.545h.013v-3.545Z" transform="translate(-2713.011 -425.534)"/><path class="b" d="M2808.315,474.963h.013l.535,2.015h-1.1l.553-2.015Zm-.795,2.895h1.6l.276,1.049h.984l-1.526-5.093h-1.042l-1.543,5.093h.952l.3-1.049Z" transform="translate(-2713.011 -425.534)"/><path class="b" d="M2815.074,478.907h-.844v-4.256h-.011l-.809,4.256h-.887l-.789-4.256h-.013v4.256h-.844v-5.092h1.319l.784,4.014h.013l.77-4.014h1.31v5.092Z" transform="translate(-2713.011 -425.534)"/><path class="b" d="M2821.01,473.814h.844v5.092h-.9l-1.768-3.632h-.013v3.632h-.842v-5.092h.951L2821,477.36h.013v-3.545Z" transform="translate(-2713.011 -425.534)"/><path class="b" d="M2824.4,474.963h.013l.537,2.015h-1.1l.554-2.015Zm-.795,2.895h1.6l.277,1.049h.983l-1.525-5.093h-1.043l-1.543,5.093h.953l.3-1.049Z" transform="translate(-2713.011 -425.534)"/><path class="b" d="M2828.3,478.907h-.9v-4.192h-1.309v-.9h3.52v.9H2828.3v4.192Z" transform="translate(-2713.011 -425.534)"/><path class="b" d="M2830.94,478.907h-.9v-5.092h.9v5.092Z" transform="translate(-2713.011 -425.534)"/><path class="b" d="M2832.459,476.36c0-1.425.687-1.78,1.175-1.78s1.176.355,1.176,1.78-.687,1.781-1.176,1.781-1.175-.355-1.175-1.781Zm-.905,0c0,2.39,1.508,2.681,2.08,2.681s2.081-.291,2.081-2.681-1.508-2.681-2.081-2.681-2.08.29-2.08,2.681Z" transform="translate(-2713.011 -425.534)"/><path class="b" d="M2839.042,473.814h.842v5.092h-.9l-1.764-3.632h-.013v3.632h-.844v-5.092h.952l1.718,3.545h.013v-3.545Z" transform="translate(-2713.011 -425.534)"/><path class="b" d="M2842.429,474.963h.013l.536,2.015h-1.1l.554-2.015Zm-.795,2.895h1.6l.278,1.049h.982l-1.526-5.093h-1.042l-1.544,5.093h.954l.3-1.049Z" transform="translate(-2713.011 -425.534)"/><path class="b" d="M2845.937,477.984h2.154v.922h-3.057v-5.092h.9v4.17Z" transform="translate(-2713.011 -425.534)"/><path class="b" d="M2853.787,477.126c0,1.34-.687,1.915-1.779,1.915a1.7,1.7,0,0,1-1.373-.617,2.07,2.07,0,0,1-.338-1.233v-3.377h.92v3.3c0,.71.354,1.022.773,1.022.622,0,.876-.355.876-.972v-3.355h.921v3.312Z" transform="translate(-2713.011 -425.534)"/><path class="b" d="M2857.278,473.814h.845v5.092h-.905l-1.766-3.632h-.013v3.632h-.844v-5.092h.954l1.718,3.545h.011v-3.545Z" transform="translate(-2713.011 -425.534)"/><path class="b" d="M2859.786,478.907h-.905v-5.092h.905v5.092Z" transform="translate(-2713.011 -425.534)"/><path class="b" d="M2863.1,473.814h.939l-1.471,5.092h-.861l-1.458-5.092h.97l.927,3.857h.014l.94-3.857Z" transform="translate(-2713.011 -425.534)"/><path class="b" d="M2867.761,474.715h-2.3v1.072h2.112v.9h-2.112v1.319h2.4v.9h-3.286v-5.092h3.182v.9Z" transform="translate(-2713.011 -425.534)"/><path class="b" d="M2869.449,476.055v-1.362h1.128a.6.6,0,0,1,.632.668c0,.5-.229.694-.7.694Zm-.885,2.852h.885v-1.993h.935c.669,0,.706.268.706.964a3.89,3.89,0,0,0,.1,1.029h1v-.136c-.192-.084-.192-.269-.192-1.013,0-.951-.194-1.107-.549-1.292a1.234,1.234,0,0,0,.67-1.212,1.339,1.339,0,0,0-1.363-1.44h-2.188v5.093Z" transform="translate(-2713.011 -425.534)"/><path class="b" d="M2873.524,477.339a.8.8,0,0,0,.917.823c.429,0,.905-.121.905-.661,0-.4-.326-.5-.784-.629l-.464-.128c-.7-.192-1.375-.377-1.375-1.5a1.488,1.488,0,0,1,1.664-1.568,1.585,1.585,0,0,1,1.688,1.646h-.869a.77.77,0,0,0-.885-.766c-.343,0-.754.149-.754.61a.512.512,0,0,0,.459.532l1.054.305a1.3,1.3,0,0,1,1.133,1.369,1.587,1.587,0,0,1-1.706,1.666,1.619,1.619,0,0,1-1.849-1.7Z" transform="translate(-2713.011 -425.534)"/><path class="b" d="M2877.7,478.907h-.9v-5.092h.9v5.092Z" transform="translate(-2713.011 -425.534)"/><path class="b" d="M2880.343,478.907h-.906v-4.192h-1.306v-.9h3.521v.9h-1.31v4.192Z" transform="translate(-2713.011 -425.534)"/><path class="b" d="M2884.184,478.907h-.907v-1.924l-1.495-3.169h1.068l.9,2.213.857-2.213h1.024L2884.184,477v1.908Z" transform="translate(-2713.011 -425.534)"/><path class="b" d="M2888.824,476.622v2.285h-.905v-5.092h.905v1.928h1.688v-1.928h.9v5.092h-.9v-2.285Z" transform="translate(-2713.011 -425.534)"/><path class="b" d="M2892.977,476.36c0-1.425.687-1.78,1.176-1.78s1.176.355,1.176,1.78-.688,1.781-1.176,1.781-1.176-.355-1.176-1.781Zm-.9,0c0,2.39,1.507,2.681,2.08,2.681s2.079-.291,2.079-2.681-1.508-2.681-2.079-2.681-2.08.29-2.08,2.681Z" transform="translate(-2713.011 -425.534)"/><path class="b" d="M2897.566,477.339a.8.8,0,0,0,.914.823c.429,0,.906-.121.906-.661,0-.4-.325-.5-.784-.629l-.465-.128c-.7-.192-1.374-.377-1.374-1.5a1.488,1.488,0,0,1,1.663-1.568,1.587,1.587,0,0,1,1.69,1.646h-.869a.771.771,0,0,0-.886-.766c-.343,0-.753.149-.753.61a.512.512,0,0,0,.457.532l1.055.305a1.3,1.3,0,0,1,1.134,1.369,1.589,1.589,0,0,1-1.707,1.666,1.62,1.62,0,0,1-1.85-1.7Z" transform="translate(-2713.011 -425.534)"/><path class="b" d="M2901.81,476.191v-1.5h.717c.561,0,.8.206.8.7,0,.227,0,.8-.676.8Zm0,.878h1.036c1.165,0,1.382-1.163,1.382-1.623,0-1-.508-1.632-1.346-1.632H2900.9v5.093h.906v-1.838Z" transform="translate(-2713.011 -425.534)"/><path class="b" d="M2905.722,478.907h-.9v-5.092h.9v5.092Z" transform="translate(-2713.011 -425.534)"/><path class="b" d="M2908.368,478.907h-.9v-4.192h-1.31v-.9h3.521v.9h-1.308v4.192Z" transform="translate(-2713.011 -425.534)"/><path class="b" d="M2911.347,474.963h.014l.536,2.015h-1.1l.554-2.015Zm-.794,2.895h1.595l.278,1.049h.984l-1.528-5.093h-1.041l-1.544,5.093h.954l.3-1.049Z" transform="translate(-2713.011 -425.534)"/><path class="b" d="M2914.856,477.984h2.152v.922h-3.055v-5.092h.9v4.17Z" transform="translate(-2713.011 -425.534)"/><path class="c" d="M2754.907,463.426c-.168-8.1,6.159-3.859,6.7-8.884.034-.247.079,5.058.113,6.259l-3.747.09.068,3.3-2.277.023a.726.726,0,0,1-.853-.785Z" transform="translate(-2713.011 -425.534)"/><path class="c" d="M2772.72,462.27c.169,8.111-6.17,3.859-6.708,8.9-.011.247-.067-5.058-.1-6.269l3.734-.09-.055-3.3,2.288-.023a.726.726,0,0,1,.841.785Z" transform="translate(-2713.011 -425.534)"/><path class="c" d="M2763.095,453.947c8.133-.19,3.994,6.047,9.031,6.685l-6.3.124-.056-3.735-3.287.056-.056-2.277c-.056-.707.415-.875.673-.853Z" transform="translate(-2713.011 -425.534)"/><path class="c" d="M2764.532,471.749c-8.133.2-3.994-6.046-9.03-6.7l6.3-.112.056,3.747,3.3-.056.044,2.277c.057.706-.414.875-.672.841Z" transform="translate(-2713.011 -425.534)"/><path class="d" d="M2766.281,473.667c.337-.078,1.514,1.773,1.907,3.342a10.734,10.734,0,0,0,5.889-14.851c-.763,1.3-.145,2.894-.46,4.016-.3,1.1-1.94,1.952-2.366,2.087-3.792,1.121-1.772,2.826-3.085,4.048-.685.628-1.548.628-1.885,1.358Z" transform="translate(-2713.011 -425.534)"/><path class="d" d="M2760.763,472.287c-1.863-.392-1.975-1.57-2.311-2.535a3.319,3.319,0,0,0-2.782-2.613c-1.1-.393-1.38-1.717-1.828-2.053a10.757,10.757,0,0,0,12.776,12.439c-.09-3.354-3.69-4.756-5.855-5.238Z" transform="translate(-2713.011 -425.534)"/><path class="b" d="M2757.11,452.6l.2.4.468-.237.468-.237-.205-.4-.468.237Z" transform="translate(-2713.011 -425.534)"/><path class="b" d="M2752.67,475.822l.434-.672-.74.316Z" transform="translate(-2713.011 -425.534)"/><path class="b" d="M2759.866,480.293l.452.124-.02-.8Z" transform="translate(-2713.011 -425.534)"/><path class="b" d="M2756.5,477.716a.454.454,0,0,0-.479.028,1.153,1.153,0,0,0-.383.466,1.168,1.168,0,0,0-.158.581.451.451,0,0,0,.263.408.459.459,0,0,0,.48-.03,1.383,1.383,0,0,0,.535-1.049A.464.464,0,0,0,2756.5,477.716Z" transform="translate(-2713.011 -425.534)"/><path class="b" d="M2749.09,468.945l.7-.389-.8-.068Z" transform="translate(-2713.011 -425.534)"/><path class="b" d="M2749.1,462.756a1.153,1.153,0,0,0,.6.038.46.46,0,0,0,.349-.33.448.448,0,0,0-.116-.464,1.151,1.151,0,0,0-.529-.29,1.175,1.175,0,0,0-.6-.047.452.452,0,0,0-.353.334.46.46,0,0,0,.119.466A1.145,1.145,0,0,0,2749.1,462.756Z" transform="translate(-2713.011 -425.534)"/><path class="b" d="M2763.7,450.327h.007a.335.335,0,0,0,.309-.348.322.322,0,0,0-.3-.341h-.006a.326.326,0,0,0-.309.337A.333.333,0,0,0,2763.7,450.327Z" transform="translate(-2713.011 -425.534)"/><path class="b" d="M2772.819,476.959a.271.271,0,0,0-.223.053l-.314.235.408.542.313-.236a.268.268,0,0,0,.112-.2.36.36,0,0,0-.083-.245A.37.37,0,0,0,2772.819,476.959Z" transform="translate(-2713.011 -425.534)"/><path class="b" d="M2770.777,453.088a.753.753,0,0,0,.362.108.243.243,0,0,0,.222-.1.238.238,0,0,0-.028-.241.744.744,0,0,0-.276-.257c-.245-.139-.5-.144-.583-.007S2770.533,452.948,2770.777,453.088Z" transform="translate(-2713.011 -425.534)"/><path class="b" d="M2774.448,453.521a.365.365,0,1,0-.485-.013A.347.347,0,0,0,2774.448,453.521Z" transform="translate(-2713.011 -425.534)"/><path class="b" d="M2779.075,467.25a1.14,1.14,0,0,0-.6.006.459.459,0,0,0-.323.353.451.451,0,0,0,.15.456,1.146,1.146,0,0,0,.548.25,1.179,1.179,0,0,0,.6,0,.477.477,0,0,0,.176-.815A1.161,1.161,0,0,0,2779.075,467.25Z" transform="translate(-2713.011 -425.534)"/><path class="b" d="M2778.859,463.281a.462.462,0,0,0-.286-.042.43.43,0,0,0-.268.119.255.255,0,0,0-.085.225l.059.449.772-.1-.06-.448A.25.25,0,0,0,2778.859,463.281Z" transform="translate(-2713.011 -425.534)"/><path class="b" d="M2764.015,448.534a17,17,0,1,0,17,16.989A17,17,0,0,0,2764.015,448.534Zm15.859,16.83a.264.264,0,0,0-.225-.089c-.135.007-.247.113-.332.316q-.117.277-.234.552a.553.553,0,0,1-.507.29.629.629,0,0,1-.51-.22.873.873,0,0,1-.162-.564.85.85,0,0,1,.175-.554.688.688,0,0,1,.487-.237l0,.464a.3.3,0,0,0-.207.1.377.377,0,0,0,0,.471.278.278,0,0,0,.21.089c.093,0,.177-.1.251-.3a3.093,3.093,0,0,1,.247-.557.672.672,0,0,1,.591-.295.631.631,0,0,1,.509.24.861.861,0,0,1,.174.6.9.9,0,0,1-.234.614.772.772,0,0,1-.5.213l0-.442a.37.37,0,0,0,.24-.113.417.417,0,0,0,.118-.28A.381.381,0,0,0,2779.874,465.364Zm.387-1.144-2.289.3-.121-.913a.71.71,0,0,1,.107-.513.763.763,0,0,1,.565-.3.7.7,0,0,1,.614.168.736.736,0,0,1,.218.448l.061.469.786-.1Zm-.3-1.937-2.259.485-.095-.443,2.259-.483Zm-.374-1.421-1.852.576.175.563-.353.11-.484-1.562.352-.109.175.566,1.853-.575Zm-.915-2.425-.451.38.278.643.586-.066.183.425-2.418.22-.185-.427,1.82-1.608Zm-1.053-1.047-.579-.939.326-.2.812,1.321-1.966,1.21-.233-.381Zm-4.36-4.523c.1.1.2.2.306.3a.5.5,0,0,1,.07-.515.75.75,0,0,1,1.011.118l0,0a.747.747,0,0,1,.184.995.5.5,0,0,1-.467.14c.093.083.189.163.286.242l-.243.261-.371-.345a.783.783,0,0,1-.457.051.519.519,0,0,1-.151-.037,1.747,1.747,0,0,1-.256-.128l.2.188.039.036-.289.311c-.005.005-.005.005-.005.015l.015.014.778.726.28-.3-.428-.4.243-.261.428.4,1.014-1.088.381.356-1.795,1.925-1.218-1.136-.157-.145a.261.261,0,0,1,0-.4l.243-.26c.03-.021.062-.1.02-.142l-.248-.231.205-.22c.239.214.385.315.559.326a.807.807,0,0,0,.14-.024l-.556-.518Zm-3.266-.554a.631.631,0,0,1,.642-.234,1.659,1.659,0,0,1,.606.206,1.751,1.751,0,0,1,.3.216,1.209,1.209,0,0,1,.137.141l.2-.348-.163-.093-.153-.087-.077.144-.171-.1-.545-.311-.389-.218a.33.33,0,0,1-.136-.489l.454-.8.434.248-.11.191.266.152.267.153.109-.193.279.16.155.088-.11.192.165.094.164.094.117-.205.446.254q-.494.866-.956,1.676a1.375,1.375,0,0,1-.089.134.771.771,0,0,1-.889.163,1.739,1.739,0,0,1-.339-.148,1.643,1.643,0,0,1-.485-.416A.63.63,0,0,1,2769.988,452.313Zm-3.6-1.035.45.115.272-1.064.442.113-.272,1.064.264.068.273-1.065.438.113-.272,1.064.32.082.425-1.659-1.721-.44.092-.363,1.876.48a.375.375,0,0,1,.27.456l-.006.027-.417,1.631.228.058-.094.367-2.661-.681Zm-1.538-2.161.535,0,0,.481.346,0,0,.375-.346,0,0,.745-.535,0Zm-1.809,2.146,0-.374,1.958.013a.379.379,0,0,1,.368.377v.028l0,.512-.535,0,0-.54Zm-.339-2,.759.006,0-.277.528,0,0,.277.675,0,0,.371-.328,0a.557.557,0,0,1,.208.376c.046.371-.394.664-.832.661h-.015c-.482,0-.882-.331-.83-.673a.531.531,0,0,1,.209-.373l-.374,0Zm-2.629.3.081.375-.452.1.317,1.331.659-.158-.373-1.755.5-.106.168.789.265-.057-.168-.788.5-.106.554,2.6-.5.106-.307-1.441-.265.057.307,1.44-.5.106-.1-.475-.816.192a.376.376,0,0,1-.433-.3l0-.007-.406-1.676Zm-2.369.689.2.384.325-.164.169.335-.325.164.833,1.646-.949.479-.611.309a.368.368,0,0,1-.5-.158l0-.007-.373-.738.945-.478.468-.237-.654-1.292Zm-1.728.937.349.689.989-.5.171.337-1.13.572a.374.374,0,0,1-.5-.161l0-.006-.348-.688Zm-1.6.948,1.678,1.934.061.07-1.15,1-.183.158a.374.374,0,0,1-.533-.038l-.377-.433.407-.353.376.434.062-.054.747-.647-.86-.993-.316.275-.248-.286.315-.273-.383-.443Zm-1.32,1.221,0,0,.639-.554.241.277-.434.376c.358.412.7.419.97.193l.235.283a1.214,1.214,0,0,0-1.32,1.145l-.246-.273c.265-.239.307-.578-.054-.987l-.434.376-.24-.277Zm10.957-1.149a13.317,13.317,0,1,1-13.317,13.308A13.319,13.319,0,0,1,2764.015,452.217Zm-14.22,5.3a.8.8,0,0,1,.669-.369,1.424,1.424,0,0,1,.856.252,1.407,1.407,0,0,1,.572.671.8.8,0,0,1-.056.762.768.768,0,0,1-.575.358,1.034,1.034,0,0,1-.582-.086l.241-.374q.432.174.607-.1a.4.4,0,0,0-.027-.45,1.314,1.314,0,0,0-.423-.407,1.294,1.294,0,0,0-.554-.22.4.4,0,0,0-.418.161.364.364,0,0,0,0,.381.911.911,0,0,0,.187.239l-.244.377a1.074,1.074,0,0,1-.348-.52A.778.778,0,0,1,2749.795,457.514Zm-1.09,2.5.944.374.273-.69-.943-.374.165-.415,2.145.851-.164.415-.857-.34-.274.689.857.34-.165.416-2.145-.852Zm-.613,1.871a.877.877,0,0,1,.57-.612,1.558,1.558,0,0,1,1.612.475.928.928,0,0,1-.419,1.43,1.556,1.556,0,0,1-1.614-.47A.876.876,0,0,1,2748.092,461.889Zm-.335,2.832,1.595-.61L2747.81,464l.032-.446,2.308.17-.037.514-1.595.61,1.541.113-.032.446-2.307-.169Zm.051,2.327,1.481-.849-1.541.127-.036-.446,2.306-.188.042.513-1.482.849,1.541-.126.037.445-2.3.19Zm.427,2.379.514-.287-.151-.685-.588-.045-.1-.453,2.417.241.1.454-2.091,1.237Zm.819,2.458,1.272-.5-1.44.076-.126-.321,1.1-.931-1.269.5-.155-.389,2.147-.849.2.509-1.2,1.02,1.576-.075.2.505-2.147.847Zm1.554,2.876.886-1.461-1.288.856-.248-.372,1.927-1.281.286.429-.886,1.46,1.287-.855.248.372-1.926,1.28Zm1.536,1.89.317-.5-.456-.533-.539.237-.3-.351,2.244-.927.3.353-1.262,2.076Zm.8.832,1.289-1.451-.442-.391.245-.277,1.223,1.087-.245.276-.443-.394-1.289,1.45Zm1.023.846,1.4-1.836.359.274-1.4,1.836Zm2.439,1.218a.935.935,0,0,1-1.332-.68,1.549,1.549,0,0,1,.766-1.495.927.927,0,0,1,1.328.676,1.558,1.558,0,0,1-.762,1.5Zm1.562,1.136-.071-1.706-.6,1.426-.412-.173.9-2.134.476.2.07,1.706.6-1.425.412.173-.895,2.133Zm2.383.713-.018-.589-.676-.183-.313.5L2758.9,481l1.334-2.028.45.122.125,2.426Zm2.516.385-1.539-.188.282-2.291.443.055-.235,1.911,1.1.134Zm2.336-.177a.859.859,0,0,1-1.2.045.99.99,0,0,1-.239-.668l-.051-1.448.447-.017.053,1.521a.567.567,0,0,0,.113.34.335.335,0,0,0,.541-.019.571.571,0,0,0,.088-.347l-.054-1.52.446-.016.052,1.449A.991.991,0,0,1,2765.2,481.6Zm2.066-.1-.988-1.393.274,1.522-.44.079-.41-2.277.508-.091.988,1.392-.274-1.521.44-.079.41,2.277Zm.993-.24-.644-2.22.435-.126.643,2.22Zm1.442-.5-1.512-1.872.431-.177,1.095,1.451-.254-1.8.425-.177.266,2.389Zm1.47-.606-1.1-2.027,1.31-.714.175.321-.917.5.28.515.816-.445.164.3-.817.445.31.567.941-.513.177.323Zm2.809-1.756a.738.738,0,0,1-.188-.168c-.006-.006-.044-.059-.114-.155a.937.937,0,0,0-.127-.142c-.14-.117-.264-.136-.373-.053l-.268.2.54.715-.362.272-1.39-1.845.659-.5q.594-.449,1,.075a.57.57,0,0,1,.027.713.452.452,0,0,1,.39.037,2.623,2.623,0,0,1,.364.415.62.62,0,0,0,.2.166Zm1.507-1.229a.9.9,0,0,1-.59.287.774.774,0,0,1-.509-.183l.3-.319a.383.383,0,0,0,.253.08.415.415,0,0,0,.278-.124.381.381,0,0,0,.134-.28.268.268,0,0,0-.1-.219c-.1-.088-.259-.086-.461,0q-.273.125-.547.244a.551.551,0,0,1-.568-.134.624.624,0,0,1-.223-.507.876.876,0,0,1,.267-.524.852.852,0,0,1,.5-.286.682.682,0,0,1,.518.16l-.319.335a.3.3,0,0,0-.217-.071.382.382,0,0,0-.322.344.279.279,0,0,0,.093.208c.068.065.2.049.386-.047a3.188,3.188,0,0,1,.562-.238.673.673,0,0,1,.634.188.627.627,0,0,1,.206.522A.858.858,0,0,1,2775.489,477.17Zm.8-.951-1.776-1.479.289-.348,1.776,1.479Zm.878-1.1-1.581-1.125-.342.481-.3-.213.948-1.333.3.214-.344.483,1.581,1.124Zm1.1-1.734-.731-.389-1.627-.092.237-.445,1.068.106-.683-.829.237-.444.981,1.3.731.389Zm1.4-3.425-.972-.292-.214.709.972.293-.128.429-2.21-.667.129-.428.882.266.214-.71-.882-.266.129-.428,2.21.666Zm.485-1.918a.878.878,0,0,1-.523.653,1.556,1.556,0,0,1-1.643-.357.928.928,0,0,1,.313-1.456,1.556,1.556,0,0,1,1.644.351A.876.876,0,0,1,2780.149,468.039Z" transform="translate(-2713.011 -425.534)"/><path class="b" d="M2777.919,459.072l-.614.514.8-.084Z" transform="translate(-2713.011 -425.534)"/><path class="b" d="M2772.145,451.814l-.165-.094-.164-.094-.12.21.164.094.165.094Z" transform="translate(-2713.011 -425.534)"/><path class="b" d="M2770.85,451.076l-.173.3.267.152.266.152.173-.3-.266-.152Z" transform="translate(-2713.011 -425.534)"/></svg>